<svg width="189" height="189" viewBox="0 0 189 189" fill="none" xmlns="http://www.w3.org/2000/svg">
<mask id="mask0_887_3133" style="mask-type:alpha" maskUnits="userSpaceOnUse" x="0" y="0" width="189" height="189">
<circle cx="94.5" cy="94.5" r="94.5" fill="#ECE3FF"/>
</mask>
<g mask="url(#mask0_887_3133)">
<path d="M46.1147 117.105L17 87.9899L46.1147 58.8751L75.2295 87.9899L46.1147 117.105ZM72.2434 188.772V151.445C64.6536 150.823 57.1261 149.921 49.6608 148.739C42.1954 147.557 34.7923 145.971 27.4514 143.98L31.1841 129.049C41.6356 131.911 52.1181 133.87 62.6318 134.928C73.1454 135.986 83.8146 136.514 94.6393 136.514C105.464 136.514 116.133 135.986 126.647 134.928C137.161 133.87 147.643 131.911 158.095 129.049L161.827 143.98C154.486 145.971 147.083 147.557 139.618 148.739C132.153 149.921 124.625 150.823 117.035 151.445V188.772H72.2434ZM46.1147 96.2017L54.3266 87.9899L46.1147 79.778L37.9029 87.9899L46.1147 96.2017ZM78.7755 70.2598C74.4207 65.905 72.2434 60.6171 72.2434 54.396C72.2434 48.1749 74.4207 42.8869 78.7755 38.5322C83.1303 34.1774 88.4182 32 94.6393 32C100.86 32 106.148 34.1774 110.503 38.5322C114.858 42.8869 117.035 48.1749 117.035 54.396C117.035 60.6171 114.858 65.905 110.503 70.2598C106.148 74.6145 100.86 76.7919 94.6393 76.7919C88.4182 76.7919 83.1303 74.6145 78.7755 70.2598ZM84.0946 124.663C81.1706 121.739 79.7087 118.224 79.7087 114.118C79.7087 110.013 81.1706 106.498 84.0946 103.574C87.0185 100.65 90.5334 99.1879 94.6393 99.1879C98.7452 99.1879 102.26 100.65 105.184 103.574C108.108 106.498 109.57 110.013 109.57 114.118C109.57 118.224 108.108 121.739 105.184 124.663C102.26 127.587 98.7452 129.049 94.6393 129.049C90.5334 129.049 87.0185 127.587 84.0946 124.663ZM99.9584 59.715C101.389 58.2841 102.105 56.5111 102.105 54.396C102.105 52.2808 101.389 50.5078 99.9584 49.0769C98.5275 47.6461 96.7545 46.9306 94.6393 46.9306C92.5241 46.9306 90.7511 47.6461 89.3203 49.0769C87.8894 50.5078 87.174 52.2808 87.174 54.396C87.174 56.5111 87.8894 58.2841 89.3203 59.715C90.7511 61.1458 92.5241 61.8613 94.6393 61.8613C96.7545 61.8613 98.5275 61.1458 99.9584 59.715ZM132.339 114.118L119.648 91.7225L132.339 69.3266H157.721L170.412 91.7225L157.721 114.118H132.339ZM140.924 99.1879H149.136L153.242 91.7225L149.136 84.2572H140.924L136.818 91.7225L140.924 99.1879Z" fill="#9E75FF"/>
</g>
</svg>
