<svg width="189" height="189" viewBox="0 0 189 189" fill="none" xmlns="http://www.w3.org/2000/svg">
<circle cx="94.5" cy="94.5" r="94.5" fill="#ECE3FF"/>
<path d="M76.2188 151C71.9062 151 68.0391 149.873 64.6172 147.618C61.1953 145.364 58.5469 142.264 56.6719 138.318C55.1719 140.291 53.2734 141.817 50.9766 142.898C48.6797 143.978 46.3125 144.518 43.875 144.518C39.0937 144.518 35.0859 142.874 31.8516 139.586C28.6172 136.298 27 132.306 27 127.609C27 123.57 28.3125 119.93 30.9375 116.689C33.5625 113.448 36.8906 111.592 40.9219 111.123C39.6094 109.244 38.6016 107.248 37.8984 105.134C37.1953 103.02 36.8438 100.789 36.8438 98.4409C36.8438 94.6833 37.8047 91.1606 39.7266 87.8727C41.6484 84.5849 44.3438 81.9076 47.8125 79.8409C48.2812 81.5318 48.9141 83.3402 49.7109 85.2659C50.5078 87.1917 51.4219 88.8591 52.4531 90.2682C51.1406 91.3015 50.1094 92.5462 49.3594 94.0023C48.6094 95.4583 48.2344 96.9849 48.2344 98.5818C48.2344 103.842 50.3906 107.083 54.7031 108.305C59.0156 109.526 63.0938 110.512 66.9375 111.264L69.6094 115.773C68.5781 118.779 67.6875 121.339 66.9375 123.452C66.1875 125.566 65.8125 127.468 65.8125 129.159C65.8125 131.977 66.8203 134.443 68.8359 136.557C70.8516 138.67 73.3125 139.727 76.2188 139.727C79.7812 139.727 82.7344 138.13 85.0781 134.936C87.4219 131.742 89.3438 127.985 90.8438 123.664C92.3438 119.342 93.4922 114.974 94.2891 110.559C95.0859 106.144 95.7188 102.762 96.1875 100.414L107.156 103.373C106.312 107.6 105.281 112.438 104.062 117.886C102.844 123.335 101.133 128.525 98.9297 133.457C96.7266 138.389 93.8203 142.545 90.2109 145.927C86.6016 149.309 81.9375 151 76.2188 151ZM43.875 133.245C45.4688 133.245 46.8047 132.705 47.8828 131.625C48.9609 130.545 49.5 129.206 49.5 127.609C49.5 126.012 48.9609 124.673 47.8828 123.593C46.8047 122.513 45.4688 121.973 43.875 121.973C42.2812 121.973 40.9453 122.513 39.8672 123.593C38.7891 124.673 38.25 126.012 38.25 127.609C38.25 129.206 38.7891 130.545 39.8672 131.625C40.9453 132.705 42.2812 133.245 43.875 133.245ZM83.8125 110.982C79.5 107.13 75.5859 103.537 72.0703 100.202C68.5547 96.8674 65.5312 93.6265 63 90.4795C60.4688 87.3326 58.5234 84.1856 57.1641 81.0386C55.8047 77.8917 55.125 74.6273 55.125 71.2455C55.125 65.1394 57.2109 59.9962 61.3828 55.8159C65.5547 51.6356 70.6875 49.5455 76.7812 49.5455C77.1562 49.5455 77.4844 49.5689 77.7656 49.6159C78.0469 49.6629 78.375 49.6864 78.75 49.6864C78.375 48.747 78.0938 47.8076 77.9062 46.8682C77.7188 45.9288 77.625 44.9424 77.625 43.9091C77.625 39.2121 79.2656 35.2197 82.5469 31.9318C85.8281 28.6439 89.8125 27 94.5 27C99.1875 27 103.172 28.6439 106.453 31.9318C109.734 35.2197 111.375 39.2121 111.375 43.9091C111.375 44.9424 111.281 45.9053 111.094 46.7977C110.906 47.6902 110.625 48.6061 110.25 49.5455H112.219C117.844 49.5455 122.625 51.3538 126.562 54.9705C130.5 58.5871 132.844 63.0727 133.594 68.4273C131.906 68.1455 130.008 68.0045 127.898 68.0045C125.789 68.0045 123.844 68.0985 122.062 68.2864C121.406 66.1258 120.211 64.3409 118.477 62.9318C116.742 61.5227 114.656 60.8182 112.219 60.8182C108.938 60.8182 106.383 61.7811 104.555 63.7068C102.727 65.6326 100.219 68.4273 97.0312 72.0909H91.8281C88.5469 68.2394 85.9922 65.3977 84.1641 63.5659C82.3359 61.7341 79.875 60.8182 76.7812 60.8182C73.7812 60.8182 71.2969 61.8045 69.3281 63.7773C67.3594 65.75 66.375 68.2394 66.375 71.2455C66.375 73.4061 66.9844 75.6371 68.2031 77.9386C69.4219 80.2402 71.1328 82.6826 73.3359 85.2659C75.5391 87.8492 78.2109 90.597 81.3516 93.5091C84.4922 96.4212 87.9844 99.5682 91.8281 102.95L83.8125 110.982ZM98.5078 47.925C99.5859 46.8447 100.125 45.5061 100.125 43.9091C100.125 42.3121 99.5859 40.9735 98.5078 39.8932C97.4297 38.8129 96.0938 38.2727 94.5 38.2727C92.9062 38.2727 91.5703 38.8129 90.4922 39.8932C89.4141 40.9735 88.875 42.3121 88.875 43.9091C88.875 45.5061 89.4141 46.8447 90.4922 47.925C91.5703 49.0053 92.9062 49.5455 94.5 49.5455C96.0938 49.5455 97.4297 49.0053 98.5078 47.925ZM112.641 151C110.578 151 108.539 150.718 106.523 150.155C104.508 149.591 102.562 148.698 100.688 147.477C101.719 146.162 102.75 144.612 103.781 142.827C104.812 141.042 105.75 139.398 106.594 137.895C107.625 138.553 108.656 139.023 109.688 139.305C110.719 139.586 111.75 139.727 112.781 139.727C115.781 139.727 118.289 138.67 120.305 136.557C122.32 134.443 123.328 131.93 123.328 129.018C123.328 127.233 122.953 125.308 122.203 123.241C121.453 121.174 120.562 118.638 119.531 115.632L122.203 111.123C126.141 110.371 130.242 109.385 134.508 108.164C138.773 106.942 140.906 103.702 140.906 98.4409C140.906 94.6833 139.523 91.9591 136.758 90.2682C133.992 88.5773 130.969 87.7318 127.688 87.7318C123.75 87.7318 119.156 88.4833 113.906 89.9864C108.656 91.4894 102.516 93.4152 95.4844 95.7636L92.5312 84.7727C99.8438 82.4242 106.359 80.4515 112.078 78.8545C117.797 77.2576 123.047 76.4591 127.828 76.4591C134.297 76.4591 139.969 78.3848 144.844 82.2364C149.719 86.0879 152.156 91.4894 152.156 98.4409C152.156 100.789 151.805 103.02 151.102 105.134C150.398 107.248 149.391 109.244 148.078 111.123C152.109 111.592 155.438 113.448 158.062 116.689C160.688 119.93 162 123.57 162 127.609C162 132.306 160.383 136.298 157.148 139.586C153.914 142.874 149.906 144.518 145.125 144.518C142.687 144.518 140.32 143.978 138.023 142.898C135.727 141.817 133.828 140.291 132.328 138.318C130.453 142.264 127.805 145.364 124.383 147.618C120.961 149.873 117.047 151 112.641 151ZM149.203 131.625C150.234 130.545 150.75 129.206 150.75 127.609C150.75 126.012 150.211 124.65 149.133 123.523C148.055 122.395 146.719 121.832 145.125 121.832C143.531 121.832 142.195 122.372 141.117 123.452C140.039 124.533 139.5 125.871 139.5 127.468C139.5 129.065 140.062 130.427 141.188 131.555C142.312 132.682 143.672 133.245 145.266 133.245C146.859 133.245 148.172 132.705 149.203 131.625Z" fill="#9E75FF"/>
</svg>
