<svg width="189" height="189" viewBox="0 0 189 189" fill="none" xmlns="http://www.w3.org/2000/svg">
<circle cx="94.5" cy="94.5" r="94.5" fill="#FFDEDE"/>
<path d="M39 136V119.025C39 115.59 39.8912 112.432 41.6736 109.552C43.456 106.673 45.8241 104.475 48.7778 102.959C55.0926 99.8271 61.5093 97.4779 68.0278 95.9117C74.5463 94.3456 81.1667 93.5625 87.8889 93.5625H90.0278C88.9074 95.3812 88.0671 97.3263 87.5069 99.3977C86.9468 101.469 86.6667 103.566 86.6667 105.688C81.1667 105.789 75.6921 106.521 70.2431 107.885C64.794 109.249 59.4722 111.245 54.2778 113.872C53.3611 114.377 52.6227 115.084 52.0625 115.994C51.5023 116.903 51.2222 117.914 51.2222 119.025V123.875H94.4583L106.681 136H39ZM70.625 80.3766C65.838 75.6276 63.4444 69.9187 63.4444 63.25C63.4444 56.5812 65.838 50.8724 70.625 46.1234C75.412 41.3745 81.1667 39 87.8889 39C94.6111 39 100.366 41.3745 105.153 46.1234C109.94 50.8724 112.333 56.5812 112.333 63.25C112.333 69.9187 109.94 75.6276 105.153 80.3766C100.366 85.1255 94.6111 87.5 87.8889 87.5C81.1667 87.5 75.412 85.1255 70.625 80.3766ZM96.5208 71.8133C98.9144 69.4388 100.111 66.5844 100.111 63.25C100.111 59.9156 98.9144 57.0612 96.5208 54.6867C94.1273 52.3122 91.25 51.125 87.8889 51.125C84.5278 51.125 81.6505 52.3122 79.2569 54.6867C76.8634 57.0612 75.6667 59.9156 75.6667 63.25C75.6667 66.5844 76.8634 69.4388 79.2569 71.8133C81.6505 74.1878 84.5278 75.375 87.8889 75.375C91.25 75.375 94.1273 74.1878 96.5208 71.8133ZM123.944 136L102.556 114.781C101.231 113.468 100.289 112.053 99.7292 110.537C99.169 109.022 98.8889 107.506 98.8889 105.991C98.8889 102.757 100.06 99.8776 102.403 97.3516C104.745 94.8255 107.75 93.5625 111.417 93.5625C114.269 93.5625 116.509 94.2193 118.139 95.5328C119.769 96.8464 121.704 98.6146 123.944 100.837C125.981 98.8167 127.84 97.099 129.521 95.6844C131.201 94.2698 133.519 93.5625 136.472 93.5625C140.241 93.5625 143.271 94.8508 145.562 97.4273C147.854 100.004 149 102.909 149 106.142C149 107.658 148.694 109.173 148.083 110.689C147.472 112.205 146.556 113.569 145.333 114.781L123.944 136Z" fill="#FF5C5C"/>
</svg>
