<svg width="189" height="189" viewBox="0 0 189 189" fill="none" xmlns="http://www.w3.org/2000/svg">
<circle cx="94.5" cy="94.5" r="94.5" fill="#ECE3FF"/>
<path d="M125.595 146.689C124.768 146.481 123.992 146.118 123.268 145.599L104.653 134.703C103.205 133.873 102.093 132.758 101.317 131.357C100.542 129.956 100.154 128.425 100.154 126.765V104.818C100.154 103.158 100.542 101.627 101.317 100.226C102.093 98.8253 103.205 97.7097 104.653 96.8796L123.268 85.9838C123.992 85.465 124.768 85.1018 125.595 84.8943C126.422 84.6867 127.25 84.583 128.077 84.583C128.904 84.583 129.706 84.7127 130.481 84.9721C131.257 85.2315 132.007 85.5688 132.731 85.9838L151.346 96.8796C152.794 97.7097 153.932 98.8253 154.759 100.226C155.586 101.627 156 103.158 156 104.818V126.765C156 128.425 155.586 129.956 154.759 131.357C153.932 132.758 152.794 133.873 151.346 134.703L132.731 145.599C132.007 146.014 131.257 146.351 130.481 146.611C129.706 146.87 128.904 147 128.077 147C127.25 147 126.422 146.896 125.595 146.689ZM67.1115 83.4934C62.2509 78.6162 59.8205 72.7533 59.8205 65.9046C59.8205 59.0558 62.2509 53.1929 67.1115 48.3157C71.9722 43.4386 77.8154 41 84.641 41C91.4667 41 97.3098 43.4386 102.171 48.3157C107.031 53.1929 109.462 59.0558 109.462 65.9046C109.462 72.7533 107.031 78.6162 102.171 83.4934C97.3098 88.3705 91.4667 90.8091 84.641 90.8091C77.8154 90.8091 71.9722 88.3705 67.1115 83.4934ZM35 140.618V123.185C35 119.761 35.8791 116.544 37.6372 113.535C39.3953 110.525 41.8256 108.242 44.9282 106.686C50.2026 103.988 56.1491 101.705 62.768 99.837C69.3868 97.9692 76.6778 97.0352 84.641 97.0352H86.8128C87.4333 97.0352 88.0538 97.139 88.6744 97.3465C87.847 99.2144 87.1489 101.16 86.5801 103.184C86.0113 105.207 85.5718 107.308 85.2615 109.488H84.641C77.2983 109.488 70.7053 110.421 64.8622 112.289C59.019 114.157 54.2359 116.025 50.5128 117.893C49.5821 118.412 48.8323 119.138 48.2635 120.072C47.6947 121.006 47.4103 122.044 47.4103 123.185V128.166H86.5026C87.1231 130.345 87.9504 132.498 88.9846 134.626C90.0188 136.753 91.1564 138.75 92.3974 140.618H35ZM93.4058 74.699C95.8361 72.2604 97.0513 69.3289 97.0513 65.9046C97.0513 62.4802 95.8361 59.5487 93.4058 57.1101C90.9754 54.6716 88.0538 53.4523 84.641 53.4523C81.2282 53.4523 78.3066 54.6716 75.8763 57.1101C73.4459 59.5487 72.2308 62.4802 72.2308 65.9046C72.2308 69.3289 73.4459 72.2604 75.8763 74.699C78.3066 77.1375 81.2282 78.3568 84.641 78.3568C88.0538 78.3568 90.9754 77.1375 93.4058 74.699ZM113.495 102.327L128.077 110.888L142.659 102.327L128.077 93.9222L113.495 102.327ZM132.731 134.703L146.692 126.609V109.488L132.731 117.737V134.703ZM109.462 126.609L123.423 134.859V117.893L109.462 109.643V126.609Z" fill="#9E75FF"/>
</svg>
