<svg width="189" height="189" viewBox="0 0 189 189" fill="none" xmlns="http://www.w3.org/2000/svg">
<circle cx="94.5" cy="94.5" r="94.5" fill="#D5F3EF"/>
<path d="M92.625 136.778H39V119.667C39 116.204 39.8912 113.021 41.6736 110.118C43.456 107.215 45.8241 105 48.7778 103.472C55.0926 100.315 61.5093 97.9468 68.0278 96.3681C74.5463 94.7894 81.1667 94 87.8889 94V106.222C82.1852 106.222 76.5324 106.91 70.9306 108.285C65.3287 109.66 59.7778 111.722 54.2778 114.472C53.3611 114.981 52.6227 115.694 52.0625 116.611C51.5023 117.528 51.2222 118.546 51.2222 119.667V124.556H88.6528C89.0602 126.694 89.5949 128.782 90.2569 130.819C90.919 132.856 91.7083 134.843 92.625 136.778ZM124.556 149C117.12 147.167 111.188 143.093 106.757 136.778C102.326 130.463 100.111 123.435 100.111 115.694V100.111L124.556 87.8889L149 100.111V115.694C149 123.435 146.785 130.463 142.354 136.778C137.924 143.093 131.991 147.167 124.556 149ZM124.556 136.167C128.426 134.333 131.431 131.532 133.569 127.764C135.708 123.995 136.778 119.972 136.778 115.694V107.75L124.556 101.639L112.333 107.75V115.694C112.333 119.972 113.403 123.995 115.542 127.764C117.681 131.532 120.685 134.333 124.556 136.167ZM70.625 80.7083C65.838 75.9213 63.4444 70.1667 63.4444 63.4444C63.4444 56.7222 65.838 50.9676 70.625 46.1806C75.412 41.3935 81.1667 39 87.8889 39C94.6111 39 100.366 41.3935 105.153 46.1806C109.94 50.9676 112.333 56.7222 112.333 63.4444C112.333 70.1667 109.94 75.9213 105.153 80.7083C100.366 85.4954 94.6111 87.8889 87.8889 87.8889C81.1667 87.8889 75.412 85.4954 70.625 80.7083ZM96.5208 72.0764C98.9143 69.6829 100.111 66.8056 100.111 63.4444C100.111 60.0833 98.9143 57.206 96.5208 54.8125C94.1273 52.419 91.25 51.2222 87.8889 51.2222C84.5278 51.2222 81.6505 52.419 79.2569 54.8125C76.8634 57.206 75.6667 60.0833 75.6667 63.4444C75.6667 66.8056 76.8634 69.6829 79.2569 72.0764C81.6505 74.4699 84.5278 75.6667 87.8889 75.6667C91.25 75.6667 94.1273 74.4699 96.5208 72.0764Z" fill="#2CC4AE"/>
</svg>
