<svg width="40" height="40" viewBox="0 0 40 40" fill="none" xmlns="http://www.w3.org/2000/svg">
<g clip-path="url(#clip0_1917_476)">
<path fill-rule="evenodd" clip-rule="evenodd" d="M39.9135 12.443C39.5868 9.76998 38.6282 7.21323 37.1165 4.9846C36.397 4.14982 35.5937 3.39112 34.7192 2.72045C33.2542 1.65495 11.3451 1.7382 6.03426 2.5706C5.89656 2.60362 5.77625 2.68703 5.69703 2.8044C5.61781 2.92177 5.58548 3.06457 5.60638 3.20462C5.62728 3.34467 5.69991 3.47178 5.80995 3.56092C5.91998 3.65003 6.05941 3.69468 6.20075 3.68603C7.46601 3.51955 9.33061 3.40302 11.4782 3.33643C10.6098 5.83368 10.0507 8.42795 9.81341 11.0612L7.29953 11.6439C5.38498 11.8104 3.60363 11.3442 1.62248 11.7604C2.33825 9.2622 3.2627 6.82855 4.3861 4.48515C4.41376 4.36615 4.39685 4.24113 4.33856 4.13375C4.28028 4.02638 4.18465 3.94408 4.06978 3.90247C3.65356 3.75263 3.3539 4.0523 2.77121 5.41745C1.4227 8.53068 -0.192174 11.6439 0.124143 14.857C0.590293 19.7183 6.50041 20.7838 9.41386 16.7383L9.81341 16.1389C9.83435 16.7303 9.97403 17.3113 10.2241 17.8476C10.4742 18.3838 10.8296 18.8643 11.2692 19.2603C11.7088 19.6565 12.2235 19.9601 12.7828 20.1531C13.3421 20.3461 13.9346 20.4248 14.5249 20.3843C15.6913 20.3391 16.8238 19.9795 17.8025 19.3436C18.7813 18.7076 19.5702 17.819 20.0853 16.7716C22.0165 21.2666 28.0432 22.665 29.9245 16.7716C30.678 17.7806 31.7502 18.506 32.9672 18.83C34.1842 19.154 35.475 19.0578 36.6305 18.5571C37.7862 18.0563 38.7388 17.1803 39.3347 16.0707C39.9305 14.9611 40.1343 13.6829 39.9135 12.443ZM27.6603 3.51955C27.6918 6.07162 27.892 8.61882 28.2597 11.1445C26.9112 11.1445 22.0665 11.0279 21.001 10.978C21.1925 8.42327 21.1925 5.85783 21.001 3.30313C23.3652 3.31978 25.6625 3.41967 27.6603 3.51955ZM12.6769 3.31978H19.9355C19.4957 5.82697 19.2617 8.366 19.2363 10.9114C14.9411 10.6283 13.6259 10.312 11.6947 10.695C11.9777 9.1966 12.6769 3.31978 12.6769 3.31978ZM9.34726 14.0745C8.31508 15.6395 7.68245 17.0213 6.01761 17.6373C5.52073 17.8578 4.97738 17.9535 4.43505 17.9156C3.89271 17.8778 3.36788 17.7078 2.9064 17.4205C2.44491 17.133 2.06083 16.7369 1.78768 16.2669C1.51454 15.7969 1.36066 15.2671 1.33946 14.7238C1.25674 14.0772 1.25674 13.4226 1.33946 12.776C1.38349 12.7841 1.42863 12.7841 1.47265 12.776C3.25401 12.4597 5.45158 13.0923 7.39943 12.9758L9.66358 12.6927C9.68893 13.1611 9.60338 13.6288 9.41386 14.0579L9.34726 14.0745ZM18.2707 16.3054C16.8557 18.786 13.2762 19.5185 11.9943 17.4708C11.2695 15.9126 11.0316 14.1719 11.3118 12.4763C14.3084 12.0934 14.8245 12.5762 19.2697 12.726C19.3528 14.1411 19.536 13.4586 18.2707 16.3054ZM25.9622 18.7361C25.1213 18.763 24.291 18.5441 23.5725 18.1066C22.854 17.669 22.2787 17.0315 21.9167 16.2721C21.5338 15.5895 21.384 14.5074 20.7013 13.8581C20.5515 13.7749 20.5515 13.9747 20.7013 12.8093C23.2485 12.8093 25.1632 12.8093 28.4927 12.6262C28.8757 14.6239 27.8102 18.453 25.9455 18.7361H25.9622ZM37.7325 14.9735C37.4753 15.488 37.1037 15.9366 36.6462 16.2849C36.1885 16.6333 35.6572 16.8721 35.0928 16.983C34.5285 17.094 33.9463 17.0739 33.391 16.9248C32.8355 16.7756 32.3217 16.501 31.889 16.1223C30.8268 15.2181 30.163 13.9324 30.041 12.5429L33.97 12.3764C34.1202 12.3764 34.2642 12.3168 34.3703 12.2106C34.4763 12.1045 34.536 11.9605 34.536 11.8104C34.536 11.6602 34.4763 11.5163 34.3703 11.4101C34.2642 11.304 34.1202 11.2443 33.97 11.2443H30.0077C29.8588 8.6839 29.4743 6.14262 28.859 3.65275C30.5238 3.75263 31.8057 3.85252 32.738 3.96907C33.2208 3.96907 33.687 4.33532 33.7868 4.18548C35.3575 5.2804 36.5268 6.859 37.1165 8.68052C37.8158 10.7282 38.5982 12.9425 37.7325 14.9735Z" fill="#FF5C5C"/>
<path fill-rule="evenodd" clip-rule="evenodd" d="M5.03524 24.0467C4.94565 23.99 4.84324 23.9567 4.7374 23.9499C4.63157 23.9429 4.52572 23.9629 4.42957 24.0075C4.33342 24.0524 4.25007 24.1205 4.18717 24.2059C4.12427 24.2914 4.08387 24.3912 4.06964 24.4962C4.06964 24.6295 3.60349 29.0912 3.67009 30.3065C3.67009 31.0057 3.67009 31.7215 4.28607 32.0879C7.08297 33.6029 10.4459 32.6205 13.2095 32.9369C14.4914 33.0535 16.3227 33.4197 17.0885 32.2877C17.6214 31.5052 17.1884 30.1734 17.1719 29.4907C17.1719 26.8104 17.6214 22.615 15.507 22.3654C15.507 22.3654 10.5125 22.4652 8.98087 22.2487C7.76432 22.2329 6.54904 22.3332 5.35155 22.5484C5.23897 22.5894 5.14417 22.6684 5.08342 22.7717C5.02267 22.8749 4.99975 22.9962 5.01859 23.1145C5.15177 24.1965 7.01637 23.1145 8.78109 23.5307C9.23059 23.5307 9.6801 23.6639 10.1296 23.7139C10.0131 24.4962 9.86322 25.8282 9.82994 26.7937C8.19462 26.7824 6.56175 26.9217 4.952 27.2099V26.6772C5.08519 23.8802 5.13512 24.1965 5.03524 24.0467ZM15.5902 31.2887C15.507 31.5219 13.709 31.0724 13.3927 31.039H11.3782C11.5057 30.2455 11.5836 29.4449 11.6113 28.6417C15.0575 28.4085 15.0408 28.5419 15.2906 28.4919C15.1902 29.4349 15.2923 30.3884 15.5902 31.2887ZM15.2406 24.0467C15.4015 25.121 15.4462 26.2094 15.3738 27.2932C14.1392 27.0135 12.8771 26.8739 11.6113 26.877C11.5117 25.8417 11.3505 24.8132 11.1285 23.797C14.8078 24.0467 14.9409 24.3464 15.2406 24.0467ZM9.94647 28.6917C9.94647 29.0745 10.0464 29.474 10.0797 29.857C10.2794 31.1222 10.2794 31.0224 10.2461 31.1722C8.47874 31.4785 6.66375 31.3587 4.952 30.8225V28.2255C5.10184 28.292 9.0641 28.6584 9.94647 28.6917Z" fill="#FF5C5C"/>
<path fill-rule="evenodd" clip-rule="evenodd" d="M24.4301 30.5568C22.9818 29.8743 22.7653 34.053 24.0139 34.053C24.1641 34.053 24.3081 33.9933 24.4141 33.8871C24.5203 33.781 24.5799 33.637 24.5799 33.487C25.1793 31.6223 24.5633 30.6235 24.4301 30.5568Z" fill="#FF5C5C"/>
<path fill-rule="evenodd" clip-rule="evenodd" d="M21.7164 34.702C21.8663 33.0372 22.0328 30.956 22.3158 29.2914C22.4618 28.2664 22.9773 27.3302 23.7653 26.6587C24.5531 25.9872 25.5593 25.6269 26.5944 25.6454C30.4234 25.5289 30.5401 29.824 31.0228 33.2869C31.2393 35.0349 32.8374 35.4345 32.6876 33.2869C32.5378 31.1392 32.1716 29.8074 32.0883 29.491C31.7793 27.8419 31.0316 26.3064 29.9241 25.046C28.8741 24.1842 27.5486 23.73 26.1909 23.7667C24.8331 23.8034 23.5341 24.3285 22.5323 25.2457C20.6178 26.9105 20.4013 28.8584 20.1516 31.2559C20.0184 32.5044 20.2681 32.6209 20.1516 33.5699C19.9351 35.318 21.2836 36.117 21.7164 34.702Z" fill="#FF5C5C"/>
<path fill-rule="evenodd" clip-rule="evenodd" d="M39.2307 27.1603C39.0975 24.1136 38.6147 22.299 38.5813 19.219C38.5813 19.069 38.5217 18.925 38.4155 18.8188C38.3095 18.7126 38.1655 18.653 38.0153 18.653C37.8652 18.653 37.7212 18.7126 37.615 18.8188C37.509 18.925 37.4493 19.069 37.4493 19.219C37.4493 22.349 38.6313 31.2225 37.5492 34.702C37.5492 34.935 37.0165 35.6175 37.2162 35.8006C37.0497 35.8006 12.8765 36.2668 9.61343 36.2835C7.94862 36.2835 3.10397 36.2835 1.65558 36.0836C1.20607 28.6918 1.13948 33.3866 1.20607 18.5698C1.20607 18.4373 1.15345 18.3103 1.05979 18.2166C0.966123 18.123 0.839087 18.0703 0.706625 18.0703C0.574163 18.0703 0.447127 18.123 0.353464 18.2166C0.259799 18.3103 0.207179 18.4373 0.207179 18.5698C0.207179 21.6663 -0.258973 30.7396 0.207179 33.5531C0.207179 34.1858 0.107289 36.5166 0.57344 37.1658C1.9386 39.0471 36.8 37.399 37.0497 37.3823C38.9143 37.2158 38.7145 36.1503 39.0308 35.168C39.3305 33.803 39.447 32.288 39.2307 27.1603Z" fill="#FF5C5C"/>
</g>
<defs>
<clipPath id="clip0_1917_476">
<rect width="40" height="40" fill="white"/>
</clipPath>
</defs>
</svg>
