<svg width="37" height="41" viewBox="0 0 37 41" fill="none" xmlns="http://www.w3.org/2000/svg">
<path d="M22.9761 40.3254C19.524 40.3254 16.0716 40.3051 12.6197 40.3318C9.84431 40.3532 7.07019 40.4498 4.29514 40.4728C3.51441 40.4728 2.73475 40.4024 1.96273 40.2629C0.29972 39.9759 -0.36195 38.7929 0.191862 36.8842C0.570569 35.6058 1.06547 34.3813 1.66756 33.2331C4.21853 28.3156 7.93024 25.1222 12.3785 23.065C14.7935 21.9249 17.3601 21.3184 19.9548 21.2744C23.834 21.2339 27.4051 22.4164 30.4546 25.4897C32.5365 27.5591 34.238 30.1248 35.4513 33.0243C35.789 33.8348 36.1695 34.6263 36.4401 35.4684C36.6999 36.2459 36.8814 37.0578 36.981 37.8868C37.1143 39.1289 36.5381 39.9524 35.5057 40.1086C34.7853 40.2262 34.0596 40.2915 33.3325 40.3044C29.8805 40.3233 26.4282 40.3133 22.9761 40.3133V40.3254ZM34.3175 37.2939C34.3309 37.1618 34.3298 37.0281 34.3141 36.8963C33.2146 33.4669 31.6952 30.3673 29.3478 27.9394C27.5369 26.0663 25.5055 24.7184 23.0925 24.3529C20.3119 23.9318 17.5568 24.02 14.839 24.9397C9.69734 26.6795 5.59499 30.1044 2.78572 35.6257C2.46608 36.2536 2.21235 36.9299 1.91842 37.604C2.00775 37.6627 2.10096 37.7125 2.19707 37.753C3.15899 38.0069 4.11822 37.8575 5.08834 37.7924C7.10442 37.6566 9.12604 37.5983 11.1456 37.5858C17.7528 37.5449 24.36 37.548 30.9673 37.5101C32.067 37.5031 33.165 37.3713 34.3179 37.2939H34.3175Z" fill="#FF5C5C"/>
<path d="M19.2088 0.00283852C21.8686 -0.074969 24.0908 1.44972 25.7779 4.22068C26.1756 4.874 26.6555 5.48056 26.9459 6.19711C27.595 7.79869 28.1327 9.44399 27.7877 11.3133C27.4638 13.0686 27.0415 14.7588 26.1004 16.1976C24.4268 18.7533 22.2931 20.3334 19.5661 20.7262C17.1115 21.0801 14.7776 20.6433 12.5984 19.2562C10.354 17.8277 9.07703 15.516 8.61342 12.5459C7.91564 8.07473 9.8633 4.06471 12.9364 1.93267C14.796 0.642119 16.8042 -0.00833093 19.2088 0.00283852ZM25.0368 9.0868C25.1587 7.95963 24.783 7.05945 24.201 6.23915C23.9739 5.91903 23.7686 5.57559 23.5322 5.26607C22.6766 4.14571 21.701 3.25937 20.4032 3.02481C18.5837 2.66319 16.7159 2.95725 15.0357 3.86989C12.9356 5.0298 11.3689 6.79818 11.008 9.73858C10.5869 13.1687 12.0609 16.2384 14.6822 17.2518C16.2529 17.8415 17.9115 18.0147 19.5434 17.7596C21.7743 17.4529 24.4003 14.6988 24.755 11.8719C24.8709 10.9473 24.944 10.0148 25.0368 9.08587V9.0868Z" fill="#FF5C5C"/>
</svg>
