<svg width="56" height="50" viewBox="0 0 56 50" fill="none" xmlns="http://www.w3.org/2000/svg">
<g clip-path="url(#clip0_1108_4940)">
<path fill-rule="evenodd" clip-rule="evenodd" d="M36.5634 13.0389C36.8718 12.8291 37.1309 12.5697 37.3266 12.2748C37.4382 12.1066 37.497 11.9159 37.497 11.7217C37.497 11.5276 37.4382 11.3368 37.3266 11.1687C37.1654 10.955 36.9545 10.773 36.7076 10.6344C36.4606 10.4959 36.183 10.4039 35.8927 10.3643C34.5139 10.1868 33.1234 10.086 31.7299 10.0626H30.851C30.6365 9.89629 30.4565 9.69899 30.3191 9.47943C29.4866 8.35325 28.2608 6.48299 27.5208 5.61825C27.2305 5.23812 26.8212 4.93808 26.3413 4.75351C26.1197 4.69764 25.8849 4.69429 25.6613 4.74379C25.4376 4.79329 25.2333 4.89384 25.0693 5.03505C24.8449 5.24622 24.6436 5.47513 24.468 5.7188C23.9361 6.48299 23.011 8.01138 22.1554 9.11744C21.9465 9.48185 21.682 9.82008 21.369 10.123C19.697 10.5387 17.998 10.8677 16.2811 11.1084C15.9986 11.1569 15.7361 11.27 15.5206 11.4362C15.3052 11.6023 15.1446 11.8154 15.0554 12.0535C15.0745 12.2807 15.1481 12.5019 15.2716 12.7029C15.3951 12.9038 15.5657 13.0799 15.7724 13.2199C16.7668 13.964 19.1257 15.5326 19.4264 16.337C19.3632 17.1067 19.1764 17.8648 18.8713 18.5894C18.4319 20.0373 17.8538 21.6864 17.5762 22.5109C17.5473 22.5862 17.5356 22.6656 17.542 22.7448C17.5485 22.824 17.5728 22.9013 17.6136 22.9723C17.6544 23.0433 17.7109 23.1066 17.7799 23.1585C17.8489 23.2105 17.929 23.2501 18.0157 23.2751C18.1793 23.326 18.3586 23.3234 18.5203 23.2679C18.6819 23.2125 18.8149 23.1078 18.8945 22.9734C19.0123 23.0377 19.1486 23.0718 19.2876 23.0718C19.4267 23.0718 19.563 23.0377 19.6808 22.9734C21.5187 21.8245 23.4425 20.7832 25.4394 19.8563H25.7169C27.4745 20.5401 30.8048 22.7924 32.4468 23.4762C32.7491 23.628 33.0921 23.7079 33.4412 23.7079C33.7904 23.7079 34.1333 23.628 34.4357 23.4762C34.737 23.2659 34.9353 22.964 34.9907 22.6316C35.0426 22.1165 34.9798 21.5976 34.8057 21.1032C34.2969 19.4943 32.8631 16.9001 32.6781 16.1359C32.8556 15.8986 33.0487 15.6703 33.2562 15.4522C34.3096 14.5984 35.4135 13.7928 36.5634 13.0389ZM31.4292 14.0042C30.7113 14.5996 30.2882 15.4147 30.2497 16.2767C30.2497 16.9001 31.9611 19.6351 32.5624 21.4048C30.4766 20.2428 28.3229 19.1755 26.11 18.2073C25.347 18.1984 24.5982 18.3874 23.9592 18.7503C22.641 19.3737 20.7446 20.4395 19.5189 21.1635C19.9814 20.0172 20.4902 18.6296 20.814 17.6241C21.0192 17.0592 21.0977 16.4652 21.0453 15.8745C20.2298 14.6624 19.1996 13.5697 17.9925 12.6367C19.5616 12.5282 21.1124 12.272 22.6179 11.8726C23.9669 10.6291 25.1322 9.24424 26.0869 7.74994C26.6882 8.61469 27.4514 9.76097 28.0296 10.6056C28.3591 11.1222 28.7895 11.5849 29.3015 11.9731C29.8355 12.1991 30.4192 12.3226 31.0129 12.3351H33.3256C32.6569 12.8591 32.0237 13.4165 31.4292 14.0042Z" fill="#9E75FF"/>
<path fill-rule="evenodd" clip-rule="evenodd" d="M7.46994 24.5222C6.29047 24.5222 5.38853 23.7781 4.39407 22.3302C3.52554 20.6265 3.01636 18.801 2.89083 16.9406C2.70582 15.4323 2.59018 13.8838 2.54393 12.4962C2.35682 11.1548 2.42716 9.7956 2.75207 8.47417C3.25451 7.80599 4.03262 7.33092 4.92599 7.1469C5.96095 6.92149 7.02913 6.83335 8.09437 6.88546C8.18256 6.89678 8.27246 6.8927 8.35882 6.87346C8.44518 6.85421 8.52626 6.82019 8.59732 6.77338C8.66838 6.72657 8.72799 6.66791 8.77267 6.60083C8.81736 6.53375 8.84621 6.45959 8.85755 6.3827C8.87399 6.30452 8.87187 6.22424 8.85134 6.1468C8.83081 6.06935 8.79228 5.99637 8.73814 5.93234C8.684 5.86831 8.61537 5.81458 8.53648 5.77444C8.45759 5.73431 8.3701 5.70862 8.27938 5.69895C6.81041 5.40764 5.28487 5.40764 3.8159 5.69895C2.73358 5.95981 1.77667 6.51689 1.08694 7.28767C0.566691 8.13826 0.274178 9.08008 0.231246 10.0428C-0.0501154 11.8755 -0.127563 13.7275 -2.22996e-05 15.5731C0.0808814 18.3185 0.871306 21.0128 2.31266 23.4563C3.14379 24.6824 4.45874 25.6043 6.01295 26.0506C7.80419 26.3639 9.66413 26.1591 11.309 25.4674C11.8872 25.045 11.309 23.9792 10.3839 24.1602C9.43231 24.38 8.45425 24.5015 7.46994 24.5222Z" fill="#9E75FF"/>
<path fill-rule="evenodd" clip-rule="evenodd" d="M42.4607 40.8314C39.6161 39.0552 36.2249 38.0605 32.7243 37.9757C32.6734 36.0702 32.8283 34.1648 33.1868 32.2845C33.3958 31.6945 33.8491 31.1929 34.4588 30.8768C36.5108 29.7389 38.4385 28.4397 40.2174 26.9955C43.2053 23.7792 44.9099 19.8055 45.074 15.6734C45.4281 12.4765 45.186 9.2508 44.3571 6.12101C44.1698 5.18391 43.6806 4.31224 42.9464 3.60722C40.333 1.77719 35.5226 1.013 30.3191 0.972777C23.9291 0.875676 17.5725 1.79578 11.5633 3.68767C11.3962 3.76112 11.2687 3.8885 11.2082 4.04258C11.1477 4.19666 11.1589 4.36521 11.2395 4.51219C11.3194 4.65607 11.4616 4.76652 11.6351 4.8193C11.8085 4.87208 11.9989 4.86288 12.1646 4.79373C17.9834 3.0496 24.1218 2.252 30.2729 2.44083C34.9907 2.54138 39.3154 3.20502 41.6281 4.87417C42.0314 5.36992 42.2931 5.94211 42.3913 6.54333C43.0703 9.4883 43.2263 12.5063 42.8539 15.4924C42.6851 19.1739 41.1335 22.7058 38.4366 25.5475C36.1239 27.5586 33.395 28.544 31.9842 29.7305C31.3022 30.2661 30.8192 30.9662 30.5966 31.7415C30.1495 33.9852 29.9712 36.2631 30.0647 38.5388C30.0734 38.9219 30.1759 39.2989 30.3654 39.6449C30.4777 39.8413 30.6535 40.0049 30.8712 40.1157C31.089 40.2264 31.3392 40.2795 31.5911 40.2683C34.3327 40.1879 37.0487 40.7506 39.4542 41.8972C40.424 42.2732 41.2763 42.8454 41.94 43.5661C42.6038 44.2867 43.0599 45.1349 43.2701 46.0399L41.0731 46.1807C34.4126 46.5427 19.7502 46.965 13.3209 46.7237C12.7273 46.651 12.1401 46.5435 11.5633 46.4019C12.1454 44.6865 13.4838 43.2408 15.2867 42.3799C17.4572 41.1261 19.9899 40.4292 22.5948 40.3688C23.5661 40.3688 24.3755 39.665 24.6762 38.3578C24.8938 36.0958 24.785 33.8191 24.3524 31.5806C24.2398 31.0953 23.9967 30.64 23.643 30.2521C23.2893 29.8641 22.835 29.5544 22.3172 29.3484C19.3228 28.3941 16.5897 26.9079 14.2922 24.9845C12.4988 22.9542 11.3862 20.5321 11.0776 17.9861C10.4829 14.0529 10.5999 10.063 11.4245 6.16123C11.4446 6.07273 11.4444 5.98164 11.4239 5.89321C11.4034 5.80478 11.3629 5.72076 11.3049 5.64599C11.2468 5.57121 11.1723 5.50716 11.0857 5.45754C10.9991 5.40791 10.902 5.37368 10.8001 5.35682C10.6997 5.33624 10.5956 5.33357 10.494 5.34895C10.3924 5.36434 10.2955 5.39746 10.209 5.44633C10.1226 5.49519 10.0484 5.55879 9.99098 5.63327C9.93358 5.70775 9.89412 5.79158 9.875 5.87969C8.92425 9.93494 8.71353 14.0951 9.25057 18.2073C9.6377 21.0416 10.8386 23.7456 12.7427 26.0704C13.6013 26.9512 14.5978 27.7229 15.703 28.363C17.6919 29.5093 19.7039 30.1327 21.0915 30.8366C21.6466 31.1181 22.1322 31.3594 22.1785 31.822C22.3172 32.8074 22.5254 34.3559 22.5716 35.844C22.6185 36.5844 22.5641 37.3269 22.4097 38.0561C22.4097 38.217 22.1785 38.3779 22.1785 38.4986C18.6122 38.5605 15.174 39.6658 12.4189 41.6358C11.3186 42.3076 10.439 43.2176 9.86706 44.2757C9.29515 45.3338 9.05076 46.5034 9.15807 47.6689C9.24804 47.9724 9.47253 48.2327 9.78249 48.3928C10.3216 48.6093 10.9015 48.7387 11.4939 48.7749C15.6491 49.0424 19.8175 49.123 23.9824 49.0162C31.0592 49.0162 38.9454 48.6744 42.5995 48.433L44.5884 48.2722C44.8946 48.2383 45.1806 48.1208 45.4051 47.9364C45.6296 47.7521 45.7809 47.5105 45.8372 47.2465C46.0113 46.0103 45.788 44.7564 45.1919 43.6239C44.5958 42.4914 43.6504 41.5248 42.4607 40.8314Z" fill="#9E75FF"/>
<path fill-rule="evenodd" clip-rule="evenodd" d="M55.5044 12.2148C55.5028 10.7458 55.3088 9.28169 54.9262 7.85085C54.1484 6.50885 52.844 5.45312 51.249 4.87453C49.1046 4.08662 46.7639 3.78894 44.4497 4.00979C44.3583 4.01967 44.27 4.0453 44.1901 4.08517C44.1102 4.12504 44.0402 4.17836 43.9842 4.24201C43.9282 4.30566 43.8874 4.37837 43.8641 4.4559C43.8408 4.53342 43.8355 4.61421 43.8485 4.69354C43.8598 4.77306 43.8893 4.84981 43.9351 4.91932C43.981 4.98882 44.0423 5.04969 44.1155 5.09837C44.1887 5.14704 44.2723 5.18255 44.3615 5.20282C44.4506 5.22308 44.5435 5.2277 44.6348 5.21641C46.3092 5.17403 47.9741 5.4485 49.5145 6.02082C50.2326 6.23156 50.8928 6.56897 51.4539 7.01191C52.0151 7.45485 52.4649 7.99378 52.7754 8.59493V11.2294C52.8573 13.464 52.6869 15.7003 52.2666 17.906C51.8272 20.0779 51.1334 22.0889 49.422 22.7928C48.2746 23.2853 46.9987 23.5072 45.7217 23.4363C45.11 23.4343 44.502 23.353 43.9178 23.195C43.7326 23.1442 43.5323 23.1548 43.3555 23.2248C43.1787 23.2948 43.038 23.4192 42.9604 23.5741C42.8829 23.729 42.874 23.9033 42.9355 24.0635C42.9969 24.2237 43.1244 24.3585 43.2934 24.4418C44.2859 24.8699 45.3771 25.0968 46.4849 25.1055C47.7822 25.1446 49.0745 24.9459 50.2777 24.5223C51.5585 23.8881 52.6466 22.9969 53.4511 21.923C54.2557 20.849 54.7535 19.6235 54.9031 18.3484C55.3679 16.33 55.5696 14.2725 55.5044 12.2148Z" fill="#9E75FF"/>
</g>
<defs>
<clipPath id="clip0_1108_4940">
<rect width="55.5044" height="48.2647" fill="white" transform="translate(0 0.852539)"/>
</clipPath>
</defs>
</svg>
