<svg width="56" height="49" viewBox="0 0 56 49" fill="none" xmlns="http://www.w3.org/2000/svg">
<g clip-path="url(#clip0_1108_4949)">
<path fill-rule="evenodd" clip-rule="evenodd" d="M36.5634 12.891C36.8718 12.6812 37.1309 12.4217 37.3266 12.1268C37.4382 11.9587 37.497 11.7679 37.497 11.5738C37.497 11.3796 37.4382 11.1889 37.3266 11.0207C37.1654 10.807 36.9545 10.625 36.7076 10.4865C36.4606 10.348 36.183 10.2559 35.8927 10.2163C34.5139 10.0388 33.1234 9.93809 31.7299 9.91468H30.851C30.6365 9.74834 30.4565 9.55105 30.3191 9.33148C29.4866 8.2053 28.2608 6.33505 27.5208 5.4703C27.2305 5.09017 26.8212 4.79013 26.3413 4.60556C26.1197 4.5497 25.8849 4.54634 25.6613 4.59584C25.4376 4.64534 25.2333 4.74589 25.0693 4.8871C24.8449 5.09827 24.6436 5.32718 24.468 5.57085C23.9361 6.33505 23.011 7.86343 22.1554 8.96949C21.9465 9.3339 21.682 9.67213 21.369 9.97501C19.697 10.3907 17.998 10.7198 16.2811 10.9604C15.9986 11.0089 15.7361 11.1221 15.5206 11.2882C15.3052 11.4544 15.1446 11.6675 15.0554 11.9056C15.0745 12.1328 15.1481 12.354 15.2716 12.5549C15.3951 12.7558 15.5657 12.932 15.7724 13.072C16.7668 13.8161 19.1257 15.3847 19.4264 16.1891C19.3632 16.9587 19.1764 17.7169 18.8713 18.4414C18.4319 19.8894 17.8538 21.5384 17.5762 22.3629C17.5473 22.4382 17.5356 22.5177 17.542 22.5969C17.5485 22.676 17.5728 22.7533 17.6136 22.8243C17.6544 22.8953 17.7109 22.9586 17.7799 23.0106C17.8489 23.0625 17.929 23.1021 18.0157 23.1271C18.1793 23.178 18.3586 23.1755 18.5203 23.12C18.6819 23.0645 18.8149 22.9598 18.8945 22.8255C19.0123 22.8897 19.1486 22.9238 19.2876 22.9238C19.4267 22.9238 19.563 22.8897 19.6808 22.8255C21.5187 21.6766 23.4425 20.6352 25.4394 19.7084H25.7169C27.4745 20.3921 30.8048 22.6445 32.4468 23.3282C32.7491 23.48 33.0921 23.5599 33.4412 23.5599C33.7904 23.5599 34.1333 23.48 34.4357 23.3282C34.737 23.1179 34.9353 22.8161 34.9907 22.4836C35.0426 21.9685 34.9798 21.4496 34.8057 20.9552C34.2969 19.3464 32.8631 16.7522 32.6781 15.988C32.8556 15.7507 33.0487 15.5224 33.2562 15.3042C34.3096 14.4504 35.4135 13.6449 36.5634 12.891ZM31.4292 13.8563C30.7113 14.4517 30.2882 15.2667 30.2497 16.1288C30.2497 16.7522 31.9611 19.4872 32.5624 21.2569C30.4766 20.0948 28.3229 19.0275 26.11 18.0593C25.347 18.0504 24.5982 18.2395 23.9592 18.6023C22.641 19.2257 20.7446 20.2916 19.5189 21.0156C19.9814 19.8693 20.4902 18.4817 20.814 17.4761C21.0192 16.9112 21.0977 16.3172 21.0453 15.7265C20.2298 14.5144 19.1996 13.4217 17.9925 12.4888C19.5616 12.3803 21.1124 12.124 22.6179 11.7246C23.9669 10.4812 25.1322 9.0963 26.0869 7.60199C26.6882 8.46674 27.4514 9.61302 28.0296 10.4577C28.3591 10.9742 28.7895 11.437 29.3015 11.8252C29.8355 12.0512 30.4192 12.1746 31.0129 12.1871H33.3256C32.6569 12.7112 32.0237 13.2685 31.4292 13.8563Z" fill="#2CC4AE"/>
<path fill-rule="evenodd" clip-rule="evenodd" d="M7.46994 24.3742C6.29047 24.3742 5.38853 23.6302 4.39407 22.1822C3.52554 20.4786 3.01636 18.653 2.89083 16.7927C2.70582 15.2844 2.59018 13.7359 2.54393 12.3483C2.35682 11.0068 2.42716 9.64765 2.75207 8.32622C3.25451 7.65805 4.03262 7.18297 4.92599 6.99895C5.96095 6.77354 7.02913 6.6854 8.09437 6.73751C8.18256 6.74883 8.27246 6.74475 8.35882 6.72551C8.44518 6.70626 8.52626 6.67224 8.59732 6.62543C8.66838 6.57862 8.72799 6.51996 8.77267 6.45288C8.81736 6.3858 8.84621 6.31165 8.85755 6.23475C8.87399 6.15657 8.87187 6.07629 8.85134 5.99885C8.83081 5.9214 8.79228 5.84842 8.73814 5.78439C8.684 5.72036 8.61537 5.66663 8.53648 5.62649C8.45759 5.58636 8.3701 5.56067 8.27938 5.55101C6.81041 5.25969 5.28487 5.25969 3.8159 5.55101C2.73358 5.81186 1.77667 6.36894 1.08694 7.13972C0.566691 7.99032 0.274178 8.93213 0.231246 9.89483C-0.0501154 11.7275 -0.127563 13.5795 -2.22996e-05 15.4252C0.0808814 18.1705 0.871306 20.8648 2.31266 23.3084C3.14379 24.5345 4.45874 25.4564 6.01295 25.9026C7.80419 26.216 9.66413 26.0111 11.309 25.3194C11.8872 24.8971 11.309 23.8313 10.3839 24.0122C9.43231 24.232 8.45425 24.3535 7.46994 24.3742Z" fill="#2CC4AE"/>
<path fill-rule="evenodd" clip-rule="evenodd" d="M42.4607 40.6834C39.6161 38.9072 36.2249 37.9126 32.7243 37.8278C32.6734 35.9223 32.8283 34.0169 33.1868 32.1365C33.3958 31.5466 33.8491 31.045 34.4588 30.7288C36.5108 29.591 38.4385 28.2918 40.2174 26.8475C43.2053 23.6313 44.9099 19.6576 45.074 15.5254C45.4281 12.3285 45.186 9.10285 44.3571 5.97306C44.1698 5.03596 43.6806 4.16429 42.9464 3.45928C40.333 1.62924 35.5226 0.865049 30.3191 0.824828C23.9291 0.727726 17.5725 1.64783 11.5633 3.53972C11.3962 3.61317 11.2687 3.74055 11.2082 3.89463C11.1477 4.04871 11.1589 4.21726 11.2395 4.36424C11.3194 4.50812 11.4616 4.61857 11.6351 4.67135C11.8085 4.72413 11.9989 4.71494 12.1646 4.64578C17.9834 2.90165 24.1218 2.10405 30.2729 2.29288C34.9907 2.39343 39.3154 3.05707 41.6281 4.72622C42.0314 5.22197 42.2931 5.79416 42.3913 6.39538C43.0703 9.34035 43.2263 12.3584 42.8539 15.3445C42.6851 19.0259 41.1335 22.5579 38.4366 25.3996C36.1239 27.4106 33.395 28.396 31.9842 29.5825C31.3022 30.1181 30.8192 30.8182 30.5966 31.5936C30.1495 33.8372 29.9712 36.1152 30.0647 38.3908C30.0734 38.7739 30.1759 39.151 30.3654 39.4969C30.4777 39.6933 30.6535 39.857 30.8712 39.9677C31.089 40.0785 31.3392 40.1315 31.5911 40.1203C34.3327 40.04 37.0487 40.6026 39.4542 41.7493C40.424 42.1253 41.2763 42.6975 41.94 43.4181C42.6038 44.1388 43.0599 44.987 43.2701 45.892L41.0731 46.0327C34.4126 46.3947 19.7502 46.817 13.3209 46.5757C12.7273 46.5031 12.1401 46.3956 11.5633 46.254C12.1454 44.5386 13.4838 43.0928 15.2867 42.2319C17.4572 40.9782 19.9899 40.2812 22.5948 40.2209C23.5661 40.2209 24.3755 39.517 24.6762 38.2098C24.8938 35.9479 24.785 33.6712 24.3524 31.4327C24.2398 30.9474 23.9967 30.4921 23.643 30.1041C23.2893 29.7161 22.835 29.4065 22.3172 29.2004C19.3228 28.2461 16.5897 26.7599 14.2922 24.8365C12.4988 22.8062 11.3862 20.3841 11.0776 17.8381C10.4829 13.9049 10.5999 9.915 11.4245 6.01328C11.4446 5.92478 11.4444 5.83369 11.4239 5.74526C11.4034 5.65683 11.3629 5.57281 11.3049 5.49804C11.2468 5.42326 11.1723 5.35922 11.0857 5.30959C10.9991 5.25996 10.902 5.22573 10.8001 5.20887C10.6997 5.18829 10.5956 5.18562 10.494 5.201C10.3924 5.21639 10.2955 5.24951 10.209 5.29838C10.1226 5.34724 10.0484 5.41084 9.99098 5.48532C9.93358 5.5598 9.89412 5.64363 9.875 5.73174C8.92425 9.78699 8.71353 13.9471 9.25057 18.0593C9.6377 20.8936 10.8386 23.5976 12.7427 25.9225C13.6013 26.8033 14.5978 27.575 15.703 28.215C17.6919 29.3613 19.7039 29.9847 21.0915 30.6886C21.6466 30.9701 22.1322 31.2115 22.1785 31.674C22.3172 32.6594 22.5254 34.2079 22.5716 35.6961C22.6185 36.4364 22.5641 37.179 22.4097 37.9082C22.4097 38.0691 22.1785 38.23 22.1785 38.3506C18.6122 38.4126 15.174 39.5178 12.4189 41.4878C11.3186 42.1597 10.439 43.0697 9.86706 44.1278C9.29515 45.1859 9.05076 46.3555 9.15807 47.5209C9.24804 47.8245 9.47253 48.0848 9.78249 48.2449C10.3216 48.4613 10.9015 48.5908 11.4939 48.627C15.6491 48.8945 19.8175 48.975 23.9824 48.8683C31.0592 48.8683 38.9454 48.5264 42.5995 48.2851L44.5884 48.1242C44.8946 48.0904 45.1806 47.9728 45.4051 47.7885C45.6296 47.6041 45.7809 47.3626 45.8372 47.0986C46.0113 45.8624 45.788 44.6084 45.1919 43.4759C44.5958 42.3435 43.6504 41.3768 42.4607 40.6834Z" fill="#2CC4AE"/>
<path fill-rule="evenodd" clip-rule="evenodd" d="M55.5044 12.0668C55.5028 10.5978 55.3088 9.13374 54.9262 7.7029C54.1484 6.3609 52.844 5.30517 51.249 4.72658C49.1046 3.93867 46.7639 3.64099 44.4497 3.86184C44.3583 3.87172 44.27 3.89735 44.1901 3.93722C44.1102 3.97709 44.0402 4.03041 43.9842 4.09406C43.9282 4.15771 43.8874 4.23042 43.8641 4.30795C43.8408 4.38547 43.8355 4.46626 43.8485 4.54559C43.8598 4.62511 43.8893 4.70186 43.9351 4.77137C43.981 4.84087 44.0423 4.90174 44.1155 4.95042C44.1887 4.99909 44.2723 5.0346 44.3615 5.05487C44.4506 5.07513 44.5435 5.07975 44.6348 5.06846C46.3092 5.02609 47.9741 5.30055 49.5145 5.87287C50.2326 6.08361 50.8928 6.42102 51.4539 6.86396C52.0151 7.3069 52.4649 7.84583 52.7754 8.44699V11.0814C52.8573 13.3161 52.6869 15.5523 52.2666 17.758C51.8272 19.93 51.1334 21.941 49.422 22.6448C48.2746 23.1373 46.9987 23.3592 45.7217 23.2884C45.11 23.2864 44.502 23.205 43.9178 23.0471C43.7326 22.9963 43.5323 23.0069 43.3555 23.0769C43.1787 23.1469 43.038 23.2713 42.9604 23.4261C42.8829 23.581 42.874 23.7554 42.9355 23.9156C42.9969 24.0758 43.1244 24.2106 43.2934 24.2939C44.2859 24.722 45.3771 24.9489 46.4849 24.9575C47.7822 24.9967 49.0745 24.798 50.2777 24.3743C51.5585 23.7401 52.6466 22.8489 53.4511 21.775C54.2557 20.7011 54.7535 19.4756 54.9031 18.2005C55.3679 16.1821 55.5696 14.1245 55.5044 12.0668Z" fill="#2CC4AE"/>
</g>
<defs>
<clipPath id="clip0_1108_4949">
<rect width="55.5044" height="48.2647" fill="white" transform="translate(0 0.70459)"/>
</clipPath>
</defs>
</svg>
