<svg width="56" height="49" viewBox="0 0 56 49" fill="none" xmlns="http://www.w3.org/2000/svg">
<g clip-path="url(#clip0_1108_4931)">
<path fill-rule="evenodd" clip-rule="evenodd" d="M36.5634 12.1864C36.8718 11.9766 37.1309 11.7172 37.3266 11.4222C37.4382 11.2541 37.497 11.0633 37.497 10.8692C37.497 10.675 37.4382 10.4843 37.3266 10.3162C37.1654 10.1024 36.9545 9.92045 36.7076 9.78191C36.4606 9.64336 36.183 9.55133 35.8927 9.51174C34.5139 9.33426 33.1234 9.2335 31.7299 9.21009H30.851C30.6365 9.04375 30.4565 8.84646 30.3191 8.62689C29.4866 7.50071 28.2608 5.63046 27.5208 4.76571C27.2305 4.38558 26.8212 4.08554 26.3413 3.90097C26.1197 3.84511 25.8849 3.84175 25.6613 3.89125C25.4376 3.94075 25.2333 4.0413 25.0693 4.18251C24.8449 4.39368 24.6436 4.62259 24.468 4.86626C23.9361 5.63046 23.011 7.15884 22.1554 8.2649C21.9465 8.62931 21.682 8.96754 21.369 9.27042C19.697 9.68615 17.998 10.0152 16.2811 10.2558C15.9986 10.3043 15.7361 10.4175 15.5206 10.5836C15.3052 10.7498 15.1446 10.9629 15.0554 11.201C15.0745 11.4282 15.1481 11.6494 15.2716 11.8503C15.3951 12.0512 15.5657 12.2274 15.7724 12.3674C16.7668 13.1115 19.1257 14.6801 19.4264 15.4845C19.3632 16.2541 19.1764 17.0123 18.8713 17.7368C18.4319 19.1848 17.8538 20.8338 17.5762 21.6584C17.5473 21.7336 17.5356 21.8131 17.542 21.8923C17.5485 21.9715 17.5728 22.0487 17.6136 22.1197C17.6544 22.1907 17.7109 22.254 17.7799 22.306C17.8489 22.3579 17.929 22.3975 18.0157 22.4225C18.1793 22.4734 18.3586 22.4709 18.5203 22.4154C18.6819 22.3599 18.8149 22.2553 18.8945 22.1209C19.0123 22.1851 19.1486 22.2192 19.2876 22.2192C19.4267 22.2192 19.563 22.1851 19.6808 22.1209C21.5187 20.972 23.4425 19.9306 25.4394 19.0038H25.7169C27.4745 19.6875 30.8048 21.9399 32.4468 22.6236C32.7491 22.7754 33.0921 22.8554 33.4412 22.8554C33.7904 22.8554 34.1333 22.7754 34.4357 22.6236C34.737 22.4133 34.9353 22.1115 34.9907 21.779C35.0426 21.2639 34.9798 20.745 34.8057 20.2506C34.2969 18.6418 32.8631 16.0476 32.6781 15.2834C32.8556 15.0461 33.0487 14.8178 33.2562 14.5996C34.3096 13.7458 35.4135 12.9403 36.5634 12.1864ZM31.4292 13.1517C30.7113 13.7471 30.2882 14.5622 30.2497 15.4242C30.2497 16.0476 31.9611 18.7826 32.5624 20.5523C30.4766 19.3902 28.3229 18.3229 26.11 17.3548C25.347 17.3458 24.5982 17.5349 23.9592 17.8977C22.641 18.5211 20.7446 19.587 19.5189 20.311C19.9814 19.1647 20.4902 17.7771 20.814 16.7716C21.0192 16.2066 21.0977 15.6127 21.0453 15.022C20.2298 13.8098 19.1996 12.7172 17.9925 11.7842C19.5616 11.6757 21.1124 11.4194 22.6179 11.02C23.9669 9.7766 25.1322 8.39171 26.0869 6.8974C26.6882 7.76215 27.4514 8.90843 28.0296 9.75306C28.3591 10.2696 28.7895 10.7324 29.3015 11.1206C29.8355 11.3466 30.4192 11.47 31.0129 11.4825H33.3256C32.6569 12.0066 32.0237 12.5639 31.4292 13.1517Z" fill="#FF5C5C"/>
<path fill-rule="evenodd" clip-rule="evenodd" d="M7.46994 23.6696C6.29047 23.6696 5.38853 22.9256 4.39407 21.4776C3.52554 19.774 3.01636 17.9484 2.89083 16.0881C2.70582 14.5798 2.59018 13.0313 2.54393 11.6437C2.35682 10.3022 2.42716 8.94306 2.75207 7.62163C3.25451 6.95346 4.03262 6.47838 4.92599 6.29436C5.96095 6.06895 7.02913 5.98081 8.09437 6.03292C8.18256 6.04424 8.27246 6.04016 8.35882 6.02092C8.44518 6.00167 8.52626 5.96765 8.59732 5.92084C8.66838 5.87403 8.72799 5.81537 8.77267 5.74829C8.81736 5.68121 8.84621 5.60706 8.85755 5.53017C8.87399 5.45198 8.87187 5.3717 8.85134 5.29426C8.83081 5.21681 8.79228 5.14383 8.73814 5.0798C8.684 5.01577 8.61537 4.96204 8.53648 4.92191C8.45759 4.88177 8.3701 4.85608 8.27938 4.84642C6.81041 4.5551 5.28487 4.5551 3.8159 4.84642C2.73358 5.10727 1.77667 5.66435 1.08694 6.43513C0.566691 7.28573 0.274178 8.22754 0.231246 9.19024C-0.0501154 11.0229 -0.127563 12.8749 -2.22996e-05 14.7206C0.0808814 17.4659 0.871306 20.1602 2.31266 22.6038C3.14379 23.8299 4.45874 24.7518 6.01295 25.198C7.80419 25.5114 9.66413 25.3066 11.309 24.6148C11.8872 24.1925 11.309 23.1267 10.3839 23.3077C9.43231 23.5274 8.45425 23.6489 7.46994 23.6696Z" fill="#FF5C5C"/>
<path fill-rule="evenodd" clip-rule="evenodd" d="M42.4607 39.9788C39.6161 38.2026 36.2249 37.208 32.7243 37.1232C32.6734 35.2177 32.8283 33.3123 33.1868 31.432C33.3958 30.842 33.8491 30.3404 34.4588 30.0242C36.5108 28.8864 38.4385 27.5872 40.2174 26.1429C43.2053 22.9267 44.9099 18.953 45.074 14.8209C45.4281 11.6239 45.186 8.39826 44.3571 5.26847C44.1698 4.33137 43.6806 3.4597 42.9464 2.75469C40.333 0.92465 35.5226 0.160459 30.3191 0.120238C23.9291 0.0231365 17.5725 0.943241 11.5633 2.83513C11.3962 2.90858 11.2687 3.03596 11.2082 3.19004C11.1477 3.34412 11.1589 3.51267 11.2395 3.65965C11.3194 3.80353 11.4616 3.91398 11.6351 3.96676C11.8085 4.01954 11.9989 4.01035 12.1646 3.94119C17.9834 2.19706 24.1218 1.39946 30.2729 1.58829C34.9907 1.68884 39.3154 2.35248 41.6281 4.02163C42.0314 4.51738 42.2931 5.08957 42.3913 5.69079C43.0703 8.63576 43.2263 11.6538 42.8539 14.6399C42.6851 18.3213 41.1335 21.8533 38.4366 24.695C36.1239 26.706 33.395 27.6914 31.9842 28.8779C31.3022 29.4135 30.8192 30.1136 30.5966 30.889C30.1495 33.1326 29.9712 35.4106 30.0647 37.6862C30.0734 38.0693 30.1759 38.4464 30.3654 38.7923C30.4777 38.9887 30.6535 39.1524 30.8712 39.2631C31.089 39.3739 31.3392 39.4269 31.5911 39.4157C34.3327 39.3354 37.0487 39.898 39.4542 41.0447C40.424 41.4207 41.2763 41.9929 41.94 42.7135C42.6038 43.4342 43.0599 44.2824 43.2701 45.1874L41.0731 45.3282C34.4126 45.6901 19.7502 46.1125 13.3209 45.8711C12.7273 45.7985 12.1401 45.691 11.5633 45.5494C12.1454 43.834 13.4838 42.3882 15.2867 41.5273C17.4572 40.2736 19.9899 39.5766 22.5948 39.5163C23.5661 39.5163 24.3755 38.8124 24.6762 37.5053C24.8938 35.2433 24.785 32.9666 24.3524 30.7281C24.2398 30.2428 23.9967 29.7875 23.643 29.3995C23.2893 29.0116 22.835 28.7019 22.3172 28.4959C19.3228 27.5415 16.5897 26.0553 14.2922 24.1319C12.4988 22.1017 11.3862 19.6795 11.0776 17.1335C10.4829 13.2003 10.5999 9.21041 11.4245 5.30869C11.4446 5.22019 11.4444 5.1291 11.4239 5.04067C11.4034 4.95224 11.3629 4.86822 11.3049 4.79345C11.2468 4.71867 11.1723 4.65463 11.0857 4.605C10.9991 4.55537 10.902 4.52114 10.8001 4.50428C10.6997 4.48371 10.5956 4.48103 10.494 4.49641C10.3924 4.5118 10.2955 4.54492 10.209 4.59379C10.1226 4.64265 10.0484 4.70625 9.99098 4.78073C9.93358 4.85521 9.89412 4.93904 9.875 5.02715C8.92425 9.0824 8.71353 13.2425 9.25057 17.3548C9.6377 20.189 10.8386 22.893 12.7427 25.2179C13.6013 26.0987 14.5978 26.8704 15.703 27.5104C17.6919 28.6567 19.7039 29.2802 21.0915 29.984C21.6466 30.2656 22.1322 30.5069 22.1785 30.9694C22.3172 31.9548 22.5254 33.5033 22.5716 34.9915C22.6185 35.7318 22.5641 36.4744 22.4097 37.2036C22.4097 37.3645 22.1785 37.5254 22.1785 37.646C18.6122 37.708 15.174 38.8132 12.4189 40.7832C11.3186 41.4551 10.439 42.3651 9.86706 43.4232C9.29515 44.4813 9.05076 45.6509 9.15807 46.8163C9.24804 47.1199 9.47253 47.3802 9.78249 47.5403C10.3216 47.7567 10.9015 47.8862 11.4939 47.9224C15.6491 48.1899 19.8175 48.2704 23.9824 48.1637C31.0592 48.1637 38.9454 47.8218 42.5995 47.5805L44.5884 47.4196C44.8946 47.3858 45.1806 47.2682 45.4051 47.0839C45.6296 46.8995 45.7809 46.658 45.8372 46.394C46.0113 45.1578 45.788 43.9038 45.1919 42.7713C44.5958 41.6389 43.6504 40.6722 42.4607 39.9788Z" fill="#FF5C5C"/>
<path fill-rule="evenodd" clip-rule="evenodd" d="M55.5044 11.3622C55.5028 9.89323 55.3088 8.42915 54.9262 6.99832C54.1484 5.65631 52.844 4.60058 51.249 4.02199C49.1046 3.23408 46.7639 2.9364 44.4497 3.15725C44.3583 3.16713 44.27 3.19276 44.1901 3.23263C44.1102 3.2725 44.0402 3.32582 43.9842 3.38947C43.9282 3.45312 43.8874 3.52583 43.8641 3.60336C43.8408 3.68088 43.8355 3.76167 43.8485 3.841C43.8598 3.92052 43.8893 3.99727 43.9351 4.06678C43.981 4.13628 44.0423 4.19715 44.1155 4.24583C44.1887 4.2945 44.2723 4.33001 44.3615 4.35028C44.4506 4.37054 44.5435 4.37516 44.6348 4.36387C46.3092 4.3215 47.9741 4.59596 49.5145 5.16828C50.2326 5.37902 50.8928 5.71643 51.4539 6.15937C52.0151 6.60231 52.4649 7.14124 52.7754 7.7424V10.3768C52.8573 12.6115 52.6869 14.8477 52.2666 17.0535C51.8272 19.2254 51.1334 21.2364 49.422 21.9403C48.2746 22.4328 46.9987 22.6547 45.7217 22.5838C45.11 22.5818 44.502 22.5005 43.9178 22.3425C43.7326 22.2917 43.5323 22.3023 43.3555 22.3723C43.1787 22.4423 43.038 22.5667 42.9604 22.7216C42.8829 22.8764 42.874 23.0508 42.9355 23.211C42.9969 23.3712 43.1244 23.506 43.2934 23.5893C44.2859 24.0174 45.3771 24.2443 46.4849 24.2529C47.7822 24.2921 49.0745 24.0934 50.2777 23.6697C51.5585 23.0355 52.6466 22.1443 53.4511 21.0704C54.2557 19.9965 54.7535 18.771 54.9031 17.4959C55.3679 15.4775 55.5696 13.4199 55.5044 11.3622Z" fill="#FF5C5C"/>
</g>
<defs>
<clipPath id="clip0_1108_4931">
<rect width="55.5044" height="48.2647" fill="white"/>
</clipPath>
</defs>
</svg>
