<svg width="30" height="30" viewBox="0 0 30 30" fill="none" xmlns="http://www.w3.org/2000/svg">
<g clip-path="url(#clip0_1095_948)">
<path d="M26.475 5.6625C24.9248 3.89826 22.9942 2.50905 20.8289 1.59961C18.6636 0.690179 16.32 0.284271 13.975 0.412499C11.6567 0.555868 9.4033 1.23568 7.39248 2.39835C5.38166 3.56103 3.66832 5.1748 2.38749 7.1125C1.17595 8.85676 0.404029 10.8681 0.137493 12.975C-0.136913 15.0639 -0.00533735 17.186 0.524993 19.225C0.855277 20.68 1.42558 22.0699 2.21249 23.3375C2.77882 24.1799 3.51025 24.8986 4.36249 25.45C4.44611 25.5039 4.54726 25.5236 4.64499 25.505C4.74272 25.4864 4.82955 25.4309 4.88749 25.35C4.91578 25.3091 4.93565 25.263 4.94593 25.2143C4.95622 25.1656 4.95673 25.1154 4.94742 25.0666C4.93812 25.0177 4.91918 24.9712 4.89173 24.9297C4.86427 24.8882 4.82884 24.8526 4.78749 24.825C3.8463 24.1896 3.07749 23.3306 2.54999 22.325C2.03015 21.2762 1.63978 20.1681 1.38749 19.025C0.936078 17.0908 0.8597 15.088 1.16249 13.125C1.44602 11.1964 2.19228 9.36502 3.33749 7.7875C4.5439 6.02775 6.14327 4.57289 8.00907 3.53802C9.87487 2.50316 11.9559 1.91668 14.0875 1.825C16.1992 1.7289 18.3057 2.10676 20.2524 2.93086C22.1991 3.75496 23.9366 5.00439 25.3375 6.5875C26.982 8.46013 28.07 10.7553 28.4787 13.2138C28.8873 15.6723 28.6003 18.1961 27.65 20.5C25.875 24.65 21.8375 27.9125 15.8625 28.55C14.7463 28.6771 13.6208 28.7022 12.5 28.625C11.4021 28.5444 10.3164 28.3432 9.26249 28.025C9.15475 27.9902 9.03759 27.9996 8.93679 28.0512C8.83599 28.1028 8.7598 28.1923 8.72499 28.3C8.69018 28.4077 8.6996 28.5249 8.75117 28.6257C8.80275 28.7265 8.89225 28.8027 8.99999 28.8375C10.1108 29.2023 11.2601 29.4372 12.425 29.5375C13.5853 29.6374 14.7521 29.6374 15.9125 29.5375C22.375 28.95 26.7625 25.4625 28.7375 21.0125C29.8309 18.4978 30.1985 15.7272 29.7986 13.0144C29.3987 10.3015 28.2474 7.75481 26.475 5.6625Z" fill="black"/>
<path d="M11.25 16.425C12.1375 16.425 13.1875 16.3375 14.3 16.2625L14.4375 19.6125C14.4375 19.85 14.6375 22.2 14.7125 22.95V23.225C14.7125 24.3375 14.9125 24.875 15.125 24.85C15.9875 25.3625 15.5 21.75 15.6 19.6125C15.6 18.725 15.6875 17.8375 15.7 16.95V16.1625C16.8375 16.0625 18 15.95 19.125 15.875C20.2409 15.8147 21.3591 15.8147 22.475 15.875C22.5309 15.8801 22.5872 15.8742 22.6407 15.8575C22.6943 15.8407 22.744 15.8136 22.7869 15.7776C22.8299 15.7415 22.8654 15.6974 22.8912 15.6476C22.9171 15.5978 22.9328 15.5434 22.9375 15.4875C22.9444 15.4313 22.9397 15.3743 22.9237 15.3201C22.9077 15.2658 22.8807 15.2154 22.8443 15.172C22.808 15.1286 22.7631 15.0932 22.7124 15.0679C22.6618 15.0426 22.6065 15.028 22.55 15.025C20.6431 14.7878 18.7206 14.7 16.8 14.7625H15.6625V14.3C15.5791 13.1098 15.4331 11.9248 15.225 10.75C15.0858 9.80657 14.847 8.88055 14.5125 7.9875C14.2875 7.5125 14.3375 7.2625 14.0625 7.275C14.0128 7.27325 13.9632 7.28176 13.917 7.29999C13.8707 7.31821 13.8286 7.34577 13.7935 7.38095C13.7583 7.41612 13.7307 7.45816 13.7125 7.50445C13.6943 7.55074 13.6858 7.60028 13.6875 7.65C13.6875 8.2125 13.6875 7.4 13.95 9.225C14.0625 9.975 14.0875 10.75 14.1 10.8875L14.25 14.85H13.975C12.9375 14.925 11.975 15.0625 11.15 15.15C10.6125 15.225 10.05 15.275 9.4875 15.325L6.9875 15.4625C6.93495 15.4591 6.88225 15.4661 6.83242 15.4832C6.78259 15.5002 6.73661 15.5269 6.69712 15.5617C6.65764 15.5966 6.62542 15.6389 6.60232 15.6862C6.57921 15.7335 6.56568 15.7849 6.5625 15.8375C6.55355 15.9292 6.57758 16.0211 6.63027 16.0967C6.68295 16.1723 6.76086 16.2267 6.85 16.25C7.02008 16.2727 7.19242 16.2727 7.3625 16.25L9.5625 16.375C10.1125 16.4375 10.7 16.45 11.25 16.425Z" fill="black"/>
</g>
<defs>
<clipPath id="clip0_1095_948">
<rect width="30" height="30" fill="white"/>
</clipPath>
</defs>
</svg>
