<svg width="27" height="27" viewBox="0 0 27 27" fill="none" xmlns="http://www.w3.org/2000/svg">
<g filter="url(#filter0_d_1108_5954)">
<path d="M22.9299 14.8021C22.8375 13.3412 22.6921 10.1382 22.8044 8.47216C22.8442 7.87976 22.8333 7.27505 22.8227 6.68978L22.8205 6.56327C22.8175 5.6501 22.6667 4.74343 22.3738 3.87847C22.0718 3.01664 21.4857 2.49278 20.6319 2.32117C20.097 2.20989 19.5542 2.14113 19.0084 2.11553C17.9887 2.07396 16.9516 2.05084 15.9485 2.02838C15.5414 2.01936 15.1344 2.00989 14.7273 2L14.6869 2.01164L14.3363 2.01271C14.0768 2.01271 13.8171 2.01271 13.5573 2.01271L13.1296 2.01197C11.443 2.0091 9.69863 2.00509 7.99678 2.27181C7.40454 2.36463 6.71292 2.49418 6.07288 2.75139C4.79641 3.26443 4.10758 4.21022 4.02559 5.56245C3.97237 6.43978 4.01263 7.32408 4.05166 8.17911C4.05921 8.34408 4.06647 8.50905 4.07347 8.67402C4.09659 9.22608 4.12078 10.0067 4.14637 10.833C4.18556 12.0968 4.23 13.5292 4.27895 14.3882C4.32814 15.255 4.39899 16.3952 4.50599 17.5286C4.66063 19.1664 5.97884 20.3519 7.71193 20.4115C9.00464 20.4559 10.3193 20.4745 11.5914 20.4926H11.6038C11.9671 20.4976 12.3364 20.4945 12.6933 20.4915C13.2807 20.4864 13.8881 20.4814 14.483 20.5129C14.8438 20.5319 15.2105 20.5416 15.59 20.5416C16.7668 20.5325 17.9422 20.4584 19.1109 20.3195C20.3106 20.1869 21.213 19.8347 21.9506 19.2111C22.5547 18.7003 22.8492 18.1086 22.8506 17.4021C22.8512 17.1704 22.8559 16.9358 22.8646 16.7044C22.8722 16.5005 22.8861 16.2925 22.8997 16.0915C22.9375 15.6628 22.9476 15.2321 22.9299 14.8021ZM20.7523 19.0628L20.7336 19.0731C20.2057 19.3628 19.6238 19.4631 19.0729 19.5411C17.257 19.7982 15.4527 19.7848 13.7605 19.7493C12.841 19.73 11.9061 19.7175 11.0019 19.7053C10.2098 19.6946 9.39075 19.6836 8.58533 19.6681C8.21102 19.6636 7.83756 19.6316 7.46792 19.5725C6.12643 19.349 5.38447 18.4772 5.3224 17.0515C5.27714 16.0142 5.23532 14.5638 5.1949 13.1611C5.15743 11.8625 5.11872 10.5197 5.0783 9.55029C5.06551 9.24281 5.04788 8.9305 5.03091 8.62844C5.00426 8.1546 4.97671 7.66452 4.96695 7.18256C4.95539 6.61107 4.98704 6.02711 5.02033 5.478C5.06994 4.66265 5.54304 4.08412 6.42668 3.75795C6.96101 3.57033 7.51331 3.43844 8.07476 3.36437C9.57425 3.14069 11.1043 3.1029 12.6084 3.1029C12.9955 3.1029 13.3809 3.10535 13.7635 3.10781L14.0105 3.10945C14.1073 3.11011 14.2041 3.10986 14.3008 3.10945H14.479L14.4798 3.07732C14.8937 3.08792 15.3078 3.09825 15.722 3.1083C16.9205 3.13782 18.1596 3.16833 19.3781 3.20834C19.6941 3.22744 20.0081 3.27103 20.3173 3.33871L20.3705 3.34896C20.8987 3.44989 21.2519 3.77582 21.4205 4.31755C21.6708 5.1459 21.796 6.00697 21.792 6.8723C21.7947 7.26628 21.7891 7.66764 21.7838 8.05498C21.7766 8.57244 21.7691 9.10736 21.7812 9.63351L21.7865 9.86375C21.8117 10.9646 21.8642 13.2552 21.9269 14.2195C21.9888 15.1706 22.0264 16.4251 21.7665 17.6911L21.7639 17.7004C21.7593 17.7133 21.7573 17.727 21.758 17.7408C21.8201 18.4771 21.3014 18.7615 20.7523 19.0628Z" fill="black"/>
<path d="M16.8896 13.1261C16.7582 13.1977 16.6346 13.2826 16.5206 13.3796C16.4939 13.4008 16.4672 13.422 16.4404 13.4427C16.0478 13.7471 15.6557 14.0517 15.2638 14.3566C14.807 14.7119 14.3499 15.0668 13.8927 15.4213C13.852 15.4505 13.809 15.4763 13.764 15.4983L13.732 15.5154C13.7417 15.3195 13.7514 15.1267 13.7613 14.9371C13.7853 14.4679 13.8079 14.0248 13.8251 13.5755C13.8616 12.6198 13.897 11.2236 13.9317 9.87333C13.9611 8.7141 13.9891 7.61916 14.0167 6.81497C14.0207 6.65713 14.0096 6.49928 13.9834 6.34358C13.9455 6.1058 13.8233 5.98535 13.6199 5.98535C13.3927 5.98535 13.255 6.12023 13.2324 6.36441C13.2261 6.4317 13.2196 6.49913 13.2129 6.56669C13.1857 6.84375 13.1578 7.13015 13.1541 7.41311C13.1394 8.54208 13.1279 10.14 13.1169 11.6854C13.1087 12.8825 13.1005 14.013 13.0911 14.8794C13.0888 14.9425 13.0824 15.0053 13.0722 15.0675C13.0702 15.0813 13.0682 15.0954 13.0662 15.1099L13.0062 15.0546C12.9399 14.9936 12.8849 14.9429 12.8321 14.8901C12.0696 14.1414 11.1956 13.5156 10.2411 13.0351L10.2119 13.0198C10.1292 12.9723 10.0411 12.9348 9.94953 12.9082C9.89515 12.8994 9.83946 12.9031 9.78677 12.9192C9.76561 12.9238 9.74446 12.9286 9.72379 12.9314L9.68066 12.9373L9.68886 12.98C9.69322 13.0049 9.69629 13.0301 9.69805 13.0553C9.6966 13.1198 9.71526 13.1831 9.75143 13.2365C9.80719 13.2956 9.86903 13.3487 9.93591 13.3949C9.98633 13.4308 10.0343 13.4698 10.0797 13.5119C10.4316 13.8563 10.7829 14.2012 11.1334 14.5467C11.5861 14.9921 12.0396 15.4368 12.4938 15.8806C12.6839 16.0782 12.8932 16.2564 13.1187 16.4125C13.2421 16.5006 13.3886 16.5506 13.5401 16.5566C13.7191 16.5566 13.8927 16.4716 14.0804 16.2993C14.3956 16.0092 14.7372 15.7054 15.1245 15.3706C15.4064 15.1268 15.6894 14.8842 15.9734 14.6428C16.2811 14.3804 16.5881 14.117 16.8944 13.8526C17.0176 13.7516 17.1253 13.6332 17.2142 13.5011C17.2638 13.4219 17.2701 13.251 17.2087 13.1848C17.1651 13.1483 17.1128 13.1238 17.0569 13.1135C17.001 13.1032 16.9434 13.1075 16.8896 13.1261Z" fill="black"/>
</g>
<defs>
<filter id="filter0_d_1108_5954" x="0.0999999" y="0.0999999" width="26.7384" height="26.342" filterUnits="userSpaceOnUse" color-interpolation-filters="sRGB">
<feFlood flood-opacity="0" result="BackgroundImageFix"/>
<feColorMatrix in="SourceAlpha" type="matrix" values="0 0 0 0 0 0 0 0 0 0 0 0 0 0 0 0 0 0 127 0" result="hardAlpha"/>
<feOffset dy="2"/>
<feGaussianBlur stdDeviation="1.95"/>
<feComposite in2="hardAlpha" operator="out"/>
<feColorMatrix type="matrix" values="0 0 0 0 0 0 0 0 0 0 0 0 0 0 0 0 0 0 0.66 0"/>
<feBlend mode="normal" in2="BackgroundImageFix" result="effect1_dropShadow_1108_5954"/>
<feBlend mode="normal" in="SourceGraphic" in2="effect1_dropShadow_1108_5954" result="shape"/>
</filter>
</defs>
</svg>
