<svg width="34" height="43" viewBox="0 0 33 43" fill="none" xmlns="http://www.w3.org/2000/svg">
<path d="M18.5041 21.2156C16.4741 19.2055 14.6679 17.4033 12.8504 15.6163C9.8742 12.6898 6.85348 9.83118 3.93032 6.82506C2.7116 5.57009 1.68613 4.02071 0.591654 2.58269C0.121826 1.96531 -0.288826 1.17034 0.26856 0.426237C0.88709 -0.400207 1.56209 0.120177 2.07839 0.762966C7.63244 7.67877 14.5082 12.4266 20.6101 18.4446C22.4082 20.2181 22.6425 21.7112 21.12 23.9055C20.6487 24.6088 20.1372 25.2682 19.5893 25.8783C15.6064 30.158 11.6494 34.4794 7.58795 38.6398C6.28388 39.9755 4.70193 40.8954 3.21516 41.9346C2.96178 42.1118 2.29434 42.0399 2.25472 41.8957C2.10797 41.3649 1.94708 40.589 2.1513 40.2048C2.95399 38.6924 3.75425 37.1036 4.81081 35.8915C7.36075 32.9665 10.0594 30.245 12.6878 27.4262C14.2336 25.7684 15.757 24.0778 17.2964 22.4103C17.6331 22.0454 17.9956 21.7164 18.5041 21.2156Z" fill="#003947"/>
</svg>
