<svg width="28" height="27" viewBox="0 0 28 27" fill="none" xmlns="http://www.w3.org/2000/svg">
<g filter="url(#filter0_d_1108_5950)">
<path d="M23.6148 13.8675C23.5917 13.3155 23.5675 12.5349 23.5419 11.7086C23.5028 10.4448 23.4583 9.01236 23.4093 8.1534C23.3601 7.28837 23.2896 6.1498 23.1822 5.01304C23.0277 3.37522 21.7095 2.18976 19.9768 2.13015C18.684 2.08571 17.3694 2.06711 16.0973 2.04907H16.0848C15.7214 2.0439 15.352 2.04718 14.9943 2.05013C14.4073 2.05513 13.8001 2.06021 13.2053 2.02881C11.8587 1.95756 10.4316 2.01717 8.57765 2.22215C7.37801 2.35474 6.47575 2.70698 5.73797 3.33054C5.13384 3.84136 4.83941 4.4331 4.83793 5.13956C4.83736 5.37349 4.83268 5.60832 4.82399 5.83732C4.81636 6.04141 4.80243 6.24967 4.7889 6.45104C4.751 6.87948 4.74078 7.30991 4.75831 7.73966C4.85072 9.20054 4.99609 12.4036 4.88384 14.0696C4.84408 14.6605 4.85498 15.264 4.86548 15.8475L4.86778 15.9787C4.87073 16.8919 5.02156 17.7985 5.3144 18.6635C5.61646 19.5253 6.20255 20.0492 7.05643 20.2208C7.59131 20.3321 8.13416 20.4008 8.67989 20.4264C9.69957 20.468 10.7367 20.4911 11.7399 20.5136C12.1469 20.5226 12.554 20.5321 12.961 20.542L13.0014 20.5303L13.3521 20.5292H14.1311L14.5589 20.53C16.2452 20.5329 17.9898 20.5368 19.6913 20.2701C20.2835 20.1773 20.9751 20.0478 21.6152 19.7906C22.8917 19.2776 23.5805 18.3318 23.6626 16.9795C23.7158 16.1022 23.6754 15.2187 23.6365 14.3639C23.6289 14.1983 23.6217 14.0329 23.6148 13.8675ZM5.90762 12.9082L5.90229 12.6776C5.87711 11.5769 5.82464 9.28638 5.762 8.32222C5.70009 7.3711 5.66245 6.1166 5.92237 4.85062L5.92492 4.84135C5.92953 4.8284 5.93153 4.81466 5.93082 4.80092C5.86859 4.06462 6.38728 3.7802 6.93639 3.47887L6.955 3.46862C7.48295 3.17894 8.06486 3.07858 8.6157 3.0006C9.86393 2.83653 11.1222 2.76049 12.3811 2.77307C12.905 2.77307 13.4216 2.78176 13.9281 2.79241C14.8476 2.81168 15.7826 2.82423 16.6867 2.83644C17.4789 2.8471 18.2979 2.85809 19.1033 2.87359C19.4776 2.87817 19.8511 2.91013 20.2207 2.96919C21.5623 3.19271 22.3042 4.06447 22.3662 5.49025C22.4115 6.52747 22.4533 7.97793 22.4938 9.38059C22.5312 10.6792 22.57 12.022 22.6103 12.9914C22.6231 13.2989 22.6408 13.6112 22.6577 13.9133C22.6844 14.3871 22.7119 14.8772 22.7217 15.3591C22.7333 15.9297 22.7017 16.514 22.6683 17.0637C22.6187 17.8791 22.1456 18.4576 21.262 18.7838C20.7277 18.9714 20.1754 19.1033 19.614 19.1773C17.7286 19.4586 15.7948 19.4459 13.9252 19.4339L13.6782 19.4322C13.5815 19.4317 13.4847 19.4318 13.3879 19.4322H13.2098L13.2091 19.4644C12.7936 19.4535 12.3782 19.4431 11.9628 19.4333C10.7657 19.4038 9.52754 19.3734 8.31084 19.3335C7.99527 19.3144 7.68167 19.2708 7.37284 19.2032L7.31839 19.1928C6.79027 19.0918 6.43697 18.7659 6.26888 18.2242C6.01861 17.3958 5.89335 16.5347 5.89728 15.6694C5.89458 15.2754 5.90016 14.8741 5.90549 14.4867C5.91238 13.9691 5.91934 13.4342 5.90729 12.908L5.90762 12.9082Z" fill="black"/>
<path d="M10.7984 9.41622C10.9298 9.34463 11.0534 9.25967 11.1674 9.16269C11.1941 9.14154 11.2209 9.1203 11.2477 9.09956C11.637 8.79766 12.026 8.49547 12.4147 8.19297C12.8748 7.83536 13.3351 7.47803 13.7955 7.12097C13.8361 7.09181 13.879 7.06609 13.9238 7.04407C13.9342 7.03865 13.9448 7.033 13.956 7.02693C13.9464 7.22257 13.9367 7.41512 13.9269 7.60458C13.9028 8.07399 13.8801 8.51725 13.8629 8.96682C13.8264 9.92253 13.791 11.3187 13.7563 12.669C13.727 13.8282 13.6989 14.9231 13.6714 15.7273C13.6673 15.8852 13.6785 16.043 13.7047 16.1987C13.7425 16.4365 13.8648 16.557 14.0681 16.557C14.2953 16.557 14.433 16.4221 14.4557 16.1779C14.462 16.1102 14.4686 16.0425 14.4752 15.9749C14.5023 15.6981 14.5304 15.4118 14.534 15.1292C14.5486 14.0002 14.5601 12.4023 14.5712 10.8569C14.5794 9.65983 14.5876 8.5293 14.5969 7.66287C14.5993 7.59967 14.6056 7.53669 14.6159 7.47429C14.6178 7.46063 14.6198 7.44652 14.6218 7.43198L14.6792 7.48519C14.7465 7.5471 14.8022 7.59834 14.8556 7.6518C15.6181 8.40048 16.4921 9.02624 17.4466 9.50674L17.4758 9.52208C17.5585 9.56961 17.6466 9.60707 17.7382 9.63367C17.7925 9.64263 17.8482 9.63887 17.9008 9.62268C17.9221 9.61808 17.9432 9.61334 17.9638 9.61047L18.0069 9.60464L17.9987 9.56192C17.9944 9.53697 17.9914 9.51183 17.9896 9.48657C17.9911 9.42214 17.9725 9.35884 17.9363 9.30545C17.8805 9.24633 17.8187 9.1932 17.7518 9.14695C17.7013 9.11119 17.6533 9.07211 17.608 9.02995C17.256 8.68557 16.9047 8.34065 16.5542 7.99519C16.1016 7.54974 15.6481 7.10513 15.1938 6.66132C15.0037 6.46368 14.7944 6.28548 14.569 6.12935C14.2232 5.90657 13.9357 5.94076 13.6073 6.24258C13.292 6.53267 12.9504 6.83646 12.5631 7.17132C12.2812 7.41506 11.9982 7.65765 11.7142 7.89909C11.4065 8.16147 11.0995 8.42487 10.7932 8.68927C10.67 8.79026 10.5623 8.90867 10.4734 9.04078C10.4242 9.11998 10.4175 9.29086 10.479 9.35711C10.5226 9.3937 10.5749 9.41838 10.6309 9.42874C10.6869 9.4391 10.7446 9.43479 10.7984 9.41622Z" fill="black"/>
</g>
<defs>
<filter id="filter0_d_1108_5950" x="0.85" y="0.0999999" width="26.7381" height="26.342" filterUnits="userSpaceOnUse" color-interpolation-filters="sRGB">
<feFlood flood-opacity="0" result="BackgroundImageFix"/>
<feColorMatrix in="SourceAlpha" type="matrix" values="0 0 0 0 0 0 0 0 0 0 0 0 0 0 0 0 0 0 127 0" result="hardAlpha"/>
<feOffset dy="2"/>
<feGaussianBlur stdDeviation="1.95"/>
<feComposite in2="hardAlpha" operator="out"/>
<feColorMatrix type="matrix" values="0 0 0 0 0 0 0 0 0 0 0 0 0 0 0 0 0 0 0.66 0"/>
<feBlend mode="normal" in2="BackgroundImageFix" result="effect1_dropShadow_1108_5950"/>
<feBlend mode="normal" in="SourceGraphic" in2="effect1_dropShadow_1108_5950" result="shape"/>
</filter>
</defs>
</svg>
