<svg width="37" height="38" viewBox="0 0 37 38" fill="none" xmlns="http://www.w3.org/2000/svg">
<g clip-path="url(#clip0_1586_1079)">
<path d="M23.7012 32.2835C23.4414 34.0744 22.9292 35.7225 21.3962 36.7981C20.354 37.5519 19.0982 37.9263 17.8267 37.8621C14.9147 37.7203 13.0871 36.0579 12.4643 32.9183C12.2136 32.9183 11.941 32.9101 11.6688 32.9197C8.63096 33.0273 5.59352 33.1432 2.55534 33.239C2.11803 33.2517 1.68089 33.2093 1.25343 33.1134C0.954572 33.0399 0.675288 32.8988 0.435983 32.7002C0.344318 32.635 0.269729 32.5477 0.218885 32.4455C0.168038 32.3435 0.142536 32.23 0.144653 32.1153C0.14677 32.0005 0.17648 31.8881 0.231054 31.7882C0.285627 31.6882 0.363378 31.6038 0.457375 31.5423C2.79055 29.8673 3.73021 27.3206 4.50659 24.6812C5.12475 22.5794 5.25374 20.4022 5.32124 18.2219C5.40623 15.469 5.8374 12.7991 6.83315 10.217C8.12985 6.85398 10.4816 4.69373 13.7223 3.49099C14.1858 3.31903 14.411 3.11052 14.5073 2.5889C14.8188 0.901576 15.8289 0.0822256 17.4851 0.0723264C19.1016 0.0633853 20.3534 1.0408 20.6647 2.62562C20.6856 2.81676 20.7609 2.99727 20.881 3.14437C21.0011 3.29147 21.1609 3.39862 21.3399 3.45223C23.8344 4.4372 25.7275 6.14575 27.1133 8.50574C28.9678 11.6639 30.0739 15.0839 30.6794 18.7021C30.8763 19.8785 31.1495 21.0412 31.3789 22.2119C31.9236 24.99 33.3582 27.1199 35.6841 28.641C36.1077 28.9299 36.4562 29.3212 36.6991 29.781C37.0356 30.4208 36.7752 31.0935 36.1019 31.3272C35.4703 31.5423 34.8136 31.6692 34.1493 31.7048C30.9083 31.8872 27.6652 32.0256 24.4229 32.1838C24.1968 32.196 23.9718 32.2455 23.7012 32.2835ZM28.1267 20.6428C28.1824 20.4977 28.222 20.4461 28.2161 20.4013C28.1565 19.9542 28.088 19.5092 28.0246 19.063C27.5549 15.7495 26.6142 12.6088 24.9522 9.70354C22.999 6.28881 19.6266 4.60352 15.8657 5.36368C13.1147 5.91963 10.8541 7.32887 9.56496 9.99574C8.99664 11.172 8.48124 12.4348 8.26048 13.7167C7.90209 15.7986 7.79716 17.9274 7.60427 20.0384C7.54002 20.7409 7.53426 21.4491 7.49587 22.2863C14.4435 21.7308 21.3213 21.389 28.1267 20.6428ZM4.42239 30.8535C13.5891 30.1844 22.5805 29.9886 31.6736 28.9708C30.0493 27.2443 29.3376 25.2072 28.758 23.1326L7.28845 23.9948C7.01087 26.4522 6.08677 28.7194 4.42239 30.8535ZM14.1387 32.7807C14.518 34.6594 16.2131 35.8088 18.1729 35.5982C19.9585 35.4066 21.0004 34.2741 21.0172 32.3899L14.1387 32.7807ZM16.0274 2.74989H18.633C18.2721 2.00937 17.7052 1.90846 17.1104 1.92874C16.6005 1.9463 16.1639 2.13279 16.0274 2.74989Z" fill="#FF5C5C"/>
</g>
<defs>
<clipPath id="clip0_1586_1079">
<rect width="37" height="38" fill="white"/>
</clipPath>
</defs>
</svg>
