<svg width="65" height="59" viewBox="0 0 65 59" fill="none" xmlns="http://www.w3.org/2000/svg">
<path d="M61.5529 41.992C60.6811 41.4366 59.7507 40.9776 58.7787 40.6232C58.333 40.4412 57.8737 40.2532 57.4126 40.0434L57.315 38.6371C57.2319 37.4463 57.1428 36.1725 57.0588 34.8969C57.0019 34.0328 56.9507 33.1675 56.8994 32.3033C56.7944 30.5367 56.6854 28.7097 56.532 26.9165C56.4147 25.5437 56.2394 25.3917 54.8388 25.4215C52.7344 25.4691 50.5952 25.5332 48.5263 25.595C46.2434 25.6636 43.8825 25.7342 41.5606 25.783C39.8356 25.819 38.1325 25.8113 36.3286 25.8011C35.5601 25.7971 34.784 25.7932 33.9927 25.7926L34.2705 16.7852C38.8053 16.0843 41.5083 13.3971 42.3063 8.79617C42.9083 5.32504 41.2473 2.43965 37.9716 1.26588C36.6866 0.792727 35.3646 0.426572 34.0186 0.171198C31.7223 -0.245009 29.9019 0.0986106 28.6075 1.19186C26.5256 2.95166 25.2206 4.813 24.6164 6.88241C23.6464 10.2092 24.6688 13.1173 27.495 15.071C28.0417 15.4246 28.6189 15.7287 29.22 15.98C29.4716 16.0934 29.7232 16.2068 29.9694 16.3296C30.2256 16.4552 30.4846 16.5714 30.6206 16.6315V26.1788C29.3683 26.2684 28.1341 26.3549 26.9178 26.4384C24.0011 26.6409 21.2463 26.832 18.4508 27.0622C15.9462 27.2675 13.4046 27.5201 10.9466 27.7645C10.0082 27.8579 9.06986 27.9504 8.13177 28.042C7.03998 28.1481 6.46079 28.7462 6.45709 29.7715C6.4531 30.8942 6.47189 31.8188 6.51686 32.6815C6.62131 34.6914 6.73715 36.7007 6.85242 38.6995L6.98192 40.9563C3.65021 42.7053 1.52556 45.0861 0.488138 48.2317C-0.255562 50.4868 -0.14656 52.7397 0.795232 54.5726C1.24607 55.4326 1.86675 56.1927 2.61996 56.8073C3.3732 57.4223 4.24341 57.879 5.17831 58.1501C6.25006 58.4963 7.36911 58.6752 8.49579 58.6806C10.7511 58.6647 12.9392 57.9136 14.726 56.5428C18.5683 53.7014 18.8051 48.9516 17.7466 45.4538C16.8826 42.5976 14.837 40.9316 11.6675 40.5021C11.3471 40.4587 11.0257 40.4202 10.6836 40.3794L10.302 40.3331L9.92342 30.8607C12.6665 30.2018 28.7774 29.1443 30.8648 29.4811L30.33 40.1523L30.0716 40.2486C29.822 40.3419 29.5778 40.4332 29.3316 40.5222C26.9889 41.366 25.0091 42.9875 23.7247 45.1136C22.8714 46.5184 22.4677 48.1489 22.5673 49.788C22.6669 51.427 23.2651 52.9968 24.2823 54.2888C26.7154 57.4076 31.3543 58.7503 35.5632 57.5558C39.068 56.561 41.6235 53.3495 42.0741 49.3746C42.5471 45.2003 40.8773 42.4201 36.9692 40.8747C36.501 40.6895 36.0104 40.5472 35.5359 40.4094C35.315 40.3456 35.0939 40.2815 34.875 40.2129L33.8789 39.9011L33.5089 29.2433C37.9705 28.7224 52.0018 28.6218 53.7359 28.9802V31.1014C53.7359 33.7317 53.7359 36.3358 53.7317 38.9396C53.7265 39.1673 53.7089 39.3944 53.6787 39.6201C53.6679 39.717 53.6562 39.8186 53.6457 39.924L53.3739 40.0147C53.1337 40.0953 52.8937 40.1752 52.6535 40.2543C50.8129 40.8472 49.1687 41.9274 47.897 43.3798C46.9834 44.4618 46.3379 45.7421 46.0123 47.118C45.6867 48.4943 45.6904 49.9272 46.0228 51.3014C46.4737 53.0048 47.7021 55.2758 50.9885 56.4203C55.1937 57.8842 59.1368 57.0549 62.3908 54.0212C63.2683 53.2166 63.9562 52.2282 64.405 51.1276C64.8541 50.027 65.0531 48.841 64.9879 47.6545C64.8769 46.0795 64.1879 43.819 61.5529 41.992ZM60.1321 51.5554C58.736 53.0028 56.9159 53.7178 54.2332 53.8735C54.1267 53.8604 54.0137 53.8488 53.8962 53.8363C53.615 53.808 53.3241 53.7771 53.0341 53.7212C51.2194 53.3728 49.8324 52.436 49.1289 51.0845C48.4253 49.733 48.4572 48.0667 49.2165 46.3911C50.1515 44.3291 51.7402 42.9636 53.8111 42.4425C54.0672 42.3807 54.3299 42.3504 54.5935 42.3526C55.49 42.3912 56.3709 42.5999 57.1886 42.9676C58.3103 43.5009 59.3235 44.2358 60.1771 45.1357C61.9929 46.9448 61.9747 49.6451 60.1321 51.5554ZM32.4145 43.102C32.8699 43.2721 33.3435 43.4193 33.8006 43.5621C34.5378 43.7745 35.2598 44.0365 35.9614 44.3458C37.7294 45.1771 38.5178 46.4637 38.5178 48.5181C38.5178 52.0337 36.4666 54.3453 32.8884 54.8624C29.5741 55.3404 26.4237 53.5055 25.5613 50.5926C25.3357 49.9212 25.2609 49.2084 25.3423 48.505C25.4237 47.8013 25.6593 47.1243 26.0324 46.5215C26.5565 45.7223 27.1586 44.9763 27.83 44.2948C28.7712 43.299 29.7779 42.8049 30.8773 42.8049C31.4036 42.8114 31.9241 42.912 32.4145 43.102ZM30.562 3.03162C30.9357 2.83735 31.3478 2.72785 31.769 2.71098C31.8797 2.70996 31.9902 2.72272 32.0975 2.74895C33.6421 3.14054 35.1614 3.62562 36.6465 4.20145C38.3721 4.87424 39.2026 6.25271 39.0486 8.18859C38.7595 11.8134 36.1199 14.0918 32.1581 14.138C32.0252 14.1011 31.8587 14.0626 31.6691 14.0186C31.0179 13.8861 30.3812 13.6913 29.7676 13.4368C26.9514 12.1701 26.0065 9.79331 27.1748 6.91587C27.9049 5.11381 29.0447 3.80704 30.562 3.03162ZM6.14202 44.5817C6.89084 44.1156 7.7592 43.8757 8.64208 43.8907C9.49766 43.897 10.3424 44.0818 11.1219 44.4331C12.8581 45.204 14.0373 46.5913 14.2795 48.1433C14.3429 48.5484 14.3694 48.9567 14.3905 49.2847C14.3987 49.4092 14.4061 49.5203 14.4141 49.6127C14.3856 52.2441 13.1618 54.0941 10.8698 54.9625C8.86864 55.7206 7.19282 55.7527 5.59698 55.0634C3.73617 54.2596 2.81145 52.8083 2.92359 50.8673C3.05053 48.6638 3.99773 46.6854 5.81898 44.8196C5.90442 44.7396 5.99843 44.6696 6.09933 44.61L6.14202 44.5817Z" fill="#9E75FF"/>
</svg>
