<svg width="34" height="30" viewBox="0 0 34 30" fill="none" xmlns="http://www.w3.org/2000/svg">
<path d="M31.5373 21.5172C31.0947 21.2357 30.6223 21.003 30.1289 20.8234C29.9026 20.7312 29.6694 20.6359 29.4353 20.5296L29.3857 19.8168C29.3435 19.2133 29.2983 18.5677 29.2557 17.9212C29.2268 17.4832 29.2008 17.0447 29.1748 16.6067C29.1214 15.7113 29.0661 14.7854 28.9882 13.8765C28.9287 13.1808 28.8397 13.1037 28.1286 13.1188C27.0602 13.1429 25.9741 13.1754 24.9238 13.2067C23.7648 13.2415 22.5662 13.2773 21.3874 13.302C20.5116 13.3203 19.6469 13.3164 18.7311 13.3112C18.3409 13.3092 17.9469 13.3072 17.5452 13.3069L17.6862 8.74172C19.9885 8.38651 21.3608 7.02457 21.766 4.69268C22.0716 2.93342 21.2283 1.47103 19.5653 0.876137C18.9129 0.636332 18.2417 0.450756 17.5583 0.321325C16.3925 0.110381 15.4683 0.284536 14.8112 0.838625C13.7542 1.73054 13.0917 2.67391 12.7849 3.72274C12.2925 5.40886 12.8115 6.88272 14.2464 7.87293C14.5239 8.05211 14.8169 8.20629 15.1221 8.33361C15.2499 8.39109 15.3776 8.44858 15.5026 8.5108C15.6326 8.57446 15.7641 8.63338 15.8332 8.66384V13.5026C15.1974 13.548 14.5708 13.5919 13.9533 13.6342C12.4725 13.7368 11.0739 13.8337 9.65467 13.9504C8.3831 14.0544 7.09274 14.1824 5.84486 14.3063C5.36841 14.3536 4.89205 14.4005 4.41579 14.447C3.8615 14.5007 3.56745 14.8039 3.56557 15.3235C3.56355 15.8925 3.57308 16.3611 3.59591 16.7984C3.64894 17.817 3.70775 18.8354 3.76627 19.8484L3.83202 20.9923C2.14054 21.8787 1.06187 23.0853 0.535177 24.6796C0.157607 25.8226 0.212946 26.9644 0.691087 27.8934C0.919971 28.3292 1.23509 28.7144 1.61749 29.026C1.9999 29.3376 2.4417 29.5691 2.91634 29.7065C3.46046 29.882 4.02859 29.9726 4.6006 29.9754C5.74561 29.9673 6.85647 29.5867 7.76364 28.8919C9.71435 27.4518 9.83457 25.0445 9.29719 23.2717C8.8585 21.8241 7.82 20.9798 6.21088 20.7621C6.04817 20.7401 5.88504 20.7205 5.71135 20.6998L5.51758 20.6764L5.3254 15.8756C6.71806 15.5416 14.8974 15.0056 15.9572 15.1763L15.6857 20.5847L15.5545 20.6336C15.4277 20.6809 15.3038 20.7271 15.1788 20.7723C13.9894 21.1999 12.9843 22.0217 12.3322 23.0993C11.899 23.8113 11.694 24.6377 11.7446 25.4684C11.7952 26.2991 12.0989 27.0947 12.6153 27.7495C13.8506 29.3302 16.2057 30.0107 18.3425 29.4053C20.1219 28.9011 21.4193 27.2735 21.648 25.2589C21.8882 23.1432 21.0404 21.7342 19.0563 20.9509C18.8186 20.857 18.5695 20.7849 18.3287 20.7151C18.2165 20.6827 18.1043 20.6503 17.9931 20.6155L17.4874 20.4574L17.2996 15.0558C19.5647 14.7918 26.6882 14.7408 27.5687 14.9224V15.9976C27.5687 17.3306 27.5687 18.6505 27.5665 19.9702C27.5639 20.0855 27.5549 20.2006 27.5396 20.315C27.5341 20.3642 27.5282 20.4156 27.5229 20.4691L27.3849 20.5151C27.2629 20.5559 27.1411 20.5964 27.0191 20.6365C26.0847 20.9369 25.2499 21.4844 24.6043 22.2206C24.1405 22.7689 23.8128 23.4178 23.6475 24.1152C23.4821 24.8127 23.484 25.5389 23.6528 26.2354C23.8817 27.0987 24.5053 28.2497 26.1738 28.8298C28.3088 29.5717 30.3106 29.1514 31.9627 27.6139C32.4082 27.2061 32.7574 26.7051 32.9853 26.1473C33.2133 25.5895 33.3143 24.9884 33.2812 24.3871C33.2249 23.5888 32.875 22.4432 31.5373 21.5172ZM30.816 26.3642C30.1072 27.0977 29.1831 27.4601 27.8211 27.539C27.7671 27.5324 27.7097 27.5265 27.65 27.5202C27.5073 27.5058 27.3596 27.4902 27.2123 27.4618C26.291 27.2852 25.5869 26.8105 25.2297 26.1255C24.8725 25.4405 24.8887 24.596 25.2742 23.7468C25.7489 22.7017 26.5555 22.0096 27.6068 21.7455C27.7369 21.7142 27.8702 21.6988 28.004 21.7C28.4592 21.7195 28.9064 21.8253 29.3216 22.0116C29.891 22.2819 30.4054 22.6544 30.8388 23.1105C31.7607 24.0274 31.7514 25.3959 30.816 26.3642ZM16.744 22.0797C16.9752 22.166 17.2156 22.2405 17.4477 22.313C17.8219 22.4206 18.1885 22.5534 18.5447 22.7101C19.4423 23.1315 19.8426 23.7835 19.8426 24.8248C19.8426 26.6066 18.8012 27.7781 16.9845 28.0402C15.3019 28.2825 13.7025 27.3525 13.2646 25.8762C13.1501 25.5359 13.1121 25.1747 13.1534 24.8181C13.1948 24.4615 13.3144 24.1183 13.5038 23.8129C13.7699 23.4078 14.0756 23.0297 14.4164 22.6843C14.8943 22.1796 15.4053 21.9292 15.9635 21.9292C16.2307 21.9325 16.495 21.9835 16.744 22.0797ZM15.8034 1.77106C15.9932 1.6726 16.2024 1.6171 16.4162 1.60855C16.4725 1.60804 16.5285 1.6145 16.583 1.62779C17.3672 1.82627 18.1385 2.07211 18.8925 2.36396C19.7686 2.70495 20.1902 3.40359 20.112 4.38474C19.9652 6.22189 18.6252 7.37662 16.6138 7.40004C16.5463 7.38136 16.4618 7.36182 16.3655 7.33955C16.0349 7.27238 15.7117 7.17364 15.4001 7.04468C13.9704 6.40265 13.4906 5.19806 14.0838 3.7397C14.4544 2.82637 15.0331 2.16406 15.8034 1.77106ZM3.40561 22.8297C3.78578 22.5935 4.22664 22.4719 4.67487 22.4795C5.10924 22.4827 5.53813 22.5764 5.93388 22.7544C6.81531 23.1451 7.41396 23.8482 7.53693 24.6348C7.56915 24.8401 7.58259 25.0471 7.59328 25.2133C7.59747 25.2764 7.60123 25.3327 7.60527 25.3796C7.59082 26.7132 6.96949 27.6508 5.80585 28.0909C4.78989 28.4752 3.93909 28.4914 3.1289 28.1421C2.18418 27.7347 1.71471 26.9991 1.77164 26.0154C1.83608 24.8986 2.31697 23.8959 3.24161 22.9503C3.28498 22.9097 3.33271 22.8742 3.38394 22.8441L3.40561 22.8297Z" fill="black"/>
</svg>
