<svg width="34" height="30" viewBox="0 0 34 30" fill="none" xmlns="http://www.w3.org/2000/svg">
<path d="M31.5375 21.5172C31.0949 21.2357 30.6225 21.003 30.1291 20.8234C29.9028 20.7312 29.6695 20.6359 29.4355 20.5296L29.3859 19.8168C29.3437 19.2133 29.2985 18.5677 29.2559 17.9212C29.227 17.4832 29.2009 17.0447 29.1749 16.6067C29.1216 15.7113 29.0663 14.7854 28.9884 13.8765C28.9289 13.1808 28.8398 13.1037 28.1288 13.1188C27.0604 13.1429 25.9743 13.1754 24.924 13.2067C23.765 13.2415 22.5664 13.2773 21.3876 13.302C20.5118 13.3203 19.6471 13.3164 18.7313 13.3112C18.3411 13.3092 17.9471 13.3072 17.5454 13.3069L17.6864 8.74172C19.9887 8.38651 21.361 7.02457 21.7661 4.69268C22.0717 2.93342 21.2285 1.47103 19.5654 0.876137C18.913 0.636332 18.2419 0.450756 17.5585 0.321325C16.3927 0.110381 15.4685 0.284536 14.8114 0.838625C13.7544 1.73054 13.0919 2.67391 12.7851 3.72274C12.2927 5.40886 12.8117 6.88272 14.2465 7.87293C14.5241 8.05211 14.8171 8.20629 15.1223 8.33361C15.25 8.39109 15.3778 8.44858 15.5028 8.5108C15.6328 8.57446 15.7643 8.63338 15.8334 8.66384V13.5026C15.1976 13.548 14.571 13.5919 13.9535 13.6342C12.4727 13.7368 11.0741 13.8337 9.65486 13.9504C8.38328 14.0544 7.09292 14.1824 5.84505 14.3063C5.3686 14.3536 4.89223 14.4005 4.41597 14.447C3.86168 14.5007 3.56763 14.8039 3.56575 15.3235C3.56373 15.8925 3.57327 16.3611 3.5961 16.7984C3.64913 17.817 3.70794 18.8354 3.76646 19.8484L3.8322 20.9923C2.14072 21.8787 1.06205 23.0853 0.53536 24.6796C0.15779 25.8226 0.213129 26.9644 0.69127 27.8934C0.920155 28.3292 1.23527 28.7144 1.61767 29.026C2.00008 29.3376 2.44188 29.5691 2.91653 29.7065C3.46064 29.882 4.02878 29.9726 4.60078 29.9754C5.74579 29.9673 6.85666 29.5867 7.76382 28.8919C9.71453 27.4518 9.83476 25.0445 9.29737 23.2717C8.85868 21.8241 7.82018 20.9798 6.21106 20.7621C6.04836 20.7401 5.88522 20.7205 5.71153 20.6998L5.51776 20.6764L5.32558 15.8756C6.71824 15.5416 14.8976 15.0056 15.9574 15.1763L15.6858 20.5847L15.5546 20.6336C15.4279 20.6809 15.3039 20.7271 15.179 20.7723C13.9896 21.1999 12.9845 22.0217 12.3324 23.0993C11.8992 23.8113 11.6942 24.6377 11.7448 25.4684C11.7954 26.2991 12.099 27.0947 12.6155 27.7495C13.8508 29.3302 16.2059 30.0107 18.3427 29.4053C20.1221 28.9011 21.4195 27.2735 21.6482 25.2589C21.8884 23.1432 21.0406 21.7342 19.0565 20.9509C18.8188 20.857 18.5697 20.7849 18.3288 20.7151C18.2167 20.6827 18.1044 20.6503 17.9933 20.6155L17.4876 20.4574L17.2997 15.0558C19.5649 14.7918 26.6884 14.7408 27.5689 14.9224V15.9976C27.5689 17.3306 27.5689 18.6505 27.5667 19.9702C27.5641 20.0855 27.5551 20.2006 27.5398 20.315C27.5343 20.3642 27.5284 20.4156 27.523 20.4691L27.3851 20.5151C27.2631 20.5559 27.1413 20.5964 27.0193 20.6365C26.0849 20.9369 25.2501 21.4844 24.6045 22.2206C24.1407 22.7689 23.8129 23.4178 23.6476 24.1152C23.4823 24.8127 23.4842 25.5389 23.653 26.2354C23.8819 27.0987 24.5055 28.2497 26.174 28.8298C28.309 29.5717 30.3108 29.1514 31.9629 27.6139C32.4083 27.2061 32.7576 26.7051 32.9855 26.1473C33.2135 25.5895 33.3145 24.9884 33.2814 24.3871C33.225 23.5888 32.8752 22.4432 31.5375 21.5172ZM30.8161 26.3642C30.1074 27.0977 29.1833 27.4601 27.8213 27.539C27.7672 27.5324 27.7099 27.5265 27.6502 27.5202C27.5074 27.5058 27.3598 27.4902 27.2125 27.4618C26.2912 27.2852 25.5871 26.8105 25.2299 26.1255C24.8727 25.4405 24.8889 24.596 25.2744 23.7468C25.7491 22.7017 26.5556 22.0096 27.607 21.7455C27.737 21.7142 27.8704 21.6988 28.0042 21.7C28.4594 21.7195 28.9066 21.8253 29.3217 22.0116C29.8912 22.2819 30.4056 22.6544 30.839 23.1105C31.7609 24.0274 31.7516 25.3959 30.8161 26.3642ZM16.7441 22.0797C16.9753 22.166 17.2158 22.2405 17.4478 22.313C17.8221 22.4206 18.1887 22.5534 18.5449 22.7101C19.4425 23.1315 19.8427 23.7835 19.8427 24.8248C19.8427 26.6066 18.8013 27.7781 16.9847 28.0402C15.3021 28.2825 13.7027 27.3525 13.2648 25.8762C13.1503 25.5359 13.1123 25.1747 13.1536 24.8181C13.1949 24.4615 13.3145 24.1183 13.504 23.8129C13.7701 23.4078 14.0758 23.0297 14.4166 22.6843C14.8944 22.1796 15.4055 21.9292 15.9637 21.9292C16.2309 21.9325 16.4952 21.9835 16.7441 22.0797ZM15.8036 1.77106C15.9933 1.6726 16.2026 1.6171 16.4164 1.60855C16.4726 1.60804 16.5287 1.6145 16.5832 1.62779C17.3674 1.82627 18.1387 2.07211 18.8927 2.36396C19.7688 2.70495 20.1904 3.40359 20.1122 4.38474C19.9654 6.22189 18.6254 7.37662 16.614 7.40004C16.5465 7.38136 16.4619 7.36182 16.3657 7.33955C16.0351 7.27238 15.7119 7.17364 15.4003 7.04468C13.9706 6.40265 13.4908 5.19806 14.084 3.7397C14.4546 2.82637 15.0333 2.16406 15.8036 1.77106ZM3.40579 22.8297C3.78596 22.5935 4.22683 22.4719 4.67506 22.4795C5.10943 22.4827 5.53831 22.5764 5.93406 22.7544C6.81549 23.1451 7.41414 23.8482 7.53711 24.6348C7.56933 24.8401 7.58277 25.0471 7.59346 25.2133C7.59765 25.2764 7.60141 25.3327 7.60546 25.3796C7.59101 26.7132 6.96967 27.6508 5.80603 28.0909C4.79007 28.4752 3.93928 28.4914 3.12908 28.1421C2.18436 27.7347 1.71489 26.9991 1.77182 26.0154C1.83627 24.8986 2.31715 23.8959 3.24179 22.9503C3.28517 22.9097 3.33289 22.8742 3.38412 22.8441L3.40579 22.8297Z" fill="white"/>
</svg>
