<svg width="37" height="34" viewBox="0 0 37 34" fill="none" xmlns="http://www.w3.org/2000/svg">
<path d="M35.0378 23.8623C34.5416 23.5467 34.0119 23.2859 33.4587 23.0845C33.205 22.981 32.9435 22.8742 32.681 22.755L32.6254 21.9559C32.5781 21.2792 32.5274 20.5553 32.4796 19.8305C32.4472 19.3394 32.4181 18.8477 32.3889 18.3566C32.3291 17.3527 32.2671 16.3145 32.1797 15.2955C32.113 14.5154 32.0132 14.4291 31.2159 14.446C30.018 14.473 28.8003 14.5095 27.6227 14.5446C26.3232 14.5836 24.9793 14.6237 23.6576 14.6514C22.6756 14.6719 21.7062 14.6675 20.6793 14.6617C20.2419 14.6594 19.8001 14.6572 19.3497 14.6569L19.5078 9.53833C22.0892 9.14006 23.6278 7.61304 24.0821 4.9985C24.4247 3.026 23.4792 1.38635 21.6146 0.719345C20.8831 0.450474 20.1306 0.242404 19.3644 0.0972845C18.0573 -0.139228 17.0211 0.0560363 16.2843 0.677287C15.0992 1.67731 14.3564 2.73503 14.0124 3.91099C13.4603 5.80149 14.0422 7.454 15.651 8.56423C15.9622 8.76514 16.2908 8.938 16.6329 9.08076C16.7761 9.1452 16.9194 9.20967 17.0595 9.27943C17.2053 9.3508 17.3527 9.41686 17.4302 9.45101V14.8763C16.7173 14.9272 16.0148 14.9764 15.3224 15.0239C13.6621 15.1389 12.094 15.2475 10.5028 15.3783C9.07705 15.495 7.63028 15.6385 6.23115 15.7774C5.69695 15.8305 5.16284 15.883 4.62885 15.9351C4.00737 15.9954 3.67768 16.3353 3.67557 16.9179C3.67331 17.5559 3.684 18.0813 3.7096 18.5716C3.76905 19.7137 3.83499 20.8555 3.90061 21.9913L3.97432 23.2738C2.07781 24.2677 0.868396 25.6206 0.277863 27.4081C-0.145474 28.6896 -0.0834265 29.9698 0.45267 31.0114C0.709299 31.5 1.06261 31.932 1.49136 32.2813C1.92013 32.6307 2.41548 32.8903 2.94765 33.0443C3.55773 33.241 4.19472 33.3427 4.83606 33.3457C6.11986 33.3367 7.36538 32.9099 8.3825 32.131C10.5697 30.5163 10.7045 27.8172 10.1019 25.8295C9.61007 24.2065 8.44569 23.2598 6.64153 23.0157C6.4591 22.991 6.27619 22.9691 6.08145 22.9459L5.86419 22.9197L5.64872 17.5369C7.21019 17.1625 16.381 16.5615 17.5692 16.7529L17.2648 22.8169L17.1177 22.8717C16.9756 22.9247 16.8366 22.9765 16.6964 23.0271C15.3629 23.5066 14.2359 24.428 13.5048 25.6362C13.0191 26.4345 12.7893 27.3611 12.846 28.2924C12.9027 29.2238 13.2432 30.1159 13.8222 30.8501C15.2073 32.6224 17.8479 33.3854 20.2437 32.7066C22.2387 32.1413 23.6934 30.3163 23.9499 28.0575C24.2191 25.6855 23.2686 24.1056 21.044 23.2274C20.7775 23.1222 20.4982 23.0413 20.2281 22.963C20.1024 22.9268 19.9765 22.8903 19.8519 22.8514L19.2849 22.6741L19.0743 16.6177C21.614 16.3218 29.601 16.2646 30.5881 16.4682V17.6737C30.5881 19.1683 30.5881 20.6481 30.5857 22.1278C30.5828 22.2572 30.5728 22.3862 30.5556 22.5145C30.5494 22.5696 30.5428 22.6272 30.5368 22.6872L30.3821 22.7387C30.2453 22.7845 30.1087 22.8299 29.972 22.8749C28.9243 23.2118 27.9883 23.8256 27.2645 24.651C26.7444 25.2658 26.377 25.9934 26.1916 26.7753C26.0063 27.5573 26.0084 28.3716 26.1976 29.1525C26.4542 30.1204 27.1535 31.4109 29.0242 32.0614C31.418 32.8932 33.6625 32.4219 35.5148 30.698C36.0142 30.2408 36.4058 29.6791 36.6613 29.0537C36.917 28.4283 37.0302 27.7543 36.9931 27.0801C36.9299 26.1851 36.5377 24.9005 35.0378 23.8623ZM34.229 29.2968C33.4344 30.1193 32.3983 30.5256 30.8712 30.6141C30.8106 30.6067 30.7463 30.6001 30.6794 30.593C30.5193 30.5769 30.3537 30.5593 30.1886 30.5276C29.1556 30.3296 28.3661 29.7972 27.9657 29.0292C27.5652 28.2612 27.5833 27.3143 28.0156 26.3622C28.5478 25.1904 29.4521 24.4145 30.6309 24.1183C30.7767 24.0832 30.9263 24.066 31.0763 24.0673C31.5866 24.0892 32.088 24.2078 32.5535 24.4167C33.192 24.7198 33.7688 25.1374 34.2546 25.6488C35.2883 26.6768 35.2779 28.2112 34.229 29.2968ZM18.4513 24.4931C18.7106 24.5898 18.9802 24.6734 19.2403 24.7546C19.66 24.8752 20.071 25.0241 20.4703 25.1999C21.4768 25.6723 21.9255 26.4034 21.9255 27.5708C21.9255 29.5686 20.7579 30.8822 18.7211 31.176C16.8345 31.4477 15.0412 30.405 14.5503 28.7497C14.4218 28.3682 14.3793 27.9631 14.4256 27.5634C14.4719 27.1635 14.606 26.7788 14.8184 26.4363C15.1168 25.9821 15.4595 25.5582 15.8417 25.1709C16.3774 24.6051 16.9505 24.3242 17.5763 24.3242C17.8759 24.3279 18.1722 24.3851 18.4513 24.4931ZM17.3968 1.72274C17.6095 1.61235 17.8441 1.55013 18.0839 1.54054C18.1469 1.53996 18.2098 1.54721 18.2709 1.56211C19.1501 1.78464 20.0149 2.06029 20.8603 2.38751C21.8426 2.76983 22.3153 3.55316 22.2277 4.65324C22.0631 6.71306 20.5606 8.00776 18.3054 8.03403C18.2297 8.01308 18.1349 7.99117 18.027 7.9662C17.6564 7.89089 17.2939 7.78018 16.9446 7.63559C15.3416 6.91574 14.8037 5.56514 15.4687 3.93C15.8843 2.90597 16.5331 2.16339 17.3968 1.72274ZM3.49623 25.3339C3.92248 25.0691 4.41678 24.9328 4.91934 24.9413C5.40636 24.9448 5.88723 25.0499 6.33095 25.2495C7.31922 25.6876 7.99044 26.4759 8.12831 27.3578C8.16444 27.5881 8.1795 27.8201 8.19149 28.0065C8.19619 28.0772 8.2004 28.1404 8.20494 28.1929C8.18874 29.6882 7.49209 30.7394 6.18741 31.2329C5.0483 31.6637 4.09437 31.6819 3.18597 31.2903C2.12674 30.8335 1.60036 30.0088 1.6642 28.9058C1.73645 27.6536 2.27563 26.5294 3.31234 25.4691C3.36098 25.4237 3.41449 25.3839 3.47193 25.35L3.49623 25.3339Z" fill="#FF5C5C"/>
</svg>
