<svg width="34" height="34" viewBox="0 0 34 34" fill="none" xmlns="http://www.w3.org/2000/svg">
<path fill-rule="evenodd" clip-rule="evenodd" d="M24.5508 12.2826C23.1342 13.6001 21.2925 15.3142 19.3517 17.1559L18.0767 18.4025L15.5833 20.9101C14.1667 22.3267 12.8633 23.7434 11.7583 24.8201L11.5883 24.9617C11.2483 25.6134 11.3333 25.9817 12.2967 25.84C13.4583 24.9475 14.9033 23.6442 16.3767 22.3126C17.0992 21.6609 17.7933 20.9809 18.5583 20.2584C19.3233 19.5359 19.975 18.8417 20.6408 18.1192C22.4258 16.2067 24.0125 14.2942 25.2025 12.8634C25.2432 12.8238 25.2755 12.7764 25.2976 12.7241C25.3197 12.6718 25.3311 12.6156 25.3311 12.5588C25.3311 12.502 25.3197 12.4458 25.2976 12.3935C25.2755 12.3412 25.2432 12.2938 25.2025 12.2542C25.1594 12.2104 25.1075 12.1761 25.0503 12.1536C24.9931 12.131 24.9318 12.1208 24.8704 12.1235C24.8089 12.1261 24.7487 12.1417 24.6937 12.1691C24.6387 12.1965 24.59 12.2351 24.5508 12.2826Z" fill="black"/>
<path fill-rule="evenodd" clip-rule="evenodd" d="M31.1666 2.0825C29.811 0.808101 28.0393 0.068247 26.18 0C25.4053 0.0389665 24.6454 0.226539 23.9416 0.5525C22.9608 1.0586 22.0743 1.72947 21.3208 2.53583C20.9154 2.96396 20.5634 3.43965 20.2725 3.9525C20.2104 4.06276 20.1892 4.19135 20.2125 4.31569C20.2358 4.44004 20.3022 4.5522 20.4 4.6325C20.4438 4.66789 20.4945 4.69387 20.5489 4.70882C20.6033 4.72377 20.6601 4.72737 20.7159 4.71939C20.7718 4.71142 20.8253 4.69204 20.8733 4.66247C20.9213 4.6329 20.9627 4.59376 20.995 4.5475L22.0008 3.34333C22.6027 2.78684 23.2741 2.31065 23.9983 1.92667C24.6788 1.5833 25.4319 1.40839 26.1941 1.41667C27.6649 1.57817 29.0378 2.23219 30.09 3.2725C30.6625 3.70354 31.1322 4.25621 31.4654 4.89069C31.7986 5.52517 31.9868 6.22565 32.0166 6.94167C31.9764 8.02306 31.6854 9.08031 31.1666 10.03C30.6047 11.0306 29.9035 11.9464 29.0841 12.75H29.0133C28.7441 12.4242 28.3758 11.9992 27.9225 11.5175C26.0383 9.5625 22.8366 6.44583 21.7458 5.29833C21.6555 5.20836 21.5332 5.15785 21.4058 5.15785C21.2783 5.15785 21.1561 5.20836 21.0658 5.29833C20.9749 5.39102 20.924 5.51563 20.924 5.64542C20.924 5.7752 20.9749 5.89981 21.0658 5.9925C21.3491 6.30417 25.3158 10.37 26.3641 11.5317C27.115 12.325 27.7808 12.9483 28.1208 13.4583L28.22 13.5858C27.9508 13.9117 27.455 14.4217 26.8033 15.0875C23.0633 18.8558 14.3791 27.2283 11.3333 29.9767C11.3333 29.1125 11.3333 27.54 11.2341 26.8175C11.1907 26.5997 11.0906 26.3972 10.9438 26.2305C10.797 26.0639 10.6089 25.9389 10.3983 25.8683H9.78912C9.26495 25.8683 8.74079 25.9958 8.18829 26.0242C8.18829 25.2167 8.28745 23.97 8.18829 23.3892C8.1497 23.131 8.03014 22.8917 7.84682 22.7059C7.66351 22.52 7.42591 22.3971 7.16829 22.355C6.43162 22.355 5.39745 22.355 4.40579 22.27H3.68329C3.85141 21.9913 4.04087 21.7261 4.24995 21.4767C7.23912 18.105 14.5916 10.8517 17.935 7.565C19.6633 5.87917 19.3516 6.2475 19.6916 5.83667C19.7267 5.78677 19.7464 5.72766 19.7483 5.66667C19.7698 5.5863 19.7665 5.50127 19.7387 5.42285C19.7108 5.34443 19.6598 5.27631 19.5925 5.2275C19.5262 5.18751 19.4503 5.16638 19.3729 5.16638C19.2955 5.16638 19.2196 5.18751 19.1533 5.2275C18.5007 5.75618 17.8765 6.3189 17.2833 6.91333C13.8266 10.1292 6.26162 17.1983 3.11662 20.5133C2.49408 21.1318 1.99418 21.8624 1.64329 22.6667C1.54412 23.3892 0.849954 27.9933 0.594954 30.7417C0.525212 31.3529 0.496814 31.9682 0.509954 32.5833C0.52576 32.8236 0.609257 33.0544 0.750788 33.2492C0.993514 33.4966 1.29607 33.6772 1.62912 33.7733C2.48222 34.0046 3.36982 34.0814 4.24995 34C6.59783 33.7754 8.89918 33.2025 11.0783 32.3C11.645 31.9742 18.8983 24.9192 24.0975 19.6492C26.265 17.4392 28.0783 15.5408 28.9 14.6058C30.1145 13.392 31.2147 12.0689 32.1866 10.6533C32.8799 9.57572 33.3206 8.35529 33.4758 7.08333C33.5041 6.12794 33.3102 5.17902 32.9095 4.31126C32.5088 3.44349 31.9122 2.68056 31.1666 2.0825ZM5.92162 32.0592C4.90544 32.2662 3.87031 32.3659 2.83329 32.3567C2.62591 32.3749 2.41733 32.3749 2.20995 32.3567V31.8467C2.20995 31.0392 2.36579 29.835 2.49329 28.56L2.93245 28.8575C3.02912 28.9349 3.11915 29.0202 3.20162 29.1125C3.42829 29.3392 3.61245 29.58 3.82495 29.8067L4.49079 30.4867C4.81662 30.7983 5.15662 31.0675 5.49662 31.365L6.28995 32.045L5.92162 32.0592ZM10.285 30.8833C9.30113 31.2997 8.27516 31.6084 7.22495 31.8042C7.1905 31.6494 7.14311 31.4977 7.08329 31.3508C6.8973 31.0297 6.68901 30.722 6.45995 30.43C6.26162 30.1467 6.07745 29.8633 5.87912 29.5942C5.66239 29.3262 5.43063 29.0708 5.18495 28.8292C4.82808 28.5043 4.44419 28.2105 4.03745 27.9508C3.85436 27.8535 3.66506 27.7683 3.47079 27.6958L2.76245 27.4975H2.59245C2.79079 25.7408 3.00329 24.0408 3.10245 23.2475C3.49912 23.2475 3.95245 23.3325 4.43412 23.4033C5.24162 23.5167 6.07745 23.6583 6.75745 23.7717C6.75745 24.5508 6.58745 25.8825 6.60162 26.52C6.60153 26.7877 6.6698 27.051 6.79995 27.285C6.87025 27.3917 6.96447 27.4806 7.07514 27.5446C7.18581 27.6085 7.30987 27.6458 7.43745 27.6533C7.79073 27.6889 8.14668 27.6889 8.49995 27.6533C9.02412 27.5683 9.50579 27.4125 10.0158 27.3558C10.2141 28.3617 10.3841 30.345 10.3983 30.6425C10.382 30.7124 10.382 30.7851 10.3983 30.855L10.285 30.8833Z" fill="black"/>
<path fill-rule="evenodd" clip-rule="evenodd" d="M15.201 14.0532C14.2943 14.974 13.3876 15.909 12.5376 16.8157C10.9935 18.459 9.7043 20.0032 8.62764 21.0657C7.86264 21.8732 8.41514 22.5532 9.33597 21.944L11.036 20.3999C11.971 19.5357 13.0476 18.5582 14.1526 17.4674C15.2576 16.3765 16.1643 15.4557 17.1276 14.4215C19.1818 12.2115 21.1085 10.0724 22.2701 8.75485C22.7235 8.37235 22.086 7.76318 21.4626 8.18818C20.2585 9.25068 18.4168 10.8232 16.5468 12.7499C16.0935 13.1324 15.5835 13.5857 15.201 14.0532Z" fill="black"/>
</svg>
