<?xml version="1.0" standalone="no"?>
<!DOCTYPE svg PUBLIC "-//W3C//DTD SVG 20010904//EN"
 "http://www.w3.org/TR/2001/REC-SVG-20010904/DTD/svg10.dtd">
<svg version="1.0" xmlns="http://www.w3.org/2000/svg"
 width="100.000000pt" height="100.000000pt" viewBox="0 0 100.000000 100.000000"
 preserveAspectRatio="xMidYMid meet">

<g transform="translate(0.000000,100.000000) scale(0.100000,-0.100000)"
fill="#000000" stroke="none">
<path d="M151 813 c-32 -40 -11 -93 38 -93 58 0 84 58 46 100 -25 28 -60 25
-84 -7z m59 -33 c0 -11 -6 -20 -13 -20 -19 0 -27 10 -20 26 8 21 33 17 33 -6z"/>
<path d="M441 811 c-54 -4 -86 -10 -89 -18 -2 -7 3 -16 12 -19 8 -3 12 -12 9
-20 -3 -8 0 -14 6 -14 7 0 14 7 17 15 4 8 10 15 15 15 4 0 6 -7 3 -15 -8 -19
5 -20 20 -1 6 7 37 16 69 20 47 5 57 4 57 -9 0 -20 16 -19 24 2 6 14 9 15 16
3 6 -10 12 -11 22 -2 8 6 54 12 104 14 71 2 89 6 89 18 0 13 -23 15 -145 16
-80 0 -183 -2 -229 -5z"/>
<path d="M450 706 c0 -9 7 -16 16 -16 17 0 14 22 -4 28 -7 2 -12 -3 -12 -12z"/>
<path d="M643 632 c-10 -16 -30 -20 -145 -26 -73 -4 -137 -11 -142 -16 -14
-14 4 -30 35 -30 19 0 29 -5 29 -15 0 -8 5 -15 10 -15 6 0 10 8 10 18 0 14 2
14 9 3 8 -12 12 -12 24 -2 12 9 16 9 20 -1 4 -10 8 -9 18 3 11 13 41 18 129
23 117 7 149 17 119 39 -9 7 -14 18 -12 25 6 17 -14 15 -21 -3 -3 -8 -10 -15
-15 -15 -6 0 -8 7 -5 15 4 8 2 15 -4 15 -5 0 -12 -7 -16 -15 -3 -8 -10 -15
-15 -15 -6 0 -8 7 -5 15 9 21 -9 19 -23 -3z"/>
<path d="M150 620 c-11 -11 -20 -29 -20 -40 0 -27 35 -60 63 -60 50 0 76 70
39 103 -25 23 -58 21 -82 -3z m60 -34 c0 -8 -5 -18 -11 -22 -14 -8 -33 11 -25
25 10 16 36 13 36 -3z"/>
<path d="M707 513 c-12 -11 -8 -23 8 -23 8 0 15 7 15 15 0 16 -12 20 -23 8z"/>
<path d="M677 454 c-8 -8 1 -24 14 -24 5 0 9 7 9 15 0 15 -12 20 -23 9z"/>
<path d="M155 426 c-21 -15 -25 -67 -5 -90 15 -19 60 -21 84 -3 26 19 24 67
-4 89 -27 21 -50 23 -75 4z m55 -46 c0 -11 -6 -20 -14 -20 -18 0 -29 16 -21
30 11 18 35 11 35 -10z"/>
<path d="M344 389 c-4 -7 0 -18 10 -24 9 -7 14 -19 10 -29 -3 -9 -1 -16 4 -16
6 0 14 9 17 20 3 11 13 20 20 20 9 0 12 -6 9 -15 -4 -8 -2 -15 4 -15 5 0 12 7
16 15 7 18 32 20 40 3 5 -10 7 -10 12 0 3 7 25 12 54 12 30 0 50 -5 53 -12 3
-10 7 -10 19 0 13 10 17 10 21 0 4 -10 7 -11 18 0 17 16 66 16 72 0 4 -10 8
-10 14 -2 4 7 19 14 33 15 14 2 25 11 25 19 0 13 -33 15 -222 18 -161 2 -224
-1 -229 -9z"/>
<path d="M156 225 c-25 -25 -29 -54 -12 -80 31 -47 109 -25 109 30 0 51 -63
83 -97 50z m51 -40 c7 -20 -2 -29 -21 -22 -9 4 -13 13 -10 22 8 19 23 19 31 0z"/>
<path d="M746 213 c-6 -15 -9 -15 -16 -3 -7 12 -12 11 -29 -4 -18 -17 -36 -18
-183 -15 -149 4 -163 2 -166 -13 -2 -11 3 -18 13 -18 12 0 15 -6 10 -20 -8
-26 2 -25 26 3 16 19 18 19 19 5 0 -21 4 -22 30 -5 17 10 22 9 30 -3 7 -12 12
-12 22 -2 16 16 75 16 81 0 4 -10 8 -10 14 -2 4 6 47 15 95 19 88 7 114 19 86
39 -8 6 -13 17 -11 24 7 19 -14 14 -21 -5z"/>
</g>
</svg>
