<svg width="24" height="24" viewBox="0 0 24 24" fill="none" xmlns="http://www.w3.org/2000/svg">
<path fill-rule="evenodd" clip-rule="evenodd" d="M22 1.47C21.043 0.570424 19.7925 0.0481743 18.48 0C17.9332 0.0275057 17.3968 0.15991 16.9 0.39C16.2077 0.747247 15.5819 1.2208 15.05 1.79C14.7638 2.09221 14.5153 2.42799 14.31 2.79C14.2662 2.86783 14.2512 2.9586 14.2677 3.04637C14.2841 3.13415 14.331 3.21332 14.4 3.27C14.431 3.29498 14.4668 3.31332 14.5051 3.32387C14.5435 3.33442 14.5836 3.33696 14.623 3.33134C14.6624 3.32571 14.7003 3.31203 14.7341 3.29116C14.768 3.27028 14.7972 3.24266 14.82 3.21L15.53 2.36C15.9548 1.96718 16.4288 1.63105 16.94 1.36C17.4204 1.11762 17.952 0.99416 18.49 1C19.5282 1.114 20.4973 1.57566 21.24 2.31C21.6441 2.61426 21.9757 3.00438 22.2109 3.45225C22.4461 3.90012 22.579 4.39458 22.6 4.9C22.5716 5.66334 22.3662 6.40963 22 7.08C21.6033 7.78633 21.1084 8.43278 20.53 9H20.48C20.29 8.77 20.03 8.47 19.71 8.13C18.38 6.75 16.12 4.55 15.35 3.74C15.2863 3.67649 15.2 3.64083 15.11 3.64083C15.02 3.64083 14.9337 3.67649 14.87 3.74C14.8059 3.80543 14.7699 3.89339 14.7699 3.985C14.7699 4.07661 14.8059 4.16458 14.87 4.23C15.07 4.45 17.87 7.32 18.61 8.14C19.14 8.7 19.61 9.14 19.85 9.5L19.92 9.59C19.73 9.82 19.38 10.18 18.92 10.65C16.28 13.31 10.15 19.22 7.99999 21.16C7.99999 20.55 7.99999 19.44 7.92999 18.93C7.89937 18.7763 7.82868 18.6333 7.72507 18.5157C7.62147 18.398 7.48863 18.3098 7.33999 18.26H6.90999C6.53999 18.26 6.16999 18.35 5.77999 18.37C5.77999 17.8 5.84999 16.92 5.77999 16.51C5.75275 16.3278 5.66835 16.1589 5.53896 16.0277C5.40956 15.8965 5.24184 15.8097 5.05999 15.78C4.53999 15.78 3.80999 15.78 3.10999 15.72H2.59999C2.71867 15.5233 2.8524 15.3361 2.99999 15.16C5.10999 12.78 10.3 7.66 12.66 5.34C13.88 4.15 13.66 4.41 13.9 4.12C13.9248 4.08478 13.9387 4.04305 13.94 4C13.9552 3.94327 13.9528 3.88325 13.9332 3.8279C13.9136 3.77254 13.8776 3.72445 13.83 3.69C13.7832 3.66177 13.7296 3.64686 13.675 3.64686C13.6204 3.64686 13.5668 3.66177 13.52 3.69C13.0594 4.06318 12.6188 4.4604 12.2 4.88C9.75999 7.15 4.41999 12.14 2.19999 14.48C1.76055 14.9165 1.40768 15.4323 1.15999 16C1.08999 16.51 0.599989 19.76 0.419989 21.7C0.370759 22.1315 0.350714 22.5658 0.359989 23C0.371146 23.1696 0.430085 23.3325 0.529989 23.47C0.701325 23.6447 0.914896 23.7721 1.14999 23.84C1.75218 24.0033 2.37872 24.0574 2.99999 24C4.65732 23.8415 6.2818 23.437 7.81999 22.8C8.21999 22.57 13.34 17.59 17.01 13.87C18.54 12.31 19.82 10.97 20.4 10.31C21.2573 9.4532 22.034 8.51925 22.72 7.52C23.2094 6.75933 23.5205 5.89785 23.63 5C23.6499 4.32561 23.5131 3.65578 23.2303 3.04324C22.9474 2.4307 22.5263 1.89216 22 1.47ZM4.17999 22.63C3.46268 22.7762 2.73201 22.8465 1.99999 22.84C1.85361 22.8529 1.70637 22.8529 1.55999 22.84V22.48C1.55999 21.91 1.66999 21.06 1.75999 20.16L2.06999 20.37C2.13822 20.4246 2.20178 20.4848 2.25999 20.55C2.41999 20.71 2.54999 20.88 2.69999 21.04L3.16999 21.52C3.39999 21.74 3.63999 21.93 3.87999 22.14L4.43999 22.62L4.17999 22.63ZM7.25999 21.8C6.56552 22.0939 5.84131 22.3118 5.09999 22.45C5.07567 22.3407 5.04222 22.2337 4.99999 22.13C4.86871 21.9033 4.72168 21.6861 4.55999 21.48C4.41999 21.28 4.28999 21.08 4.14999 20.89C3.997 20.7009 3.83341 20.5206 3.65999 20.35C3.40808 20.1207 3.1371 19.9133 2.84999 19.73C2.72074 19.6613 2.58712 19.6012 2.44999 19.55L1.94999 19.41H1.82999C1.96999 18.17 2.11999 16.97 2.18999 16.41C2.46999 16.41 2.78999 16.47 3.12999 16.52C3.69999 16.6 4.28999 16.7 4.76999 16.78C4.76999 17.33 4.64999 18.27 4.65999 18.72C4.65993 18.909 4.70811 19.0949 4.79999 19.26C4.84961 19.3354 4.91612 19.3981 4.99424 19.4432C5.07236 19.4884 5.15993 19.5146 5.24999 19.52C5.49936 19.5451 5.75062 19.5451 5.99999 19.52C6.36999 19.46 6.70999 19.35 7.06999 19.31C7.20999 20.02 7.32999 21.42 7.33999 21.63C7.32847 21.6793 7.32847 21.7307 7.33999 21.78L7.25999 21.8Z" fill="#FF5C5C"/>
<path fill-rule="evenodd" clip-rule="evenodd" d="M10.7299 9.92C10.0899 10.57 9.44993 11.23 8.84993 11.87C7.75993 13.03 6.84993 14.12 6.08993 14.87C5.54993 15.44 5.93993 15.92 6.58993 15.49L7.78993 14.4C8.44993 13.79 9.20993 13.1 9.98993 12.33C10.7699 11.56 11.4099 10.91 12.0899 10.18C13.5399 8.62 14.8999 7.11 15.7199 6.18C16.0399 5.91 15.5899 5.48 15.1499 5.78C14.2999 6.53 12.9999 7.64 11.6799 9C11.3599 9.27 10.9999 9.59 10.7299 9.92Z" fill="#FF5C5C"/>
</svg>
