<svg width="34" height="33" viewBox="0 0 34 33" fill="none" xmlns="http://www.w3.org/2000/svg">
<path d="M29.8313 16.5304C29.7011 16.5149 29.5699 16.509 29.4389 16.5124C28.3104 16.523 27.182 16.5339 26.0535 16.5455C23.6129 16.5701 21.089 16.5947 18.6068 16.6135C18.0549 16.6176 17.5129 16.603 16.9391 16.5872C16.711 16.5809 16.4812 16.5749 16.2498 16.5696C16.2443 16.5472 16.2393 16.5274 16.2348 16.5097C16.224 16.4733 16.2163 16.436 16.2119 16.3982C16.1104 14.1375 16.0095 11.8768 15.9091 9.61615L15.7394 5.80354C15.7366 5.73943 15.7361 5.67451 15.7358 5.60954C15.7424 5.43352 15.7262 5.25736 15.6878 5.08554C15.4323 4.13274 15.2571 3.8977 14.2376 3.94741C13.017 3.9976 11.8078 4.20573 10.6397 4.56665C7.36857 5.6003 4.9615 7.32796 3.28109 9.84748C1.76832 12.1152 0.801537 14.7565 0.406873 17.6976C-0.0830715 21.3491 0.942404 24.5739 3.37212 27.0232C6.89408 30.5734 11.0104 32.3573 15.6562 32.3572C17.374 32.3465 19.0842 32.1243 20.7486 31.6952C22.7593 31.1907 24.3323 30.3469 25.5577 29.1145C27.9171 26.7416 29.517 23.8134 30.4483 20.1625C30.7217 19.0909 30.783 18.2014 30.641 17.3634C30.5613 16.8931 30.4032 16.606 29.8313 16.5304ZM5.06163 25.7386C3.15224 23.8718 2.26013 21.4051 2.4818 18.6049C2.73275 15.4353 3.74521 12.6229 5.491 10.2457C6.48065 8.89785 7.82571 7.81105 9.60237 6.92322C10.9818 6.24689 12.4434 5.75645 13.9497 5.46454C14.0379 5.4501 14.1274 5.44412 14.2167 5.4467H14.2611C14.2617 5.45027 14.2622 5.45384 14.2627 5.45728C14.2738 5.52159 14.2804 5.5866 14.2827 5.65183C14.301 9.12522 14.3176 12.5986 14.3325 16.072C14.3325 16.232 14.3242 16.396 14.3155 16.5547C14.3094 16.6655 14.3033 16.7762 14.3002 16.8877C14.2867 17.3629 14.3914 17.7017 14.6203 17.9231C14.8467 18.1424 15.1796 18.2324 15.6414 18.2004C15.731 18.1942 15.8216 18.1958 15.9171 18.1979L16.0052 18.1995C16.5651 18.2055 17.1249 18.2127 17.6849 18.2212C18.8984 18.2383 20.1544 18.2582 21.3876 18.2542C22.9248 18.2521 24.488 18.2359 25.9992 18.22C26.7997 18.2118 27.6004 18.2041 28.4013 18.1969C28.4311 18.2024 28.4603 18.211 28.4883 18.2226L28.5233 18.2349C28.4823 18.465 28.4467 18.6982 28.4121 18.924C28.3395 19.4988 28.2216 20.0669 28.0596 20.6229C27.2917 23.0054 26.2805 24.979 24.9678 26.6568C23.882 28.0443 22.5652 28.9814 21.0536 29.442C14.88 31.3232 9.49932 30.0772 5.06163 25.7386Z" fill="black"/>
<path d="M32.7962 12.2886C32.3364 11.1719 31.8608 10.017 31.2189 8.95321C28.5375 4.50976 24.7667 1.67967 20.0112 0.541431C19.5771 0.437312 19.134 0.376543 18.6883 0.360035C18.3559 0.346622 18.1093 0.42232 17.9387 0.587334C17.7638 0.756533 17.6775 1.01236 17.6751 1.36922C17.6723 1.7951 17.6923 2.25938 17.7379 2.83047L17.7592 3.09713C17.9515 5.50147 18.1505 7.98747 18.0041 10.4405C18.0041 10.4431 18.0041 10.4456 18.0041 10.4482V10.9527C18.0041 11.3312 18.0041 11.7098 18.0041 12.0886C18.0041 12.3101 18.001 12.5316 17.9981 12.7531C17.9919 13.2404 17.9859 13.7442 18.0085 14.2402C18.047 15.0708 18.2558 15.2776 19.0683 15.2776H19.0876C19.3601 15.2767 19.6342 15.2504 19.8991 15.2251C20.0851 15.2073 20.2773 15.1889 20.4653 15.1798C21.7603 15.1168 23.0554 15.0552 24.3508 14.9946C25.9114 14.9208 27.472 14.8461 29.0326 14.7705C30.2105 14.7126 31.273 14.6575 32.3491 14.5691C32.732 14.5376 33.0255 14.3821 33.1755 14.1309C33.3256 13.8798 33.3247 13.549 33.1747 13.1957C33.0462 12.8957 32.9212 12.592 32.7962 12.2886ZM31.1899 12.7621L31.1455 12.7694C31.0193 12.7931 30.892 12.8088 30.764 12.8167C30.1483 12.8413 29.5324 12.8615 28.9166 12.8824C27.8607 12.9181 26.7687 12.9551 25.6949 13.0085C24.3529 13.0756 22.9897 13.1604 21.6714 13.2423C21.0333 13.282 20.3951 13.3211 19.757 13.3596C19.6838 13.3638 19.6081 13.3628 19.5033 13.3618L19.4195 13.3608C19.6635 9.20336 19.6052 5.47633 19.2401 1.97842C24.5192 2.76928 29.2914 7.07433 31.1899 12.7621Z" fill="black"/>
</svg>
