<svg width="37" height="36" viewBox="0 0 37 36" fill="none" xmlns="http://www.w3.org/2000/svg">
<path d="M33.1247 18.1318C32.9788 18.1144 32.8317 18.1078 32.6848 18.1116C31.4195 18.1235 30.1543 18.1358 28.889 18.1487C26.1526 18.1763 23.3228 18.2039 20.5397 18.225C19.9209 18.2296 19.3132 18.2132 18.6699 18.1955C18.4141 18.1885 18.1565 18.1817 17.897 18.1758C17.8909 18.1507 17.8853 18.1285 17.8802 18.1086C17.868 18.0677 17.8594 18.0259 17.8545 17.9836C17.7407 15.4488 17.6276 12.9141 17.515 10.3795L17.3247 6.10473C17.3216 6.03284 17.321 5.96005 17.3208 5.8872C17.3281 5.68985 17.3099 5.49234 17.2669 5.29969C16.9804 4.2314 16.784 3.96787 15.6409 4.02361C14.2723 4.07988 12.9166 4.31324 11.6069 4.71791C7.93927 5.87684 5.24043 7.81392 3.35634 10.6388C1.6602 13.1815 0.576235 16.1429 0.133733 19.4405C-0.415599 23.5346 0.734176 27.1502 3.4584 29.8965C7.40727 33.877 12.0225 35.8772 17.2314 35.877C19.1575 35.865 21.075 35.6159 22.9411 35.1348C25.1955 34.5691 26.9592 33.623 28.3331 32.2413C30.9785 29.5807 32.7724 26.2976 33.8166 22.2042C34.1231 21.0026 34.1918 20.0054 34.0326 19.0658C33.9432 18.5385 33.766 18.2166 33.1247 18.1318ZM5.35271 28.4561C3.21187 26.3631 2.21162 23.5974 2.46016 20.4578C2.74153 16.904 3.87672 13.7507 5.83412 11.0853C6.94373 9.5741 8.45182 8.35556 10.4438 7.36012C11.9905 6.60181 13.6292 6.05193 15.3181 5.72464C15.417 5.70844 15.5174 5.70173 15.6175 5.70463H15.6673C15.668 5.70863 15.6685 5.71263 15.6691 5.7165C15.6815 5.7886 15.6889 5.86149 15.6915 5.93462C15.712 9.82903 15.7306 13.7234 15.7473 17.6178C15.7473 17.7972 15.738 17.9811 15.7283 18.1591C15.7215 18.2833 15.7146 18.4074 15.7111 18.5324C15.696 19.0653 15.8134 19.4451 16.07 19.6933C16.3239 19.9392 16.6971 20.0401 17.2149 20.0043C17.3153 19.9972 17.4169 19.999 17.524 20.0014L17.6228 20.0032C18.2505 20.0099 18.8782 20.0181 19.506 20.0276C20.8667 20.0468 22.2749 20.069 23.6576 20.0646C25.3811 20.0622 27.1338 20.044 28.8281 20.0262C29.7257 20.017 30.6235 20.0084 31.5215 20.0003C31.5548 20.0065 31.5875 20.0161 31.619 20.0291L31.6582 20.0429C31.6123 20.3009 31.5723 20.5624 31.5335 20.8155C31.4521 21.46 31.32 22.097 31.1383 22.7203C30.2774 25.3917 29.1436 27.6044 27.6718 29.4856C26.4544 31.0414 24.9779 32.092 23.2831 32.6084C16.3612 34.7177 10.3283 33.3206 5.35271 28.4561Z" fill="#FF5C5C"/>
<path d="M36.449 13.3761C35.9334 12.124 35.4001 10.8292 34.6805 9.63647C31.6741 4.65441 27.4461 1.48129 22.1142 0.205081C21.6275 0.0883414 21.1307 0.0202071 20.6309 0.00169759C20.2583 -0.013341 19.9817 0.0715327 19.7905 0.256549C19.5944 0.446256 19.4977 0.733094 19.4949 1.1332C19.4918 1.61071 19.5142 2.13127 19.5654 2.77158L19.5893 3.07056C19.8049 5.76633 20.028 8.55368 19.8638 11.3041C19.8638 11.307 19.8638 11.3098 19.8638 11.3127V11.8783C19.8638 12.3027 19.8638 12.7272 19.8638 13.1519C19.8638 13.4003 19.8604 13.6486 19.8571 13.8969C19.8502 14.4433 19.8434 15.0081 19.8688 15.5643C19.912 16.4956 20.146 16.7275 21.057 16.7275H21.0786C21.3842 16.7264 21.6916 16.697 21.9885 16.6686C22.1971 16.6486 22.4126 16.628 22.6233 16.6178C24.0753 16.5472 25.5274 16.4781 26.9798 16.4102C28.7296 16.3274 30.4794 16.2436 32.2291 16.1589C33.5498 16.0939 34.7411 16.0321 35.9477 15.9331C36.3769 15.8978 36.706 15.7234 36.8742 15.4418C37.0425 15.1602 37.0415 14.7893 36.8733 14.3932C36.7292 14.0568 36.589 13.7163 36.449 13.3761ZM34.6479 13.907L34.5981 13.9153C34.4567 13.9418 34.3139 13.9594 34.1704 13.9683C33.48 13.9959 32.7895 14.0185 32.099 14.0419C30.9152 14.0819 29.6908 14.1235 28.4868 14.1834C26.9822 14.2585 25.4537 14.3536 23.9756 14.4455C23.2602 14.4899 22.5447 14.5338 21.8292 14.577C21.7471 14.5817 21.6623 14.5806 21.5448 14.5795L21.4508 14.5784C21.7244 9.91694 21.659 5.73815 21.2496 1.81625C27.1686 2.70297 32.5193 7.52985 34.6479 13.907Z" fill="#FF5C5C"/>
</svg>
