<svg width="34" height="33" viewBox="0 0 34 33" fill="none" xmlns="http://www.w3.org/2000/svg">
<path d="M29.831 16.5304C29.7009 16.5149 29.5697 16.509 29.4387 16.5124C28.3102 16.523 27.1817 16.5339 26.0532 16.5455C23.6127 16.5701 21.0888 16.5947 18.6066 16.6135C18.0547 16.6176 17.5126 16.603 16.9389 16.5872C16.7107 16.5809 16.481 16.5749 16.2496 16.5696C16.2441 16.5472 16.2391 16.5274 16.2346 16.5097C16.2237 16.4733 16.216 16.436 16.2116 16.3982C16.1101 14.1375 16.0092 11.8768 15.9088 9.61615L15.7391 5.80354C15.7363 5.73943 15.7358 5.67451 15.7356 5.60954C15.7422 5.43352 15.726 5.25736 15.6875 5.08554C15.4321 4.13274 15.2569 3.8977 14.2373 3.94741C13.0167 3.9976 11.8075 4.20573 10.6395 4.56665C7.36833 5.6003 4.96125 7.32796 3.28085 9.84748C1.76807 12.1152 0.801293 14.7565 0.406629 17.6976C-0.0833156 21.3491 0.942159 24.5739 3.37187 27.0232C6.89384 30.5734 11.0101 32.3573 15.6559 32.3572C17.3738 32.3465 19.084 32.1243 20.7484 31.6952C22.759 31.1907 24.3321 30.3469 25.5574 29.1145C27.9169 26.7416 29.5168 23.8134 30.4481 20.1625C30.7215 19.0909 30.7827 18.2014 30.6407 17.3634C30.5611 16.8931 30.403 16.606 29.831 16.5304ZM5.06139 25.7386C3.15199 23.8718 2.25988 21.4051 2.48155 18.6049C2.7325 15.4353 3.74497 12.6229 5.49076 10.2457C6.48041 8.89785 7.82546 7.81105 9.60212 6.92322C10.9816 6.24689 12.4431 5.75645 13.9494 5.46454C14.0376 5.4501 14.1272 5.44412 14.2165 5.4467H14.2609C14.2615 5.45027 14.262 5.45384 14.2625 5.45728C14.2736 5.52159 14.2802 5.5866 14.2825 5.65183C14.3008 9.12522 14.3174 12.5986 14.3323 16.072C14.3323 16.232 14.324 16.396 14.3153 16.5547C14.3092 16.6655 14.3031 16.7762 14.2999 16.8877C14.2865 17.3629 14.3912 17.7017 14.62 17.9231C14.8465 18.1424 15.1794 18.2324 15.6412 18.2004C15.7307 18.1942 15.8214 18.1958 15.9169 18.1979L16.005 18.1995C16.5648 18.2055 17.1247 18.2127 17.6846 18.2212C18.8982 18.2383 20.1541 18.2582 21.3874 18.2542C22.9246 18.2521 24.4877 18.2359 25.9989 18.22C26.7995 18.2118 27.6002 18.2041 28.4011 18.1969C28.4308 18.2024 28.46 18.211 28.4881 18.2226L28.5231 18.2349C28.4821 18.465 28.4465 18.6982 28.4118 18.924C28.3392 19.4988 28.2214 20.0669 28.0594 20.6229C27.2915 23.0054 26.2803 24.979 24.9676 26.6568C23.8818 28.0443 22.5649 28.9814 21.0534 29.442C14.8798 31.3232 9.49907 30.0772 5.06139 25.7386Z" fill="white"/>
<path d="M32.796 12.2886C32.3362 11.1719 31.8605 10.017 31.2187 8.95321C28.5373 4.50976 24.7664 1.67967 20.011 0.541431C19.5769 0.437312 19.1338 0.376543 18.688 0.360035C18.3557 0.346622 18.109 0.42232 17.9385 0.587334C17.7635 0.756533 17.6773 1.01236 17.6748 1.36922C17.672 1.7951 17.692 2.25938 17.7376 2.83047L17.759 3.09713C17.9513 5.50147 18.1502 7.98747 18.0038 10.4405C18.0038 10.4431 18.0038 10.4456 18.0038 10.4482V10.9527C18.0038 11.3312 18.0038 11.7098 18.0038 12.0886C18.0038 12.3101 18.0008 12.5316 17.9979 12.7531C17.9916 13.2404 17.9857 13.7442 18.0082 14.2402C18.0468 15.0708 18.2555 15.2776 19.068 15.2776H19.0873C19.3599 15.2767 19.634 15.2504 19.8988 15.2251C20.0849 15.2073 20.277 15.1889 20.465 15.1798C21.76 15.1168 23.0552 15.0552 24.3506 14.9946C25.9112 14.9208 27.4718 14.8461 29.0324 14.7705C30.2103 14.7126 31.2727 14.6575 32.3489 14.5691C32.7317 14.5376 33.0252 14.3821 33.1753 14.1309C33.3254 13.8798 33.3245 13.549 33.1744 13.1957C33.046 12.8957 32.9209 12.592 32.796 12.2886ZM31.1897 12.7621L31.1452 12.7694C31.0191 12.7931 30.8917 12.8088 30.7638 12.8167C30.148 12.8413 29.5322 12.8615 28.9163 12.8824C27.8604 12.9181 26.7684 12.9551 25.6946 13.0085C24.3526 13.0756 22.9894 13.1604 21.6711 13.2423C21.0331 13.282 20.3949 13.3211 19.7567 13.3596C19.6835 13.3638 19.6079 13.3628 19.5031 13.3618L19.4193 13.3608C19.6633 9.20336 19.605 5.47633 19.2398 1.97842C24.5189 2.76928 29.2911 7.07433 31.1897 12.7621Z" fill="white"/>
</svg>
