<svg width="93" height="87" viewBox="0 0 93 87" fill="none" xmlns="http://www.w3.org/2000/svg">
<g filter="url(#filter0_d_1100_2019)">
<path d="M54.0866 36.695C53.9753 37.0597 53.8959 37.3694 53.7873 37.6682C53.097 39.5679 51.6283 40.4939 49.7414 40.867C48.237 41.1678 46.6749 40.8677 45.388 40.0306C44.1264 39.2498 43.5183 38.0716 43.395 36.5413C43.1459 36.52 42.8959 36.4814 42.6455 36.4794C37.1976 36.4369 31.7495 36.4071 26.3018 36.3522C25.1106 36.34 23.9187 36.2596 22.7306 36.1674C22.4113 36.1485 22.1065 36.0278 21.8606 35.8229C21.6577 35.5916 21.5404 35.2972 21.5285 34.9894C21.5072 34.6309 21.7932 34.4261 22.1374 34.3503C22.307 34.3123 22.4799 34.2906 22.6536 34.2858C24.8069 34.2435 26.96 34.1938 29.1135 34.1699C33.2211 34.1245 37.3287 34.0874 41.4362 34.0591C42.308 34.0519 43.18 34.058 43.9471 34.058C44.556 33.3459 45.0519 32.6536 45.6588 32.0789C47.1459 30.6709 48.9402 30.3704 50.8577 30.9156C52.1985 31.2968 53.1664 32.1336 53.4469 33.5933C53.4742 33.735 53.5343 33.8706 53.6196 34.1345C53.8937 34.1345 54.2032 34.1309 54.5128 34.1345C56.348 34.1588 58.1835 34.1735 60.0182 34.2192C60.4243 34.2313 60.8262 34.3044 61.2106 34.4359C61.4493 34.5136 61.6549 34.6698 61.7939 34.8793C61.9331 35.0886 61.9976 35.3389 61.9772 35.5895C61.9825 35.8265 61.9102 36.0587 61.7717 36.2508C61.6331 36.4428 61.4357 36.5842 61.2094 36.6533C60.8219 36.7723 60.418 36.8292 60.0128 36.8217C58.3523 36.7976 56.6925 36.7385 55.0323 36.6953C54.7431 36.6885 54.4531 36.695 54.0866 36.695ZM51.4498 35.4999C51.4456 34.6462 51.2454 33.7965 50.8523 33.2735C50.7005 33.0731 50.4858 32.9297 50.2428 32.866C48.5244 32.5198 46.6874 33.8272 46.2469 35.3539C45.8644 36.6796 46.2838 37.5184 47.5755 37.991C49.6992 38.7682 51.4609 37.6362 51.4498 35.5002V35.4999Z" fill="#FF5C5C"/>
<path d="M36.4016 21.7636C37.2408 21.7636 37.9948 21.782 38.7478 21.7605C42.3022 21.6589 45.857 21.5504 49.4121 21.4351C52.6755 21.3251 55.9379 21.1915 59.2012 21.0745C59.608 21.0451 60.0164 21.0533 60.4219 21.0988C60.7154 21.1303 60.9883 21.2654 61.1916 21.4798C61.395 21.6943 61.5158 21.9742 61.5323 22.2696C61.5381 22.8028 61.1598 23.2588 60.5205 23.4306C60.2382 23.5002 59.9488 23.5363 59.6584 23.5375C54.3832 23.6553 49.1082 23.7698 43.8335 23.8811C41.4728 23.9344 39.1125 24.008 36.752 24.0749C36.6095 24.079 36.4677 24.1067 36.2522 24.1318C35.6951 26.8375 33.7742 27.9732 31.2564 27.9903C29.0078 28.0064 27.3032 26.8939 26.5832 24.5997C25.4478 24.5485 24.3445 24.513 23.2434 24.4418C22.838 24.4114 22.4369 24.3387 22.0466 24.2248C21.8736 24.1825 21.7215 24.0792 21.6178 23.9341C21.5141 23.7889 21.4657 23.6114 21.4814 23.4335C21.4805 23.2549 21.5455 23.0821 21.6638 22.9485C21.7822 22.8148 21.9456 22.7298 22.1227 22.7095C22.4375 22.6536 22.7571 22.6291 23.0767 22.6365C24.2103 22.6285 25.3441 22.6333 26.489 22.6333C26.6082 22.2843 26.7041 22.0457 26.7717 21.7993C27.032 20.8331 27.5671 19.9637 28.3118 19.297C28.7929 18.8778 29.3746 18.5912 29.9996 18.4654C30.917 18.3071 31.8491 18.2506 32.7789 18.2969C34.5344 18.3587 35.6066 19.3749 36.1844 20.9774C36.2723 21.2231 36.3246 21.4816 36.4016 21.7636ZM31.0647 20.7451C30.7201 20.8226 30.1125 20.8172 29.6722 21.0866C28.6128 21.7354 28.6406 24.1731 29.6843 24.8654C30.6355 25.4971 31.6613 25.4688 32.6726 24.9933C33.5824 24.5656 33.6812 23.6616 33.6972 22.8472C33.7199 21.6953 33.4337 20.9482 31.9623 20.8295C31.7318 20.8107 31.5001 20.7859 31.0647 20.7451Z" fill="#FF5C5C"/>
<path d="M46.5081 12.1273C46.2422 12.1273 46.0405 12.1258 45.839 12.1273C38.7582 12.1842 31.6775 12.2405 24.5972 12.2963C23.9855 12.3011 23.3737 12.2911 22.762 12.2663C22.4417 12.2553 22.1231 12.2139 21.8106 12.1427C21.3044 12.0231 20.9899 11.6609 21.0044 11.2414C21.0022 11.0338 21.0731 10.8321 21.2046 10.6718C21.3362 10.5114 21.5199 10.4027 21.7236 10.3648C22.0607 10.2778 22.4051 10.2224 22.7525 10.1994C30.2595 9.71626 37.7784 9.70082 45.2957 9.62911C45.7303 9.62502 46.1645 9.62911 46.6173 9.62911C46.7784 9.29021 46.9206 9.00856 47.0479 8.72019C47.3504 7.98126 47.9103 7.37753 48.6236 7.02121C49.6724 6.51431 50.766 6.10137 51.9453 6.01941C53.9747 5.87822 55.209 6.69788 55.8877 8.61331C55.9728 8.85609 56.0503 9.10212 56.1558 9.42104C57.2065 9.37136 58.2474 9.3123 59.2891 9.27799C59.6655 9.25362 60.0434 9.27594 60.4142 9.34452C60.6612 9.39158 60.8857 9.51947 61.0523 9.70815C61.2191 9.89684 61.3185 10.1356 61.3352 10.3871C61.3519 10.6385 61.2848 10.8885 61.1445 11.0976C61.0043 11.3067 60.7987 11.4633 60.56 11.5427C60.2033 11.6669 59.832 11.7437 59.4553 11.7712C58.3268 11.8717 57.1954 11.9427 56.0144 12.0291C55.316 14.556 53.486 15.5863 51.03 15.5192C48.8351 15.4591 47.1665 14.4894 46.5081 12.1273ZM48.6505 10.811C48.4657 11.9843 49.6095 13.2434 50.8351 13.2027C52.6638 13.1421 53.7541 12.1122 53.7534 10.7425C53.7534 9.20246 53.0281 8.37191 51.3296 8.29287C49.7175 8.21791 48.6636 9.26074 48.6505 10.811Z" fill="#FF5C5C"/>
</g>
<defs>
<filter id="filter0_d_1100_2019" x="0" y="0" width="93.0527" height="87" filterUnits="userSpaceOnUse" color-interpolation-filters="sRGB">
<feFlood flood-opacity="0" result="BackgroundImageFix"/>
<feColorMatrix in="SourceAlpha" type="matrix" values="0 0 0 0 0 0 0 0 0 0 0 0 0 0 0 0 0 0 127 0" result="hardAlpha"/>
<feOffset dx="5" dy="20"/>
<feGaussianBlur stdDeviation="13"/>
<feColorMatrix type="matrix" values="0 0 0 0 0.211765 0 0 0 0 0.207843 0 0 0 0 0.207843 0 0 0 0.16 0"/>
<feBlend mode="normal" in2="BackgroundImageFix" result="effect1_dropShadow_1100_2019"/>
<feBlend mode="normal" in="SourceGraphic" in2="effect1_dropShadow_1100_2019" result="shape"/>
</filter>
</defs>
</svg>
