<svg width="93" height="87" viewBox="0 0 93 87" fill="none" xmlns="http://www.w3.org/2000/svg">
<g filter="url(#filter0_d_1108_3389)">
<path d="M54.0866 36.6955C53.9753 37.0602 53.8959 37.3699 53.7873 37.6687C53.097 39.5684 51.6283 40.4944 49.7414 40.8675C48.237 41.1683 46.6749 40.8682 45.388 40.0311C44.1264 39.2503 43.5183 38.0721 43.395 36.5418C43.1459 36.5205 42.8959 36.4819 42.6455 36.4799C37.1976 36.4373 31.7495 36.4076 26.3018 36.3527C25.1106 36.3405 23.9187 36.2601 22.7306 36.1679C22.4113 36.149 22.1065 36.0283 21.8606 35.8234C21.6577 35.592 21.5404 35.2977 21.5285 34.9899C21.5072 34.6313 21.7932 34.4266 22.1374 34.3508C22.307 34.3128 22.4799 34.2911 22.6536 34.2863C24.8069 34.2439 26.96 34.1943 29.1135 34.1704C33.2211 34.1249 37.3287 34.0879 41.4362 34.0596C42.308 34.0524 43.18 34.0585 43.9471 34.0585C44.556 33.3464 45.0519 32.6541 45.6588 32.0794C47.1459 30.6714 48.9402 30.3709 50.8577 30.916C52.1985 31.2973 53.1664 32.134 53.4469 33.5938C53.4742 33.7355 53.5343 33.8711 53.6196 34.135C53.8937 34.135 54.2032 34.1314 54.5128 34.135C56.348 34.1593 58.1835 34.1739 60.0182 34.2197C60.4243 34.2318 60.8262 34.3049 61.2106 34.4364C61.4493 34.514 61.6549 34.6703 61.7939 34.8798C61.9331 35.0891 61.9976 35.3394 61.9772 35.59C61.9825 35.827 61.9102 36.0592 61.7717 36.2512C61.6331 36.4433 61.4357 36.5847 61.2094 36.6538C60.8219 36.7728 60.418 36.8297 60.0128 36.8222C58.3523 36.7981 56.6925 36.739 55.0323 36.6958C54.7431 36.689 54.4531 36.6955 54.0866 36.6955ZM51.4498 35.5004C51.4456 34.6467 51.2454 33.797 50.8523 33.274C50.7005 33.0736 50.4858 32.9302 50.2428 32.8665C48.5244 32.5202 46.6874 33.8277 46.2469 35.3544C45.8644 36.6801 46.2838 37.5189 47.5755 37.9915C49.6992 38.7687 51.4609 37.6367 51.4498 35.5007V35.5004Z" fill="black"/>
<path d="M36.4016 21.7631C37.2408 21.7631 37.9948 21.7816 38.7478 21.76C42.3022 21.6584 45.857 21.5499 49.4121 21.4346C52.6755 21.3246 55.9379 21.191 59.2012 21.074C59.608 21.0446 60.0164 21.0528 60.4219 21.0983C60.7154 21.1298 60.9883 21.2649 61.1916 21.4794C61.395 21.6938 61.5158 21.9737 61.5323 22.2691C61.5381 22.8023 61.1598 23.2583 60.5205 23.4301C60.2382 23.4997 59.9488 23.5358 59.6584 23.537C54.3832 23.6548 49.1082 23.7693 43.8335 23.8806C41.4728 23.9339 39.1125 24.0075 36.752 24.0744C36.6095 24.0785 36.4677 24.1062 36.2522 24.1313C35.6951 26.837 33.7742 27.9727 31.2564 27.9898C29.0078 28.0059 27.3032 26.8934 26.5832 24.5993C25.4478 24.548 24.3445 24.5125 23.2434 24.4413C22.838 24.4109 22.4369 24.3382 22.0466 24.2243C21.8736 24.182 21.7215 24.0787 21.6178 23.9336C21.5141 23.7885 21.4657 23.6109 21.4814 23.433C21.4805 23.2544 21.5455 23.0816 21.6638 22.948C21.7822 22.8144 21.9456 22.7293 22.1227 22.709C22.4375 22.6531 22.7571 22.6286 23.0767 22.636C24.2103 22.628 25.3441 22.6328 26.489 22.6328C26.6082 22.2838 26.7041 22.0452 26.7717 21.7988C27.032 20.8326 27.5671 19.9632 28.3118 19.2965C28.7929 18.8773 29.3746 18.5907 29.9996 18.4649C30.917 18.3066 31.8491 18.2501 32.7789 18.2964C34.5344 18.3582 35.6066 19.3744 36.1844 20.9769C36.2723 21.2226 36.3246 21.4811 36.4016 21.7631ZM31.0647 20.7446C30.7201 20.8222 30.1125 20.8167 29.6722 21.0861C28.6128 21.7349 28.6406 24.1726 29.6843 24.8649C30.6355 25.4966 31.6613 25.4683 32.6726 24.9928C33.5824 24.5651 33.6812 23.6611 33.6972 22.8467C33.7199 21.6948 33.4337 20.9477 31.9623 20.829C31.7318 20.8102 31.5001 20.7855 31.0647 20.7446Z" fill="black"/>
<path d="M46.5081 12.1273C46.2422 12.1273 46.0405 12.1258 45.839 12.1273C38.7582 12.1842 31.6775 12.2405 24.5972 12.2963C23.9855 12.3011 23.3737 12.2911 22.762 12.2663C22.4417 12.2553 22.1231 12.2139 21.8106 12.1427C21.3044 12.0231 20.9899 11.6609 21.0044 11.2414C21.0022 11.0338 21.0731 10.8321 21.2046 10.6718C21.3362 10.5114 21.5199 10.4027 21.7236 10.3648C22.0607 10.2778 22.4051 10.2224 22.7525 10.1994C30.2595 9.71626 37.7784 9.70082 45.2957 9.62911C45.7303 9.62502 46.1645 9.62911 46.6173 9.62911C46.7784 9.29021 46.9206 9.00856 47.0479 8.72019C47.3504 7.98126 47.9103 7.37753 48.6236 7.02121C49.6724 6.51431 50.766 6.10137 51.9453 6.01941C53.9747 5.87822 55.209 6.69788 55.8877 8.61331C55.9728 8.85609 56.0503 9.10212 56.1558 9.42104C57.2065 9.37136 58.2474 9.3123 59.2891 9.27799C59.6655 9.25362 60.0434 9.27594 60.4142 9.34452C60.6612 9.39158 60.8857 9.51947 61.0523 9.70815C61.2191 9.89684 61.3185 10.1356 61.3352 10.3871C61.3519 10.6385 61.2848 10.8885 61.1445 11.0976C61.0043 11.3067 60.7987 11.4633 60.56 11.5427C60.2033 11.6669 59.832 11.7437 59.4553 11.7712C58.3268 11.8717 57.1954 11.9427 56.0144 12.0291C55.316 14.556 53.486 15.5863 51.03 15.5192C48.8351 15.4591 47.1665 14.4894 46.5081 12.1273ZM48.6505 10.811C48.4657 11.9843 49.6095 13.2434 50.8351 13.2027C52.6638 13.1421 53.7541 12.1122 53.7534 10.7425C53.7534 9.20246 53.0281 8.37191 51.3296 8.29287C49.7175 8.21791 48.6636 9.26074 48.6505 10.811Z" fill="black"/>
</g>
<defs>
<filter id="filter0_d_1108_3389" x="0" y="0" width="93.0527" height="87" filterUnits="userSpaceOnUse" color-interpolation-filters="sRGB">
<feFlood flood-opacity="0" result="BackgroundImageFix"/>
<feColorMatrix in="SourceAlpha" type="matrix" values="0 0 0 0 0 0 0 0 0 0 0 0 0 0 0 0 0 0 127 0" result="hardAlpha"/>
<feOffset dx="5" dy="20"/>
<feGaussianBlur stdDeviation="13"/>
<feColorMatrix type="matrix" values="0 0 0 0 0.211765 0 0 0 0 0.207843 0 0 0 0 0.207843 0 0 0 0.16 0"/>
<feBlend mode="normal" in2="BackgroundImageFix" result="effect1_dropShadow_1108_3389"/>
<feBlend mode="normal" in="SourceGraphic" in2="effect1_dropShadow_1108_3389" result="shape"/>
</filter>
</defs>
</svg>
