<svg width="30" height="26" viewBox="0 0 30 26" fill="none" xmlns="http://www.w3.org/2000/svg">
<g clip-path="url(#clip0_1108_5839)">
<path d="M1.13582 10.4455C0.850646 10.5496 0.575722 10.6809 0.314713 10.8378C0.232697 10.8794 0.161641 10.9405 0.107525 11.016C0.0534082 11.0915 0.017811 11.1792 0.00372353 11.2717C-0.00936289 11.4408 0.0777989 11.61 0.261997 11.7745C0.415205 11.9024 0.580314 12.0147 0.754957 12.1097C0.888908 12.188 1.02533 12.2619 1.16175 12.3358C1.35705 12.4415 1.55903 12.5503 1.74718 12.6712C4.29866 14.3035 6.62051 15.7508 9.16693 16.9201C9.1615 17.0133 9.15545 17.1062 9.14928 17.1987C9.13199 17.4602 9.11422 17.7304 9.11385 17.9973C9.11327 18.4001 9.11171 18.8033 9.10915 19.2066C9.10261 20.4857 9.09582 21.8083 9.13792 23.1089C9.1531 23.5778 9.3178 23.9131 9.60162 24.053C9.90002 24.1995 10.2836 24.1142 10.6817 23.8114C10.8253 23.7022 10.9725 23.5796 11.1315 23.4363C11.829 22.8075 12.5256 22.1776 13.2288 21.5416L13.8661 20.9652C13.8709 20.9688 13.8756 20.9725 13.8799 20.9764L14.4692 21.4945C15.14 22.084 15.8336 22.6935 16.5106 23.2994C16.7035 23.4715 16.8974 23.6428 17.0925 23.813C17.6871 24.3349 18.3024 24.8746 18.855 25.4529C19.1478 25.759 19.4325 25.9029 19.7746 25.9029C19.9221 25.9007 20.0687 25.8785 20.2105 25.8369C20.7097 25.698 21.0318 25.3863 21.2548 24.8272C22.0957 22.7205 22.9562 20.5807 23.7883 18.5116C24.4714 16.8119 25.154 15.112 25.836 13.4119C27.3052 9.76228 28.5727 6.03117 29.6325 2.23616C29.7609 1.79597 29.8511 1.34507 29.9023 0.888704C29.9194 0.782964 29.913 0.674648 29.8837 0.571753C29.8544 0.468856 29.8027 0.374015 29.7327 0.294243C29.6484 0.216412 29.5481 0.158866 29.439 0.125845C29.3302 0.0928231 29.2153 0.0851679 29.1031 0.103412C28.9545 0.121648 28.8079 0.155459 28.6661 0.204359L28.6469 0.210306C28.3282 0.30749 28.0086 0.401878 27.6889 0.496412C26.9463 0.715898 26.1784 0.94285 25.4334 1.20159C20.0518 3.07157 14.5939 5.10738 9.21113 7.25251C7.65866 7.87096 6.07792 8.49472 4.54915 9.09764C3.41072 9.54595 2.27294 9.99522 1.13582 10.4455ZM11.3803 16.2103C11.6766 15.9573 11.9574 15.7181 12.2457 15.4933C13.3758 14.6111 14.5071 13.7302 15.6393 12.851C17.864 11.1211 20.1646 9.33226 22.4147 7.55593C23.1027 7.01321 23.7558 6.40309 24.3873 5.81418C24.6042 5.61224 24.8209 5.40941 25.0393 5.20937C25.2136 5.04983 25.5051 4.78289 25.3435 4.26137C25.3382 4.24434 25.3295 4.2286 25.3181 4.21516C25.3066 4.2017 25.2925 4.19086 25.2767 4.18326C25.2609 4.17573 25.2437 4.17155 25.2262 4.17103C25.2088 4.1705 25.1914 4.17363 25.1752 4.18021C25.1077 4.2081 25.0425 4.23272 24.9797 4.25595C24.8488 4.30167 24.7214 4.35697 24.5983 4.42143C20.4225 6.73959 16.79 9.77942 13.2773 12.7194C12.4829 13.3841 11.7341 14.0699 10.9421 14.7951C10.6058 15.1032 10.2661 15.4125 9.92298 15.7233L2.08804 11.384C2.1332 11.3555 2.18061 11.331 2.22977 11.3105C3.48986 10.8255 4.74945 10.3386 6.00854 9.84999C9.09162 8.65601 12.2801 7.42126 15.4292 6.24671C18.2336 5.20066 21.1035 4.18727 23.8788 3.20723C24.8016 2.88143 25.7244 2.55499 26.6467 2.22794C27.0041 2.10096 27.3648 2.00163 27.7468 1.89662C27.8481 1.86886 27.9497 1.84072 28.0518 1.8122C26.5141 6.79448 24.5525 11.6814 22.6545 16.41C21.6571 18.8946 20.6266 21.4621 19.663 24.028C17.0439 21.8721 14.5034 19.5931 12.0457 17.388C11.7138 17.0899 11.3811 16.7917 11.0478 16.4933C11.1611 16.3967 11.2716 16.3026 11.3799 16.2103H11.3803ZM12.836 20.0109L10.589 21.9573L10.4109 17.7207L12.836 20.0109Z" fill="#A7A7A7"/>
</g>
<defs>
<clipPath id="clip0_1108_5839">
<rect width="30" height="26" fill="white"/>
</clipPath>
</defs>
</svg>
