<svg width="34" height="26" viewBox="0 0 34 26" fill="none" xmlns="http://www.w3.org/2000/svg">
<path d="M1.2869 10.4452C0.963702 10.5493 0.652121 10.6806 0.356311 10.8376C0.263359 10.8791 0.18283 10.9402 0.121498 11.0157C0.0601656 11.0912 0.0198221 11.1789 0.00385633 11.2714C-0.0109749 11.4405 0.0878084 11.6098 0.296566 11.7742C0.470203 11.9022 0.657326 12.0144 0.855255 12.1094C1.00707 12.1877 1.16168 12.2616 1.31628 12.3355C1.53763 12.4412 1.76654 12.55 1.97977 12.6709C4.87145 14.3032 7.50288 15.7505 10.3888 16.9198C10.3827 17.013 10.3758 17.1059 10.3688 17.1984C10.3492 17.4599 10.3291 17.7301 10.3287 17.997C10.328 18.3998 10.3262 18.803 10.3233 19.2063C10.3159 20.4854 10.3082 21.808 10.3559 23.1086C10.3732 23.5775 10.5598 23.9128 10.8815 24.0527C11.2197 24.1992 11.6544 24.1139 12.1056 23.8111C12.2683 23.7019 12.4351 23.5793 12.6153 23.436C13.4059 22.8072 14.1953 22.1773 14.9923 21.5413L15.7145 20.9649C15.72 20.9685 15.7253 20.9722 15.7302 20.9761L16.398 21.4942C17.1583 22.0837 17.9444 22.6932 18.7117 23.2991C18.9303 23.4712 19.1501 23.6425 19.3711 23.8127C20.045 24.3346 20.7423 24.8743 21.3686 25.4526C21.7005 25.7587 22.0231 25.9026 22.4108 25.9026C22.578 25.9004 22.7441 25.8782 22.9049 25.8366C23.4706 25.6978 23.8356 25.386 24.0885 24.8269C25.0414 22.7202 26.0167 20.5804 26.9597 18.5113C27.7339 16.8116 28.5075 15.1117 29.2804 13.4116C30.9455 9.76198 32.3821 6.03087 33.5831 2.23587C33.7286 1.79567 33.8309 1.34477 33.8889 0.888407C33.9083 0.782666 33.901 0.674351 33.8679 0.571455C33.8346 0.468558 33.7761 0.373718 33.6968 0.293946C33.6012 0.216115 33.4874 0.158569 33.3639 0.125547C33.2405 0.0925256 33.1104 0.0848704 32.9832 0.103115C32.8147 0.121351 32.6486 0.155161 32.4879 0.204061L32.4662 0.210008C32.1049 0.307193 31.7427 0.401581 31.3804 0.496115C30.5388 0.7156 29.6685 0.942552 28.8241 1.20129C22.725 3.07127 16.5393 5.10709 10.4389 7.25221C8.67945 7.87066 6.88795 8.49442 5.15534 9.09734C3.86512 9.54565 2.57564 9.99492 1.2869 10.4452ZM12.8973 16.21C13.2331 15.957 13.5514 15.7178 13.8781 15.493C15.1589 14.6108 16.441 13.7299 17.7242 12.8507C20.2455 11.1208 22.8528 9.33196 25.403 7.55563C26.1828 7.01291 26.9229 6.4028 27.6386 5.81388C27.8844 5.61194 28.13 5.40912 28.3775 5.20907C28.5751 5.04953 28.9054 4.78259 28.7223 4.26108C28.7162 4.24404 28.7064 4.2283 28.6934 4.21486C28.6804 4.2014 28.6645 4.19056 28.6466 4.18296C28.6287 4.17543 28.6092 4.17125 28.5893 4.17073C28.5696 4.1702 28.5499 4.17333 28.5315 4.17991C28.455 4.2078 28.3811 4.23243 28.3099 4.25565C28.1616 4.30138 28.0172 4.35667 27.8777 4.42113C23.1451 6.73929 19.0283 9.77912 15.0473 12.7191C14.1469 13.3838 13.2983 14.0696 12.4007 14.7948C12.0196 15.1029 11.6346 15.4122 11.2457 15.723L2.36608 11.3837C2.41727 11.3552 2.47099 11.3307 2.52671 11.3102C3.95481 10.8252 5.38235 10.3383 6.80931 9.84969C10.3035 8.65571 13.9171 7.42096 17.486 6.24642C20.6644 5.20036 23.9169 4.18698 27.0623 3.20693C28.1082 2.88113 29.1539 2.55469 30.1992 2.22764C30.6043 2.10067 31.0131 2.00134 31.446 1.89633C31.5608 1.86856 31.6759 1.84043 31.7916 1.8119C30.049 6.79418 27.8258 11.6811 25.6747 16.4097C24.5443 18.8943 23.3764 21.4618 22.2844 24.0277C19.316 21.8718 16.4368 19.5928 13.6514 17.3877C13.2752 17.0896 12.8982 16.7914 12.5205 16.493C12.6489 16.3964 12.7741 16.3023 12.8969 16.21H12.8973ZM14.5471 20.0106L12.0005 21.957L11.7986 17.7204L14.5471 20.0106Z" fill="#2CC4AE"/>
</svg>
