<svg width="46" height="46" viewBox="0 0 46 46" fill="none" xmlns="http://www.w3.org/2000/svg">
<path d="M43.2907 18.8359C42.7903 18.8452 42.2962 18.8424 41.8994 18.84L41.6358 18.8387L39.1312 14.1352C39.2795 13.9612 39.4348 13.7833 39.5934 13.6011C40.0582 13.0681 40.5386 12.5167 40.9834 11.9218C41.5435 11.1732 41.4972 10.3066 40.8628 9.66046L40.8224 9.61927C39.2365 8.00334 37.5962 6.33246 35.9091 4.76626C35.4298 4.32131 35.0069 4.1236 34.5839 4.14185C34.1369 4.16178 33.6943 4.43106 33.1919 4.9887C32.8282 5.39194 32.4768 5.79536 32.1047 6.22262C31.9831 6.36257 31.8599 6.50384 31.7353 6.64651C30.6251 5.51838 29.2344 4.84469 27.2724 4.48225C27.2724 4.36826 27.2746 4.25541 27.2761 4.14366C27.2807 3.78307 27.2852 3.44264 27.2679 3.09472C27.1679 1.0886 26.6026 0.539133 24.6375 0.538574H24.6215C23.3912 0.538574 22.1423 0.582146 20.9346 0.624425C20.3601 0.644354 19.7872 0.664619 19.2134 0.680264C18.3311 0.704477 17.7899 1.19228 17.6895 2.05369C17.6239 2.61729 17.5809 3.18021 17.5429 3.67695C17.5308 3.83582 17.5193 3.98754 17.5079 4.12947L13.0713 6.64916C12.9803 6.53741 12.8874 6.4221 12.7933 6.30457C12.4869 5.92406 12.1701 5.53031 11.8273 5.14849C11.3371 4.6024 10.8635 4.32641 10.3792 4.30518C9.90736 4.28748 9.43181 4.50389 8.92602 4.97697C7.48299 6.32674 6.10612 7.67556 4.83397 8.98603C3.79256 10.0583 3.74287 10.9603 4.65695 12.2056C4.98277 12.6489 5.34548 13.068 5.63683 13.4047C5.72171 13.5029 5.80122 13.5944 5.87313 13.6792L3.89447 19.0246C3.68931 19.0433 3.48099 19.0603 3.27063 19.0774C2.6933 19.1247 2.09635 19.1736 1.50272 19.2536C0.420907 19.3993 -0.00037043 19.8763 2.44376e-07 20.9543C2.44376e-07 23.0347 0.0218663 24.7665 0.0657921 26.4042C0.0821018 27.0135 0.252238 27.4642 0.571759 27.7436C0.901659 28.0323 1.37038 28.1381 2.00683 28.066C2.36472 28.0259 2.72149 27.9792 3.07845 27.9322L3.17205 27.9198C3.17429 27.9403 3.17974 27.9602 3.18817 27.979L5.42575 32.8761C5.13773 33.0981 4.84922 33.3192 4.56022 33.5395C4.24465 33.7809 3.92958 34.0227 3.615 34.2648C2.69406 34.9763 2.52279 35.7874 3.10568 36.676C4.06091 38.1314 5.18407 39.8127 6.42898 41.3476C7.53099 42.7072 8.42485 42.8043 9.97094 41.7354C10.6144 41.2902 11.2548 40.8414 11.8999 40.3882L12.6557 39.8583C14.339 41.201 16.0176 41.814 17.881 41.7866C17.8639 41.9451 17.8472 42.0958 17.8311 42.2409C17.7829 42.6741 17.7412 43.0485 17.7151 43.4307C17.6472 44.4305 17.7812 45.051 18.1493 45.4448C18.5082 45.8279 19.0935 46 20.0424 46H20.1036C21.3898 45.9903 22.6972 45.9676 23.9613 45.9458C24.4833 45.9365 25.005 45.9277 25.5269 45.9194C26.2547 45.9078 26.7686 45.7243 27.0997 45.3582C27.4307 44.992 27.563 44.4593 27.5026 43.7305C27.4618 43.2295 27.4164 42.7289 27.3754 42.2789L27.3384 41.8717L31.2241 40.2273L31.3046 40.3376C31.4488 40.535 31.5956 40.7358 31.7405 40.9379C31.813 41.0388 31.8836 41.1412 31.9542 41.2437C32.081 41.4275 32.2122 41.6179 32.3536 41.7987C33.0497 42.6892 33.8165 42.878 34.8401 42.4122C35.1772 42.2703 35.4945 42.084 35.7833 41.8587C36.1146 41.5819 36.4464 41.3055 36.7789 41.0295C38.1341 39.9025 39.5354 38.7371 40.8671 37.5358C41.4731 36.9889 41.7515 36.5311 41.7702 36.0512C41.7887 35.5619 41.5293 35.0607 40.9288 34.4265C40.4903 33.9638 40.0479 33.5051 39.6416 33.084L39.2339 32.6604L41.7995 27.7417C41.9038 27.7316 42.0176 27.721 42.1386 27.7099C42.5436 27.6726 43.0468 27.6255 43.5437 27.5664C44.6033 27.4407 44.9804 27.093 45.2254 26.0168C45.7242 23.8263 45.3366 21.6885 44.9439 20.0709C44.7439 19.2466 44.1712 18.8261 43.2907 18.8359ZM38.8904 26.4469C38.3496 28.6409 37.5858 30.1701 36.4136 31.4049C35.9384 31.9056 35.9556 32.607 36.461 33.3293C36.9199 33.9851 37.3985 34.6213 37.9052 35.2952C38.0851 35.5347 38.2684 35.7783 38.4549 36.0286L34.0752 39.5262C33.9532 39.3802 33.8335 39.2361 33.7164 39.0938C33.372 38.6781 33.0469 38.2854 32.7037 37.8995C31.7902 36.8727 31.3109 36.9148 30.1379 37.5918C29.2073 38.1085 28.2272 38.5292 27.2125 38.8479C24.8838 39.6283 24.7086 40.671 24.6969 42.2958C24.6955 42.5018 24.6816 42.7145 24.6667 42.9397C24.6628 42.9967 24.6591 43.0548 24.6554 43.1144H20.3371L20.3135 42.5931C20.2919 42.1073 20.2709 41.6406 20.2474 41.1742C20.1808 39.8663 19.9058 39.3929 18.4933 39.3417C16.3775 39.2651 14.5977 38.6429 13.052 37.4391C12.4639 36.9806 11.7833 37.0189 10.9712 37.5555C10.3657 37.9558 9.76984 38.3691 9.13877 38.8069C8.90736 38.9677 8.67024 39.132 8.42745 39.2996L5.66706 35.579C5.83781 35.4352 6.00633 35.2922 6.17264 35.1499C6.65118 34.742 7.10286 34.3566 7.57844 33.9897C8.36315 33.3846 8.42821 33.0292 7.91075 32.178C6.9722 30.634 6.00289 28.7637 5.92894 26.5979C5.90336 25.8393 5.46041 25.4409 4.61304 25.4136C4.11467 25.3974 3.61222 25.4009 3.07827 25.4042C2.88904 25.4055 2.6946 25.407 2.49296 25.4076L2.30486 21.763C2.57804 21.7341 2.84233 21.704 3.09977 21.6747C3.78551 21.5965 4.43419 21.5229 5.07731 21.4929C5.87148 21.4557 6.3361 21.0314 6.45843 20.23C6.81502 17.8958 7.4728 16.0869 8.52829 14.5365C8.7008 14.3162 8.79562 14.0447 8.7979 13.7645C8.80018 13.4842 8.70979 13.211 8.54089 12.988C8.15193 12.4217 7.76137 11.8571 7.36919 11.2943L7.00908 10.7752L10.5448 7.15871C10.6841 7.29529 10.8236 7.43192 10.9631 7.5685C11.3708 7.96838 11.7915 8.38149 12.2131 8.78286C13.0405 9.56959 13.2761 9.46192 14.1396 8.88044C15.2312 8.14493 16.3992 7.38163 17.6211 6.8415C18.672 6.37718 19.6119 5.83766 19.5672 4.35602C19.5724 4.04306 19.6144 3.73184 19.6927 3.42884C19.7179 3.31094 19.7433 3.18988 19.7668 3.06472H24.6919C24.6931 3.1666 24.6951 3.26954 24.6969 3.37328C24.704 3.74337 24.7112 4.1258 24.6845 4.50016C24.58 5.95796 25.0654 6.57706 26.4158 6.708C27.8429 6.84657 29.0909 7.48394 30.46 8.77541C31.1884 9.46194 31.5906 9.59112 32.3971 8.94893C32.9346 8.52055 33.4328 8.06855 33.9597 7.58932C34.1404 7.42518 34.3228 7.26038 34.5068 7.09486L38.0382 10.8314C37.955 10.9192 37.8659 11.0121 37.7723 11.1097C37.4094 11.4889 36.9978 11.9188 36.5906 12.3686C35.5008 13.5731 35.4939 14.0262 36.5465 15.2182C37.6616 16.4486 38.4473 17.9438 38.8296 19.5632C39.043 20.4997 39.5782 20.9551 40.5142 20.9971C40.9634 21.0171 41.4125 21.0417 41.9188 21.0687L42.5052 21.1L42.7136 25.0126H42.1659C41.6777 25.0114 41.2372 25.0111 40.7964 25.0146C39.6477 25.0243 39.1488 25.3992 38.8904 26.4469Z" fill="#FF5C5C"/>
<path d="M24.2408 11.5027C22.4226 11.3338 20.5904 11.5936 18.8899 12.2616C17.1893 12.9295 15.6674 13.9872 14.4453 15.3504C13.2231 16.7135 12.3345 18.3446 11.8501 20.1137C11.3657 21.8829 11.2989 23.7411 11.655 25.5407C12.5865 29.9756 14.8745 32.7809 18.6501 34.1171C19.7632 34.5032 20.934 34.6937 22.1116 34.6808C23.0915 34.6728 24.0688 34.5775 25.0322 34.3961C31.2595 33.2767 34.6882 28.8841 34.6855 22.0271V22.0228C34.6098 19.8777 33.8983 17.804 32.6419 16.0681C30.6633 13.4092 27.8369 11.873 24.2408 11.5027ZM31.7303 24.9084C30.9904 28.6262 28.6568 30.7861 24.5964 31.5116C23.282 31.7463 21.5578 31.95 19.8791 31.4406C16.9555 30.5529 15.2005 28.487 14.514 25.1254C14.4066 24.5333 14.3363 23.935 14.3035 23.3342C14.2824 23.0548 14.2614 22.7769 14.2331 22.4998C14.2279 21.3826 14.4472 20.2759 14.878 19.2459C15.3087 18.2161 15.9419 17.2842 16.7398 16.5062C18.4392 14.861 20.8265 14.0068 23.4459 14.0899C26.2738 14.183 28.5141 15.205 30.1045 17.1259C31.8266 19.2063 32.3586 21.7523 31.7303 24.9084Z" fill="#FF5C5C"/>
</svg>
