<svg width="33" height="34" viewBox="0 0 33 34" fill="none" xmlns="http://www.w3.org/2000/svg">
<g id="Group 26">
<path id="Vector" d="M31.4353 13.6706C31.0746 13.6773 30.7184 13.6753 30.4324 13.6735L30.2424 13.6726L28.4369 10.2923C28.5437 10.1673 28.6557 10.0395 28.7701 9.90855C29.1052 9.52547 29.4515 9.12918 29.7721 8.70166C30.1758 8.1637 30.1424 7.54087 29.6851 7.07654L29.656 7.04693C28.5128 5.88563 27.3304 4.68483 26.1142 3.55927C25.7687 3.2395 25.4638 3.09741 25.1589 3.11053C24.8367 3.12485 24.5176 3.31837 24.1554 3.71913C23.8933 4.00892 23.64 4.29884 23.3717 4.6059C23.2841 4.70647 23.1952 4.808 23.1054 4.91053C22.3051 4.09979 21.3026 3.61563 19.8883 3.35516C19.8883 3.27324 19.8899 3.19214 19.8909 3.11183C19.8943 2.85269 19.8975 2.60804 19.8851 2.358C19.8129 0.916277 19.4054 0.521398 17.9888 0.520996H17.9773C17.0905 0.520996 16.1901 0.552309 15.3196 0.582694C14.9054 0.597016 14.4924 0.61158 14.0788 0.622823C13.4428 0.640224 13.0527 0.990786 12.9803 1.60985C12.933 2.01488 12.902 2.41944 12.8746 2.77642C12.8659 2.8906 12.8576 2.99963 12.8493 3.10163L9.65115 4.91243C9.58556 4.83212 9.51862 4.74925 9.45075 4.66479C9.2299 4.39133 9.00156 4.10836 8.7544 3.83396C8.40102 3.44151 8.05966 3.24316 7.71055 3.2279C7.3704 3.21519 7.02759 3.37071 6.66298 3.71069C5.62275 4.68072 4.63021 5.65006 3.71316 6.59185C2.96244 7.36243 2.92662 8.0107 3.58555 8.90564C3.82043 9.22421 4.08189 9.52537 4.29191 9.76738C4.35311 9.83792 4.41042 9.90372 4.46226 9.96462L3.03591 13.8062C2.88801 13.8196 2.73784 13.8318 2.5862 13.8441C2.17003 13.8781 1.73971 13.9132 1.31178 13.9708C0.531934 14.0754 0.228249 14.4182 0.228516 15.193C0.228516 16.6881 0.244278 17.9327 0.275943 19.1096C0.2877 19.5474 0.410345 19.8714 0.640677 20.0722C0.878491 20.2796 1.21638 20.3556 1.67518 20.3038C1.93316 20.2751 2.19035 20.2415 2.44767 20.2077L2.51514 20.1988C2.51676 20.2135 2.52068 20.2278 2.52676 20.2413L4.13975 23.7607C3.93213 23.9203 3.72415 24.0791 3.51583 24.2375C3.28834 24.411 3.06122 24.5847 2.83445 24.7587C2.17058 25.27 2.04711 25.853 2.4673 26.4916C3.15589 27.5375 3.96554 28.7458 4.86295 29.8488C5.65735 30.826 6.30171 30.8957 7.41623 30.1275C7.8801 29.8076 8.34171 29.485 8.80678 29.1594L9.35162 28.7786C10.565 29.7435 11.775 30.184 13.1183 30.1643C13.106 30.2782 13.094 30.3865 13.0824 30.4908C13.0476 30.8021 13.0176 31.0712 12.9987 31.3458C12.9498 32.0644 13.0464 32.5103 13.3118 32.7933C13.5704 33.0686 13.9924 33.1923 14.6764 33.1923H14.7205C15.6477 33.1854 16.5901 33.169 17.5014 33.1534C17.8777 33.1467 18.2538 33.1404 18.63 33.1344C19.1546 33.1261 19.5251 32.9942 19.7637 32.7311C20.0024 32.4679 20.0978 32.0851 20.0542 31.5613C20.0248 31.2013 19.9921 30.8415 19.9625 30.5181L19.9358 30.2255L22.737 29.0437L22.7949 29.123C22.8989 29.2648 23.0047 29.4091 23.1092 29.5544C23.1614 29.6269 23.2123 29.7005 23.2632 29.7741C23.3546 29.9063 23.4492 30.0431 23.5511 30.173C24.0529 30.813 24.6057 30.9487 25.3436 30.6139C25.5866 30.5119 25.8153 30.3781 26.0235 30.2161C26.2623 30.0172 26.5015 29.8186 26.7412 29.6202C27.7181 28.8103 28.7283 27.9728 29.6882 27.1094C30.1251 26.7164 30.3257 26.3874 30.3392 26.0425C30.3526 25.6909 30.1656 25.3307 29.7327 24.8749C29.4166 24.5424 29.0977 24.2127 28.8048 23.9101L28.5109 23.6057L30.3604 20.0708C30.4356 20.0636 30.5176 20.056 30.6048 20.0479C30.8968 20.0212 31.2595 19.9873 31.6177 19.9449C32.3815 19.8545 32.6534 19.6046 32.83 18.8312C33.1895 17.257 32.9102 15.7206 32.6271 14.5581C32.4829 13.9657 32.0701 13.6635 31.4353 13.6706ZM28.2633 19.1403C27.8735 20.717 27.3229 21.816 26.4778 22.7034C26.1353 23.0632 26.1477 23.5673 26.512 24.0864C26.8428 24.5577 27.1878 25.0149 27.5531 25.4992C27.6828 25.6713 27.8149 25.8464 27.9493 26.0263L24.7922 28.5399C24.7043 28.435 24.618 28.3314 24.5335 28.2291C24.2853 27.9303 24.0509 27.6482 23.8035 27.3708C23.145 26.6329 22.7995 26.6632 21.9539 27.1497C21.2831 27.521 20.5766 27.8234 19.8451 28.0524C18.1664 28.6132 18.0401 29.3626 18.0317 30.5303C18.0306 30.6783 18.0206 30.8312 18.0099 30.993C18.0071 31.034 18.0045 31.0757 18.0018 31.1186H14.8888L14.8719 30.7439C14.8562 30.3948 14.8411 30.0594 14.8242 29.7242C14.7762 28.7843 14.5779 28.4441 13.5597 28.4072C12.0345 28.3522 10.7515 27.905 9.63725 27.04C9.21332 26.7104 8.72273 26.738 8.13728 27.1236C7.7008 27.4113 7.27127 27.7083 6.81635 28.023C6.64953 28.1385 6.4786 28.2565 6.30358 28.377L4.31371 25.7032C4.43679 25.5998 4.55828 25.497 4.67816 25.3948C5.02313 25.1016 5.34873 24.8247 5.69156 24.561C6.25723 24.1261 6.30413 23.8707 5.93111 23.259C5.25454 22.1494 4.55579 20.8053 4.50249 19.2488C4.48405 18.7036 4.16474 18.4173 3.5539 18.3977C3.19464 18.386 2.83245 18.3886 2.44754 18.391C2.31113 18.3919 2.17096 18.393 2.0256 18.3934L1.89001 15.7742C2.08694 15.7534 2.27746 15.7317 2.46303 15.7107C2.95737 15.6545 3.42498 15.6016 3.88858 15.5801C4.46107 15.5533 4.796 15.2484 4.88418 14.6724C5.14123 12.995 5.6154 11.6949 6.37627 10.5807C6.50063 10.4225 6.56898 10.2273 6.57063 10.0259C6.57227 9.82451 6.50711 9.6282 6.38536 9.46791C6.10496 9.06091 5.82342 8.65519 5.54072 8.25069L5.28113 7.87763L7.82988 5.27862C7.93035 5.37678 8.03086 5.47497 8.13142 5.57312C8.42535 5.86051 8.72861 6.15739 9.03256 6.44584C9.62896 7.01123 9.79879 6.93385 10.4212 6.51597C11.2082 5.98738 12.0501 5.43883 12.931 5.05066C13.6885 4.71697 14.366 4.32924 14.3338 3.26445C14.3376 3.03953 14.3679 2.81587 14.4243 2.59812C14.4425 2.51339 14.4608 2.42638 14.4777 2.33644H18.0281C18.0289 2.40965 18.0304 2.48363 18.0317 2.55819C18.0368 2.82415 18.042 3.09899 18.0228 3.36803C17.9474 4.41569 18.2973 4.86062 19.2708 4.95472C20.2995 5.0543 21.1992 5.51236 22.1861 6.44049C22.7112 6.93386 23.0011 7.0267 23.5825 6.56518C23.97 6.25732 24.3291 5.93249 24.7089 5.58809C24.8392 5.47013 24.9707 5.35169 25.1033 5.23274L27.649 7.91808C27.589 7.98112 27.5248 8.04787 27.4573 8.11801C27.1957 8.39054 26.899 8.69951 26.6054 9.02276C25.8198 9.88838 25.8149 10.214 26.5736 11.0707C27.3775 11.9549 27.9439 13.0294 28.2195 14.1932C28.3733 14.8662 28.7591 15.1935 29.4338 15.2238C29.7577 15.2381 30.0814 15.2558 30.4464 15.2752L30.8691 15.2976L31.0193 18.1095H30.6245C30.2726 18.1087 29.955 18.1084 29.6373 18.111C28.8092 18.1179 28.4496 18.3874 28.2633 19.1403Z" fill="black"/>
<path id="Vector_2" d="M17.7029 8.40026C16.3922 8.27883 15.0714 8.46555 13.8456 8.9456C12.6197 9.42565 11.5226 10.1857 10.6416 11.1654C9.76059 12.1451 9.11999 13.3172 8.77081 14.5886C8.42162 15.8601 8.37347 17.1955 8.6302 18.4888C9.30169 21.6759 10.951 23.692 13.6727 24.6523C14.4751 24.9298 15.3191 25.0667 16.168 25.0574C16.8744 25.0517 17.5789 24.9832 18.2733 24.8528C22.7624 24.0483 25.2341 20.8916 25.2321 15.9637V15.9606C25.1776 14.419 24.6647 12.9287 23.759 11.6812C22.3326 9.77033 20.2952 8.66636 17.7029 8.40026ZM23.1018 18.0344C22.5684 20.7062 20.8862 22.2585 17.9592 22.7798C17.0117 22.9485 15.7688 23.0949 14.5586 22.7288C12.4511 22.0909 11.186 20.6062 10.6912 18.1903C10.6137 17.7648 10.5631 17.3349 10.5394 16.903C10.5242 16.7023 10.5091 16.5026 10.4886 16.3034C10.4849 15.5005 10.643 14.7052 10.9535 13.965C11.264 13.2249 11.7205 12.5552 12.2956 11.996C13.5207 10.8137 15.2416 10.1998 17.1298 10.2595C19.1684 10.3265 20.7834 11.061 21.9298 12.4414C23.1712 13.9365 23.5547 15.7662 23.1018 18.0344Z" fill="black"/>
</g>
</svg>
