<svg width="34" height="34" viewBox="0 0 34 34" fill="none" xmlns="http://www.w3.org/2000/svg">
<path d="M31.7844 10.728C31.2589 10.1397 30.7011 9.58133 30.1135 9.05554C29.9123 8.86859 29.7113 8.6819 29.5131 8.49274C28.9671 7.97159 28.419 7.4526 27.8686 6.93577C26.9952 6.11213 26.092 5.26054 25.2176 4.40905C24.1045 3.32565 22.6057 1.93398 20.8727 0.778618C19.6947 -0.00724816 18.4567 -0.198738 17.1929 0.206466C16.5684 0.406517 15.912 0.633858 15.358 1.01107C13.7243 2.123 12.3255 3.14102 11.0815 4.12294C9.568 5.31787 8.04551 6.55293 6.57333 7.74731C5.40525 8.6949 4.19718 9.67488 3.00149 10.6288C1.77844 11.6042 1.01974 12.6871 0.682509 13.9391C0.432227 14.8309 0.289523 15.7495 0.257464 16.6754C0.236164 17.6232 0.262962 18.5861 0.288935 19.5171C0.310647 20.3017 0.333321 21.1131 0.326863 21.9096C0.325214 22.1241 0.324345 22.3389 0.324254 22.5544C0.321643 23.7356 0.319031 24.957 0.102044 26.11C-0.310219 28.2984 0.528044 30.1212 2.59225 31.5283C4.09577 32.5526 5.85214 32.7601 7.55052 32.9607C9.91637 33.2339 12.2963 33.3667 14.6777 33.3581C15.906 33.3581 17.1865 33.3277 18.5362 33.2671L20.8724 33.1766C22.8375 33.1003 24.923 33.0195 27.0078 32.9375C28.2904 32.899 29.5607 32.6749 30.7795 32.272C31.964 31.873 32.827 31.1085 33.273 30.0611C33.7067 29.044 33.9301 28.164 33.9558 27.3704C34.0807 23.2635 33.9408 19.1527 33.5368 15.0639C33.3701 13.3453 32.7804 11.8868 31.7844 10.728ZM12.3308 30.4652C12.3593 30.1619 12.3858 29.8751 12.3932 29.589C12.4249 28.2945 12.4543 26.9999 12.4813 25.705C12.5081 24.4779 12.5358 23.2508 12.5646 22.0239C12.5845 21.2001 12.6143 20.5709 12.6616 19.9834C12.7332 19.0893 13.0428 18.7288 13.8882 18.5521C14.8193 18.3413 15.7661 18.208 16.7191 18.1537C17.4814 18.1261 18.2629 18.1585 19.018 18.1906C19.4844 18.2102 19.9662 18.2308 20.4417 18.2367C20.8714 18.2422 21.0837 18.4297 21.1511 18.8655C21.206 19.2216 21.272 19.5825 21.3356 19.9314C21.5062 20.748 21.615 21.5765 21.661 22.4096C21.716 24.3251 21.7054 26.2084 21.6943 28.2022C21.687 29.5051 20.6805 30.5886 19.3793 30.6543C17.1363 30.7676 14.902 30.8087 12.615 30.7805C12.4461 30.7784 12.3153 30.6333 12.3308 30.4652ZM24.078 22.7185C23.9627 21.3384 23.6557 19.9559 23.3587 18.619L23.2649 18.1951C22.9931 16.9626 22.1731 16.2296 20.8937 16.0751C17.7855 15.7 15.415 15.762 13.2073 16.2771C11.2924 16.724 10.2893 17.8749 10.1412 19.7956C10.0499 20.9788 10.0605 22.1868 10.0708 23.355C10.0737 23.6797 10.0765 24.0041 10.0773 24.3281C10.0803 25.5509 10.0953 26.7935 10.1097 27.9955C10.1182 28.7066 10.126 29.4179 10.1331 30.1292C10.1342 30.2585 10.1224 30.3923 10.1085 30.5474C10.1019 30.6202 10.0392 30.6752 9.96609 30.6717C8.45394 30.5985 7.1709 30.4826 5.90656 30.1914C5.28047 30.0473 4.56176 29.8659 3.95519 29.5352C2.85252 28.9345 2.33761 28.1083 2.38089 27.0089C2.41676 26.0999 2.42707 25.1265 2.41236 24.0329C2.38488 21.9738 2.34365 19.8804 2.30394 17.8563L2.28511 16.8925C2.26202 15.7248 2.48959 14.7494 2.9806 13.9108C3.23263 13.4802 3.50925 13.0334 3.87301 12.717C5.73135 11.1007 7.4241 9.67339 9.04759 8.35258C10.8114 6.91872 12.8691 5.2565 14.9722 3.68697C15.712 3.1348 16.5526 2.71568 17.5883 2.25602C17.8736 2.12497 18.1833 2.05592 18.4972 2.05325C19.0002 2.05325 19.5037 2.24087 20.0184 2.61753C21.4663 3.67749 22.7563 4.95441 24.0036 6.18919C24.335 6.51718 24.6663 6.84536 25.001 7.17004C25.3153 7.47492 25.6291 7.78022 25.9425 8.08594C27.0268 9.14203 28.1478 10.2342 29.2769 11.2808C30.3456 12.2433 31.0226 13.5677 31.178 15C31.3623 16.6157 31.5202 18.0746 31.5861 19.5645C31.6774 21.6276 31.7267 23.8925 31.7373 26.4884C31.7253 27.2058 31.6289 27.9191 31.4499 28.6136C31.388 28.9384 31.2272 29.2358 30.9897 29.4651C30.7522 29.6945 30.4498 29.8442 30.124 29.894C29.9285 29.9319 29.7333 29.9733 29.538 30.0146C29.0302 30.1337 28.5153 30.2202 27.9965 30.2735C27.1348 30.3425 26.2734 30.3701 25.3614 30.4C25.188 30.4057 25.0132 30.4114 24.8366 30.4174C24.5386 30.4275 24.2875 30.1951 24.2753 29.8972C24.2571 29.4448 24.2395 29.0177 24.2301 28.593C24.2164 27.9819 24.2124 27.3591 24.2085 26.7569C24.1991 25.4311 24.1903 24.0605 24.078 22.7185Z" fill="black"/>
</svg>
