<svg width="39" height="36" viewBox="0 0 39 36" fill="none" xmlns="http://www.w3.org/2000/svg">
<g filter="url(#filter0_d_1587_1933)">
<path d="M36.4178 11.6155C35.8244 10.9834 35.1944 10.3834 34.5308 9.81843C34.3036 9.61754 34.0766 9.41694 33.8528 9.21368C33.2362 8.65368 32.6172 8.096 31.9957 7.54065C31.0093 6.65562 29.9894 5.74055 29.0019 4.82559C27.7448 3.66144 26.0522 2.16603 24.0951 0.924546C22.7648 0.0801021 21.3667 -0.125661 19.9395 0.309746C19.2342 0.524709 18.493 0.768996 17.8673 1.17433C16.0224 2.36914 14.4427 3.46304 13.0379 4.51815C11.3286 5.80215 9.60929 7.12928 7.94674 8.41268C6.62762 9.43091 5.26335 10.4839 3.91304 11.509C2.53184 12.5571 1.67504 13.7207 1.2942 15.066C1.01155 16.0242 0.850398 17.0114 0.814193 18.0063C0.790139 19.0247 0.820402 20.0594 0.849733 21.0598C0.874253 21.9029 0.89986 22.7748 0.892566 23.6306C0.890704 23.8611 0.889723 24.0919 0.88962 24.3235C0.886672 25.5927 0.883722 26.9051 0.638676 28.1441C0.173105 30.4957 1.11976 32.4543 3.45088 33.9663C5.14882 35.0669 7.1323 35.2899 9.0503 35.5054C11.7221 35.7991 14.4097 35.9417 17.0991 35.9325C18.4862 35.9325 19.9323 35.8998 21.4565 35.8348L24.0948 35.7374C26.314 35.6555 28.6692 35.5687 31.0235 35.4805C32.4719 35.4392 33.9065 35.1983 35.2829 34.7654C36.6206 34.3367 37.5952 33.5152 38.0988 32.3897C38.5886 31.2968 38.8409 30.3512 38.87 29.4985C39.011 25.0854 38.8531 20.6682 38.3968 16.2746C38.2085 14.4279 37.5426 12.8607 36.4178 11.6155ZM14.4487 32.8239C14.4809 32.498 14.5108 32.1899 14.5192 31.8825C14.555 30.4915 14.5882 29.1004 14.6187 27.709C14.6489 26.3903 14.6802 25.0718 14.7127 23.7534C14.7352 22.8682 14.7689 22.1921 14.8223 21.5608C14.9031 20.6001 15.2528 20.2127 16.2075 20.0229C17.2589 19.7964 18.3282 19.6531 19.4045 19.5948C20.2653 19.5651 21.1479 19.5999 22.0006 19.6345C22.5273 19.6555 23.0714 19.6776 23.6084 19.6839C24.0937 19.6899 24.3335 19.8914 24.4095 20.3596C24.4716 20.7423 24.5461 21.13 24.6179 21.505C24.8105 22.3825 24.9334 23.2727 24.9854 24.1679C25.0475 26.2262 25.0355 28.2499 25.023 30.3922C25.0148 31.791 23.9316 32.9525 22.5345 33.021C19.9536 33.1477 17.3841 33.1938 14.7526 33.1626C14.5714 33.1604 14.4312 33.0043 14.4487 32.8239ZM27.7149 24.4998C27.5847 23.0168 27.238 21.5314 26.9026 20.0948L26.7966 19.6392C26.4897 18.3149 25.5636 17.5272 24.1188 17.3613C20.6087 16.9582 17.9317 17.0248 15.4386 17.5783C13.276 18.0585 12.1432 19.2952 11.9759 21.3591C11.8729 22.6305 11.8848 23.9285 11.8965 25.1838C11.8997 25.5327 11.9029 25.8813 11.9038 26.2294C11.9072 27.5434 11.9241 28.8786 11.9404 30.1702C11.95 30.9343 11.9588 31.6986 11.9668 32.4629C11.968 32.6019 11.9547 32.7456 11.939 32.9122C11.9316 32.9907 11.864 33.0498 11.7853 33.0462C10.0745 32.9675 8.62356 32.8431 7.19376 32.5297C6.48671 32.3749 5.67507 32.1799 4.99006 31.8247C3.74481 31.1792 3.16331 30.2914 3.2122 29.11C3.2527 28.1333 3.26434 27.0874 3.24774 25.9122C3.2167 23.6996 3.17014 21.4502 3.12529 19.2752L3.10403 18.2395C3.07796 16.9848 3.33495 15.9367 3.88945 15.0356C4.17407 14.5728 4.48646 14.0928 4.89725 13.7528C6.99589 12.0161 8.90752 10.4823 10.7409 9.06307C12.7328 7.52233 15.0566 5.73621 17.4317 4.04969C18.2671 3.45636 19.2164 3.006 20.386 2.51208C20.7082 2.37126 21.058 2.29705 21.4125 2.29419C21.9805 2.29419 22.5491 2.49579 23.1304 2.90053C24.7655 4.0395 26.2223 5.4116 27.6309 6.73842C28.0051 7.09086 28.3793 7.4435 28.7573 7.79239C29.1122 8.11999 29.4665 8.44805 29.8205 8.77655C31.045 9.91137 32.311 11.085 33.586 12.2096C34.793 13.2438 35.5574 14.6669 35.7329 16.206C35.9411 17.9422 36.1194 19.5097 36.1939 21.1108C36.2969 23.3277 36.3526 25.7613 36.3646 28.5508C36.3511 29.3216 36.2421 30.0881 36.0401 30.8343C35.9701 31.1834 35.7885 31.5029 35.5203 31.7493C35.2522 31.9958 34.9106 32.1567 34.5426 32.2102C34.322 32.2509 34.1014 32.2954 33.8809 32.3398C33.3075 32.4678 32.726 32.5607 32.1401 32.618C31.1669 32.6921 30.1942 32.7217 29.1642 32.7539C28.9588 32.7603 28.7515 32.7667 28.5421 32.7735C28.2215 32.7839 27.9515 32.5341 27.9377 32.2136C27.9171 31.7275 27.8972 31.2685 27.8867 30.8122C27.8712 30.1555 27.8667 29.4863 27.8623 28.8392C27.8516 27.4146 27.8417 25.9419 27.7149 24.4998Z" fill="#FF5C5C"/>
</g>
<defs>
<filter id="filter0_d_1587_1933" x="-3.47656" y="0.0878906" width="46.3965" height="43.8457" filterUnits="userSpaceOnUse" color-interpolation-filters="sRGB">
<feFlood flood-opacity="0" result="BackgroundImageFix"/>
<feColorMatrix in="SourceAlpha" type="matrix" values="0 0 0 0 0 0 0 0 0 0 0 0 0 0 0 0 0 0 127 0" result="hardAlpha"/>
<feOffset dy="4"/>
<feGaussianBlur stdDeviation="2"/>
<feComposite in2="hardAlpha" operator="out"/>
<feColorMatrix type="matrix" values="0 0 0 0 0 0 0 0 0 0 0 0 0 0 0 0 0 0 0.11 0"/>
<feBlend mode="normal" in2="BackgroundImageFix" result="effect1_dropShadow_1587_1933"/>
<feBlend mode="normal" in="SourceGraphic" in2="effect1_dropShadow_1587_1933" result="shape"/>
</filter>
</defs>
</svg>
