<svg width="259" height="89" viewBox="0 0 259 89" fill="none" xmlns="http://www.w3.org/2000/svg">
<path d="M5.46465 38.4062C4.00631 38.4062 2.86048 38.0156 2.02715 37.2344C1.19381 36.4792 0.777145 35.5677 0.777145 34.5C0.777145 33.4323 1.19381 32.5208 2.02715 31.7656C2.86048 30.9844 4.00631 30.5938 5.46465 30.5938H14.9959C16.4542 30.5938 17.6001 30.9844 18.4334 31.7656C19.2667 32.5208 19.6834 33.4323 19.6834 34.5C19.6834 35.5677 19.2667 36.4792 18.4334 37.2344C17.6001 38.0156 16.4542 38.4062 14.9959 38.4062H5.46465ZM9.6834 33.4062C8.5636 33.4062 7.6261 33.0286 6.8709 32.2734C6.14173 31.4922 5.77715 30.5677 5.77715 29.5C5.77715 28.4323 6.14173 27.5208 6.8709 26.7656C7.6261 25.9844 8.5636 25.5938 9.6834 25.5938H10.7771C11.8969 25.5938 12.8214 25.9844 13.5506 26.7656C14.3058 27.5208 14.6834 28.4323 14.6834 29.5C14.6834 30.5677 14.3058 31.4922 13.5506 32.2734C12.8214 33.0286 11.8969 33.4062 10.7771 33.4062H9.6834ZM9.6834 28.4062C8.5636 28.4062 7.6261 28.0286 6.8709 27.2734C6.14173 26.4922 5.77715 25.5677 5.77715 24.5C5.77715 23.4323 6.14173 22.5208 6.8709 21.7656C7.6261 20.9844 8.5636 20.5938 9.6834 20.5938H10.7771C11.8969 20.5938 12.8214 20.9844 13.5506 21.7656C14.3058 22.5208 14.6834 23.4323 14.6834 24.5C14.6834 25.5677 14.3058 26.4922 13.5506 27.2734C12.8214 28.0286 11.8969 28.4062 10.7771 28.4062H9.6834ZM9.6834 23.4062C8.5636 23.4062 7.6261 23.0286 6.8709 22.2734C6.14173 21.4922 5.77715 20.5677 5.77715 19.5C5.77715 18.4323 6.14173 17.5208 6.8709 16.7656C7.6261 15.9844 8.5636 15.5938 9.6834 15.5938H10.7771C11.8969 15.5938 12.8214 15.9844 13.5506 16.7656C14.3058 17.5208 14.6834 18.4323 14.6834 19.5C14.6834 20.5677 14.3058 21.4922 13.5506 22.2734C12.8214 23.0286 11.8969 23.4062 10.7771 23.4062H9.6834ZM9.6834 18.4062C8.5636 18.4062 7.6261 18.0286 6.8709 17.2734C6.14173 16.4922 5.77715 15.5677 5.77715 14.5C5.77715 13.4323 6.14173 12.5208 6.8709 11.7656C7.6261 10.9844 8.5636 10.5938 9.6834 10.5938H10.7771C11.8969 10.5938 12.8214 10.9844 13.5506 11.7656C14.3058 12.5208 14.6834 13.4323 14.6834 14.5C14.6834 15.5677 14.3058 16.4922 13.5506 17.2734C12.8214 18.0286 11.8969 18.4062 10.7771 18.4062H9.6834ZM9.6834 13.4062C8.5636 13.4062 7.6261 13.0286 6.8709 12.2734C6.14173 11.4922 5.77715 10.5677 5.77715 9.5C5.77715 8.43229 6.14173 7.52083 6.8709 6.76562C7.6261 5.98438 8.5636 5.59375 9.6834 5.59375H10.7771C11.8969 5.59375 12.8214 5.98438 13.5506 6.76562C14.3058 7.52083 14.6834 8.43229 14.6834 9.5C14.6834 10.5677 14.3058 11.4922 13.5506 12.2734C12.8214 13.0286 11.8969 13.4062 10.7771 13.4062H9.6834ZM5.46465 8.40625C4.00631 8.40625 2.86048 8.02865 2.02715 7.27344C1.19381 6.49219 0.777145 5.56771 0.777145 4.5C0.777145 3.43229 1.19381 2.52083 2.02715 1.76562C2.86048 0.984375 4.00631 0.59375 5.46465 0.59375H14.9959C16.4542 0.59375 17.6001 0.984375 18.4334 1.76562C19.2667 2.52083 19.6834 3.43229 19.6834 4.5C19.6834 5.56771 19.2667 6.49219 18.4334 7.27344C17.6001 8.02865 16.4542 8.40625 14.9959 8.40625H5.46465ZM24.8018 38.4062C23.682 38.4062 22.7445 38.0156 21.9893 37.2344C21.2602 36.4792 20.8956 35.5677 20.8956 34.5C20.8956 33.4323 21.2602 32.5208 21.9893 31.7656C22.7445 30.9844 23.682 30.5938 24.8018 30.5938H25.8956C27.0154 30.5938 27.9398 30.9844 28.669 31.7656C29.4242 32.5208 29.8018 33.4323 29.8018 34.5C29.8018 35.5677 29.4242 36.4792 28.669 37.2344C27.9398 38.0156 27.0154 38.4062 25.8956 38.4062H24.8018ZM34.8018 38.4062C33.682 38.4062 32.7445 38.0156 31.9893 37.2344C31.2602 36.4792 30.8956 35.5677 30.8956 34.5C30.8956 33.4323 31.2602 32.5208 31.9893 31.7656C32.7445 30.9844 33.682 30.5938 34.8018 30.5938H35.8956C37.0154 30.5938 37.9398 30.9844 38.669 31.7656C39.4242 32.5208 39.8018 33.4323 39.8018 34.5C39.8018 35.5677 39.4242 36.4792 38.669 37.2344C37.9398 38.0156 37.0154 38.4062 35.8956 38.4062H34.8018ZM24.8018 33.4062C23.682 33.4062 22.7445 33.0286 21.9893 32.2734C21.2602 31.4922 20.8956 30.5677 20.8956 29.5C20.8956 28.4323 21.2602 27.5208 21.9893 26.7656C22.7445 25.9844 23.682 25.5938 24.8018 25.5938H25.8956C27.0154 25.5938 27.9398 25.9844 28.669 26.7656C29.4242 27.5208 29.8018 28.4323 29.8018 29.5C29.8018 30.5677 29.4242 31.4922 28.669 32.2734C27.9398 33.0286 27.0154 33.4062 25.8956 33.4062H24.8018ZM34.8018 33.4062C33.682 33.4062 32.7445 33.0286 31.9893 32.2734C31.2602 31.4922 30.8956 30.5677 30.8956 29.5C30.8956 28.4323 31.2602 27.5208 31.9893 26.7656C32.7445 25.9844 33.682 25.5938 34.8018 25.5938H35.8956C37.0154 25.5938 37.9398 25.9844 38.669 26.7656C39.4242 27.5208 39.8018 28.4323 39.8018 29.5C39.8018 30.5677 39.4242 31.4922 38.669 32.2734C37.9398 33.0286 37.0154 33.4062 35.8956 33.4062H34.8018ZM24.8018 28.4062C23.682 28.4062 22.7445 28.0286 21.9893 27.2734C21.2602 26.4922 20.8956 25.5677 20.8956 24.5C20.8956 23.4323 21.2602 22.5208 21.9893 21.7656C22.7445 20.9844 23.682 20.5938 24.8018 20.5938H25.8956C27.0154 20.5938 27.9398 20.9844 28.669 21.7656C29.4242 22.5208 29.8018 23.4323 29.8018 24.5C29.8018 25.5677 29.4242 26.4922 28.669 27.2734C27.9398 28.0286 27.0154 28.4062 25.8956 28.4062H24.8018ZM34.8018 28.4062C33.682 28.4062 32.7445 28.0286 31.9893 27.2734C31.2602 26.4922 30.8956 25.5677 30.8956 24.5C30.8956 23.4323 31.2602 22.5208 31.9893 21.7656C32.7445 20.9844 33.682 20.5938 34.8018 20.5938H35.8956C37.0154 20.5938 37.9398 20.9844 38.669 21.7656C39.4242 22.5208 39.8018 23.4323 39.8018 24.5C39.8018 25.5677 39.4242 26.4922 38.669 27.2734C37.9398 28.0286 37.0154 28.4062 35.8956 28.4062H34.8018ZM24.8018 23.4062C23.682 23.4062 22.7445 23.0286 21.9893 22.2734C21.2602 21.4922 20.8956 20.5677 20.8956 19.5C20.8956 18.4323 21.2602 17.5208 21.9893 16.7656C22.7445 15.9844 23.682 15.5938 24.8018 15.5938H25.8956C27.0154 15.5938 27.9398 15.9844 28.669 16.7656C29.4242 17.5208 29.8018 18.4323 29.8018 19.5C29.8018 20.5677 29.4242 21.4922 28.669 22.2734C27.9398 23.0286 27.0154 23.4062 25.8956 23.4062H24.8018ZM34.8018 23.4062C33.682 23.4062 32.7445 23.0286 31.9893 22.2734C31.2602 21.4922 30.8956 20.5677 30.8956 19.5C30.8956 18.4323 31.2602 17.5208 31.9893 16.7656C32.7445 15.9844 33.682 15.5938 34.8018 15.5938H35.8956C37.0154 15.5938 37.9398 15.9844 38.669 16.7656C39.4242 17.5208 39.8018 18.4323 39.8018 19.5C39.8018 20.5677 39.4242 21.4922 38.669 22.2734C37.9398 23.0286 37.0154 23.4062 35.8956 23.4062H34.8018ZM25.5831 18.4062C24.1247 18.4062 22.9789 18.0286 22.1456 17.2734C21.3122 16.4922 20.8956 15.5677 20.8956 14.5C20.8956 13.4323 21.3122 12.5208 22.1456 11.7656C22.9789 10.9844 24.1247 10.5938 25.5831 10.5938H32.6143C34.0727 10.5938 35.2185 10.9844 36.0518 11.7656C36.8852 12.5208 37.3018 13.4323 37.3018 14.5C37.3018 15.5677 36.8852 16.4922 36.0518 17.2734C35.2185 18.0286 34.0727 18.4062 32.6143 18.4062H25.5831ZM52.4202 38.4062C51.3005 38.4062 50.363 38.0156 49.6077 37.2344C48.8786 36.4792 48.514 35.5677 48.514 34.5C48.514 33.4323 48.8786 32.5208 49.6077 31.7656C50.363 30.9844 51.3005 30.5938 52.4202 30.5938H53.514C54.6338 30.5938 55.5583 30.9844 56.2874 31.7656C57.0426 32.5208 57.4202 33.4323 57.4202 34.5C57.4202 35.5677 57.0426 36.4792 56.2874 37.2344C55.5583 38.0156 54.6338 38.4062 53.514 38.4062H52.4202ZM49.9202 33.4062C48.8005 33.4062 47.863 33.0286 47.1077 32.2734C46.3786 31.4922 46.014 30.5677 46.014 29.5C46.014 28.4323 46.3786 27.5208 47.1077 26.7656C47.863 25.9844 48.8005 25.5938 49.9202 25.5938H51.014C52.1338 25.5938 53.0583 25.9844 53.7874 26.7656C54.5426 27.5208 54.9202 28.4323 54.9202 29.5C54.9202 30.5677 54.5426 31.4922 53.7874 32.2734C53.0583 33.0286 52.1338 33.4062 51.014 33.4062H49.9202ZM56.4437 33.4062C55.6624 33.4062 54.9723 33.0286 54.3734 32.2734C53.8005 31.4922 53.514 30.5677 53.514 29.5C53.514 28.4323 53.8005 27.5208 54.3734 26.7656C54.9723 25.9844 55.6624 25.5938 56.4437 25.5938H56.9906C57.7718 25.5938 58.4489 25.9844 59.0218 26.7656C59.6208 27.5208 59.9202 28.4323 59.9202 29.5C59.9202 30.5677 59.6208 31.4922 59.0218 32.2734C58.4489 33.0286 57.7718 33.4062 56.9906 33.4062H56.4437ZM49.9202 28.4062C48.8005 28.4062 47.863 28.0286 47.1077 27.2734C46.3786 26.4922 46.014 25.5677 46.014 24.5C46.014 23.4323 46.3786 22.5208 47.1077 21.7656C47.863 20.9844 48.8005 20.5938 49.9202 20.5938H51.014C52.1338 20.5938 53.0583 20.9844 53.7874 21.7656C54.5426 22.5208 54.9202 23.4323 54.9202 24.5C54.9202 25.5677 54.5426 26.4922 53.7874 27.2734C53.0583 28.0286 52.1338 28.4062 51.014 28.4062H49.9202ZM49.9202 23.4062C48.8005 23.4062 47.863 23.0286 47.1077 22.2734C46.3786 21.4922 46.014 20.5677 46.014 19.5C46.014 18.4323 46.3786 17.5208 47.1077 16.7656C47.863 15.9844 48.8005 15.5938 49.9202 15.5938H51.014C52.1338 15.5938 53.0583 15.9844 53.7874 16.7656C54.5426 17.5208 54.9202 18.4323 54.9202 19.5C54.9202 20.5677 54.5426 21.4922 53.7874 22.2734C53.0583 23.0286 52.1338 23.4062 51.014 23.4062H49.9202ZM48.2015 18.4062C46.7432 18.4062 45.5973 18.0286 44.764 17.2734C43.9307 16.4922 43.514 15.5677 43.514 14.5C43.514 13.4323 43.9307 12.5208 44.764 11.7656C45.5973 10.9844 46.7432 10.5938 48.2015 10.5938H55.2327C56.6911 10.5938 57.8369 10.9844 58.6702 11.7656C59.5036 12.5208 59.9202 13.4323 59.9202 14.5C59.9202 15.5677 59.5036 16.4922 58.6702 17.2734C57.8369 18.0286 56.6911 18.4062 55.2327 18.4062H48.2015ZM49.9202 13.4062C48.8005 13.4062 47.863 13.0286 47.1077 12.2734C46.3786 11.4922 46.014 10.5677 46.014 9.5C46.014 8.43229 46.3786 7.52083 47.1077 6.76562C47.863 5.98438 48.8005 5.59375 49.9202 5.59375H51.014C52.1338 5.59375 53.0583 5.98438 53.7874 6.76562C54.5426 7.52083 54.9202 8.43229 54.9202 9.5C54.9202 10.5677 54.5426 11.4922 53.7874 12.2734C53.0583 13.0286 52.1338 13.4062 51.014 13.4062H49.9202ZM51.4437 8.40625C50.6624 8.40625 49.9723 8.02865 49.3734 7.27344C48.8005 6.49219 48.514 5.56771 48.514 4.5C48.514 3.43229 48.8005 2.52083 49.3734 1.76562C49.9723 0.984375 50.6624 0.59375 51.4437 0.59375H51.9906C52.7718 0.59375 53.4489 0.984375 54.0218 1.76562C54.6208 2.52083 54.9202 3.43229 54.9202 4.5C54.9202 5.56771 54.6208 6.49219 54.0218 7.27344C53.4489 8.02865 52.7718 8.40625 51.9906 8.40625H51.4437ZM68.3199 38.4062C66.8616 38.4062 65.7157 38.0156 64.8824 37.2344C64.0491 36.4792 63.6324 35.5677 63.6324 34.5C63.6324 33.4323 64.0491 32.5208 64.8824 31.7656C65.7157 30.9844 66.8616 30.5938 68.3199 30.5938H72.8512C74.3095 30.5938 75.4553 30.9844 76.2887 31.7656C77.122 32.5208 77.5387 33.4323 77.5387 34.5C77.5387 35.5677 77.122 36.4792 76.2887 37.2344C75.4553 38.0156 74.3095 38.4062 72.8512 38.4062H68.3199ZM65.0387 33.4062C63.9189 33.4062 62.9814 33.0286 62.2262 32.2734C61.497 31.4922 61.1324 30.5677 61.1324 29.5C61.1324 28.4323 61.497 27.5208 62.2262 26.7656C62.9814 25.9844 63.9189 25.5938 65.0387 25.5938H66.1324C67.2522 25.5938 68.1767 25.9844 68.9058 26.7656C69.6611 27.5208 70.0387 28.4323 70.0387 29.5C70.0387 30.5677 69.6611 31.4922 68.9058 32.2734C68.1767 33.0286 67.2522 33.4062 66.1324 33.4062H65.0387ZM65.8199 28.4062C64.3616 28.4062 63.2157 28.0286 62.3824 27.2734C61.5491 26.4922 61.1324 25.5677 61.1324 24.5C61.1324 23.4323 61.5491 22.5208 62.3824 21.7656C63.2157 20.9844 64.3616 20.5938 65.8199 20.5938H75.3512C76.8095 20.5938 77.9553 20.9844 78.7887 21.7656C79.622 22.5208 80.0387 23.4323 80.0387 24.5C80.0387 25.5677 79.622 26.4922 78.7887 27.2734C77.9553 28.0286 76.8095 28.4062 75.3512 28.4062H65.8199ZM65.0387 23.4062C63.9189 23.4062 62.9814 23.0286 62.2262 22.2734C61.497 21.4922 61.1324 20.5677 61.1324 19.5C61.1324 18.4323 61.497 17.5208 62.2262 16.7656C62.9814 15.9844 63.9189 15.5938 65.0387 15.5938H66.1324C67.2522 15.5938 68.1767 15.9844 68.9058 16.7656C69.6611 17.5208 70.0387 18.4323 70.0387 19.5C70.0387 20.5677 69.6611 21.4922 68.9058 22.2734C68.1767 23.0286 67.2522 23.4062 66.1324 23.4062H65.0387ZM75.0387 23.4062C73.9189 23.4062 72.9814 23.0286 72.2262 22.2734C71.497 21.4922 71.1324 20.5677 71.1324 19.5C71.1324 18.4323 71.497 17.5208 72.2262 16.7656C72.9814 15.9844 73.9189 15.5938 75.0387 15.5938H76.1324C77.2522 15.5938 78.1767 15.9844 78.9058 16.7656C79.6611 17.5208 80.0387 18.4323 80.0387 19.5C80.0387 20.5677 79.6611 21.4922 78.9058 22.2734C78.1767 23.0286 77.2522 23.4062 76.1324 23.4062H75.0387ZM68.3199 18.4062C66.8616 18.4062 65.7157 18.0286 64.8824 17.2734C64.0491 16.4922 63.6324 15.5677 63.6324 14.5C63.6324 13.4323 64.0491 12.5208 64.8824 11.7656C65.7157 10.9844 66.8616 10.5938 68.3199 10.5938H72.8512C74.3095 10.5938 75.4553 10.9844 76.2887 11.7656C77.122 12.5208 77.5387 13.4323 77.5387 14.5C77.5387 15.5677 77.122 16.4922 76.2887 17.2734C75.4553 18.0286 74.3095 18.4062 72.8512 18.4062H68.3199ZM83.4383 38.4062C81.98 38.4062 80.8342 38.0156 80.0008 37.2344C79.1675 36.4792 78.7508 35.5677 78.7508 34.5C78.7508 33.4323 79.1675 32.5208 80.0008 31.7656C80.8342 30.9844 81.98 30.5938 83.4383 30.5938H87.9696C89.4279 30.5938 90.5737 30.9844 91.4071 31.7656C92.2404 32.5208 92.6571 33.4323 92.6571 34.5C92.6571 35.5677 92.2404 36.4792 91.4071 37.2344C90.5737 38.0156 89.4279 38.4062 87.9696 38.4062H83.4383ZM85.1571 33.4062C84.0373 33.4062 83.0998 33.0286 82.3446 32.2734C81.6154 31.4922 81.2508 30.5677 81.2508 29.5C81.2508 28.4323 81.6154 27.5208 82.3446 26.7656C83.0998 25.9844 84.0373 25.5938 85.1571 25.5938H86.2508C87.3706 25.5938 88.2951 25.9844 89.0243 26.7656C89.7795 27.5208 90.1571 28.4323 90.1571 29.5C90.1571 30.5677 89.7795 31.4922 89.0243 32.2734C88.2951 33.0286 87.3706 33.4062 86.2508 33.4062H85.1571ZM85.1571 28.4062C84.0373 28.4062 83.0998 28.0286 82.3446 27.2734C81.6154 26.4922 81.2508 25.5677 81.2508 24.5C81.2508 23.4323 81.6154 22.5208 82.3446 21.7656C83.0998 20.9844 84.0373 20.5938 85.1571 20.5938H86.2508C87.3706 20.5938 88.2951 20.9844 89.0243 21.7656C89.7795 22.5208 90.1571 23.4323 90.1571 24.5C90.1571 25.5677 89.7795 26.4922 89.0243 27.2734C88.2951 28.0286 87.3706 28.4062 86.2508 28.4062H85.1571ZM95.1571 28.4062C94.0373 28.4062 93.0998 28.0286 92.3446 27.2734C91.6154 26.4922 91.2508 25.5677 91.2508 24.5C91.2508 23.4323 91.6154 22.5208 92.3446 21.7656C93.0998 20.9844 94.0373 20.5938 95.1571 20.5938H96.2508C97.3706 20.5938 98.2951 20.9844 99.0243 21.7656C99.7795 22.5208 100.157 23.4323 100.157 24.5C100.157 25.5677 99.7795 26.4922 99.0243 27.2734C98.2951 28.0286 97.3706 28.4062 96.2508 28.4062H95.1571ZM85.1571 23.4062C84.0373 23.4062 83.0998 23.0286 82.3446 22.2734C81.6154 21.4922 81.2508 20.5677 81.2508 19.5C81.2508 18.4323 81.6154 17.5208 82.3446 16.7656C83.0998 15.9844 84.0373 15.5938 85.1571 15.5938H88.7508C89.8706 15.5938 90.7951 15.9844 91.5243 16.7656C92.2795 17.5208 92.6571 18.4323 92.6571 19.5C92.6571 20.5677 92.2795 21.4922 91.5243 22.2734C90.7951 23.0286 89.8706 23.4062 88.7508 23.4062H85.1571ZM95.1571 23.4062C94.0373 23.4062 93.0998 23.0286 92.3446 22.2734C91.6154 21.4922 91.2508 20.5677 91.2508 19.5C91.2508 18.4323 91.6154 17.5208 92.3446 16.7656C93.0998 15.9844 94.0373 15.5938 95.1571 15.5938H96.2508C97.3706 15.5938 98.2951 15.9844 99.0243 16.7656C99.7795 17.5208 100.157 18.4323 100.157 19.5C100.157 20.5677 99.7795 21.4922 99.0243 22.2734C98.2951 23.0286 97.3706 23.4062 96.2508 23.4062H95.1571ZM82.6571 18.4062C81.5373 18.4062 80.6128 18.0286 79.8836 17.2734C79.1284 16.4922 78.7508 15.5677 78.7508 14.5C78.7508 13.4323 79.1284 12.5208 79.8836 11.7656C80.6128 10.9844 81.5373 10.5938 82.6571 10.5938H86.2508C87.3706 10.5938 88.2951 10.9844 89.0243 11.7656C89.7795 12.5208 90.1571 13.4323 90.1571 14.5C90.1571 15.5677 89.7795 16.4922 89.0243 17.2734C88.2951 18.0286 87.3706 18.4062 86.2508 18.4062H82.6571ZM92.6571 18.4062C91.5373 18.4062 90.5998 18.0286 89.8446 17.2734C89.1154 16.4922 88.7508 15.5677 88.7508 14.5C88.7508 13.4323 89.1154 12.5208 89.8446 11.7656C90.5998 10.9844 91.5373 10.5938 92.6571 10.5938H93.7508C94.8706 10.5938 95.7951 10.9844 96.5243 11.7656C97.2795 12.5208 97.6571 13.4323 97.6571 14.5C97.6571 15.5677 97.2795 16.4922 96.5243 17.2734C95.7951 18.0286 94.8706 18.4062 93.7508 18.4062H92.6571ZM105.275 38.4062C104.156 38.4062 103.218 38.0156 102.463 37.2344C101.734 36.4792 101.369 35.5677 101.369 34.5C101.369 33.4323 101.734 32.5208 102.463 31.7656C103.218 30.9844 104.156 30.5938 105.275 30.5938H106.369C107.489 30.5938 108.414 30.9844 109.143 31.7656C109.898 32.5208 110.275 33.4323 110.275 34.5C110.275 35.5677 109.898 36.4792 109.143 37.2344C108.414 38.0156 107.489 38.4062 106.369 38.4062H105.275ZM115.275 38.4062C114.156 38.4062 113.218 38.0156 112.463 37.2344C111.734 36.4792 111.369 35.5677 111.369 34.5C111.369 33.4323 111.734 32.5208 112.463 31.7656C113.218 30.9844 114.156 30.5938 115.275 30.5938H116.369C117.489 30.5938 118.414 30.9844 119.143 31.7656C119.898 32.5208 120.275 33.4323 120.275 34.5C120.275 35.5677 119.898 36.4792 119.143 37.2344C118.414 38.0156 117.489 38.4062 116.369 38.4062H115.275ZM105.275 33.4062C104.156 33.4062 103.218 33.0286 102.463 32.2734C101.734 31.4922 101.369 30.5677 101.369 29.5C101.369 28.4323 101.734 27.5208 102.463 26.7656C103.218 25.9844 104.156 25.5938 105.275 25.5938H106.369C107.489 25.5938 108.414 25.9844 109.143 26.7656C109.898 27.5208 110.275 28.4323 110.275 29.5C110.275 30.5677 109.898 31.4922 109.143 32.2734C108.414 33.0286 107.489 33.4062 106.369 33.4062H105.275ZM115.275 33.4062C114.156 33.4062 113.218 33.0286 112.463 32.2734C111.734 31.4922 111.369 30.5677 111.369 29.5C111.369 28.4323 111.734 27.5208 112.463 26.7656C113.218 25.9844 114.156 25.5938 115.275 25.5938H116.369C117.489 25.5938 118.414 25.9844 119.143 26.7656C119.898 27.5208 120.275 28.4323 120.275 29.5C120.275 30.5677 119.898 31.4922 119.143 32.2734C118.414 33.0286 117.489 33.4062 116.369 33.4062H115.275ZM105.275 28.4062C104.156 28.4062 103.218 28.0286 102.463 27.2734C101.734 26.4922 101.369 25.5677 101.369 24.5C101.369 23.4323 101.734 22.5208 102.463 21.7656C103.218 20.9844 104.156 20.5938 105.275 20.5938H106.369C107.489 20.5938 108.414 20.9844 109.143 21.7656C109.898 22.5208 110.275 23.4323 110.275 24.5C110.275 25.5677 109.898 26.4922 109.143 27.2734C108.414 28.0286 107.489 28.4062 106.369 28.4062H105.275ZM115.275 28.4062C114.156 28.4062 113.218 28.0286 112.463 27.2734C111.734 26.4922 111.369 25.5677 111.369 24.5C111.369 23.4323 111.734 22.5208 112.463 21.7656C113.218 20.9844 114.156 20.5938 115.275 20.5938H116.369C117.489 20.5938 118.414 20.9844 119.143 21.7656C119.898 22.5208 120.275 23.4323 120.275 24.5C120.275 25.5677 119.898 26.4922 119.143 27.2734C118.414 28.0286 117.489 28.4062 116.369 28.4062H115.275ZM105.275 23.4062C104.156 23.4062 103.218 23.0286 102.463 22.2734C101.734 21.4922 101.369 20.5677 101.369 19.5C101.369 18.4323 101.734 17.5208 102.463 16.7656C103.218 15.9844 104.156 15.5938 105.275 15.5938H106.369C107.489 15.5938 108.414 15.9844 109.143 16.7656C109.898 17.5208 110.275 18.4323 110.275 19.5C110.275 20.5677 109.898 21.4922 109.143 22.2734C108.414 23.0286 107.489 23.4062 106.369 23.4062H105.275ZM115.275 23.4062C114.156 23.4062 113.218 23.0286 112.463 22.2734C111.734 21.4922 111.369 20.5677 111.369 19.5C111.369 18.4323 111.734 17.5208 112.463 16.7656C113.218 15.9844 114.156 15.5938 115.275 15.5938H116.369C117.489 15.5938 118.414 15.9844 119.143 16.7656C119.898 17.5208 120.275 18.4323 120.275 19.5C120.275 20.5677 119.898 21.4922 119.143 22.2734C118.414 23.0286 117.489 23.4062 116.369 23.4062H115.275ZM106.057 18.4062C104.598 18.4062 103.453 18.0286 102.619 17.2734C101.786 16.4922 101.369 15.5677 101.369 14.5C101.369 13.4323 101.786 12.5208 102.619 11.7656C103.453 10.9844 104.598 10.5938 106.057 10.5938H113.088C114.546 10.5938 115.692 10.9844 116.525 11.7656C117.359 12.5208 117.775 13.4323 117.775 14.5C117.775 15.5677 117.359 16.4922 116.525 17.2734C115.692 18.0286 114.546 18.4062 113.088 18.4062H106.057ZM127.894 38.4062C126.774 38.4062 125.837 38.0156 125.081 37.2344C124.352 36.4792 123.988 35.5677 123.988 34.5C123.988 33.4323 124.352 32.5208 125.081 31.7656C125.837 30.9844 126.774 30.5938 127.894 30.5938H131.488C132.607 30.5938 133.532 30.9844 134.261 31.7656C135.016 32.5208 135.394 33.4323 135.394 34.5C135.394 35.5677 135.016 36.4792 134.261 37.2344C133.532 38.0156 132.607 38.4062 131.488 38.4062H127.894ZM137.894 38.4062C136.774 38.4062 135.837 38.0156 135.081 37.2344C134.352 36.4792 133.988 35.5677 133.988 34.5C133.988 33.4323 134.352 32.5208 135.081 31.7656C135.837 30.9844 136.774 30.5938 137.894 30.5938H138.988C140.107 30.5938 141.032 30.9844 141.761 31.7656C142.516 32.5208 142.894 33.4323 142.894 34.5C142.894 35.5677 142.516 36.4792 141.761 37.2344C141.032 38.0156 140.107 38.4062 138.988 38.4062H137.894ZM125.394 33.4062C124.274 33.4062 123.337 33.0286 122.581 32.2734C121.852 31.4922 121.488 30.5677 121.488 29.5C121.488 28.4323 121.852 27.5208 122.581 26.7656C123.337 25.9844 124.274 25.5938 125.394 25.5938H126.488C127.607 25.5938 128.532 25.9844 129.261 26.7656C130.016 27.5208 130.394 28.4323 130.394 29.5C130.394 30.5677 130.016 31.4922 129.261 32.2734C128.532 33.0286 127.607 33.4062 126.488 33.4062H125.394ZM135.394 33.4062C134.274 33.4062 133.337 33.0286 132.581 32.2734C131.852 31.4922 131.488 30.5677 131.488 29.5C131.488 28.4323 131.852 27.5208 132.581 26.7656C133.337 25.9844 134.274 25.5938 135.394 25.5938H136.488C137.607 25.5938 138.532 25.9844 139.261 26.7656C140.016 27.5208 140.394 28.4323 140.394 29.5C140.394 30.5677 140.016 31.4922 139.261 32.2734C138.532 33.0286 137.607 33.4062 136.488 33.4062H135.394ZM131.175 28.4062C129.717 28.4062 128.571 28.0286 127.738 27.2734C126.904 26.4922 126.488 25.5677 126.488 24.5C126.488 23.4323 126.904 22.5208 127.738 21.7656C128.571 20.9844 129.717 20.5938 131.175 20.5938H135.706C137.165 20.5938 138.311 20.9844 139.144 21.7656C139.977 22.5208 140.394 23.4323 140.394 24.5C140.394 25.5677 139.977 26.4922 139.144 27.2734C138.311 28.0286 137.165 28.4062 135.706 28.4062H131.175ZM135.394 23.4062C134.274 23.4062 133.337 23.0286 132.581 22.2734C131.852 21.4922 131.488 20.5677 131.488 19.5C131.488 18.4323 131.852 17.5208 132.581 16.7656C133.337 15.9844 134.274 15.5938 135.394 15.5938H136.488C137.607 15.5938 138.532 15.9844 139.261 16.7656C140.016 17.5208 140.394 18.4323 140.394 19.5C140.394 20.5677 140.016 21.4922 139.261 22.2734C138.532 23.0286 137.607 23.4062 136.488 23.4062H135.394ZM128.675 18.4062C127.217 18.4062 126.071 18.0286 125.238 17.2734C124.404 16.4922 123.988 15.5677 123.988 14.5C123.988 13.4323 124.404 12.5208 125.238 11.7656C126.071 10.9844 127.217 10.5938 128.675 10.5938H133.206C134.665 10.5938 135.811 10.9844 136.644 11.7656C137.477 12.5208 137.894 13.4323 137.894 14.5C137.894 15.5677 137.477 16.4922 136.644 17.2734C135.811 18.0286 134.665 18.4062 133.206 18.4062H128.675ZM153.012 38.4062C151.893 38.4062 150.955 38.0156 150.2 37.2344C149.471 36.4792 149.106 35.5677 149.106 34.5C149.106 33.4323 149.471 32.5208 150.2 31.7656C150.955 30.9844 151.893 30.5938 153.012 30.5938H154.106C155.226 30.5938 156.15 30.9844 156.88 31.7656C157.635 32.5208 158.012 33.4323 158.012 34.5C158.012 35.5677 157.635 36.4792 156.88 37.2344C156.15 38.0156 155.226 38.4062 154.106 38.4062H153.012ZM150.512 33.4062C149.393 33.4062 148.455 33.0286 147.7 32.2734C146.971 31.4922 146.606 30.5677 146.606 29.5C146.606 28.4323 146.971 27.5208 147.7 26.7656C148.455 25.9844 149.393 25.5938 150.512 25.5938H151.606C152.726 25.5938 153.65 25.9844 154.38 26.7656C155.135 27.5208 155.512 28.4323 155.512 29.5C155.512 30.5677 155.135 31.4922 154.38 32.2734C153.65 33.0286 152.726 33.4062 151.606 33.4062H150.512ZM157.036 33.4062C156.255 33.4062 155.564 33.0286 154.965 32.2734C154.393 31.4922 154.106 30.5677 154.106 29.5C154.106 28.4323 154.393 27.5208 154.965 26.7656C155.564 25.9844 156.255 25.5938 157.036 25.5938H157.583C158.364 25.5938 159.041 25.9844 159.614 26.7656C160.213 27.5208 160.512 28.4323 160.512 29.5C160.512 30.5677 160.213 31.4922 159.614 32.2734C159.041 33.0286 158.364 33.4062 157.583 33.4062H157.036ZM150.512 28.4062C149.393 28.4062 148.455 28.0286 147.7 27.2734C146.971 26.4922 146.606 25.5677 146.606 24.5C146.606 23.4323 146.971 22.5208 147.7 21.7656C148.455 20.9844 149.393 20.5938 150.512 20.5938H151.606C152.726 20.5938 153.65 20.9844 154.38 21.7656C155.135 22.5208 155.512 23.4323 155.512 24.5C155.512 25.5677 155.135 26.4922 154.38 27.2734C153.65 28.0286 152.726 28.4062 151.606 28.4062H150.512ZM150.512 23.4062C149.393 23.4062 148.455 23.0286 147.7 22.2734C146.971 21.4922 146.606 20.5677 146.606 19.5C146.606 18.4323 146.971 17.5208 147.7 16.7656C148.455 15.9844 149.393 15.5938 150.512 15.5938H151.606C152.726 15.5938 153.65 15.9844 154.38 16.7656C155.135 17.5208 155.512 18.4323 155.512 19.5C155.512 20.5677 155.135 21.4922 154.38 22.2734C153.65 23.0286 152.726 23.4062 151.606 23.4062H150.512ZM148.794 18.4062C147.335 18.4062 146.189 18.0286 145.356 17.2734C144.523 16.4922 144.106 15.5677 144.106 14.5C144.106 13.4323 144.523 12.5208 145.356 11.7656C146.189 10.9844 147.335 10.5938 148.794 10.5938H155.825C157.283 10.5938 158.429 10.9844 159.262 11.7656C160.096 12.5208 160.512 13.4323 160.512 14.5C160.512 15.5677 160.096 16.4922 159.262 17.2734C158.429 18.0286 157.283 18.4062 155.825 18.4062H148.794ZM150.512 13.4062C149.393 13.4062 148.455 13.0286 147.7 12.2734C146.971 11.4922 146.606 10.5677 146.606 9.5C146.606 8.43229 146.971 7.52083 147.7 6.76562C148.455 5.98438 149.393 5.59375 150.512 5.59375H151.606C152.726 5.59375 153.65 5.98438 154.38 6.76562C155.135 7.52083 155.512 8.43229 155.512 9.5C155.512 10.5677 155.135 11.4922 154.38 12.2734C153.65 13.0286 152.726 13.4062 151.606 13.4062H150.512ZM152.036 8.40625C151.255 8.40625 150.564 8.02865 149.965 7.27344C149.393 6.49219 149.106 5.56771 149.106 4.5C149.106 3.43229 149.393 2.52083 149.965 1.76562C150.564 0.984375 151.255 0.59375 152.036 0.59375H152.583C153.364 0.59375 154.041 0.984375 154.614 1.76562C155.213 2.52083 155.512 3.43229 155.512 4.5C155.512 5.56771 155.213 6.49219 154.614 7.27344C154.041 8.02865 153.364 8.40625 152.583 8.40625H152.036ZM168.912 38.4062C167.454 38.4062 166.308 38.0156 165.475 37.2344C164.641 36.4792 164.225 35.5677 164.225 34.5C164.225 33.4323 164.641 32.5208 165.475 31.7656C166.308 30.9844 167.454 30.5938 168.912 30.5938H173.443C174.902 30.5938 176.047 30.9844 176.881 31.7656C177.714 32.5208 178.131 33.4323 178.131 34.5C178.131 35.5677 177.714 36.4792 176.881 37.2344C176.047 38.0156 174.902 38.4062 173.443 38.4062H168.912ZM170.631 33.4062C169.511 33.4062 168.573 33.0286 167.818 32.2734C167.089 31.4922 166.725 30.5677 166.725 29.5C166.725 28.4323 167.089 27.5208 167.818 26.7656C168.573 25.9844 169.511 25.5938 170.631 25.5938H171.725C172.844 25.5938 173.769 25.9844 174.498 26.7656C175.253 27.5208 175.631 28.4323 175.631 29.5C175.631 30.5677 175.253 31.4922 174.498 32.2734C173.769 33.0286 172.844 33.4062 171.725 33.4062H170.631ZM170.631 28.4062C169.511 28.4062 168.573 28.0286 167.818 27.2734C167.089 26.4922 166.725 25.5677 166.725 24.5C166.725 23.4323 167.089 22.5208 167.818 21.7656C168.573 20.9844 169.511 20.5938 170.631 20.5938H171.725C172.844 20.5938 173.769 20.9844 174.498 21.7656C175.253 22.5208 175.631 23.4323 175.631 24.5C175.631 25.5677 175.253 26.4922 174.498 27.2734C173.769 28.0286 172.844 28.4062 171.725 28.4062H170.631ZM170.631 23.4062C169.511 23.4062 168.573 23.0286 167.818 22.2734C167.089 21.4922 166.725 20.5677 166.725 19.5C166.725 18.4323 167.089 17.5208 167.818 16.7656C168.573 15.9844 169.511 15.5938 170.631 15.5938H171.725C172.844 15.5938 173.769 15.9844 174.498 16.7656C175.253 17.5208 175.631 18.4323 175.631 19.5C175.631 20.5677 175.253 21.4922 174.498 22.2734C173.769 23.0286 172.844 23.4062 171.725 23.4062H170.631ZM168.131 18.4062C167.011 18.4062 166.073 18.0286 165.318 17.2734C164.589 16.4922 164.225 15.5677 164.225 14.5C164.225 13.4323 164.589 12.5208 165.318 11.7656C166.073 10.9844 167.011 10.5938 168.131 10.5938H171.725C172.844 10.5938 173.769 10.9844 174.498 11.7656C175.253 12.5208 175.631 13.4323 175.631 14.5C175.631 15.5677 175.253 16.4922 174.498 17.2734C173.769 18.0286 172.844 18.4062 171.725 18.4062H168.131ZM170.631 8.40625C169.511 8.40625 168.573 8.02865 167.818 7.27344C167.089 6.49219 166.725 5.56771 166.725 4.5C166.725 3.43229 167.089 2.52083 167.818 1.76562C168.573 0.984375 169.511 0.59375 170.631 0.59375H171.725C172.844 0.59375 173.769 0.984375 174.498 1.76562C175.253 2.52083 175.631 3.43229 175.631 4.5C175.631 5.56771 175.253 6.49219 174.498 7.27344C173.769 8.02865 172.844 8.40625 171.725 8.40625H170.631ZM189.03 38.4062C187.572 38.4062 186.426 38.0156 185.593 37.2344C184.76 36.4792 184.343 35.5677 184.343 34.5C184.343 33.4323 184.76 32.5208 185.593 31.7656C186.426 30.9844 187.572 30.5938 189.03 30.5938H193.562C195.02 30.5938 196.166 30.9844 196.999 31.7656C197.833 32.5208 198.249 33.4323 198.249 34.5C198.249 35.5677 197.833 36.4792 196.999 37.2344C196.166 38.0156 195.02 38.4062 193.562 38.4062H189.03ZM185.749 33.4062C184.629 33.4062 183.692 33.0286 182.937 32.2734C182.208 31.4922 181.843 30.5677 181.843 29.5C181.843 28.4323 182.208 27.5208 182.937 26.7656C183.692 25.9844 184.629 25.5938 185.749 25.5938H186.843C187.963 25.5938 188.887 25.9844 189.616 26.7656C190.372 27.5208 190.749 28.4323 190.749 29.5C190.749 30.5677 190.372 31.4922 189.616 32.2734C188.887 33.0286 187.963 33.4062 186.843 33.4062H185.749ZM195.749 33.4062C194.629 33.4062 193.692 33.0286 192.937 32.2734C192.208 31.4922 191.843 30.5677 191.843 29.5C191.843 28.4323 192.208 27.5208 192.937 26.7656C193.692 25.9844 194.629 25.5938 195.749 25.5938H196.843C197.963 25.5938 198.887 25.9844 199.616 26.7656C200.372 27.5208 200.749 28.4323 200.749 29.5C200.749 30.5677 200.372 31.4922 199.616 32.2734C198.887 33.0286 197.963 33.4062 196.843 33.4062H195.749ZM185.749 28.4062C184.629 28.4062 183.692 28.0286 182.937 27.2734C182.208 26.4922 181.843 25.5677 181.843 24.5C181.843 23.4323 182.208 22.5208 182.937 21.7656C183.692 20.9844 184.629 20.5938 185.749 20.5938H186.843C187.963 20.5938 188.887 20.9844 189.616 21.7656C190.372 22.5208 190.749 23.4323 190.749 24.5C190.749 25.5677 190.372 26.4922 189.616 27.2734C188.887 28.0286 187.963 28.4062 186.843 28.4062H185.749ZM195.749 28.4062C194.629 28.4062 193.692 28.0286 192.937 27.2734C192.208 26.4922 191.843 25.5677 191.843 24.5C191.843 23.4323 192.208 22.5208 192.937 21.7656C193.692 20.9844 194.629 20.5938 195.749 20.5938H196.843C197.963 20.5938 198.887 20.9844 199.616 21.7656C200.372 22.5208 200.749 23.4323 200.749 24.5C200.749 25.5677 200.372 26.4922 199.616 27.2734C198.887 28.0286 197.963 28.4062 196.843 28.4062H195.749ZM185.749 23.4062C184.629 23.4062 183.692 23.0286 182.937 22.2734C182.208 21.4922 181.843 20.5677 181.843 19.5C181.843 18.4323 182.208 17.5208 182.937 16.7656C183.692 15.9844 184.629 15.5938 185.749 15.5938H186.843C187.963 15.5938 188.887 15.9844 189.616 16.7656C190.372 17.5208 190.749 18.4323 190.749 19.5C190.749 20.5677 190.372 21.4922 189.616 22.2734C188.887 23.0286 187.963 23.4062 186.843 23.4062H185.749ZM195.749 23.4062C194.629 23.4062 193.692 23.0286 192.937 22.2734C192.208 21.4922 191.843 20.5677 191.843 19.5C191.843 18.4323 192.208 17.5208 192.937 16.7656C193.692 15.9844 194.629 15.5938 195.749 15.5938H196.843C197.963 15.5938 198.887 15.9844 199.616 16.7656C200.372 17.5208 200.749 18.4323 200.749 19.5C200.749 20.5677 200.372 21.4922 199.616 22.2734C198.887 23.0286 197.963 23.4062 196.843 23.4062H195.749ZM189.03 18.4062C187.572 18.4062 186.426 18.0286 185.593 17.2734C184.76 16.4922 184.343 15.5677 184.343 14.5C184.343 13.4323 184.76 12.5208 185.593 11.7656C186.426 10.9844 187.572 10.5938 189.03 10.5938H193.562C195.02 10.5938 196.166 10.9844 196.999 11.7656C197.833 12.5208 198.249 13.4323 198.249 14.5C198.249 15.5677 197.833 16.4922 196.999 17.2734C196.166 18.0286 195.02 18.4062 193.562 18.4062H189.03ZM205.868 38.4062C204.748 38.4062 203.81 38.0156 203.055 37.2344C202.326 36.4792 201.961 35.5677 201.961 34.5C201.961 33.4323 202.326 32.5208 203.055 31.7656C203.81 30.9844 204.748 30.5938 205.868 30.5938H206.961C208.081 30.5938 209.006 30.9844 209.735 31.7656C210.49 32.5208 210.868 33.4323 210.868 34.5C210.868 35.5677 210.49 36.4792 209.735 37.2344C209.006 38.0156 208.081 38.4062 206.961 38.4062H205.868ZM215.868 38.4062C214.748 38.4062 213.81 38.0156 213.055 37.2344C212.326 36.4792 211.961 35.5677 211.961 34.5C211.961 33.4323 212.326 32.5208 213.055 31.7656C213.81 30.9844 214.748 30.5938 215.868 30.5938H216.961C218.081 30.5938 219.006 30.9844 219.735 31.7656C220.49 32.5208 220.868 33.4323 220.868 34.5C220.868 35.5677 220.49 36.4792 219.735 37.2344C219.006 38.0156 218.081 38.4062 216.961 38.4062H215.868ZM205.868 33.4062C204.748 33.4062 203.81 33.0286 203.055 32.2734C202.326 31.4922 201.961 30.5677 201.961 29.5C201.961 28.4323 202.326 27.5208 203.055 26.7656C203.81 25.9844 204.748 25.5938 205.868 25.5938H206.961C208.081 25.5938 209.006 25.9844 209.735 26.7656C210.49 27.5208 210.868 28.4323 210.868 29.5C210.868 30.5677 210.49 31.4922 209.735 32.2734C209.006 33.0286 208.081 33.4062 206.961 33.4062H205.868ZM215.868 33.4062C214.748 33.4062 213.81 33.0286 213.055 32.2734C212.326 31.4922 211.961 30.5677 211.961 29.5C211.961 28.4323 212.326 27.5208 213.055 26.7656C213.81 25.9844 214.748 25.5938 215.868 25.5938H216.961C218.081 25.5938 219.006 25.9844 219.735 26.7656C220.49 27.5208 220.868 28.4323 220.868 29.5C220.868 30.5677 220.49 31.4922 219.735 32.2734C219.006 33.0286 218.081 33.4062 216.961 33.4062H215.868ZM205.868 28.4062C204.748 28.4062 203.81 28.0286 203.055 27.2734C202.326 26.4922 201.961 25.5677 201.961 24.5C201.961 23.4323 202.326 22.5208 203.055 21.7656C203.81 20.9844 204.748 20.5938 205.868 20.5938H206.961C208.081 20.5938 209.006 20.9844 209.735 21.7656C210.49 22.5208 210.868 23.4323 210.868 24.5C210.868 25.5677 210.49 26.4922 209.735 27.2734C209.006 28.0286 208.081 28.4062 206.961 28.4062H205.868ZM215.868 28.4062C214.748 28.4062 213.81 28.0286 213.055 27.2734C212.326 26.4922 211.961 25.5677 211.961 24.5C211.961 23.4323 212.326 22.5208 213.055 21.7656C213.81 20.9844 214.748 20.5938 215.868 20.5938H216.961C218.081 20.5938 219.006 20.9844 219.735 21.7656C220.49 22.5208 220.868 23.4323 220.868 24.5C220.868 25.5677 220.49 26.4922 219.735 27.2734C219.006 28.0286 218.081 28.4062 216.961 28.4062H215.868ZM205.868 23.4062C204.748 23.4062 203.81 23.0286 203.055 22.2734C202.326 21.4922 201.961 20.5677 201.961 19.5C201.961 18.4323 202.326 17.5208 203.055 16.7656C203.81 15.9844 204.748 15.5938 205.868 15.5938H206.961C208.081 15.5938 209.006 15.9844 209.735 16.7656C210.49 17.5208 210.868 18.4323 210.868 19.5C210.868 20.5677 210.49 21.4922 209.735 22.2734C209.006 23.0286 208.081 23.4062 206.961 23.4062H205.868ZM215.868 23.4062C214.748 23.4062 213.81 23.0286 213.055 22.2734C212.326 21.4922 211.961 20.5677 211.961 19.5C211.961 18.4323 212.326 17.5208 213.055 16.7656C213.81 15.9844 214.748 15.5938 215.868 15.5938H216.961C218.081 15.5938 219.006 15.9844 219.735 16.7656C220.49 17.5208 220.868 18.4323 220.868 19.5C220.868 20.5677 220.49 21.4922 219.735 22.2734C219.006 23.0286 218.081 23.4062 216.961 23.4062H215.868ZM206.649 18.4062C205.191 18.4062 204.045 18.0286 203.211 17.2734C202.378 16.4922 201.961 15.5677 201.961 14.5C201.961 13.4323 202.378 12.5208 203.211 11.7656C204.045 10.9844 205.191 10.5938 206.649 10.5938H213.68C215.138 10.5938 216.284 10.9844 217.118 11.7656C217.951 12.5208 218.368 13.4323 218.368 14.5C218.368 15.5677 217.951 16.4922 217.118 17.2734C216.284 18.0286 215.138 18.4062 213.68 18.4062H206.649ZM228.486 38.4062C227.366 38.4062 226.429 38.0156 225.674 37.2344C224.944 36.4792 224.58 35.5677 224.58 34.5C224.58 33.4323 224.944 32.5208 225.674 31.7656C226.429 30.9844 227.366 30.5938 228.486 30.5938H232.08C233.2 30.5938 234.124 30.9844 234.853 31.7656C235.608 32.5208 235.986 33.4323 235.986 34.5C235.986 35.5677 235.608 36.4792 234.853 37.2344C234.124 38.0156 233.2 38.4062 232.08 38.4062H228.486ZM238.486 38.4062C237.366 38.4062 236.429 38.0156 235.674 37.2344C234.944 36.4792 234.58 35.5677 234.58 34.5C234.58 33.4323 234.944 32.5208 235.674 31.7656C236.429 30.9844 237.366 30.5938 238.486 30.5938H239.58C240.7 30.5938 241.624 30.9844 242.353 31.7656C243.108 32.5208 243.486 33.4323 243.486 34.5C243.486 35.5677 243.108 36.4792 242.353 37.2344C241.624 38.0156 240.7 38.4062 239.58 38.4062H238.486ZM225.986 33.4062C224.866 33.4062 223.929 33.0286 223.174 32.2734C222.444 31.4922 222.08 30.5677 222.08 29.5C222.08 28.4323 222.444 27.5208 223.174 26.7656C223.929 25.9844 224.866 25.5938 225.986 25.5938H227.08C228.2 25.5938 229.124 25.9844 229.853 26.7656C230.608 27.5208 230.986 28.4323 230.986 29.5C230.986 30.5677 230.608 31.4922 229.853 32.2734C229.124 33.0286 228.2 33.4062 227.08 33.4062H225.986ZM235.986 33.4062C234.866 33.4062 233.929 33.0286 233.174 32.2734C232.444 31.4922 232.08 30.5677 232.08 29.5C232.08 28.4323 232.444 27.5208 233.174 26.7656C233.929 25.9844 234.866 25.5938 235.986 25.5938H237.08C238.2 25.5938 239.124 25.9844 239.853 26.7656C240.608 27.5208 240.986 28.4323 240.986 29.5C240.986 30.5677 240.608 31.4922 239.853 32.2734C239.124 33.0286 238.2 33.4062 237.08 33.4062H235.986ZM231.767 28.4062C230.309 28.4062 229.163 28.0286 228.33 27.2734C227.496 26.4922 227.08 25.5677 227.08 24.5C227.08 23.4323 227.496 22.5208 228.33 21.7656C229.163 20.9844 230.309 20.5938 231.767 20.5938H236.299C237.757 20.5938 238.903 20.9844 239.736 21.7656C240.569 22.5208 240.986 23.4323 240.986 24.5C240.986 25.5677 240.569 26.4922 239.736 27.2734C238.903 28.0286 237.757 28.4062 236.299 28.4062H231.767ZM235.986 23.4062C234.866 23.4062 233.929 23.0286 233.174 22.2734C232.444 21.4922 232.08 20.5677 232.08 19.5C232.08 18.4323 232.444 17.5208 233.174 16.7656C233.929 15.9844 234.866 15.5938 235.986 15.5938H237.08C238.2 15.5938 239.124 15.9844 239.853 16.7656C240.608 17.5208 240.986 18.4323 240.986 19.5C240.986 20.5677 240.608 21.4922 239.853 22.2734C239.124 23.0286 238.2 23.4062 237.08 23.4062H235.986ZM229.267 18.4062C227.809 18.4062 226.663 18.0286 225.83 17.2734C224.996 16.4922 224.58 15.5677 224.58 14.5C224.58 13.4323 224.996 12.5208 225.83 11.7656C226.663 10.9844 227.809 10.5938 229.267 10.5938H233.799C235.257 10.5938 236.403 10.9844 237.236 11.7656C238.069 12.5208 238.486 13.4323 238.486 14.5C238.486 15.5677 238.069 16.4922 237.236 17.2734C236.403 18.0286 235.257 18.4062 233.799 18.4062H229.267ZM249.386 38.4062C247.927 38.4062 246.782 38.0156 245.948 37.2344C245.115 36.4792 244.698 35.5677 244.698 34.5C244.698 33.4323 245.115 32.5208 245.948 31.7656C246.782 30.9844 247.927 30.5938 249.386 30.5938H253.917C255.375 30.5938 256.521 30.9844 257.354 31.7656C258.188 32.5208 258.604 33.4323 258.604 34.5C258.604 35.5677 258.188 36.4792 257.354 37.2344C256.521 38.0156 255.375 38.4062 253.917 38.4062H249.386ZM251.104 33.4062C249.985 33.4062 249.047 33.0286 248.292 32.2734C247.563 31.4922 247.198 30.5677 247.198 29.5C247.198 28.4323 247.563 27.5208 248.292 26.7656C249.047 25.9844 249.985 25.5938 251.104 25.5938H252.198C253.318 25.5938 254.242 25.9844 254.972 26.7656C255.727 27.5208 256.104 28.4323 256.104 29.5C256.104 30.5677 255.727 31.4922 254.972 32.2734C254.242 33.0286 253.318 33.4062 252.198 33.4062H251.104ZM251.104 28.4062C249.985 28.4062 249.047 28.0286 248.292 27.2734C247.563 26.4922 247.198 25.5677 247.198 24.5C247.198 23.4323 247.563 22.5208 248.292 21.7656C249.047 20.9844 249.985 20.5938 251.104 20.5938H252.198C253.318 20.5938 254.242 20.9844 254.972 21.7656C255.727 22.5208 256.104 23.4323 256.104 24.5C256.104 25.5677 255.727 26.4922 254.972 27.2734C254.242 28.0286 253.318 28.4062 252.198 28.4062H251.104ZM251.104 23.4062C249.985 23.4062 249.047 23.0286 248.292 22.2734C247.563 21.4922 247.198 20.5677 247.198 19.5C247.198 18.4323 247.563 17.5208 248.292 16.7656C249.047 15.9844 249.985 15.5938 251.104 15.5938H252.198C253.318 15.5938 254.242 15.9844 254.972 16.7656C255.727 17.5208 256.104 18.4323 256.104 19.5C256.104 20.5677 255.727 21.4922 254.972 22.2734C254.242 23.0286 253.318 23.4062 252.198 23.4062H251.104ZM251.104 18.4062C249.985 18.4062 249.047 18.0286 248.292 17.2734C247.563 16.4922 247.198 15.5677 247.198 14.5C247.198 13.4323 247.563 12.5208 248.292 11.7656C249.047 10.9844 249.985 10.5938 251.104 10.5938H252.198C253.318 10.5938 254.242 10.9844 254.972 11.7656C255.727 12.5208 256.104 13.4323 256.104 14.5C256.104 15.5677 255.727 16.4922 254.972 17.2734C254.242 18.0286 253.318 18.4062 252.198 18.4062H251.104ZM251.104 13.4062C249.985 13.4062 249.047 13.0286 248.292 12.2734C247.563 11.4922 247.198 10.5677 247.198 9.5C247.198 8.43229 247.563 7.52083 248.292 6.76562C249.047 5.98438 249.985 5.59375 251.104 5.59375H252.198C253.318 5.59375 254.242 5.98438 254.972 6.76562C255.727 7.52083 256.104 8.43229 256.104 9.5C256.104 10.5677 255.727 11.4922 254.972 12.2734C254.242 13.0286 253.318 13.4062 252.198 13.4062H251.104ZM248.604 8.40625C247.485 8.40625 246.547 8.02865 245.792 7.27344C245.063 6.49219 244.698 5.56771 244.698 4.5C244.698 3.43229 245.063 2.52083 245.792 1.76562C246.547 0.984375 247.485 0.59375 248.604 0.59375H252.198C253.318 0.59375 254.242 0.984375 254.972 1.76562C255.727 2.52083 256.104 3.43229 256.104 4.5C256.104 5.56771 255.727 6.49219 254.972 7.27344C254.242 8.02865 253.318 8.40625 252.198 8.40625H248.604ZM95.2163 88.4062C94.0965 88.4062 93.159 88.0156 92.4038 87.2344C91.6746 86.4792 91.31 85.5677 91.31 84.5C91.31 83.4323 91.6746 82.5208 92.4038 81.7656C93.159 80.9844 94.0965 80.5938 95.2163 80.5938H96.31C97.4298 80.5938 98.3543 80.9844 99.0835 81.7656C99.8387 82.5208 100.216 83.4323 100.216 84.5C100.216 85.5677 99.8387 86.4792 99.0835 87.2344C98.3543 88.0156 97.4298 88.4062 96.31 88.4062H95.2163ZM105.216 88.4062C104.096 88.4062 103.159 88.0156 102.404 87.2344C101.675 86.4792 101.31 85.5677 101.31 84.5C101.31 83.4323 101.675 82.5208 102.404 81.7656C103.159 80.9844 104.096 80.5938 105.216 80.5938H106.31C107.43 80.5938 108.354 80.9844 109.083 81.7656C109.839 82.5208 110.216 83.4323 110.216 84.5C110.216 85.5677 109.839 86.4792 109.083 87.2344C108.354 88.0156 107.43 88.4062 106.31 88.4062H105.216ZM95.2163 83.4062C94.0965 83.4062 93.159 83.0286 92.4038 82.2734C91.6746 81.4922 91.31 80.5677 91.31 79.5C91.31 78.4323 91.6746 77.5208 92.4038 76.7656C93.159 75.9844 94.0965 75.5938 95.2163 75.5938H96.31C97.4298 75.5938 98.3543 75.9844 99.0835 76.7656C99.8387 77.5208 100.216 78.4323 100.216 79.5C100.216 80.5677 99.8387 81.4922 99.0835 82.2734C98.3543 83.0286 97.4298 83.4062 96.31 83.4062H95.2163ZM105.216 83.4062C104.096 83.4062 103.159 83.0286 102.404 82.2734C101.675 81.4922 101.31 80.5677 101.31 79.5C101.31 78.4323 101.675 77.5208 102.404 76.7656C103.159 75.9844 104.096 75.5938 105.216 75.5938H106.31C107.43 75.5938 108.354 75.9844 109.083 76.7656C109.839 77.5208 110.216 78.4323 110.216 79.5C110.216 80.5677 109.839 81.4922 109.083 82.2734C108.354 83.0286 107.43 83.4062 106.31 83.4062H105.216ZM95.2163 78.4062C94.0965 78.4062 93.159 78.0286 92.4038 77.2734C91.6746 76.4922 91.31 75.5677 91.31 74.5C91.31 73.4323 91.6746 72.5208 92.4038 71.7656C93.159 70.9844 94.0965 70.5938 95.2163 70.5938H96.31C97.4298 70.5938 98.3543 70.9844 99.0835 71.7656C99.8387 72.5208 100.216 73.4323 100.216 74.5C100.216 75.5677 99.8387 76.4922 99.0835 77.2734C98.3543 78.0286 97.4298 78.4062 96.31 78.4062H95.2163ZM105.216 78.4062C104.096 78.4062 103.159 78.0286 102.404 77.2734C101.675 76.4922 101.31 75.5677 101.31 74.5C101.31 73.4323 101.675 72.5208 102.404 71.7656C103.159 70.9844 104.096 70.5938 105.216 70.5938H106.31C107.43 70.5938 108.354 70.9844 109.083 71.7656C109.839 72.5208 110.216 73.4323 110.216 74.5C110.216 75.5677 109.839 76.4922 109.083 77.2734C108.354 78.0286 107.43 78.4062 106.31 78.4062H105.216ZM95.9975 73.4062C94.5392 73.4062 93.3934 73.0286 92.56 72.2734C91.7267 71.4922 91.31 70.5677 91.31 69.5C91.31 68.4323 91.7267 67.5208 92.56 66.7656C93.3934 65.9844 94.5392 65.5938 95.9975 65.5938H105.529C106.987 65.5938 108.133 65.9844 108.966 66.7656C109.8 67.5208 110.216 68.4323 110.216 69.5C110.216 70.5677 109.8 71.4922 108.966 72.2734C108.133 73.0286 106.987 73.4062 105.529 73.4062H95.9975ZM95.2163 68.4062C94.0965 68.4062 93.159 68.0286 92.4038 67.2734C91.6746 66.4922 91.31 65.5677 91.31 64.5C91.31 63.4323 91.6746 62.5208 92.4038 61.7656C93.159 60.9844 94.0965 60.5938 95.2163 60.5938H96.31C97.4298 60.5938 98.3543 60.9844 99.0835 61.7656C99.8387 62.5208 100.216 63.4323 100.216 64.5C100.216 65.5677 99.8387 66.4922 99.0835 67.2734C98.3543 68.0286 97.4298 68.4062 96.31 68.4062H95.2163ZM105.216 68.4062C104.096 68.4062 103.159 68.0286 102.404 67.2734C101.675 66.4922 101.31 65.5677 101.31 64.5C101.31 63.4323 101.675 62.5208 102.404 61.7656C103.159 60.9844 104.096 60.5938 105.216 60.5938H106.31C107.43 60.5938 108.354 60.9844 109.083 61.7656C109.839 62.5208 110.216 63.4323 110.216 64.5C110.216 65.5677 109.839 66.4922 109.083 67.2734C108.354 68.0286 107.43 68.4062 106.31 68.4062H105.216ZM95.2163 63.4062C94.0965 63.4062 93.159 63.0286 92.4038 62.2734C91.6746 61.4922 91.31 60.5677 91.31 59.5C91.31 58.4323 91.6746 57.5208 92.4038 56.7656C93.159 55.9844 94.0965 55.5938 95.2163 55.5938H96.31C97.4298 55.5938 98.3543 55.9844 99.0835 56.7656C99.8387 57.5208 100.216 58.4323 100.216 59.5C100.216 60.5677 99.8387 61.4922 99.0835 62.2734C98.3543 63.0286 97.4298 63.4062 96.31 63.4062H95.2163ZM105.216 63.4062C104.096 63.4062 103.159 63.0286 102.404 62.2734C101.675 61.4922 101.31 60.5677 101.31 59.5C101.31 58.4323 101.675 57.5208 102.404 56.7656C103.159 55.9844 104.096 55.5938 105.216 55.5938H106.31C107.43 55.5938 108.354 55.9844 109.083 56.7656C109.839 57.5208 110.216 58.4323 110.216 59.5C110.216 60.5677 109.839 61.4922 109.083 62.2734C108.354 63.0286 107.43 63.4062 106.31 63.4062H105.216ZM95.2163 58.4062C94.0965 58.4062 93.159 58.0286 92.4038 57.2734C91.6746 56.4922 91.31 55.5677 91.31 54.5C91.31 53.4323 91.6746 52.5208 92.4038 51.7656C93.159 50.9844 94.0965 50.5938 95.2163 50.5938H96.31C97.4298 50.5938 98.3543 50.9844 99.0835 51.7656C99.8387 52.5208 100.216 53.4323 100.216 54.5C100.216 55.5677 99.8387 56.4922 99.0835 57.2734C98.3543 58.0286 97.4298 58.4062 96.31 58.4062H95.2163ZM105.216 58.4062C104.096 58.4062 103.159 58.0286 102.404 57.2734C101.675 56.4922 101.31 55.5677 101.31 54.5C101.31 53.4323 101.675 52.5208 102.404 51.7656C103.159 50.9844 104.096 50.5938 105.216 50.5938H106.31C107.43 50.5938 108.354 50.9844 109.083 51.7656C109.839 52.5208 110.216 53.4323 110.216 54.5C110.216 55.5677 109.839 56.4922 109.083 57.2734C108.354 58.0286 107.43 58.4062 106.31 58.4062H105.216ZM118.616 88.4062C117.158 88.4062 116.012 88.0156 115.178 87.2344C114.345 86.4792 113.928 85.5677 113.928 84.5C113.928 83.4323 114.345 82.5208 115.178 81.7656C116.012 80.9844 117.158 80.5938 118.616 80.5938H123.147C124.606 80.5938 125.751 80.9844 126.585 81.7656C127.418 82.5208 127.835 83.4323 127.835 84.5C127.835 85.5677 127.418 86.4792 126.585 87.2344C125.751 88.0156 124.606 88.4062 123.147 88.4062H118.616ZM115.335 83.4062C114.215 83.4062 113.277 83.0286 112.522 82.2734C111.793 81.4922 111.428 80.5677 111.428 79.5C111.428 78.4323 111.793 77.5208 112.522 76.7656C113.277 75.9844 114.215 75.5938 115.335 75.5938H116.428C117.548 75.5938 118.473 75.9844 119.202 76.7656C119.957 77.5208 120.335 78.4323 120.335 79.5C120.335 80.5677 119.957 81.4922 119.202 82.2734C118.473 83.0286 117.548 83.4062 116.428 83.4062H115.335ZM125.335 83.4062C124.215 83.4062 123.277 83.0286 122.522 82.2734C121.793 81.4922 121.428 80.5677 121.428 79.5C121.428 78.4323 121.793 77.5208 122.522 76.7656C123.277 75.9844 124.215 75.5938 125.335 75.5938H126.428C127.548 75.5938 128.473 75.9844 129.202 76.7656C129.957 77.5208 130.335 78.4323 130.335 79.5C130.335 80.5677 129.957 81.4922 129.202 82.2734C128.473 83.0286 127.548 83.4062 126.428 83.4062H125.335ZM115.335 78.4062C114.215 78.4062 113.277 78.0286 112.522 77.2734C111.793 76.4922 111.428 75.5677 111.428 74.5C111.428 73.4323 111.793 72.5208 112.522 71.7656C113.277 70.9844 114.215 70.5938 115.335 70.5938H116.428C117.548 70.5938 118.473 70.9844 119.202 71.7656C119.957 72.5208 120.335 73.4323 120.335 74.5C120.335 75.5677 119.957 76.4922 119.202 77.2734C118.473 78.0286 117.548 78.4062 116.428 78.4062H115.335ZM125.335 78.4062C124.215 78.4062 123.277 78.0286 122.522 77.2734C121.793 76.4922 121.428 75.5677 121.428 74.5C121.428 73.4323 121.793 72.5208 122.522 71.7656C123.277 70.9844 124.215 70.5938 125.335 70.5938H126.428C127.548 70.5938 128.473 70.9844 129.202 71.7656C129.957 72.5208 130.335 73.4323 130.335 74.5C130.335 75.5677 129.957 76.4922 129.202 77.2734C128.473 78.0286 127.548 78.4062 126.428 78.4062H125.335ZM115.335 73.4062C114.215 73.4062 113.277 73.0286 112.522 72.2734C111.793 71.4922 111.428 70.5677 111.428 69.5C111.428 68.4323 111.793 67.5208 112.522 66.7656C113.277 65.9844 114.215 65.5938 115.335 65.5938H116.428C117.548 65.5938 118.473 65.9844 119.202 66.7656C119.957 67.5208 120.335 68.4323 120.335 69.5C120.335 70.5677 119.957 71.4922 119.202 72.2734C118.473 73.0286 117.548 73.4062 116.428 73.4062H115.335ZM125.335 73.4062C124.215 73.4062 123.277 73.0286 122.522 72.2734C121.793 71.4922 121.428 70.5677 121.428 69.5C121.428 68.4323 121.793 67.5208 122.522 66.7656C123.277 65.9844 124.215 65.5938 125.335 65.5938H126.428C127.548 65.5938 128.473 65.9844 129.202 66.7656C129.957 67.5208 130.335 68.4323 130.335 69.5C130.335 70.5677 129.957 71.4922 129.202 72.2734C128.473 73.0286 127.548 73.4062 126.428 73.4062H125.335ZM118.616 68.4062C117.158 68.4062 116.012 68.0286 115.178 67.2734C114.345 66.4922 113.928 65.5677 113.928 64.5C113.928 63.4323 114.345 62.5208 115.178 61.7656C116.012 60.9844 117.158 60.5938 118.616 60.5938H123.147C124.606 60.5938 125.751 60.9844 126.585 61.7656C127.418 62.5208 127.835 63.4323 127.835 64.5C127.835 65.5677 127.418 66.4922 126.585 67.2734C125.751 68.0286 124.606 68.4062 123.147 68.4062H118.616ZM137.953 88.4062C136.833 88.4062 135.896 88.0156 135.141 87.2344C134.411 86.4792 134.047 85.5677 134.047 84.5C134.047 83.4323 134.411 82.5208 135.141 81.7656C135.896 80.9844 136.833 80.5938 137.953 80.5938H141.547C142.667 80.5938 143.591 80.9844 144.32 81.7656C145.076 82.5208 145.453 83.4323 145.453 84.5C145.453 85.5677 145.076 86.4792 144.32 87.2344C143.591 88.0156 142.667 88.4062 141.547 88.4062H137.953ZM147.953 88.4062C146.833 88.4062 145.896 88.0156 145.141 87.2344C144.411 86.4792 144.047 85.5677 144.047 84.5C144.047 83.4323 144.411 82.5208 145.141 81.7656C145.896 80.9844 146.833 80.5938 147.953 80.5938H149.047C150.167 80.5938 151.091 80.9844 151.82 81.7656C152.576 82.5208 152.953 83.4323 152.953 84.5C152.953 85.5677 152.576 86.4792 151.82 87.2344C151.091 88.0156 150.167 88.4062 149.047 88.4062H147.953ZM135.453 83.4062C134.333 83.4062 133.396 83.0286 132.641 82.2734C131.911 81.4922 131.547 80.5677 131.547 79.5C131.547 78.4323 131.911 77.5208 132.641 76.7656C133.396 75.9844 134.333 75.5938 135.453 75.5938H136.547C137.667 75.5938 138.591 75.9844 139.32 76.7656C140.076 77.5208 140.453 78.4323 140.453 79.5C140.453 80.5677 140.076 81.4922 139.32 82.2734C138.591 83.0286 137.667 83.4062 136.547 83.4062H135.453ZM145.453 83.4062C144.333 83.4062 143.396 83.0286 142.641 82.2734C141.911 81.4922 141.547 80.5677 141.547 79.5C141.547 78.4323 141.911 77.5208 142.641 76.7656C143.396 75.9844 144.333 75.5938 145.453 75.5938H146.547C147.667 75.5938 148.591 75.9844 149.32 76.7656C150.076 77.5208 150.453 78.4323 150.453 79.5C150.453 80.5677 150.076 81.4922 149.32 82.2734C148.591 83.0286 147.667 83.4062 146.547 83.4062H145.453ZM135.453 78.4062C134.333 78.4062 133.396 78.0286 132.641 77.2734C131.911 76.4922 131.547 75.5677 131.547 74.5C131.547 73.4323 131.911 72.5208 132.641 71.7656C133.396 70.9844 134.333 70.5938 135.453 70.5938H136.547C137.667 70.5938 138.591 70.9844 139.32 71.7656C140.076 72.5208 140.453 73.4323 140.453 74.5C140.453 75.5677 140.076 76.4922 139.32 77.2734C138.591 78.0286 137.667 78.4062 136.547 78.4062H135.453ZM145.453 78.4062C144.333 78.4062 143.396 78.0286 142.641 77.2734C141.911 76.4922 141.547 75.5677 141.547 74.5C141.547 73.4323 141.911 72.5208 142.641 71.7656C143.396 70.9844 144.333 70.5938 145.453 70.5938H146.547C147.667 70.5938 148.591 70.9844 149.32 71.7656C150.076 72.5208 150.453 73.4323 150.453 74.5C150.453 75.5677 150.076 76.4922 149.32 77.2734C148.591 78.0286 147.667 78.4062 146.547 78.4062H145.453ZM135.453 73.4062C134.333 73.4062 133.396 73.0286 132.641 72.2734C131.911 71.4922 131.547 70.5677 131.547 69.5C131.547 68.4323 131.911 67.5208 132.641 66.7656C133.396 65.9844 134.333 65.5938 135.453 65.5938H136.547C137.667 65.5938 138.591 65.9844 139.32 66.7656C140.076 67.5208 140.453 68.4323 140.453 69.5C140.453 70.5677 140.076 71.4922 139.32 72.2734C138.591 73.0286 137.667 73.4062 136.547 73.4062H135.453ZM145.453 73.4062C144.333 73.4062 143.396 73.0286 142.641 72.2734C141.911 71.4922 141.547 70.5677 141.547 69.5C141.547 68.4323 141.911 67.5208 142.641 66.7656C143.396 65.9844 144.333 65.5938 145.453 65.5938H146.547C147.667 65.5938 148.591 65.9844 149.32 66.7656C150.076 67.5208 150.453 68.4323 150.453 69.5C150.453 70.5677 150.076 71.4922 149.32 72.2734C148.591 73.0286 147.667 73.4062 146.547 73.4062H145.453ZM135.453 68.4062C134.333 68.4062 133.396 68.0286 132.641 67.2734C131.911 66.4922 131.547 65.5677 131.547 64.5C131.547 63.4323 131.911 62.5208 132.641 61.7656C133.396 60.9844 134.333 60.5938 135.453 60.5938H136.547C137.667 60.5938 138.591 60.9844 139.32 61.7656C140.076 62.5208 140.453 63.4323 140.453 64.5C140.453 65.5677 140.076 66.4922 139.32 67.2734C138.591 68.0286 137.667 68.4062 136.547 68.4062H135.453ZM145.453 68.4062C144.333 68.4062 143.396 68.0286 142.641 67.2734C141.911 66.4922 141.547 65.5677 141.547 64.5C141.547 63.4323 141.911 62.5208 142.641 61.7656C143.396 60.9844 144.333 60.5938 145.453 60.5938H146.547C147.667 60.5938 148.591 60.9844 149.32 61.7656C150.076 62.5208 150.453 63.4323 150.453 64.5C150.453 65.5677 150.076 66.4922 149.32 67.2734C148.591 68.0286 147.667 68.4062 146.547 68.4062H145.453ZM156.353 88.4062C154.894 88.4062 153.749 88.0156 152.915 87.2344C152.082 86.4792 151.665 85.5677 151.665 84.5C151.665 83.4323 152.082 82.5208 152.915 81.7656C153.749 80.9844 154.894 80.5938 156.353 80.5938H163.384C164.842 80.5938 165.988 80.9844 166.822 81.7656C167.655 82.5208 168.072 83.4323 168.072 84.5C168.072 85.5677 167.655 86.4792 166.822 87.2344C165.988 88.0156 164.842 88.4062 163.384 88.4062H156.353ZM165.572 83.4062C164.452 83.4062 163.514 83.0286 162.759 82.2734C162.03 81.4922 161.665 80.5677 161.665 79.5C161.665 78.4323 162.03 77.5208 162.759 76.7656C163.514 75.9844 164.452 75.5938 165.572 75.5938H166.665C167.785 75.5938 168.71 75.9844 169.439 76.7656C170.194 77.5208 170.572 78.4323 170.572 79.5C170.572 80.5677 170.194 81.4922 169.439 82.2734C168.71 83.0286 167.785 83.4062 166.665 83.4062H165.572ZM158.853 78.4062C157.394 78.4062 156.249 78.0286 155.415 77.2734C154.582 76.4922 154.165 75.5677 154.165 74.5C154.165 73.4323 154.582 72.5208 155.415 71.7656C156.249 70.9844 157.394 70.5938 158.853 70.5938H163.384C164.842 70.5938 165.988 70.9844 166.822 71.7656C167.655 72.5208 168.072 73.4323 168.072 74.5C168.072 75.5677 167.655 76.4922 166.822 77.2734C165.988 78.0286 164.842 78.4062 163.384 78.4062H158.853ZM155.572 73.4062C154.452 73.4062 153.514 73.0286 152.759 72.2734C152.03 71.4922 151.665 70.5677 151.665 69.5C151.665 68.4323 152.03 67.5208 152.759 66.7656C153.514 65.9844 154.452 65.5938 155.572 65.5938H156.665C157.785 65.5938 158.71 65.9844 159.439 66.7656C160.194 67.5208 160.572 68.4323 160.572 69.5C160.572 70.5677 160.194 71.4922 159.439 72.2734C158.71 73.0286 157.785 73.4062 156.665 73.4062H155.572ZM158.853 68.4062C157.394 68.4062 156.249 68.0286 155.415 67.2734C154.582 66.4922 154.165 65.5677 154.165 64.5C154.165 63.4323 154.582 62.5208 155.415 61.7656C156.249 60.9844 157.394 60.5938 158.853 60.5938H165.884C167.342 60.5938 168.488 60.9844 169.322 61.7656C170.155 62.5208 170.572 63.4323 170.572 64.5C170.572 65.5677 170.155 66.4922 169.322 67.2734C168.488 68.0286 167.342 68.4062 165.884 68.4062H158.853ZM178.971 88.4062C177.513 88.4062 176.367 88.0156 175.534 87.2344C174.7 86.4792 174.284 85.5677 174.284 84.5C174.284 83.4323 174.7 82.5208 175.534 81.7656C176.367 80.9844 177.513 80.5938 178.971 80.5938H183.502C184.961 80.5938 186.107 80.9844 186.94 81.7656C187.773 82.5208 188.19 83.4323 188.19 84.5C188.19 85.5677 187.773 86.4792 186.94 87.2344C186.107 88.0156 184.961 88.4062 183.502 88.4062H178.971ZM175.69 83.4062C174.57 83.4062 173.633 83.0286 172.877 82.2734C172.148 81.4922 171.784 80.5677 171.784 79.5C171.784 78.4323 172.148 77.5208 172.877 76.7656C173.633 75.9844 174.57 75.5938 175.69 75.5938H176.784C177.904 75.5938 178.828 75.9844 179.557 76.7656C180.312 77.5208 180.69 78.4323 180.69 79.5C180.69 80.5677 180.312 81.4922 179.557 82.2734C178.828 83.0286 177.904 83.4062 176.784 83.4062H175.69ZM176.471 78.4062C175.013 78.4062 173.867 78.0286 173.034 77.2734C172.2 76.4922 171.784 75.5677 171.784 74.5C171.784 73.4323 172.2 72.5208 173.034 71.7656C173.867 70.9844 175.013 70.5938 176.471 70.5938H186.002C187.461 70.5938 188.607 70.9844 189.44 71.7656C190.273 72.5208 190.69 73.4323 190.69 74.5C190.69 75.5677 190.273 76.4922 189.44 77.2734C188.607 78.0286 187.461 78.4062 186.002 78.4062H176.471ZM175.69 73.4062C174.57 73.4062 173.633 73.0286 172.877 72.2734C172.148 71.4922 171.784 70.5677 171.784 69.5C171.784 68.4323 172.148 67.5208 172.877 66.7656C173.633 65.9844 174.57 65.5938 175.69 65.5938H176.784C177.904 65.5938 178.828 65.9844 179.557 66.7656C180.312 67.5208 180.69 68.4323 180.69 69.5C180.69 70.5677 180.312 71.4922 179.557 72.2734C178.828 73.0286 177.904 73.4062 176.784 73.4062H175.69ZM185.69 73.4062C184.57 73.4062 183.633 73.0286 182.877 72.2734C182.148 71.4922 181.784 70.5677 181.784 69.5C181.784 68.4323 182.148 67.5208 182.877 66.7656C183.633 65.9844 184.57 65.5938 185.69 65.5938H186.784C187.904 65.5938 188.828 65.9844 189.557 66.7656C190.312 67.5208 190.69 68.4323 190.69 69.5C190.69 70.5677 190.312 71.4922 189.557 72.2734C188.828 73.0286 187.904 73.4062 186.784 73.4062H185.69ZM178.971 68.4062C177.513 68.4062 176.367 68.0286 175.534 67.2734C174.7 66.4922 174.284 65.5677 174.284 64.5C174.284 63.4323 174.7 62.5208 175.534 61.7656C176.367 60.9844 177.513 60.5938 178.971 60.5938H183.502C184.961 60.5938 186.107 60.9844 186.94 61.7656C187.773 62.5208 188.19 63.4323 188.19 64.5C188.19 65.5677 187.773 66.4922 186.94 67.2734C186.107 68.0286 184.961 68.4062 183.502 68.4062H178.971Z" fill="white"/>
</svg>
