<svg width="30" height="30" viewBox="0 0 30 30" fill="none" xmlns="http://www.w3.org/2000/svg">
<g clip-path="url(#clip0_1541_1252)">
<path fill-rule="evenodd" clip-rule="evenodd" d="M21.0132 21.1098C20.9477 21.1095 20.8827 21.1229 20.8225 21.1491C20.7624 21.1753 20.7084 21.2135 20.6638 21.2616C20.6192 21.3097 20.585 21.3665 20.5635 21.4285C20.542 21.4905 20.5337 21.5562 20.5388 21.6216C20.6204 22.8995 20.587 24.1823 20.4389 25.4541C20.3073 26.2288 19.9613 26.951 19.4402 27.539C19.0487 27.8345 18.5895 28.0276 18.1044 28.1007C15.8279 28.6079 13.4902 28.7844 11.1633 28.6251C8.00483 28.4504 4.79643 27.7762 3.3358 26.1283C2.93389 25.3542 2.70393 24.5026 2.66167 23.6315C2.18137 19.651 2.08104 15.6339 2.36204 11.6343C2.46533 9.31885 2.79565 7.01909 3.34829 4.76814C3.50688 3.93181 3.89109 3.15476 4.45937 2.52101C5.57044 1.63464 8.20458 1.40992 11.026 1.44739C14.2449 1.42489 17.455 1.78529 20.5888 2.52101C20.9008 2.63336 21.1505 2.90801 21.2629 2.82063C21.4713 3.42255 21.5727 4.05632 21.5625 4.69322C21.5625 5.86672 21.4875 7.19004 21.4875 7.95156C21.4842 8.00936 21.4927 8.06726 21.5124 8.12168C21.5323 8.17609 21.5629 8.22587 21.6028 8.26797C21.6425 8.31007 21.6904 8.34359 21.7437 8.36646C21.7968 8.38934 21.8542 8.40109 21.912 8.40099C21.9694 8.40265 22.0265 8.39299 22.0803 8.37255C22.1339 8.35211 22.183 8.32131 22.2247 8.28189C22.2664 8.24248 22.3 8.19521 22.3235 8.14283C22.3469 8.09042 22.3599 8.03391 22.3614 7.97652C22.3614 7.01526 22.5737 5.47973 22.5113 4.10647C22.4967 3.49473 22.3742 2.89036 22.1493 2.32126C21.8398 1.91905 21.3973 1.64023 20.9008 1.53478C17.6959 0.630306 14.392 0.122984 11.0634 0.0242024C7.80508 -0.100638 4.8214 0.248915 3.49809 1.2726C2.6466 2.0952 2.05612 3.15026 1.80027 4.30622C1.16965 6.66033 0.79298 9.07519 0.676704 11.5095C0.38245 15.6316 0.512132 19.7731 1.06371 23.8687C1.16566 25.0402 1.54664 26.1704 2.17479 27.1645C3.89758 29.0121 7.51795 29.8485 11.1009 29.9859C15.3454 30.1233 19.5027 29.2369 20.3017 28.3005C20.9567 27.557 21.3893 26.6441 21.55 25.6664C21.6752 24.3169 21.6752 22.9586 21.55 21.6091C21.5502 21.5403 21.5362 21.4721 21.5088 21.4089C21.4813 21.3458 21.4412 21.289 21.3908 21.242C21.3404 21.1951 21.2808 21.1593 21.2158 21.1364C21.1508 21.1136 21.0819 21.1046 21.0132 21.1098Z" fill="black"/>
<path fill-rule="evenodd" clip-rule="evenodd" d="M28.9405 11.9594C26.0941 12.5212 23.073 12.9831 20.0269 13.4574C18.0669 13.7696 16.082 14.0942 14.122 14.2939C12.4991 14.4562 10.8886 14.5436 9.30315 14.5561L10.4142 13.4949C11.2881 12.6834 12.1495 11.872 12.911 10.9981L15.7949 7.56498C15.8729 7.47979 15.9163 7.36844 15.9163 7.25288C15.9163 7.13733 15.8729 7.02597 15.7949 6.94078C15.7531 6.89888 15.7035 6.86564 15.6489 6.84296C15.5943 6.82027 15.5356 6.80859 15.4765 6.80859C15.4174 6.80859 15.3588 6.82027 15.3041 6.84296C15.2495 6.86564 15.1999 6.89888 15.1581 6.94078L11.9872 10.1117C10.9885 11.048 9.76506 11.8969 8.67895 12.8333C7.9108 13.4913 7.20457 14.2184 6.56915 15.0054C6.48139 15.1193 6.41922 15.2507 6.38691 15.3908C6.35459 15.5308 6.35287 15.6762 6.38189 15.8169C6.42376 15.9758 6.50194 16.1227 6.61025 16.2462C6.71857 16.3697 6.85407 16.4663 7.00609 16.5286C7.19335 16.6159 7.56787 16.6658 7.74265 16.7657L9.34061 17.9143C10.3883 18.6911 11.3927 19.5246 12.3493 20.4111C12.9619 21.0172 13.5333 21.6637 14.0595 22.3461C14.1331 22.4544 14.2464 22.5296 14.3748 22.5553C14.5033 22.5809 14.6366 22.5552 14.7461 22.4834C14.8554 22.4076 14.9308 22.2922 14.9564 22.1617C14.982 22.0312 14.9559 21.8958 14.8835 21.7843C14.3803 21.0121 13.8211 20.2777 13.2106 19.5871C12.2977 18.5742 11.3265 17.6156 10.3019 16.7158L8.94111 15.6172C11.0625 15.8047 13.1951 15.8297 15.3204 15.6921C16.419 15.6172 17.5051 15.5048 18.5913 15.3551C19.6774 15.2052 20.7385 15.0054 21.8121 14.7683C24.3089 14.2064 26.8058 13.5198 29.1528 12.7708C29.2639 12.7387 29.3583 12.6649 29.4164 12.5649C29.4745 12.465 29.4919 12.3465 29.4649 12.234C29.4304 12.129 29.3564 12.0415 29.2585 11.9902C29.1605 11.9389 29.0465 11.9279 28.9405 11.9594Z" fill="black"/>
</g>
<defs>
<clipPath id="clip0_1541_1252">
<rect width="30" height="30" fill="white"/>
</clipPath>
</defs>
</svg>
