<svg width="33" height="33" viewBox="0 0 33 33" fill="none" xmlns="http://www.w3.org/2000/svg">
<path d="M7.40052 21.427C9.67439 21.8205 11.9421 21.6432 14.3339 20.8849C15.7288 20.4531 17.0591 19.8334 18.2885 19.0427C18.5197 19.301 18.7487 19.558 18.9753 19.8137C19.5317 20.4405 20.0584 21.0325 20.6092 21.6265C23.3006 24.5302 26.2205 27.2912 29.0442 29.9612C29.5575 30.4468 30.0705 30.9326 30.5832 31.4186C30.9852 31.7873 31.4267 32.1098 31.8996 32.3801C32.0163 32.4426 32.1474 32.4734 32.2796 32.4696C32.4179 32.4717 32.555 32.4427 32.6809 32.3849C32.7491 32.3505 32.8096 32.3026 32.859 32.2442C32.9084 32.1858 32.9457 32.118 32.9686 32.0448C32.9956 31.9578 33.0054 31.8662 32.9971 31.7752C32.989 31.6843 32.9631 31.596 32.9209 31.5151C32.6975 31.0453 32.4244 30.601 32.1066 30.1898C31.5943 29.5789 31.0493 28.9964 30.474 28.4449C29.1341 27.1413 27.7662 25.8221 26.4433 24.5462C25.526 23.6617 24.6093 22.7765 23.6934 21.8905C22.7479 20.975 21.8272 20.0756 20.8525 19.122C20.4555 18.7339 20.056 18.3437 19.654 17.9512L19.7061 17.8937C19.7819 17.8105 19.8406 17.7458 19.9032 17.6848C21.4267 16.2015 22.262 14.3459 22.3859 12.1698C22.6012 8.39102 21.3343 5.18318 18.621 2.63429C17.2917 1.35578 15.5672 0.573489 13.7342 0.417559C11.9516 0.245142 10.1528 0.450603 8.45405 1.02069C5.84972 1.91122 3.63898 3.61965 1.88354 6.09868C0.371024 8.23451 -0.235218 10.6044 0.0816706 13.1425C0.288361 14.7986 0.954988 16.368 2.2429 18.2315C3.45997 19.9917 5.14675 21.0369 7.40052 21.427ZM10.0937 2.9697C10.6996 2.91799 11.326 2.86465 11.9412 2.84418C12.0454 2.8409 12.1487 2.83921 12.2509 2.83911C15.055 2.83911 17.2097 4.11813 18.6587 6.6441C19.9556 8.90438 20.3224 11.0705 19.7805 13.2661C19.5947 14.0894 19.2238 14.8591 18.6962 15.5157C18.0413 16.3163 17.2455 16.9886 16.3483 17.4991C14.3 18.6683 11.9961 19.3109 9.64141 19.3698C9.41559 19.3447 9.18922 19.3225 8.96285 19.3002C8.46397 19.2514 7.94799 19.2006 7.44816 19.1186C6.20575 18.9303 5.07681 18.2857 4.27927 17.3094C3.30728 16.1695 2.60555 14.8224 2.22702 13.3698C1.79291 11.6862 1.95112 9.9034 2.67488 8.32363C3.48291 6.51925 4.55612 5.18796 5.956 4.25377C7.07617 3.50639 8.09741 3.122 9.16954 3.0445C9.47774 3.02225 9.7854 2.9959 10.0932 2.9697H10.0937Z" fill="white"/>
</svg>
