<svg width="20" height="15" viewBox="0 0 20 15" fill="none" xmlns="http://www.w3.org/2000/svg">
<g clip-path="url(#clip0_1214_4755)">
<path d="M0.0149019 13.2812C-0.0354892 13.6069 0.231579 13.9784 0.597947 14.0927C0.789762 14.1525 0.988584 14.1869 1.18934 14.1951C1.35693 14.2012 1.52453 14.2086 1.69213 14.2162C2.08442 14.2336 2.48612 14.2514 2.88768 14.2514C3.04902 14.2514 3.21034 14.2485 3.37079 14.2415C4.15191 14.2079 4.94499 14.1579 5.71192 14.1095C6.63058 14.0517 7.5804 13.992 8.51481 13.9595C10.9474 13.8753 13.3893 13.5405 15.7509 13.2167L16.0573 13.1747C16.6109 13.099 17.1834 13.0205 17.7416 12.9097C17.7663 12.9049 17.7918 12.9006 17.8177 12.8962C18.042 12.858 18.3807 12.8004 18.468 12.2851C18.4727 12.2572 18.467 12.2285 18.4519 12.2046C18.4368 12.1807 18.4135 12.1631 18.3862 12.1554C18.3275 12.1387 18.2732 12.1202 18.2217 12.1027C18.1163 12.0612 18.0055 12.0341 17.8928 12.0224L17.5369 12.0014C16.7159 11.9528 15.867 11.9028 15.0303 11.8804C12.6595 11.8155 10.2869 11.8773 7.92254 12.0652C6.39941 12.1882 4.84858 12.2888 3.34869 12.3862C2.58891 12.4355 1.82909 12.4858 1.06932 12.5371C0.907064 12.5443 0.746397 12.572 0.591129 12.6196C0.441804 12.663 0.308117 12.7484 0.205959 12.8658C0.103801 12.9831 0.0374535 13.1273 0.0149019 13.2812Z" fill="black"/>
<path d="M0.421196 7.43387C0.417493 7.55575 0.448392 7.67618 0.510288 7.7812C0.572183 7.88624 0.662528 7.97157 0.770905 8.02732C0.954991 8.1178 1.15507 8.17115 1.35974 8.18437C1.63113 8.20103 1.91593 8.21535 2.20509 8.21535C2.34654 8.21535 2.48893 8.21189 2.63128 8.20361C3.48044 8.15487 4.34233 8.09719 5.17629 8.04152C6.73752 7.93732 8.35184 7.8291 9.94055 7.77465C12.1032 7.70019 14.2775 7.43444 16.3802 7.17742C16.9315 7.11034 17.4823 7.0441 18.0329 6.97874C18.0767 6.97371 18.1212 6.96958 18.1663 6.96544C18.4886 6.93582 18.8898 6.89892 19.2993 6.46011C19.3119 6.4465 19.3212 6.43001 19.326 6.41209C19.3309 6.39417 19.3315 6.37536 19.3274 6.35721C19.3235 6.33905 19.3151 6.32213 19.3032 6.30788C19.2913 6.29364 19.2761 6.28249 19.2589 6.27541C18.5109 5.96751 17.864 5.92535 17.2122 5.90646L16.6434 5.89002C14.8418 5.83759 12.9793 5.78337 11.1398 5.85413C8.04769 5.97331 5.01966 6.27441 1.66558 6.62658C1.35028 6.66103 1.04297 6.74816 0.756501 6.88438C0.654489 6.93498 0.568858 7.01344 0.509524 7.11068C0.450189 7.20792 0.419576 7.31996 0.421196 7.43387Z" fill="black"/>
<path d="M1.05754 1.60556C1.2756 1.71199 1.51147 1.77701 1.75325 1.7973C1.88584 1.80714 2.0185 1.81728 2.15124 1.82771C2.76386 1.87512 3.39573 1.92406 4.02165 1.92406C4.07003 1.92406 4.1185 1.92408 4.16688 1.92319C5.35012 1.90832 6.55271 1.88069 7.71574 1.85397C9.25876 1.81865 10.8544 1.78208 12.4233 1.77481C14.6691 1.76441 16.9252 1.5075 19.1072 1.25908L19.1772 1.25116C19.3147 1.22479 19.4461 1.17304 19.5648 1.09856C19.6442 1.05652 19.7343 1.00911 19.8449 0.957907C19.8647 0.948816 19.8814 0.934292 19.8933 0.916037C19.9051 0.897783 19.9115 0.876546 19.9117 0.854788C19.912 0.833028 19.9061 0.811647 19.8947 0.793128C19.8832 0.774611 19.8668 0.759702 19.8472 0.750167C19.7333 0.694267 19.6374 0.640608 19.5528 0.592758C19.4201 0.503382 19.271 0.441249 19.114 0.409964L18.6853 0.358322C17.8525 0.257702 16.9912 0.153162 16.1391 0.117609C11.5477 -0.074239 6.88554 0.105881 2.37705 0.280177L1.56792 0.311375C1.44555 0.316197 1.32398 0.333459 1.20511 0.362908C1.06913 0.388532 0.944894 0.456909 0.850443 0.558093C0.755992 0.659277 0.696237 0.787986 0.679954 0.925481C0.659004 1.06464 0.684709 1.20683 0.753005 1.32986C0.821302 1.45288 0.928394 1.54982 1.05754 1.60556Z" fill="black"/>
</g>
<defs>
<clipPath id="clip0_1214_4755">
<rect width="20" height="14.3103" fill="white"/>
</clipPath>
</defs>
</svg>
