<svg width="32" height="32" viewBox="0 0 32 32" fill="none" xmlns="http://www.w3.org/2000/svg">
<g clip-path="url(#clip0_1095_748)">
<path d="M0.206212 15.6781C0.206212 12.6867 0.214301 9.69482 0.201069 6.70403C0.197424 5.85388 0.123034 5.00425 0.0967052 4.15396C0.0275743 1.90859 1.57641 0.260605 3.98114 0.213546C8.99352 0.115396 14.0054 -0.0986722 19.0208 0.0714119C19.5515 0.0894287 20.0845 0.0524515 20.6148 0.075712C20.9362 0.0883669 21.255 0.140488 21.5636 0.230879C21.6988 0.26986 21.8179 0.351181 21.9032 0.462792C21.9884 0.574402 22.0353 0.710353 22.0369 0.850562C22.0569 1.15483 21.9468 1.4247 21.6723 1.53845C21.3334 1.6771 20.9786 1.77315 20.616 1.82443C20.2937 1.85485 19.9696 1.85546 19.6473 1.8263C15.4661 1.64775 11.2829 1.66872 7.10053 1.74388C5.97121 1.76991 4.84426 1.85915 3.725 2.01117C3.02451 2.10274 2.38355 2.41737 2.11216 3.15243C1.9902 3.44806 1.92409 3.76357 1.91718 4.08309C1.94904 5.30044 2.0236 6.51674 2.08368 7.73341C2.10407 8.14699 2.1443 8.56015 2.14889 8.97373C2.19128 12.7473 2.24826 16.5209 2.25866 20.2948C2.26514 22.6416 2.18654 24.9883 2.17331 27.3353C2.18914 27.9549 2.23873 28.5732 2.32185 29.1876C2.36505 29.6028 2.59675 29.8566 3.03246 29.9002C3.17019 29.9136 3.30641 29.9607 3.44332 29.9608C4.73547 29.9618 6.02803 29.9767 7.31964 29.9474C8.95947 29.9099 10.5982 29.7952 12.2381 29.7839C16.2361 29.757 20.2345 29.7602 24.2326 29.7715C25.3642 29.7747 26.4955 29.8495 27.6272 29.8861C28.0452 29.9138 28.4605 29.8 28.8055 29.5634C29.1506 29.3266 29.4052 28.9806 29.5282 28.5819C29.5779 28.4313 29.6025 28.2736 29.6013 28.1152C29.5859 26.8976 29.483 25.6758 29.5532 24.4637C29.7971 20.2562 29.7953 16.0461 29.794 11.835C29.794 11.3979 29.8002 10.9603 29.8258 10.5241C29.8372 10.2713 29.8775 10.0206 29.9463 9.77697C29.9822 9.64174 30.0596 9.52105 30.1677 9.43171C30.2757 9.34236 30.4091 9.28882 30.5493 9.27854C30.8745 9.24089 31.174 9.32373 31.3131 9.62813C31.4526 9.91628 31.5407 10.2264 31.5738 10.5446C31.676 11.9436 31.7468 13.345 31.8251 14.7458C32.0704 19.1424 31.82 23.5331 31.6901 27.9253C31.667 28.3843 31.5812 28.8381 31.4351 29.2742C31.3023 29.7292 31.064 30.1469 30.7395 30.4937C30.4152 30.8404 30.0135 31.1065 29.5671 31.2707C28.7045 31.6044 27.7861 31.7715 26.8608 31.7632C23.8802 31.7556 20.8995 31.765 17.9189 31.7614C16.7866 31.7601 15.6539 31.715 14.5223 31.7345C11.843 31.782 9.16431 31.8625 6.48522 31.9174C5.39965 31.9396 4.31219 31.9646 3.22784 31.9264C1.5043 31.8656 0.410891 30.7342 0.388207 28.9969C0.330013 24.5575 0.291524 20.1179 0.245077 15.6783L0.206212 15.6781Z" fill="black"/>
<path d="M12.6919 19.1107C12.7151 18.9099 12.7568 18.7116 12.8163 18.5184C13.1599 17.5689 13.5049 16.6191 13.8897 15.6857C14.0387 15.3485 14.2386 15.0359 14.4826 14.7589C18.4154 10.114 22.4119 5.526 26.7527 1.24835C26.9298 1.06698 27.1187 0.897248 27.318 0.74024C27.8824 0.312811 28.4699 0.299261 29.0351 0.729244C29.3792 1.00005 29.7057 1.29245 30.0126 1.60467C30.5541 2.13831 31.0773 2.68997 31.6125 3.2298C32.0894 3.71074 31.9756 4.31633 31.6082 4.717C31.3126 5.03969 30.9952 5.3422 30.6825 5.64876C27.0438 9.21676 23.3693 12.7497 19.7863 16.3724C18.7663 17.4268 17.5957 18.3254 16.3123 19.0394C15.6855 19.3819 15.0409 19.692 14.4005 20.0092C14.2357 20.0927 14.0624 20.1587 13.8839 20.2065C13.1095 20.405 12.6668 20.0516 12.6919 19.1107ZM17.6562 16.3747L27.0909 6.65056L25.661 4.51854C22.4233 7.98906 19.2374 11.4039 16.004 14.87C16.5837 15.3983 17.1371 15.9025 17.6556 16.3747H17.6562ZM26.8304 3.44694L28.5493 5.17334L29.8772 3.99914C29.3042 3.3305 28.7764 2.71445 28.2264 2.07243L26.8304 3.44694ZM15.1716 16.2417C14.9979 16.6434 14.8684 16.9429 14.7408 17.2381L15.264 17.8198L16.0622 17.3566L15.1716 16.2417Z" fill="black"/>
</g>
<defs>
<clipPath id="clip0_1095_748">
<rect width="32" height="32" fill="white"/>
</clipPath>
</defs>
</svg>
