<svg width="33" height="34" viewBox="0 0 33 34" fill="none" xmlns="http://www.w3.org/2000/svg">
<path d="M21.181 28.6778C20.9475 30.2357 20.4869 31.6692 19.1085 32.6049C18.1714 33.2605 17.0422 33.5862 15.899 33.5304C13.2807 33.407 11.6373 31.961 11.0773 29.23C10.852 29.23 10.6068 29.2229 10.3621 29.2313C7.63059 29.3249 4.89947 29.4257 2.16769 29.509C1.77448 29.52 1.38142 29.4832 0.997069 29.3997C0.728349 29.3358 0.477231 29.2131 0.26206 29.0403C0.179638 28.9836 0.112572 28.9077 0.066855 28.8188C0.0211364 28.73 -0.001794 28.6313 0.000109547 28.5316C0.00201296 28.4317 0.028727 28.3339 0.0777975 28.247C0.126867 28.1601 0.196777 28.0866 0.281294 28.0331C2.37917 26.5761 3.22407 24.3609 3.92215 22.0651C4.47798 20.2368 4.59396 18.343 4.65465 16.4465C4.73107 14.0519 5.11875 11.7295 6.01408 9.48348C7.18002 6.5582 9.29459 4.67912 12.2084 3.63292C12.6252 3.48335 12.8277 3.30198 12.9143 2.84825C13.1944 1.38055 14.1026 0.667843 15.5918 0.659233C17.0453 0.651455 18.1709 1.50165 18.4508 2.8802C18.4696 3.04645 18.5372 3.20347 18.6452 3.33142C18.7533 3.45938 18.8969 3.55258 19.0578 3.59922C21.3007 4.45598 23.003 5.94215 24.249 7.99497C25.9165 10.7421 26.911 13.7169 27.4554 16.8642C27.6325 17.8875 27.8782 18.8988 28.0845 19.9171C28.5742 22.3337 29.8641 24.1864 31.9555 25.5095C32.3363 25.7607 32.6497 26.1011 32.8681 26.5011C33.1707 27.0576 32.9366 27.6427 32.3312 27.846C31.7632 28.0331 31.1728 28.1435 30.5755 28.1745C27.6613 28.3331 24.7452 28.4535 21.83 28.5912C21.6266 28.6017 21.4244 28.6448 21.181 28.6778ZM25.1602 18.5523C25.2103 18.4261 25.2459 18.3812 25.2406 18.3422C25.1871 17.9533 25.1254 17.5663 25.0685 17.1781C24.6461 14.2959 23.8002 11.564 22.3059 9.03686C20.5496 6.06659 17.5173 4.60066 14.1357 5.26187C11.6622 5.74546 9.6295 6.97128 8.47039 9.29103C7.95939 10.3142 7.49597 11.4126 7.29747 12.5277C6.97523 14.3386 6.88088 16.1904 6.70743 18.0265C6.64967 18.6376 6.64449 19.2537 6.60997 19.9818C12.8569 19.4987 19.0411 19.2013 25.1602 18.5523ZM3.84644 27.434C12.0887 26.8519 20.1734 26.6817 28.3494 25.7963C26.8889 24.2946 26.249 22.5226 25.7278 20.7181L6.42347 21.468C6.17388 23.6056 5.34298 25.5777 3.84644 27.434ZM12.5829 29.1103C12.9239 30.7445 14.4481 31.7443 16.2102 31.5611C17.8158 31.3945 18.7526 30.4094 18.7677 28.7705L12.5829 29.1103ZM14.2811 2.98829H16.6239C16.2995 2.34415 15.7897 2.25638 15.2549 2.27402C14.7964 2.28929 14.4043 2.45151 14.2815 2.98829H14.2811Z" fill="white"/>
</svg>
