<svg width="25" height="25" viewBox="0 0 25 25" fill="none" xmlns="http://www.w3.org/2000/svg">
<g clip-path="url(#clip0_690_3232)">
<path d="M5.72917 0H3.64583C2.6789 0 1.75157 0.384113 1.06784 1.06784C0.384113 1.75157 0 2.6789 0 3.64583L0 5.72917C0.00236274 6.60178 0.318165 7.44451 0.889861 8.10378C1.46156 8.76304 2.25109 9.19496 3.11458 9.32083V9.88854C3.11264 10.3024 3.27498 10.7001 3.56596 10.9944C3.85695 11.2887 4.25281 11.4556 4.66667 11.4583C4.87194 11.4594 5.07543 11.4201 5.26549 11.3425C5.45555 11.2649 5.62846 11.1506 5.77433 11.0062C5.92021 10.8618 6.0362 10.69 6.11568 10.5008C6.19515 10.3115 6.23654 10.1084 6.2375 9.90312V9.32292C7.01304 9.21338 7.73235 8.85596 8.28805 8.30401C8.84376 7.75206 9.20604 7.03519 9.32083 6.26042H9.8875C10.3015 6.26263 10.6995 6.10042 10.9941 5.80941C11.2886 5.51839 11.4556 5.12237 11.4583 4.70833C11.4594 4.50314 11.4201 4.29974 11.3426 4.10975C11.2651 3.91976 11.1509 3.7469 11.0066 3.60103C10.8623 3.45517 10.6906 3.33915 10.5015 3.25962C10.3123 3.18009 10.1094 3.13859 9.90417 3.1375H9.32292C9.20202 2.26948 8.77197 1.47423 8.11177 0.897844C7.45157 0.321462 6.60556 0.0026579 5.72917 0V0ZM6.25 5.72917C6.25 5.8673 6.19513 5.99978 6.09745 6.09745C5.99978 6.19513 5.8673 6.25 5.72917 6.25H3.64583C3.5077 6.25 3.37522 6.19513 3.27755 6.09745C3.17987 5.99978 3.125 5.8673 3.125 5.72917V3.64583C3.125 3.5077 3.17987 3.37522 3.27755 3.27755C3.37522 3.17987 3.5077 3.125 3.64583 3.125H5.72917C5.8673 3.125 5.99978 3.17987 6.09745 3.27755C6.19513 3.37522 6.25 3.5077 6.25 3.64583V5.72917Z" fill="#9E75FF"/>
<path d="M21.354 0H19.2707C18.3981 0.00236274 17.5553 0.318165 16.8961 0.889861C16.2368 1.46156 15.8049 2.25109 15.679 3.11458H15.1124C14.6983 3.11237 14.3003 3.27458 14.0058 3.56559C13.7113 3.85661 13.5443 4.25263 13.5415 4.66667C13.5404 4.87186 13.5798 5.07526 13.6573 5.26525C13.7348 5.45524 13.849 5.6281 13.9933 5.77397C14.1376 5.91983 14.3092 6.03585 14.4984 6.11538C14.6875 6.19491 14.8905 6.23641 15.0957 6.2375H15.6769C15.7869 7.01266 16.1445 7.7315 16.6964 8.28679C17.2483 8.84209 17.965 9.20407 18.7394 9.31875V9.88646C18.7369 10.3007 18.899 10.6989 19.1901 10.9937C19.4811 11.2885 19.8773 11.4556 20.2915 11.4583C20.4968 11.4594 20.7003 11.4201 20.8903 11.3425C21.0804 11.2649 21.2533 11.1506 21.3992 11.0062C21.5451 10.8618 21.6611 10.69 21.7405 10.5008C21.82 10.3115 21.8614 10.1084 21.8624 9.90312V9.32292C22.7304 9.20202 23.5256 8.77197 24.102 8.11177C24.6784 7.45157 24.9972 6.60556 24.9999 5.72917V3.64583C24.9999 2.6789 24.6157 1.75157 23.932 1.06784C23.2483 0.384113 22.321 0 21.354 0ZM21.8749 5.72917C21.8749 5.8673 21.82 5.99978 21.7223 6.09745C21.6246 6.19513 21.4922 6.25 21.354 6.25H19.2707C19.1326 6.25 19.0001 6.19513 18.9024 6.09745C18.8047 5.99978 18.7499 5.8673 18.7499 5.72917V3.64583C18.7499 3.5077 18.8047 3.37522 18.9024 3.27755C19.0001 3.17987 19.1326 3.125 19.2707 3.125H21.354C21.4922 3.125 21.6246 3.17987 21.7223 3.27755C21.82 3.37522 21.8749 3.5077 21.8749 3.64583V5.72917Z" fill="#9E75FF"/>
<path d="M21.8853 15.68V15.1123C21.8872 14.6984 21.7249 14.3007 21.4339 14.0064C21.1429 13.7121 20.7471 13.5453 20.3332 13.5425C20.1279 13.5414 19.9244 13.5808 19.7344 13.6583C19.5443 13.7359 19.3714 13.8502 19.2255 13.9946C19.0796 14.139 18.9637 14.3108 18.8842 14.5001C18.8047 14.6894 18.7633 14.8924 18.7624 15.0977V15.6779C17.9874 15.7881 17.2688 16.1458 16.7137 16.6977C16.1586 17.2496 15.7968 17.9661 15.6822 18.7404H15.1155C14.9102 18.7389 14.7066 18.7779 14.5164 18.8551C14.3262 18.9323 14.1531 19.0462 14.0069 19.1903C13.8607 19.3345 13.7444 19.506 13.6645 19.6951C13.5847 19.8842 13.5429 20.0872 13.5415 20.2925C13.5404 20.4977 13.5798 20.7011 13.6573 20.8911C13.7348 21.0811 13.849 21.2539 13.9933 21.3998C14.1376 21.5457 14.3092 21.6617 14.4984 21.7412C14.6875 21.8207 14.8905 21.8622 15.0957 21.8633H15.6769C15.7978 22.7314 16.2279 23.5266 16.8881 24.103C17.5483 24.6794 18.3943 24.9982 19.2707 25.0008H21.354C22.321 25.0008 23.2483 24.6167 23.932 23.933C24.6157 23.2493 24.9999 22.3219 24.9999 21.355V19.2717C24.9975 18.3991 24.6817 17.5563 24.11 16.8971C23.5383 16.2378 22.7488 15.8059 21.8853 15.68ZM21.8749 21.355C21.8749 21.4931 21.82 21.6256 21.7223 21.7233C21.6246 21.821 21.4922 21.8758 21.354 21.8758H19.2707C19.1326 21.8758 19.0001 21.821 18.9024 21.7233C18.8047 21.6256 18.7499 21.4931 18.7499 21.355V19.2717C18.7499 19.1335 18.8047 19.0011 18.9024 18.9034C19.0001 18.8057 19.1326 18.7508 19.2707 18.7508H21.354C21.4922 18.7508 21.6246 18.8057 21.7223 18.9034C21.82 19.0011 21.8749 19.1335 21.8749 19.2717V21.355Z" fill="#9E75FF"/>
<path d="M6.26042 15.68V15.1123C6.26236 14.6984 6.10002 14.3007 5.80904 14.0064C5.51805 13.7121 5.12219 13.5453 4.70833 13.5425C4.50305 13.5414 4.29957 13.5808 4.10951 13.6583C3.91945 13.7359 3.74654 13.8502 3.60066 13.9946C3.45479 14.139 3.3388 14.3108 3.25932 14.5001C3.17985 14.6894 3.13845 14.8924 3.1375 15.0977V15.6779C2.26948 15.7988 1.47423 16.2289 0.897844 16.8891C0.321462 17.5493 0.0026579 18.3953 0 19.2717L0 21.355C0 22.3219 0.384113 23.2493 1.06784 23.933C1.75157 24.6167 2.6789 25.0008 3.64583 25.0008H5.72917C6.60178 24.9985 7.44451 24.6827 8.10378 24.111C8.76304 23.5393 9.19496 22.7497 9.32083 21.8863H9.8875C10.3015 21.8885 10.6995 21.7263 10.9941 21.4352C11.2886 21.1442 11.4556 20.7482 11.4583 20.3342C11.4594 20.129 11.4201 19.9256 11.3426 19.7356C11.2651 19.5456 11.1509 19.3727 11.0066 19.2269C10.8623 19.081 10.6906 18.965 10.5015 18.8855C10.3123 18.8059 10.1094 18.7644 9.90417 18.7633H9.32292C9.21338 17.9878 8.85596 17.2685 8.30401 16.7128C7.75206 16.1571 7.03519 15.7948 6.26042 15.68ZM6.25 21.355C6.25 21.4931 6.19513 21.6256 6.09745 21.7233C5.99978 21.821 5.8673 21.8758 5.72917 21.8758H3.64583C3.5077 21.8758 3.37522 21.821 3.27755 21.7233C3.17987 21.6256 3.125 21.4931 3.125 21.355V19.2717C3.125 19.1335 3.17987 19.0011 3.27755 18.9034C3.37522 18.8057 3.5077 18.7508 3.64583 18.7508H5.72917C5.8673 18.7508 5.99978 18.8057 6.09745 18.9034C6.19513 19.0011 6.25 19.1335 6.25 19.2717V21.355Z" fill="#9E75FF"/>
</g>
<defs>
<clipPath id="clip0_690_3232">
<rect width="25" height="25" fill="white"/>
</clipPath>
</defs>
</svg>
