<svg width="38" height="37" viewBox="0 0 38 37" fill="none" xmlns="http://www.w3.org/2000/svg">
<g clip-path="url(#clip0_1272_3513)">
<path d="M8.59261 24.1432C11.1913 24.5928 13.7831 24.3902 16.5166 23.5236C18.1108 23.0302 19.6311 22.3218 21.0361 21.4182C21.3004 21.7135 21.5621 22.0071 21.8211 22.2994C22.457 23.0157 23.059 23.6923 23.6884 24.3712C26.7644 27.6897 30.1014 30.8452 33.3286 33.8967C33.9152 34.4516 34.5015 35.0068 35.0875 35.5623C35.5469 35.9837 36.0514 36.3522 36.5919 36.6611C36.7253 36.7326 36.8752 36.7678 37.0262 36.7634C37.1843 36.7658 37.3409 36.7327 37.4849 36.6666C37.5627 36.6273 37.6319 36.5725 37.6884 36.5058C37.7448 36.4391 37.7875 36.3615 37.8137 36.278C37.8445 36.1785 37.8557 36.0738 37.8463 35.9698C37.8369 35.8659 37.8073 35.765 37.7591 35.6725C37.5038 35.1356 37.1917 34.6278 36.8285 34.1579C36.243 33.4597 35.6201 32.7939 34.9626 32.1637C33.4313 30.6739 31.868 29.1662 30.3561 27.708C29.3077 26.6971 28.26 25.6854 27.2132 24.6728C26.1326 23.6265 25.0804 22.5986 23.9665 21.5088C23.5128 21.0653 23.0562 20.6193 22.5968 20.1708L22.6563 20.1051C22.7429 20.01 22.81 19.936 22.8815 19.8663C24.6227 18.1711 25.5774 16.0503 25.719 13.5634C25.965 9.2447 24.5171 5.57856 21.4161 2.66551C19.8969 1.20433 17.926 0.310274 15.8312 0.132066C13.7939 -0.0649841 11.7381 0.169832 9.79665 0.821368C6.82025 1.83912 4.29365 3.79165 2.28741 6.62485C0.558798 9.06584 -0.134058 11.7743 0.228105 14.675C0.464325 16.5678 1.22619 18.3614 2.69812 20.4911C4.08907 22.5027 6.01683 23.6973 8.59261 24.1432ZM11.6706 3.04884C12.363 2.98973 13.0789 2.92877 13.782 2.90538C13.9011 2.90164 14.0191 2.8997 14.136 2.89959C17.3407 2.89959 19.8032 4.36134 21.4593 7.2482C22.9414 9.83141 23.3607 12.307 22.7413 14.8163C22.529 15.7573 22.1051 16.6369 21.5021 17.3873C20.7537 18.3023 19.8442 19.0707 18.8188 19.6541C16.4778 20.9903 13.8448 21.7247 11.1537 21.7921C10.8956 21.7634 10.6369 21.7379 10.3781 21.7125C9.80799 21.6567 9.21829 21.5987 8.64705 21.5049C7.22714 21.2897 5.93691 20.553 5.02542 19.4373C3.91457 18.1345 3.11258 16.5949 2.67997 14.9349C2.18383 13.0107 2.36465 10.9732 3.19181 9.16769C4.11528 7.10552 5.34183 5.58402 6.94171 4.51636C8.22192 3.6622 9.38906 3.2229 10.6144 3.13432C10.9666 3.1089 11.3182 3.07878 11.67 3.04884H11.6706Z" fill="#FF5C5C"/>
</g>
<defs>
<clipPath id="clip0_1272_3513">
<rect width="38" height="36.805" fill="white"/>
</clipPath>
</defs>
</svg>
