<svg width="33" height="34" viewBox="0 0 33 34" fill="none" xmlns="http://www.w3.org/2000/svg">
<path d="M31.4352 13.6706C31.0745 13.6773 30.7183 13.6753 30.4322 13.6735L30.2423 13.6726L28.4367 10.2923C28.5436 10.1673 28.6556 10.0395 28.77 9.90855C29.105 9.52547 29.4513 9.12918 29.772 8.70166C30.1757 8.1637 30.1423 7.54087 29.685 7.07654L29.6559 7.04693C28.5126 5.88563 27.3302 4.68483 26.1141 3.55927C25.7686 3.2395 25.4637 3.09741 25.1588 3.11053C24.8365 3.12485 24.5175 3.31837 24.1553 3.71913C23.8932 4.00892 23.6399 4.29884 23.3716 4.6059C23.2839 4.70647 23.1951 4.808 23.1053 4.91053C22.305 4.09979 21.3025 3.61563 19.8881 3.35516C19.8881 3.27324 19.8897 3.19214 19.8908 3.11183C19.8942 2.85269 19.8974 2.60804 19.8849 2.358C19.8128 0.916277 19.4053 0.521398 17.9887 0.520996H17.9772C17.0904 0.520996 16.19 0.552309 15.3194 0.582694C14.9053 0.597016 14.4923 0.61158 14.0787 0.622823C13.4427 0.640224 13.0526 0.990786 12.9801 1.60985C12.9328 2.01488 12.9019 2.41944 12.8745 2.77642C12.8658 2.8906 12.8575 2.99963 12.8492 3.10163L9.65103 4.91243C9.58543 4.83212 9.5185 4.74925 9.45063 4.66479C9.22978 4.39133 9.00144 4.10836 8.75427 3.83396C8.40089 3.44151 8.05954 3.24316 7.71043 3.2279C7.37028 3.21519 7.02747 3.37071 6.66286 3.71069C5.62263 4.68072 4.63009 5.65006 3.71304 6.59185C2.96232 7.36243 2.9265 8.0107 3.58543 8.90564C3.82031 9.22421 4.08177 9.52537 4.29179 9.76738C4.35298 9.83792 4.4103 9.90372 4.46214 9.96462L3.03579 13.8062C2.88789 13.8196 2.73772 13.8318 2.58608 13.8441C2.16991 13.8781 1.73958 13.9132 1.31165 13.9708C0.531811 14.0754 0.228127 14.4182 0.228394 15.193C0.228394 16.6881 0.244156 17.9327 0.275821 19.1096C0.287578 19.5474 0.410223 19.8714 0.640555 20.0722C0.878369 20.2796 1.21626 20.3556 1.67505 20.3038C1.93304 20.2751 2.19023 20.2415 2.44755 20.2077L2.51502 20.1988C2.51663 20.2135 2.52056 20.2278 2.52664 20.2413L4.13963 23.7607C3.93201 23.9203 3.72403 24.0791 3.5157 24.2375C3.28822 24.411 3.06109 24.5847 2.83433 24.7587C2.17045 25.27 2.04699 25.853 2.46717 26.4916C3.15576 27.5375 3.96541 28.7458 4.86283 29.8488C5.65723 30.826 6.30159 30.8957 7.4161 30.1275C7.87998 29.8076 8.34159 29.485 8.80666 29.1594L9.35149 28.7786C10.5649 29.7435 11.7749 30.184 13.1182 30.1643C13.1059 30.2782 13.0939 30.3865 13.0822 30.4908C13.0475 30.8021 13.0174 31.0712 12.9986 31.3458C12.9497 32.0644 13.0463 32.5103 13.3116 32.7933C13.5703 33.0686 13.9922 33.1923 14.6763 33.1923H14.7204C15.6476 33.1854 16.59 33.169 17.5013 33.1534C17.8775 33.1467 18.2536 33.1404 18.6299 33.1344C19.1545 33.1261 19.525 32.9942 19.7636 32.7311C20.0022 32.4679 20.0976 32.0851 20.0541 31.5613C20.0247 31.2013 19.992 30.8415 19.9624 30.5181L19.9357 30.2255L22.7368 29.0437L22.7948 29.123C22.8988 29.2648 23.0046 29.4091 23.109 29.5544C23.1613 29.6269 23.2122 29.7005 23.2631 29.7741C23.3545 29.9063 23.4491 30.0431 23.551 30.173C24.0528 30.813 24.6055 30.9487 25.3434 30.6139C25.5865 30.5119 25.8152 30.3781 26.0233 30.2161C26.2622 30.0172 26.5014 29.8186 26.7411 29.6202C27.718 28.8103 28.7281 27.9728 29.6881 27.1094C30.125 26.7164 30.3256 26.3874 30.3391 26.0425C30.3525 25.6909 30.1654 25.3307 29.7326 24.8749C29.4165 24.5424 29.0975 24.2127 28.8047 23.9101L28.5108 23.6057L30.3602 20.0708C30.4354 20.0636 30.5175 20.056 30.6047 20.0479C30.8966 20.0212 31.2594 19.9873 31.6176 19.9449C32.3814 19.8545 32.6533 19.6046 32.8299 18.8312C33.1894 17.257 32.91 15.7206 32.6269 14.5581C32.4828 13.9657 32.07 13.6635 31.4352 13.6706ZM28.2632 19.1403C27.8733 20.717 27.3228 21.816 26.4777 22.7034C26.1352 23.0632 26.1476 23.5673 26.5119 24.0864C26.8427 24.5577 27.1877 25.0149 27.553 25.4992C27.6827 25.6713 27.8148 25.8464 27.9492 26.0263L24.792 28.5399C24.7041 28.435 24.6178 28.3314 24.5334 28.2291C24.2852 27.9303 24.0508 27.6482 23.8034 27.3708C23.1449 26.6329 22.7994 26.6632 21.9538 27.1497C21.283 27.521 20.5765 27.8234 19.845 28.0524C18.1663 28.6132 18.04 29.3626 18.0316 30.5303C18.0305 30.6783 18.0205 30.8312 18.0098 30.993C18.007 31.034 18.0043 31.0757 18.0017 31.1186H14.8887L14.8717 30.7439C14.8561 30.3948 14.841 30.0594 14.824 29.7242C14.7761 28.7843 14.5778 28.4441 13.5596 28.4072C12.0344 28.3522 10.7514 27.905 9.63713 27.04C9.2132 26.7104 8.72261 26.738 8.13716 27.1236C7.70068 27.4113 7.27114 27.7083 6.81623 28.023C6.64941 28.1385 6.47848 28.2565 6.30346 28.377L4.31358 25.7032C4.43667 25.5998 4.55816 25.497 4.67804 25.3948C5.023 25.1016 5.34861 24.8247 5.69143 24.561C6.25711 24.1261 6.304 23.8707 5.93098 23.259C5.25442 22.1494 4.55567 20.8053 4.50237 19.2488C4.48393 18.7036 4.16462 18.4173 3.55378 18.3977C3.19452 18.386 2.83232 18.3886 2.44741 18.391C2.311 18.3919 2.17084 18.393 2.02548 18.3934L1.88989 15.7742C2.08682 15.7534 2.27734 15.7317 2.46291 15.7107C2.95724 15.6545 3.42485 15.6016 3.88846 15.5801C4.46095 15.5533 4.79588 15.2484 4.88406 14.6724C5.14111 12.995 5.61528 11.6949 6.37615 10.5807C6.50051 10.4225 6.56886 10.2273 6.5705 10.0259C6.57215 9.82451 6.50699 9.6282 6.38524 9.46791C6.10484 9.06091 5.8233 8.65519 5.5406 8.25069L5.281 7.87763L7.82975 5.27862C7.93022 5.37678 8.03073 5.47497 8.1313 5.57312C8.42522 5.86051 8.72849 6.15739 9.03244 6.44584C9.62884 7.01123 9.79866 6.93385 10.4211 6.51597C11.208 5.98738 12.05 5.43883 12.9308 5.05066C13.6884 4.71697 14.3659 4.32924 14.3337 3.26445C14.3375 3.03953 14.3678 2.81587 14.4242 2.59812C14.4423 2.51339 14.4606 2.42638 14.4776 2.33644H18.028C18.0288 2.40965 18.0303 2.48363 18.0316 2.55819C18.0367 2.82415 18.0419 3.09899 18.0226 3.36803C17.9473 4.41569 18.2972 4.86062 19.2706 4.95472C20.2994 5.0543 21.1991 5.51236 22.186 6.44049C22.711 6.93386 23.001 7.0267 23.5824 6.56518C23.9699 6.25732 24.329 5.93249 24.7088 5.58809C24.8391 5.47013 24.9705 5.35169 25.1032 5.23274L27.6489 7.91808C27.5889 7.98112 27.5246 8.04787 27.4572 8.11801C27.1956 8.39054 26.8988 8.69951 26.6053 9.02276C25.8197 9.88838 25.8148 10.214 26.5735 11.0707C27.3774 11.9549 27.9437 13.0294 28.2194 14.1932C28.3731 14.8662 28.759 15.1935 29.4337 15.2238C29.7575 15.2381 30.0813 15.2558 30.4463 15.2752L30.869 15.2976L31.0192 18.1095H30.6244C30.2725 18.1087 29.9549 18.1084 29.6372 18.111C28.8091 18.1179 28.4494 18.3874 28.2632 19.1403Z" fill="white"/>
<path d="M17.7026 8.40026C16.3919 8.27883 15.0711 8.46555 13.8453 8.9456C12.6194 9.42565 11.5223 10.1857 10.6413 11.1654C9.76029 12.1451 9.11969 13.3172 8.7705 14.5886C8.42131 15.8601 8.37316 17.1955 8.6299 18.4888C9.30139 21.6759 10.9507 23.692 13.6724 24.6523C14.4748 24.9298 15.3188 25.0667 16.1677 25.0574C16.8741 25.0517 17.5786 24.9832 18.273 24.8528C22.7621 24.0483 25.2338 20.8916 25.2318 15.9637V15.9606C25.1773 14.419 24.6644 12.9287 23.7587 11.6812C22.3323 9.77033 20.2949 8.66636 17.7026 8.40026ZM23.1015 18.0344C22.5681 20.7062 20.8859 22.2585 17.9589 22.7798C17.0114 22.9485 15.7685 23.0949 14.5583 22.7288C12.4508 22.0909 11.1857 20.6062 10.6909 18.1903C10.6134 17.7648 10.5627 17.3349 10.5391 16.903C10.5239 16.7023 10.5088 16.5026 10.4883 16.3034C10.4846 15.5005 10.6427 14.7052 10.9532 13.965C11.2637 13.2249 11.7202 12.5552 12.2953 11.996C13.5204 10.8137 15.2413 10.1998 17.1295 10.2595C19.1681 10.3265 20.783 11.061 21.9295 12.4414C23.1709 13.9365 23.5544 15.7662 23.1015 18.0344Z" fill="white"/>
</svg>
