<svg width="38" height="30" viewBox="0 0 38 30" fill="none" xmlns="http://www.w3.org/2000/svg">
<path d="M10.9988 19.6729C9.59265 19.6729 8.21372 19.6599 6.8353 19.6765C5.39922 19.6939 3.96346 19.7531 2.52738 19.7651C2.06706 19.7648 1.60792 19.7187 1.15675 19.6276C0.0140612 19.4065 -0.310434 18.6707 0.310576 17.6745C0.738312 16.9875 1.21252 16.3268 1.69444 15.6753C4.29808 12.1539 6.91774 8.64427 9.51584 5.11873C10.2691 4.09632 10.9793 3.04172 11.6875 1.98726C11.8903 1.6703 12.0587 1.33275 12.19 0.980305C12.6027 -0.0637333 13.534 -0.31665 14.3687 0.429317C14.662 0.708778 14.9301 1.01339 15.1699 1.33963C16.7385 3.33941 18.3036 5.34207 19.8651 7.34764C19.9633 7.47395 20.0769 7.58697 20.2067 7.73222C21.9197 6.58011 23.8801 5.84469 25.9303 5.58509C30.1322 5.03647 33.4274 6.49178 35.7261 10.0601C36.8787 11.8492 37.6905 13.7783 37.9235 15.9203C38.2888 19.2847 37.347 22.2709 35.0662 24.7309C31.8319 28.22 27.7472 30.0301 22.976 29.906C18.8552 29.7988 15.6441 27.8106 13.344 24.4216C12.4043 23.0375 11.5632 21.5833 11.132 19.9389C11.0977 19.8456 11.053 19.7564 10.9988 19.6729ZM13.6032 19.6029C13.8266 20.1212 13.9835 20.5789 14.2132 20.997C14.5795 21.6891 14.9837 22.3606 15.424 23.0085C17.024 25.2854 19.1703 26.8021 21.9777 27.0538C26.5064 27.4597 30.3264 25.8746 33.3949 22.5492C34.5186 21.3175 35.1993 19.7482 35.3295 18.0884C35.6472 14.716 34.3967 11.9117 32.051 9.54511C31.2431 8.73079 30.2084 8.33041 29.1126 8.08144C27.4037 7.69306 25.7196 7.90776 24.0558 8.35234C23.1181 8.57395 22.2215 8.94217 21.3994 9.44328C21.6087 9.75241 21.7852 10.0184 21.9669 10.2808C23.3515 12.2808 24.706 14.2996 25.7555 16.5011C25.9984 16.982 26.1967 17.4841 26.348 18.001C26.6829 19.2567 26.0439 19.9518 24.7375 19.9015C21.2998 19.7689 17.8602 19.6681 14.4212 19.5597C14.184 19.551 13.9454 19.5835 13.6032 19.6029ZM23.7013 17.8589C20.7211 12.2701 16.7981 7.65865 12.9059 2.92471C9.77896 8.09281 6.10805 12.8329 2.53535 17.8898C9.66317 17.6588 16.5921 17.467 23.7013 17.8589Z" fill="#FF5C5C"/>
</svg>
