<svg width="32" height="26" viewBox="0 0 32 26" fill="none" xmlns="http://www.w3.org/2000/svg">
<path id="Vector" d="M9.26214 17.0368C8.07802 17.0368 6.91682 17.0259 5.75604 17.0399C4.54671 17.0545 3.33765 17.1044 2.12832 17.1145C1.74068 17.1142 1.35404 17.0754 0.974106 16.9987C0.0118411 16.8126 -0.261418 16.1929 0.261538 15.354C0.621736 14.7755 1.02107 14.2191 1.42689 13.6704C3.61944 10.7051 5.82547 7.7496 8.01334 4.78072C8.64769 3.91974 9.24576 3.03166 9.84208 2.1437C10.0129 1.87679 10.1547 1.59253 10.2652 1.29573C10.6128 0.416545 11.397 0.203562 12.1 0.831745C12.347 1.06708 12.5727 1.32359 12.7746 1.59833C14.0956 3.28235 15.4135 4.9688 16.7285 6.6577C16.8112 6.76406 16.9069 6.85924 17.0162 6.98155C18.4587 6.01136 20.1096 5.39206 21.836 5.17345C25.3745 4.71145 28.1494 5.93698 30.0851 8.94188C31.0558 10.4485 31.7393 12.073 31.9356 13.8768C32.2432 16.7099 31.4501 19.2246 29.5295 21.2963C26.8058 24.2344 23.3661 25.7587 19.3482 25.6542C15.8781 25.5639 13.174 23.8897 11.2371 21.0358C10.4457 19.8702 9.73745 18.6457 9.37432 17.2609C9.34541 17.1823 9.3078 17.1072 9.26214 17.0368ZM11.4553 16.9779C11.6435 17.4144 11.7755 17.7998 11.969 18.1519C12.2775 18.7347 12.6178 19.3002 12.9886 19.8458C14.336 21.7632 16.1434 23.0404 18.5075 23.2523C22.3212 23.5941 25.5381 22.2593 28.122 19.459C29.0683 18.4218 29.6415 17.1003 29.7512 15.7026C30.0187 12.8627 28.9657 10.5011 26.9903 8.50821C26.3099 7.82246 25.4387 7.4853 24.5159 7.27564C23.0768 6.94858 21.6586 7.12938 20.2575 7.50376C19.4679 7.69038 18.7128 8.00046 18.0206 8.42245C18.1968 8.68277 18.3454 8.90679 18.4984 9.12775C19.6644 10.8119 20.805 12.5119 21.6889 14.3659C21.8934 14.7709 22.0604 15.1936 22.1878 15.6289C22.4698 16.6864 21.9317 17.2718 20.8316 17.2294C17.9367 17.1177 15.0401 17.0329 12.1441 16.9415C11.9444 16.9342 11.7435 16.9616 11.4553 16.9779ZM19.959 15.5093C17.4493 10.8029 14.1458 6.9196 10.8681 2.93313C8.23492 7.28521 5.14362 11.2769 2.13503 15.5353C8.13741 15.3408 13.9718 15.1793 19.9584 15.5093H19.959Z" fill="black"/>
</svg>
