<svg width="30" height="31" viewBox="0 0 30 31" fill="none" xmlns="http://www.w3.org/2000/svg">
<g clip-path="url(#clip0_1322_10541)">
<path fill-rule="evenodd" clip-rule="evenodd" d="M29.9351 10.3078C29.6901 8.30298 28.9711 6.38542 27.8374 4.71394C27.2977 4.08786 26.6952 3.51883 26.0394 3.01583C24.9406 2.21671 8.5088 2.27914 4.5257 2.90344C4.42242 2.92821 4.33218 2.99077 4.27277 3.07879C4.21336 3.16682 4.18911 3.27392 4.20478 3.37896C4.22046 3.48399 4.27493 3.57933 4.35746 3.64618C4.43998 3.71302 4.54456 3.74651 4.65056 3.74002C5.59951 3.61516 6.99796 3.52776 8.60868 3.47782C7.95738 5.35076 7.53806 7.29646 7.36006 9.27141L5.47465 9.70842C4.03873 9.83328 2.70272 9.48367 1.21686 9.79582C1.75368 7.92214 2.44702 6.09691 3.28957 4.33936C3.31032 4.25011 3.29763 4.15634 3.25392 4.07581C3.21021 3.99528 3.13848 3.93356 3.05233 3.90234C2.74017 3.78997 2.51542 4.01472 2.07841 5.03858C1.06703 7.37351 -0.14413 9.70842 0.0931069 12.1182C0.44272 15.7642 4.87531 16.5633 7.0604 13.5292L7.36006 13.0797C7.37576 13.5232 7.48052 13.959 7.66808 14.3612C7.85566 14.7633 8.12221 15.1237 8.4519 15.4207C8.78157 15.7178 9.16763 15.9456 9.58712 16.0903C10.0066 16.2351 10.4509 16.2941 10.8936 16.2637C11.7684 16.2298 12.6179 15.9601 13.3519 15.4832C14.086 15.0062 14.6776 14.3397 15.064 13.5542C16.5124 16.9255 21.0324 17.9742 22.4434 13.5542C23.0085 14.311 23.8126 14.855 24.7254 15.098C25.6381 15.341 26.6062 15.2688 27.4729 14.8933C28.3396 14.5177 29.0541 13.8607 29.501 13.0285C29.9479 12.1963 30.1007 11.2377 29.9351 10.3078ZM20.7452 3.61516C20.7689 5.52921 20.919 7.43961 21.1947 9.33383C20.1834 9.33383 16.5499 9.24643 15.7507 9.20897C15.8944 7.29294 15.8944 5.36887 15.7507 3.45284C17.5239 3.46533 19.2469 3.54024 20.7452 3.61516ZM9.50768 3.46533H14.9516C14.6217 5.34572 14.4462 7.24999 14.4272 9.15902C11.2058 8.94676 10.2194 8.70952 8.771 8.99671C8.98326 7.87294 9.50768 3.46533 9.50768 3.46533ZM7.01045 11.5314C6.23631 12.7051 5.76183 13.7415 4.51321 14.2035C4.14055 14.3688 3.73303 14.4406 3.32628 14.4122C2.91953 14.3838 2.52591 14.2563 2.1798 14.0408C1.83368 13.8252 1.54562 13.5282 1.34076 13.1757C1.13591 12.8231 1.02049 12.4258 1.0046 12.0184C0.942552 11.5334 0.942552 11.0425 1.0046 10.5575C1.03761 10.5636 1.07147 10.5636 1.10449 10.5575C2.44051 10.3202 4.08868 10.7947 5.54957 10.7073L7.24768 10.495C7.2667 10.8463 7.20253 11.1971 7.0604 11.5189L7.01045 11.5314ZM13.703 13.2045C12.6417 15.065 9.95718 15.6143 8.99575 14.0786C8.45211 12.9099 8.2737 11.6044 8.48382 10.3327C10.7313 10.0455 11.1184 10.4076 14.4522 10.52C14.5146 11.5813 14.652 11.0694 13.703 13.2045ZM19.4716 15.0276C18.841 15.0477 18.2182 14.8836 17.6794 14.5555C17.1405 14.2272 16.709 13.7491 16.4375 13.1796C16.1504 12.6676 16.038 11.856 15.526 11.3691C15.4136 11.3066 15.4136 11.4565 15.526 10.5824C17.4364 10.5824 18.8724 10.5824 21.3695 10.4451C21.6567 11.9434 20.8576 14.8152 19.4591 15.0276H19.4716ZM28.2994 12.2057C28.1065 12.5915 27.8277 12.9279 27.4846 13.1892C27.1414 13.4504 26.7429 13.6296 26.3196 13.7127C25.8964 13.796 25.4597 13.781 25.0432 13.6691C24.6266 13.5572 24.2412 13.3513 23.9167 13.0672C23.1201 12.3891 22.6222 11.4248 22.5307 10.3827L25.4775 10.2578C25.5901 10.2578 25.6981 10.2131 25.7777 10.1335C25.8572 10.0539 25.902 9.94587 25.902 9.83328C25.902 9.72068 25.8572 9.61271 25.7777 9.53309C25.6981 9.45348 25.5901 9.40874 25.4775 9.40874H22.5057C22.3941 7.48842 22.1057 5.58246 21.6442 3.71506C22.8929 3.78997 23.8542 3.86488 24.5535 3.95229C24.9156 3.95229 25.2652 4.22698 25.3401 4.11461C26.5181 4.93579 27.3951 6.11974 27.8374 7.48588C28.3619 9.02168 28.9486 10.6823 28.2994 12.2057Z" fill="white"/>
<path fill-rule="evenodd" clip-rule="evenodd" d="M3.77631 19.0106C3.70912 18.9681 3.63231 18.9431 3.55293 18.938C3.47356 18.9327 3.39417 18.9477 3.32206 18.9812C3.24994 19.0149 3.18743 19.066 3.14026 19.13C3.09308 19.1941 3.06278 19.269 3.05211 19.3477C3.05211 19.4477 2.70249 22.794 2.75244 23.7055C2.75244 24.2299 2.75244 24.7667 3.21443 25.0415C5.31211 26.1777 7.83432 25.441 9.90702 25.6782C10.8685 25.7657 12.2419 26.0404 12.8163 25.1914C13.2159 24.6045 12.8912 23.6056 12.8788 23.0936C12.8788 21.0834 13.2159 17.9369 11.6301 17.7496C11.6301 17.7496 7.88426 17.8245 6.73553 17.6621C5.82312 17.6502 4.91166 17.7255 4.01354 17.8869C3.92911 17.9176 3.85801 17.9769 3.81244 18.0544C3.76688 18.1317 3.74969 18.2227 3.76382 18.3115C3.86371 19.123 5.26216 18.3115 6.58569 18.6236C6.92282 18.6236 7.25996 18.7235 7.59708 18.761C7.50967 19.3477 7.39729 20.3467 7.37233 21.0709C6.14584 21.0624 4.92119 21.1669 3.71388 21.383V20.9835C3.81377 18.8857 3.85122 19.123 3.77631 19.0106ZM11.6925 24.4421C11.6301 24.617 10.2816 24.2799 10.0444 24.2549H8.53354C8.62917 23.6597 8.68754 23.0592 8.70834 22.4569C11.293 22.282 11.2805 22.382 11.4678 22.3445C11.3925 23.0517 11.4691 23.7669 11.6925 24.4421ZM11.4303 19.0106C11.551 19.8164 11.5845 20.6326 11.5302 21.4455C10.6043 21.2357 9.65771 21.131 8.70834 21.1334C8.63366 20.3569 8.51274 19.5855 8.34624 18.8234C11.1057 19.0106 11.2056 19.2354 11.4303 19.0106ZM7.45973 22.4944C7.45973 22.7815 7.53464 23.0811 7.55962 23.3684C7.70946 24.3172 7.70946 24.2424 7.68448 24.3547C6.35893 24.5845 4.99769 24.4946 3.71388 24.0925V22.1447C3.82626 22.1946 6.79796 22.4694 7.45973 22.4944Z" fill="white"/>
<path fill-rule="evenodd" clip-rule="evenodd" d="M18.3229 23.8927C17.2367 23.3808 17.0743 26.5148 18.0108 26.5148C18.1234 26.5148 18.2314 26.4701 18.3109 26.3905C18.3906 26.3108 18.4353 26.2028 18.4353 26.0903C18.8848 24.6918 18.4228 23.9427 18.3229 23.8927Z" fill="white"/>
<path fill-rule="evenodd" clip-rule="evenodd" d="M16.2873 27.0018C16.3997 25.7532 16.5246 24.1923 16.7368 22.9438C16.8463 22.1751 17.233 21.473 17.824 20.9693C18.4148 20.4657 19.1695 20.1955 19.9458 20.2093C22.8176 20.122 22.9051 23.3433 23.2671 25.9405C23.4295 27.2515 24.6281 27.5512 24.5157 25.9405C24.4033 24.3297 24.1287 23.3308 24.0662 23.0936C23.8345 21.8567 23.2737 20.7051 22.4431 19.7598C21.6556 19.1135 20.6615 18.7728 19.6432 18.8003C18.6248 18.8278 17.6506 19.2217 16.8992 19.9096C15.4633 21.1582 15.301 22.6191 15.1137 24.4172C15.0138 25.3536 15.2011 25.441 15.1137 26.1527C14.9513 27.4638 15.9627 28.0631 16.2873 27.0018Z" fill="white"/>
<path fill-rule="evenodd" clip-rule="evenodd" d="M29.423 21.3456C29.3231 19.0606 28.961 17.6996 28.936 15.3896C28.936 15.2771 28.8912 15.1691 28.8116 15.0895C28.7321 15.0099 28.6241 14.9651 28.5115 14.9651C28.3989 14.9651 28.2909 15.0099 28.2112 15.0895C28.1317 15.1691 28.087 15.2771 28.087 15.3896C28.087 17.7371 28.9735 24.3922 28.1619 27.0019C28.1619 27.1766 27.7624 27.6885 27.9121 27.8259C27.7872 27.8259 9.65736 28.1755 7.21007 28.188C5.96146 28.188 2.32798 28.188 1.24168 28.0381C0.904554 22.4942 0.85461 26.0154 0.904554 14.9027C0.904554 14.8034 0.865089 14.7081 0.794841 14.6379C0.724593 14.5676 0.629315 14.5281 0.529969 14.5281C0.430623 14.5281 0.335345 14.5676 0.265098 14.6379C0.194849 14.7081 0.155384 14.8034 0.155384 14.9027C0.155384 17.2251 -0.19423 24.0301 0.155384 26.1402C0.155384 26.6147 0.0804666 28.3629 0.43008 28.8497C1.45395 30.2607 27.6 29.0246 27.7872 29.0121C29.1857 28.8872 29.0359 28.0881 29.2731 27.3514C29.4979 26.3276 29.5852 25.1914 29.423 21.3456Z" fill="white"/>
</g>
<defs>
<clipPath id="clip0_1322_10541">
<rect width="30" height="30" fill="white" transform="translate(0 0.975342)"/>
</clipPath>
</defs>
</svg>
