<svg width="31" height="31" viewBox="0 0 31 31" fill="none" xmlns="http://www.w3.org/2000/svg">
<g clip-path="url(#clip0_1322_10487)">
<path fill-rule="evenodd" clip-rule="evenodd" d="M30.2225 10.3078C29.9775 8.30298 29.2585 6.38542 28.1248 4.71394C27.5852 4.08786 26.9827 3.51883 26.3268 3.01583C25.228 2.21671 8.79621 2.27914 4.81311 2.90344C4.70984 2.92821 4.6196 2.99077 4.56019 3.07879C4.50077 3.16682 4.47652 3.27392 4.4922 3.37896C4.50787 3.48399 4.56235 3.57933 4.64487 3.64618C4.7274 3.71302 4.83197 3.74651 4.93797 3.74002C5.88692 3.61516 7.28537 3.52776 8.8961 3.47782C8.2448 5.35076 7.82547 7.29646 7.64747 9.27141L5.76206 9.70842C4.32615 9.83328 2.99014 9.48367 1.50428 9.79582C2.0411 7.92214 2.73444 6.09691 3.57699 4.33936C3.59774 4.25011 3.58505 4.15634 3.54134 4.07581C3.49762 3.99528 3.4259 3.93356 3.33975 3.90234C3.02759 3.78997 2.80284 4.01472 2.36582 5.03858C1.35444 7.37351 0.143284 9.70842 0.380521 12.1182C0.730134 15.7642 5.16272 16.5633 7.34781 13.5292L7.64747 13.0797C7.66317 13.5232 7.76794 13.959 7.9555 14.3612C8.14307 14.7633 8.40962 15.1237 8.73931 15.4207C9.06899 15.7178 9.45505 15.9456 9.87454 16.0903C10.294 16.2351 10.7383 16.2941 11.1811 16.2637C12.0559 16.2298 12.9053 15.9601 13.6393 15.4832C14.3734 15.0062 14.965 14.3397 15.3514 13.5542C16.7998 16.9255 21.3198 17.9742 22.7308 13.5542C23.2959 14.311 24.1 14.855 25.0128 15.098C25.9255 15.341 26.8937 15.2688 27.7603 14.8933C28.627 14.5177 29.3415 13.8607 29.7884 13.0285C30.2353 12.1963 30.3882 11.2377 30.2225 10.3078ZM21.0327 3.61516C21.0563 5.52921 21.2064 7.43961 21.4822 9.33383C20.4708 9.33383 16.8373 9.24643 16.0382 9.20897C16.1818 7.29294 16.1818 5.36887 16.0382 3.45284C17.8113 3.46533 19.5343 3.54024 21.0327 3.61516ZM9.7951 3.46533H15.239C14.9092 5.34572 14.7337 7.24999 14.7147 9.15902C11.4932 8.94676 10.5068 8.70952 9.05841 8.99671C9.27067 7.87294 9.7951 3.46533 9.7951 3.46533ZM7.29786 11.5314C6.52372 12.7051 6.04925 13.7415 4.80062 14.2035C4.42796 14.3688 4.02045 14.4406 3.6137 14.4122C3.20695 14.3838 2.81332 14.2563 2.46721 14.0408C2.1211 13.8252 1.83304 13.5282 1.62817 13.1757C1.42332 12.8231 1.30791 12.4258 1.29201 12.0184C1.22997 11.5334 1.22997 11.0425 1.29201 10.5575C1.32503 10.5636 1.35889 10.5636 1.3919 10.5575C2.72792 10.3202 4.3761 10.7947 5.83699 10.7073L7.5351 10.495C7.55411 10.8463 7.48995 11.1971 7.34781 11.5189L7.29786 11.5314ZM13.9904 13.2045C12.9292 15.065 10.2446 15.6143 9.28316 14.0786C8.73952 12.9099 8.56111 11.6044 8.77124 10.3327C11.0187 10.0455 11.4058 10.4076 14.7397 10.52C14.802 11.5813 14.9394 11.0694 13.9904 13.2045ZM19.759 15.0276C19.1284 15.0477 18.5057 14.8836 17.9668 14.5555C17.4279 14.2272 16.9964 13.7491 16.7249 13.1796C16.4378 12.6676 16.3254 11.856 15.8134 11.3691C15.701 11.3066 15.701 11.4565 15.8134 10.5824C17.7238 10.5824 19.1598 10.5824 21.6569 10.4451C21.9442 11.9434 21.145 14.8152 19.7465 15.0276H19.759ZM28.5868 12.2057C28.3939 12.5915 28.1152 12.9279 27.772 13.1892C27.4288 13.4504 27.0303 13.6296 26.607 13.7127C26.1838 13.796 25.7472 13.781 25.3307 13.6691C24.914 13.5572 24.5287 13.3513 24.2042 13.0672C23.4075 12.3891 22.9097 11.4248 22.8182 10.3827L25.7649 10.2578C25.8775 10.2578 25.9855 10.2131 26.0652 10.1335C26.1447 10.0539 26.1894 9.94587 26.1894 9.83328C26.1894 9.72068 26.1447 9.61271 26.0652 9.53309C25.9855 9.45348 25.8775 9.40874 25.7649 9.40874H22.7932C22.6815 7.48842 22.3932 5.58246 21.9317 3.71506C23.1803 3.78997 24.1417 3.86488 24.8409 3.95229C25.203 3.95229 25.5527 4.22698 25.6275 4.11461C26.8055 4.93579 27.6825 6.11974 28.1248 7.48588C28.6493 9.02168 29.236 10.6823 28.5868 12.2057Z" fill="black"/>
<path fill-rule="evenodd" clip-rule="evenodd" d="M4.06396 19.0106C3.99678 18.9681 3.91996 18.9431 3.84059 18.938C3.76121 18.9327 3.68183 18.9477 3.60971 18.9812C3.5376 19.0149 3.47509 19.066 3.42791 19.13C3.38074 19.1941 3.35044 19.269 3.33976 19.3477C3.33976 19.4477 2.99015 22.794 3.0401 23.7055C3.0401 24.2299 3.0401 24.7667 3.50209 25.0415C5.59976 26.1777 8.12198 25.441 10.1947 25.6782C11.1561 25.7657 12.5296 26.0404 13.1039 25.1914C13.5036 24.6045 13.1788 23.6056 13.1664 23.0936C13.1664 21.0834 13.5036 17.9369 11.9178 17.7496C11.9178 17.7496 8.17191 17.8245 7.02319 17.6621C6.11078 17.6502 5.19931 17.7255 4.3012 17.8869C4.21676 17.9176 4.14566 17.9769 4.1001 18.0544C4.05454 18.1317 4.03735 18.2227 4.05148 18.3115C4.15136 19.123 5.54981 18.3115 6.87335 18.6236C7.21048 18.6236 7.54761 18.7235 7.88474 18.761C7.79733 19.3477 7.68495 20.3467 7.65999 21.0709C6.4335 21.0624 5.20885 21.1669 4.00154 21.383V20.9835C4.10143 18.8857 4.13888 19.123 4.06396 19.0106ZM11.9802 24.4421C11.9178 24.617 10.5693 24.2799 10.332 24.2549H8.8212C8.91683 23.6597 8.9752 23.0592 8.996 22.4569C11.5806 22.282 11.5682 22.382 11.7555 22.3445C11.6802 23.0517 11.7568 23.7669 11.9802 24.4421ZM11.718 19.0106C11.8387 19.8164 11.8722 20.6326 11.8179 21.4455C10.892 21.2357 9.94536 21.131 8.996 21.1334C8.92131 20.3569 8.8004 19.5855 8.6339 18.8234C11.3934 19.0106 11.4932 19.2354 11.718 19.0106ZM7.74739 22.4944C7.74739 22.7815 7.8223 23.0811 7.84728 23.3684C7.99711 24.3172 7.99711 24.2424 7.97214 24.3547C6.64659 24.5845 5.28535 24.4946 4.00154 24.0925V22.1447C4.11391 22.1946 7.08561 22.4694 7.74739 22.4944Z" fill="black"/>
<path fill-rule="evenodd" clip-rule="evenodd" d="M18.6103 23.8927C17.524 23.3808 17.3617 26.5148 18.2982 26.5148C18.4108 26.5148 18.5188 26.4701 18.5983 26.3905C18.6779 26.3108 18.7227 26.2028 18.7227 26.0903C19.1722 24.6918 18.7102 23.9427 18.6103 23.8927Z" fill="black"/>
<path fill-rule="evenodd" clip-rule="evenodd" d="M16.5751 27.0018C16.6874 25.7532 16.8123 24.1923 17.0246 22.9438C17.1341 22.1751 17.5207 21.473 18.1117 20.9693C18.7026 20.4657 19.4572 20.1955 20.2336 20.2093C23.1053 20.122 23.1928 23.3433 23.5548 25.9405C23.7172 27.2515 24.9158 27.5512 24.8034 25.9405C24.6911 24.3297 24.4164 23.3308 24.3539 23.0936C24.1222 21.8567 23.5614 20.7051 22.7308 19.7598C21.9433 19.1135 20.9492 18.7728 19.9309 18.8003C18.9126 18.8278 17.9383 19.2217 17.1869 19.9096C15.7511 21.1582 15.5887 22.6191 15.4014 24.4172C15.3016 25.3536 15.4888 25.441 15.4014 26.1527C15.2391 27.4638 16.2504 28.0631 16.5751 27.0018Z" fill="black"/>
<path fill-rule="evenodd" clip-rule="evenodd" d="M29.7105 21.3456C29.6107 19.0606 29.2485 17.6996 29.2235 15.3896C29.2235 15.2771 29.1788 15.1691 29.0992 15.0895C29.0197 15.0099 28.9117 14.9651 28.799 14.9651C28.6864 14.9651 28.5784 15.0099 28.4988 15.0895C28.4193 15.1691 28.3745 15.2771 28.3745 15.3896C28.3745 17.7371 29.261 24.3922 28.4494 27.0019C28.4494 27.1766 28.0499 27.6885 28.1997 27.8259C28.0748 27.8259 9.9449 28.1755 7.49761 28.188C6.249 28.188 2.61551 28.188 1.52922 28.0381C1.19209 22.4942 1.14215 26.0154 1.19209 14.9027C1.19209 14.8034 1.15263 14.7081 1.08238 14.6379C1.01213 14.5676 0.916852 14.5281 0.817505 14.5281C0.718159 14.5281 0.622882 14.5676 0.552634 14.6379C0.482386 14.7081 0.442921 14.8034 0.442921 14.9027C0.442921 17.2251 0.0933068 24.0301 0.442921 26.1402C0.442921 26.6147 0.368003 28.3629 0.717617 28.8497C1.74149 30.2607 27.8875 29.0246 28.0748 29.0121C29.4733 28.8872 29.3234 28.0881 29.5607 27.3514C29.7854 26.3276 29.8728 25.1914 29.7105 21.3456Z" fill="black"/>
</g>
<defs>
<clipPath id="clip0_1322_10487">
<rect width="30" height="30" fill="white" transform="translate(0.287537 0.975342)"/>
</clipPath>
</defs>
</svg>
