<svg width="50" height="50" viewBox="0 0 50 50" fill="none" xmlns="http://www.w3.org/2000/svg">
<g id="Time-Hourglass-Triangle--Streamline-Freehand">
<path id="Vector" d="M22.4451 46.0379C23.9526 43.5972 26.2067 41.7076 28.8732 40.6499C30.7063 39.7679 32.6228 39.071 34.5942 38.5695C36.8859 37.8129 39.2755 37.3924 41.688 37.3214C42.6034 37.1758 42.5201 35.9691 41.4384 35.886C39.0382 35.5726 36.6015 35.6854 34.2405 36.2189C32.8759 36.4829 31.5388 36.8729 30.2463 37.3839C28.9351 37.8989 27.6803 38.547 26.5017 39.3185C23.929 40.7979 21.9011 43.0664 20.7184 45.7883C20.4272 46.8701 22.0082 46.7868 22.4451 46.0379Z" fill="#FFDEDE"/>
<path id="Vector_2" d="M38.4633 29.6867C34.214 27.9833 29.719 26.9721 25.1494 26.691V26.5871C27.0808 22.546 28.7283 18.3753 30.0798 14.1051C31.279 10.8051 31.2346 7.18113 29.955 3.9115C28.9979 1.956 29.5388 1.956 28.6027 1.10306C27.6046 0.290037 26.3271 -0.098443 25.0454 0.0212977C23.5565 0.141319 22.0885 0.448865 20.6767 0.93664C17.939 1.93986 15.3278 3.2594 12.8963 4.86844C10.4451 6.3596 8.12117 8.0504 5.948 9.92363C5.82073 10.0587 5.74986 10.2373 5.74986 10.4229C5.74986 10.6085 5.82073 10.7871 5.948 10.9222C6.08059 11.0543 6.26011 11.1285 6.44727 11.1285C6.63444 11.1285 6.81398 11.0543 6.94656 10.9222C9.11273 9.23936 11.4082 7.72992 13.8116 6.40788C16.1529 4.99533 18.6527 3.86415 21.2592 3.03777C22.5288 2.64527 23.8427 2.4146 25.1702 2.35125C25.8235 2.29319 26.4754 2.47838 27.0008 2.87133C27.1256 2.87133 27.0008 3.14177 27.0008 3.2874C26.9175 3.55192 26.7985 3.80388 26.6473 4.03631C26.3248 4.50985 25.9629 4.95523 25.5654 5.36773C23.4267 6.98638 21.0921 8.32842 18.6171 9.36194C13.4371 11.8583 7.48744 14.3547 7.217 14.4171C6.798 14.509 6.3744 14.5785 5.948 14.6251H5.2199C5.05346 14.6251 5.2199 14.1467 5.38631 13.6266C5.42104 13.5516 5.44052 13.4704 5.44363 13.3878C5.44671 13.3051 5.43336 13.2227 5.40431 13.1453C5.37529 13.0679 5.33117 12.997 5.2745 12.9368C5.21784 12.8765 5.14977 12.8282 5.07427 12.7945C4.99923 12.7597 4.91804 12.7403 4.83542 12.7372C4.75277 12.7341 4.67036 12.7474 4.59294 12.7765C4.51552 12.8055 4.44463 12.8496 4.38442 12.9063C4.32419 12.9629 4.27584 13.031 4.24215 13.1065C3.96327 13.6394 3.81763 14.2318 3.81763 14.8332C3.81763 15.4346 3.96327 16.027 4.24215 16.5599C5.62909 19.486 7.87034 21.9231 10.6703 23.5498C14.3448 25.7679 18.3573 27.37 22.549 28.2929C20.1958 32.4683 18.4515 36.9588 17.369 41.6277C16.7241 44.8523 17.0153 47.6398 18.4299 48.9921C18.9529 49.3892 19.5496 49.6781 20.1853 49.8425C20.821 50.0069 21.4831 50.0429 22.1329 49.949C26.2002 49.3706 30.1477 48.1415 33.8244 46.3085C37.5431 44.6796 41.0388 42.5823 44.2258 40.0675C45.7238 38.7152 46.3063 37.4046 46.1606 36.5725C45.7029 34.0346 42.7904 31.4965 38.4633 29.6867ZM11.5441 22.2183C8.94961 20.7874 6.84161 18.6142 5.49034 15.9774C6.12617 16.051 6.76838 16.051 7.40423 15.9774C12.2104 14.4034 16.92 12.5487 21.5088 10.4229C23.5971 9.56502 25.5463 8.40117 27.2921 6.96956C27.9035 6.34969 28.4285 5.6499 28.8523 4.88925C29.6129 6.96227 29.7363 9.21546 29.206 11.359C27.89 16.3105 26.0198 21.0977 23.6306 25.63C23.485 25.9629 23.3602 26.2542 23.2771 26.5038C19.1559 25.7344 15.191 24.2863 11.5441 22.2183ZM42.2496 38.5696C38.5221 41.3192 34.4519 43.571 30.1421 45.2683C27.6958 46.3233 25.1329 47.0844 22.5073 47.5358C21.681 47.7542 20.8041 47.6731 20.0318 47.3071C19.3661 46.9325 19.3037 45.9131 19.2621 44.8729C19.2773 43.2138 19.5081 41.5633 19.9486 39.9635C20.9248 36.206 22.3204 32.5704 24.1092 29.125L24.4213 28.5633C28.9304 28.8846 33.3571 29.9385 37.5273 31.6838C39.9692 32.4829 42.0815 34.0615 43.5394 36.1773C43.7683 36.3646 43.9346 37.1967 42.2496 38.5696Z" fill="#FFDEDE"/>
</g>
</svg>
