<svg width="32" height="29" viewBox="0 0 32 29" fill="none" xmlns="http://www.w3.org/2000/svg">
<g clip-path="url(#clip0_1049_8410)">
<path d="M16.2329 3.85778C16.3632 3.98562 16.4886 4.10895 16.6102 4.22841C17.0272 4.63853 17.3874 4.99257 17.7626 5.34576C18.1175 5.68059 18.4843 6.01425 18.8388 6.33684C19.0833 6.55926 19.327 6.78235 19.5703 7.00601C19.9605 7.36718 20.3484 7.73089 20.7332 8.09206L21.2419 8.56882C21.263 8.58861 21.2898 8.60121 21.3183 8.60468C21.347 8.60814 21.3761 8.60225 21.4012 8.58805L21.8343 8.34381C21.8625 8.328 21.8841 8.30271 21.8954 8.27236C21.9067 8.24202 21.9067 8.20859 21.8957 8.17818C21.8796 8.13375 21.8667 8.08969 21.8542 8.04659C21.8299 7.94377 21.7892 7.84549 21.7338 7.75559C20.0749 5.35915 18.2761 3.06301 16.3469 0.878948C16.1614 0.664344 15.9498 0.473854 15.7169 0.312152C15.1941 -0.0438301 14.6281 0.0392736 14.204 0.535467C14.1008 0.662525 14.008 0.797682 13.9263 0.939615L13.4263 1.75181C12.4525 3.33231 11.4455 4.96671 10.462 6.5786C10.2953 6.81727 10.1794 7.08769 10.1214 7.37314C10.1123 7.50545 10.1342 7.63812 10.1854 7.76039C10.2367 7.88267 10.3159 7.99117 10.4166 8.07724C10.6046 8.20721 11.0008 8.24134 11.1945 8.09608C11.5337 7.84495 11.8285 7.53862 12.0668 7.18996C12.4496 6.61994 12.8236 6.03165 13.1856 5.46256C13.4949 4.97608 13.8149 4.47278 14.1383 3.98443C14.2001 3.89132 14.2546 3.79107 14.3071 3.69436C14.4132 3.45621 14.5746 3.24677 14.7776 3.08364C14.7632 3.24128 14.7474 3.39701 14.732 3.55106C14.6728 4.04556 14.6407 4.54284 14.6355 5.04086L14.6387 5.44981C14.6631 8.58022 14.6885 11.8174 14.7764 15.0002C14.8288 16.8976 14.9287 18.8243 15.0254 20.6879C15.0684 21.5176 15.1102 22.3473 15.1506 23.1771C15.1528 23.2245 15.154 23.2722 15.1552 23.3199C15.1551 23.4605 15.1666 23.601 15.1896 23.7398C15.2664 24.1389 15.4751 24.3603 15.7695 24.3603C15.8017 24.3603 15.8339 24.3577 15.8656 24.3528C16.073 24.3213 16.4125 24.1446 16.4838 23.9076C16.6385 23.4226 16.7296 22.9195 16.755 22.411C16.7846 21.5171 16.7806 20.5605 16.7417 19.4009C16.6354 16.1968 16.5255 12.9926 16.4117 9.78855C16.3522 8.08464 16.293 6.38081 16.2341 4.67699C16.2273 4.47745 16.2287 4.27405 16.2306 4.01704C16.2322 3.96556 16.2326 3.91272 16.2329 3.85778Z" fill="black"/>
<path d="M30.8154 14.9921C30.6079 14.9959 30.4095 15.0783 30.2603 15.2227C30.1109 15.3671 30.0218 15.5627 30.0107 15.7704C29.959 16.6547 29.8289 18.8479 29.7402 20.1072C29.6605 21.2387 29.6107 22.3906 29.5627 23.5046C29.535 24.1452 29.5074 24.7856 29.4742 25.4259C29.4596 25.6323 29.434 25.8377 29.3975 26.0413C29.3865 26.1103 29.3753 26.1802 29.3647 26.2507C29.3079 26.26 29.2533 26.2693 29.2007 26.2782C29.0538 26.3065 28.9054 26.3266 28.7562 26.3383C27.952 26.3829 27.1348 26.4346 26.3445 26.4845C24.4619 26.6042 22.5154 26.7276 20.6007 26.7624C17.3557 26.8212 14.0546 26.815 10.8621 26.8088C9.84702 26.8068 8.832 26.8055 7.81703 26.8049H7.79447C6.25874 26.8049 4.73042 26.7733 3.43794 26.7423C3.11436 26.7346 2.79303 26.7004 2.42071 26.6608C2.27134 26.6448 2.11532 26.6281 1.94908 26.6122C1.91774 26.1482 1.89505 25.1888 1.8669 24.0005C1.79493 20.9586 1.69627 16.7924 1.34174 16.021C1.33347 16.0029 1.32137 15.9869 1.30625 15.974C1.29113 15.9611 1.27339 15.9517 1.25425 15.9465C1.15615 15.9099 1.05132 15.8951 0.946972 15.903C0.842627 15.911 0.741216 15.9413 0.649692 15.9921C0.584457 16.0379 0.529943 16.0972 0.489908 16.1661C0.449874 16.235 0.425283 16.3119 0.417862 16.3912C0.360766 16.7903 0.0641407 21.878 0.0483398 24.8585C0.0703813 25.2798 0.105839 25.7497 0.140096 26.2034C0.165457 26.5379 0.190407 26.8687 0.209793 27.1747C0.259187 27.9603 0.704936 28.4507 1.49857 28.5927C1.99684 28.6724 2.49977 28.7194 3.00415 28.7337C5.33019 28.8434 7.67801 28.876 10.01 28.876C11.7401 28.876 13.4623 28.8577 15.1584 28.8402C16.1049 28.8303 17.0515 28.8214 17.998 28.8136C20.1144 28.7983 22.3435 28.7524 24.8129 28.6732C25.9335 28.6373 27.0714 28.5766 28.1722 28.518C28.8657 28.481 29.5592 28.4441 30.2529 28.4128C31.1244 28.3728 31.5807 28.0307 31.7776 27.2669C31.8726 26.8356 31.9231 26.3955 31.9279 25.9537L31.937 25.7562C32.0802 22.893 31.791 17.8151 31.6598 15.7648C31.6453 15.5519 31.5494 15.3529 31.3921 15.2091C31.2349 15.0652 31.0284 14.9875 30.8154 14.9921Z" fill="black"/>
</g>
<defs>
<clipPath id="clip0_1049_8410">
<rect width="32" height="29" fill="white"/>
</clipPath>
</defs>
</svg>
