<svg width="33" height="31" viewBox="0 0 33 31" fill="none" xmlns="http://www.w3.org/2000/svg">
<g id="Group 24">
<path id="Vector" d="M20.4922 30.4112C17.4133 30.4112 14.3342 30.3962 11.2554 30.416C8.78006 30.4318 6.30584 30.5034 3.8308 30.5205C3.13447 30.5205 2.4391 30.4683 1.75054 30.3649C0.267318 30.1523 -0.32282 29.2759 0.17112 27.8618C0.508885 26.9147 0.950284 26.0075 1.48728 25.1569C3.76247 21.5136 7.07291 19.1478 11.0403 17.6237C13.1942 16.779 15.4834 16.3297 17.7975 16.2971C21.2573 16.2671 24.4423 17.1431 27.1623 19.42C29.019 20.9532 30.5366 22.854 31.6187 25.0022C31.9199 25.6026 32.2593 26.189 32.5007 26.8128C32.7323 27.3889 32.8942 27.9904 32.9831 28.6046C33.1019 29.5248 32.588 30.1349 31.6672 30.2506C31.0247 30.3377 30.3775 30.3861 29.729 30.3956C26.6502 30.4097 23.5711 30.4022 20.4922 30.4022V30.4112ZM30.6075 28.1653C30.6194 28.0674 30.6184 27.9684 30.6045 27.8708C29.6238 25.3301 28.2687 23.0337 26.1751 21.2349C24.5599 19.8473 22.7482 18.8486 20.596 18.5778C18.1161 18.2659 15.6587 18.3312 13.2348 19.0126C8.64898 20.3015 4.99012 22.8389 2.48456 26.9294C2.19947 27.3946 1.97318 27.8956 1.71102 28.3951C1.79069 28.4385 1.87383 28.4754 1.95955 28.5054C2.81748 28.6935 3.67301 28.5829 4.53825 28.5346C6.33638 28.434 8.13944 28.3909 9.94066 28.3816C15.8336 28.3513 21.7265 28.3535 27.6195 28.3255C28.6003 28.3203 29.5796 28.2227 30.6079 28.1653H30.6075Z" fill="black"/>
<path id="Vector_2" d="M17.132 0.538236C19.5043 0.480591 21.4862 1.61017 22.991 3.66307C23.3457 4.14709 23.7736 4.59646 24.0327 5.12733C24.6116 6.31388 25.0912 7.53282 24.7835 8.91769C24.4946 10.2181 24.1179 11.4704 23.2786 12.5363C21.7859 14.4297 19.8829 15.6004 17.4507 15.8914C15.2615 16.1535 13.1798 15.83 11.2363 14.8023C9.2345 13.744 8.09557 12.0314 7.68208 9.83091C7.05973 6.51838 8.79684 3.54751 11.5377 1.96797C13.1963 1.01185 14.9874 0.529961 17.132 0.538236ZM22.3299 7.26818C22.4386 6.43311 22.1036 5.7662 21.5845 5.15848C21.382 4.92131 21.1989 4.66687 20.9881 4.43756C20.2249 3.60753 19.3548 2.95087 18.1973 2.7771C16.5745 2.50918 14.9086 2.72704 13.4101 3.40318C11.537 4.26252 10.1397 5.57263 9.81777 7.75107C9.44225 10.2923 10.7568 12.5666 13.0947 13.3173C14.4957 13.7542 15.975 13.8825 17.4305 13.6935C19.4202 13.4663 21.7623 11.4259 22.0786 9.33159C22.182 8.64659 22.2472 7.95573 22.3299 7.2675V7.26818Z" fill="black"/>
</g>
</svg>
