<svg width="88" height="40" viewBox="0 0 88 40" fill="none" xmlns="http://www.w3.org/2000/svg">
<path d="M21.1691 26.7681C20.976 27.3018 20.7829 27.8354 20.7829 27.8354C21.476 28.0862 22.5554 27.2698 24.3215 26.7019C25.594 25.3518 26.4782 25.0739 26.4782 25.0739C25.785 24.823 23.133 25.6738 21.1691 26.7681Z" fill="white"/>
<path d="M30.3094 10.6852C31.2167 10.408 29.5961 10.4271 25.4538 10.7448C21.3115 11.0626 9.52653 14.6592 9.8525 15.9884C9.8525 15.9884 12.3807 15.6922 15.2879 14.3275C18.7234 13.754 21.4368 12.9248 21.4368 12.9248C22.1522 13.178 30.1156 11.2207 30.3094 10.6852Z" fill="white"/>
<path d="M16.5423 35.4273C17.0659 36.2237 23.0556 35.3565 23.7735 35.6163C23.9677 35.0796 25.4034 35.5992 27.5504 36.3761C29.5098 37.6922 31.1331 37.6726 35.111 37.8983C37.4588 38.141 39.8002 38.3813 41.236 38.9009C41.9539 39.1607 44.3016 39.4033 46.1191 38.8471C47.7491 38.83 50.2845 38.5337 53.5427 38.5045C63.3142 38.4045 70.991 35.1187 75.6591 28.9288C77.7347 25.4369 77.7346 25.4369 83.1415 26.1796C85.2952 26.959 87.6365 27.1994 87.8307 26.6627C87.8307 26.6627 87.6954 24.7928 87.5583 22.928C85.9159 16.2697 78.5877 5.13163 74.287 3.5753C72.1334 2.79592 65.1032 2.07267 57.8738 1.87866C54.6138 1.91284 51.3604 1.94943 50.6425 1.68964C49.9246 1.42985 49.2067 1.17 49.0125 1.70667C48.1004 1.98356 45.7592 1.74333 43.4113 1.50063C37.4806 -0.0386137 34.0332 0.534692 29.4745 1.9141C27.6503 2.46787 25.6405 3.55575 24.9226 3.29595C24.2047 3.03616 24.2045 3.03606 24.0103 3.57273C24.0103 3.57273 23.0984 3.84974 22.3805 3.58994C20.9447 3.07036 1.6218 9.41381 1.03916 11.0238C0.844941 11.5605 0.650724 12.0972 0.650724 12.0972C1.36862 12.357 1.69809 13.6902 2.73873 15.2807C2.87398 17.1505 3.92299 18.7384 4.44667 19.5349C4.97035 20.3313 5.49392 21.1277 4.77603 20.8679C4.05814 20.6081 8.63114 25.8992 13.5335 32.5233C15.3073 34.3734 16.5423 35.4273 16.5423 35.4273ZM39.1444 35.7274C38.4265 35.4677 36.0852 35.2274 34.261 35.7812C31.9131 35.5384 27.4182 34.5187 27.6124 33.9821C28.0008 32.9087 41.336 27.4275 42.7717 27.947C42.7717 27.947 42.9068 29.8169 42.1318 31.9586C40.9683 35.1736 39.8623 35.9872 39.1444 35.7274ZM50.6216 17.4517C50.039 19.0618 48.7405 20.4071 47.8284 20.684C46.7221 21.4975 47.6931 18.8141 50.0981 16.6553L51.5927 14.7683L50.6216 17.4517ZM47.951 15.8783C47.951 15.8783 48.1452 15.3416 48.7279 13.7316C49.3105 12.1215 50.6094 10.7764 50.6094 10.7764C50.8036 10.2397 50.8035 10.2397 51.5214 10.4995C51.5214 10.4995 51.133 11.5728 50.5522 13.1778C49.4391 13.9889 48.8564 15.599 47.951 15.8783ZM52.6974 13.9598L51.7851 14.2367L51.9794 13.7C52.1736 13.1633 52.1738 13.1634 52.8917 13.4232C52.8917 13.4232 52.8917 13.4232 52.6974 13.9598ZM54.5358 20.0765L52.7115 20.6301L54.0122 19.28C54.4007 18.2066 54.5947 17.6699 54.071 16.8734C54.071 16.8734 53.5473 16.077 54.2652 16.3367C54.2652 16.3367 54.9832 16.5965 55.5069 17.393C55.8345 18.7312 55.8345 18.7312 54.5358 20.0765ZM69.0869 31.4062C67.7863 32.7564 63.952 34.398 61.2157 35.2286C57.5673 36.3362 54.8396 37.1643 54.1217 36.9045C51.9681 36.1251 54.6264 31.0232 59.244 27.2373C60.3504 26.4237 62.1747 25.8699 67.0561 25.8212C70.3094 25.7846 73.3751 26.2871 73.3751 26.2871C74.093 26.5469 71.2977 29.7841 69.0869 31.4062ZM68.3022 4.44995C74.6212 4.91583 78.145 8.61886 82.9902 17.6445C83.3197 18.9776 85.5448 24.0259 85.3506 24.5626C85.3506 24.5626 83.7207 24.5797 83.0028 24.3199C80.6549 24.0772 75.0554 23.8661 72.52 24.1625C71.8021 23.9027 69.2668 24.1991 66.9189 23.9564C64.571 23.7137 62.0358 24.0101 62.0358 24.0101C62.0358 24.0101 50.918 5.43675 50.3943 4.64028C50.5903 4.09859 62.897 3.70216 68.3022 4.44995ZM46.7684 12.4155L48.4558 9.99705L47.4865 12.6754C46.9039 14.2854 45.6051 15.6306 44.693 15.9075C44.8854 15.3758 45.4679 13.7658 46.7684 12.4155ZM46.224 4.94628C48.3776 5.72566 48.1835 6.26242 46.3021 9.21768C43.8381 13.783 42.9258 14.0598 45.1956 10.0312C47.077 7.07592 47.2713 6.53926 46.0297 5.48299C45.5128 4.68895 45.5128 4.68892 46.224 4.94628ZM44.3618 14.5794L43.4495 14.8563L42.9259 14.0598C43.1201 13.5231 43.1201 13.5231 43.1201 13.5231C43.838 13.7829 44.556 14.0427 44.3618 14.5794ZM44.3493 7.90397C44.3493 7.90397 44.155 8.44065 43.9608 8.97733C42.6603 10.3276 42.466 10.8642 41.9423 10.0677C41.4186 9.27125 43.6314 7.64418 44.3493 7.90397ZM39.0584 2.35316C40.4941 2.87275 41.212 3.13257 41.0178 3.66924L40.2409 5.81597C40.3762 7.68579 39.1346 6.62951 38.2815 4.49989C38.6699 3.42653 38.1465 2.63017 37.0401 3.44373C37.0401 3.44373 36.1278 3.72054 36.322 3.18387C35.7984 2.38739 36.7105 2.11046 39.0584 2.35316ZM33.2648 2.67875C34.1769 2.40186 34.7006 3.1984 34.5064 3.73508C33.9238 5.34511 33.2058 5.08526 32.8764 3.75211C32.8764 3.75211 33.0706 3.21542 33.2648 2.67875ZM4.76381 14.1926C4.62857 12.3228 4.82277 11.7861 5.92727 10.9776C8.33231 8.81881 15.6207 6.60632 20.6982 6.01594C30.1402 4.58283 30.1401 4.5828 32.4223 7.22957C36.6639 11.1924 39.2774 15.1673 41.7034 19.6813L43.9286 24.7297L41.3862 25.0235C40.2799 25.8371 39.3681 26.1141 39.3681 26.1141C35.7263 27.224 27.1393 30.7817 25.8388 32.132L21.2866 33.5137C17.8391 34.087 17.3153 33.2905 9.60032 23.2208C5.23011 17.3905 5.23034 17.3906 4.76381 14.1926Z" fill="white"/>
<path d="M73.6077 11.9708C73.4205 12.4881 75.8333 12.7762 76.2077 11.7414C76.3949 11.2241 72.88 9.36697 69.5381 9.32782C66.2031 9.29118 65.2738 9.54003 64.9011 10.5699C63.972 10.8188 64.7139 11.0873 68.2361 10.6066C71.7566 10.1307 73.2403 10.6676 73.6077 11.9708Z" fill="white"/>
<path d="M72.5935 14.916C72.2159 13.5805 71.4548 13.3051 69.7405 13.2841C68.7875 13.5387 67.8343 13.7932 67.6425 14.3232C67.6425 14.3232 68.4039 14.5988 69.1651 14.8742L72.2099 15.9761C73.7324 16.5271 73.9242 15.997 72.5935 14.916Z" fill="white"/>
<path d="M68.4672 17.7217C68.2617 18.2894 68.0563 18.8571 68.0563 18.8571C69.3043 19.3088 71.5813 18.8487 71.7867 18.281C71.9922 17.7133 68.6726 17.154 68.4672 17.7217Z" fill="white"/>
<path d="M23.7058 22.0977C22.9676 21.8306 17.5715 22.9222 17.1811 24.001C16.9859 24.5404 16.9858 24.5403 21.4504 23.7159C23.5105 22.6371 24.4439 22.3648 23.7058 22.0977Z" fill="white"/>
<path d="M56.806 23.9926C56.806 23.9926 56.806 23.9925 56.6317 24.4742C56.4574 24.956 56.283 25.4377 56.4573 24.956C56.4573 24.956 56.6317 24.4743 56.806 23.9926Z" fill="white"/>
</svg>
