<svg width="33" height="33" viewBox="0 0 33 33" fill="none" xmlns="http://www.w3.org/2000/svg">
<path d="M7.40052 21.0687C9.67439 21.4621 11.9421 21.2848 14.3339 20.5265C15.7288 20.0948 17.0591 19.475 18.2885 18.6843C18.5197 18.9426 18.7487 19.1996 18.9753 19.4553C19.5317 20.0821 20.0584 20.6742 20.6092 21.2682C23.3006 24.1718 26.2205 26.9328 29.0442 29.6028C29.5575 30.0884 30.0705 30.5742 30.5832 31.0602C30.9852 31.4289 31.4267 31.7514 31.8996 32.0217C32.0163 32.0842 32.1474 32.115 32.2796 32.1112C32.4179 32.1133 32.555 32.0843 32.6809 32.0265C32.7491 31.9921 32.8096 31.9442 32.859 31.8858C32.9084 31.8274 32.9457 31.7596 32.9686 31.6864C32.9956 31.5994 33.0054 31.5078 32.9971 31.4168C32.989 31.3259 32.9631 31.2376 32.9209 31.1567C32.6975 30.6869 32.4244 30.2426 32.1066 29.8314C31.5943 29.2205 31.0493 28.638 30.474 28.0865C29.1341 26.783 27.7662 25.4637 26.4433 24.1878C25.526 23.3033 24.6093 22.4181 23.6934 21.5321C22.7479 20.6166 21.8272 19.7172 20.8525 18.7636C20.4555 18.3755 20.056 17.9853 19.654 17.5928L19.7061 17.5354C19.7819 17.4521 19.8406 17.3874 19.9032 17.3264C21.4267 15.8431 22.262 13.9875 22.3859 11.8114C22.6012 8.03262 21.3343 4.82479 18.621 2.27589C17.2917 0.997382 15.5672 0.215091 13.7342 0.0591605C11.9516 -0.113256 10.1528 0.092205 8.45405 0.662292C5.84972 1.55282 3.63898 3.26125 1.88354 5.74028C0.371024 7.87612 -0.235218 10.246 0.0816706 12.7841C0.288361 14.4402 0.954988 16.0096 2.2429 17.8731C3.45997 19.6333 5.14675 20.6785 7.40052 21.0687ZM10.0937 2.61131C10.6996 2.55959 11.326 2.50625 11.9412 2.48578C12.0454 2.4825 12.1487 2.48081 12.2509 2.48072C15.055 2.48072 17.2097 3.75973 18.6587 6.2857C19.9556 8.54599 20.3224 10.7121 19.7805 12.9077C19.5947 13.731 19.2238 14.5007 18.6962 15.1573C18.0413 15.9579 17.2455 16.6302 16.3483 17.1407C14.3 18.3099 11.9961 18.9525 9.64141 19.0114C9.41559 18.9863 9.18922 18.9641 8.96285 18.9418C8.46397 18.893 7.94799 18.8422 7.44816 18.7602C6.20575 18.5719 5.07681 17.9273 4.27927 16.951C3.30728 15.8111 2.60555 14.464 2.22702 13.0114C1.79291 11.3278 1.95112 9.54501 2.67488 7.96524C3.48291 6.16086 4.55612 4.82956 5.956 3.89537C7.07617 3.14799 8.09741 2.76361 9.16954 2.6861C9.47774 2.66386 9.7854 2.63751 10.0932 2.61131H10.0937Z" fill="#636364"/>
</svg>
