<svg width="8" height="12" viewBox="0 0 8 12" fill="none" xmlns="http://www.w3.org/2000/svg">
<path d="M0.798406 4.41582C0.929791 4.34424 1.05344 4.25927 1.16738 4.1623C1.19411 4.14114 1.22092 4.11991 1.24773 4.09916C1.63698 3.79726 2.02599 3.49507 2.41474 3.19257C2.87484 2.83497 3.33509 2.47763 3.79551 2.12058C3.83607 2.09142 3.87899 2.06569 3.92383 2.04367C3.93416 2.03826 3.94482 2.0326 3.95598 2.02653C3.94641 2.22217 3.9367 2.41472 3.92686 2.60418C3.90284 3.07359 3.88013 3.51685 3.86291 3.96642C3.82642 4.92214 3.791 6.31832 3.75632 7.66859C3.72696 8.82781 3.69892 9.92275 3.67137 10.7269C3.66735 10.8848 3.6785 11.0426 3.70466 11.1983C3.74254 11.4361 3.86479 11.5566 4.06814 11.5566C4.29534 11.5566 4.43301 11.4217 4.45572 11.1775C4.46195 11.1098 4.4686 11.0421 4.47524 10.9745C4.5023 10.6977 4.53042 10.4114 4.53402 10.1288C4.54862 8.99984 4.5601 7.40187 4.57117 5.85654C4.57937 4.65943 4.58756 3.5289 4.59691 2.66247C4.59925 2.59927 4.60561 2.53629 4.61594 2.47389C4.6178 2.46023 4.61976 2.44613 4.62184 2.43159L4.67923 2.48479C4.74647 2.5467 4.80222 2.59794 4.8556 2.6514C5.61807 3.40008 6.49214 4.02585 7.44659 4.50635L7.47579 4.52168C7.55849 4.56921 7.64657 4.60667 7.73817 4.63327C7.79251 4.64223 7.8482 4.63847 7.90084 4.62228C7.92208 4.61769 7.94324 4.61294 7.96382 4.61007L8.00695 4.60424L7.99874 4.56153C7.99442 4.53658 7.99136 4.51143 7.98956 4.48618C7.99106 4.42174 7.97246 4.35844 7.93634 4.30506C7.88052 4.24593 7.81866 4.1928 7.75178 4.14655C7.70131 4.1108 7.65329 4.07171 7.60804 4.02955C7.25601 3.68518 6.90473 3.34026 6.55418 2.99479C6.10158 2.54935 5.64812 2.10473 5.19382 1.66093C5.00372 1.46329 4.7944 1.28508 4.56895 1.12895C4.22319 0.906173 3.93572 0.940363 3.60733 1.24218C3.29199 1.53227 2.9504 1.83606 2.56307 2.17092C2.28117 2.41466 1.99821 2.65725 1.71419 2.8987C1.40655 3.16107 1.09953 3.42447 0.793151 3.68887C0.670027 3.78986 0.562308 3.90828 0.473384 4.04038C0.424188 4.11958 0.417546 4.29046 0.478959 4.35671C0.52257 4.39331 0.574914 4.41799 0.630895 4.42835C0.686876 4.43871 0.744586 4.43439 0.798406 4.41582Z" fill="black"/>
</svg>
