<svg width="140" height="112" viewBox="0 0 140 112" fill="none" xmlns="http://www.w3.org/2000/svg">
<path d="M114.377 39.8314C114.762 40.45 114.619 40.9031 116.339 40.9453C118.063 40.9891 121.262 40.0077 121.689 38.6485C121.974 37.7424 120.534 36.7925 118.957 36.2972C117.375 35.8003 114.276 38.3065 114.377 39.8314ZM119.585 37.9876C120.112 38.1532 119.3 38.8937 117.961 39.4686C116.095 39.8778 116.095 39.8779 116.237 39.4248C116.379 38.9717 118.53 37.6563 119.585 37.9876Z" fill="white"/>
<path d="M116.115 45.3456C115.303 46.0861 115.12 48.5128 116.133 50.8219C116.619 52.9654 116.619 52.9654 117.953 52.389C119.292 51.8141 120.145 49.1 119.658 46.9607C118.65 44.6532 117.595 44.3219 116.115 45.3456ZM117.893 48.8906C117.608 49.7967 117.466 50.2497 117.223 49.178C117.123 47.6532 117.548 46.2982 118.461 47.0825C118.32 47.5314 118.563 48.6031 117.893 48.8906Z" fill="white"/>
<path d="M114.643 33.449C115.556 34.2333 118.33 34.6068 119.142 33.8663C119.284 33.4132 119.711 32.054 119.324 31.4396C118.938 30.8251 117.362 30.3256 116.165 30.4475C114.299 30.8567 113.209 32.5006 114.643 33.449ZM117.321 32.3035C117.321 32.3035 117.848 32.469 117.705 32.9221L117.036 33.2096C116.509 33.044 116.651 32.5908 116.651 32.5908C116.793 32.1378 116.793 32.1379 117.321 32.3035Z" fill="white"/>
<path d="M123.831 50.2578C124.601 51.4951 126.32 51.5373 127.416 49.8907C128.371 48.6972 127.541 43.9614 126.105 43.0173C125.335 41.7799 125.335 41.7799 124.523 42.5204C122.52 43.3801 122.153 48.2376 123.831 50.2578ZM124.725 45.5657C125.152 44.2066 125.152 44.2066 126.064 44.9909C126.449 45.6096 126.692 46.6813 126.409 47.5832C125.982 48.9424 125.699 49.8443 125.171 49.6787C124.644 49.513 123.771 46.7593 124.725 45.5657Z" fill="white"/>
<path d="M95.4958 61.2451C94.9266 63.0573 94.6433 63.9592 95.1706 64.1248C95.6979 64.2905 95.9824 63.3843 96.5503 61.5763C97.0178 58.2435 96.4906 58.0779 95.4958 61.2451Z" fill="white"/>
<path d="M89.4398 34.4832L91.5441 35.1441C92.5988 35.4754 93.2683 35.1879 94.6026 34.6114C96.2264 33.1304 95.9823 32.0629 94.5427 31.113C92.5793 30.0032 88.2848 32.6271 89.4398 34.4832ZM93.1665 33.6673C91.8272 34.2422 91.3 34.0765 91.4423 33.6235C91.7269 32.7174 92.9238 32.5956 93.4511 32.7612C94.5057 33.0924 93.9784 32.9268 93.1665 33.6673Z" fill="white"/>
<path d="M93.4332 27.285C94.7305 28.6879 95.2531 28.8521 96.065 28.1116C97.0192 26.918 97.3023 26.0161 96.5323 24.7787C95.9046 23.0883 95.9046 23.0883 94.5703 23.6648C93.2311 24.2396 92.5209 26.5007 93.4332 27.285Z" fill="white"/>
<path d="M90.407 38.7643C87.7754 37.9378 86.538 40.0332 87.2612 43.2469C87.5039 44.3186 87.7465 45.3904 88.2739 45.556C89.3285 45.8873 91.4746 44.5703 91.9002 43.2154C92.3284 41.852 90.9343 38.93 90.407 38.7643ZM88.7425 42.2189C88.4998 41.1472 88.7844 40.2411 89.3117 40.4067C89.839 40.5723 90.3664 40.7379 90.0818 41.6441C90.3245 42.7158 88.9852 43.2907 88.7425 42.2189Z" fill="white"/>
<path d="M100.196 33.3865C102.928 35.7378 105.464 35.0411 104.451 32.732C104.351 31.2072 102.915 30.2631 101.05 30.6681C99.3292 30.6301 98.7614 32.4381 100.196 33.3865ZM102.346 32.0753C102.873 32.2409 103.4 32.4065 103.258 32.8595C102.973 33.7656 101.392 33.2688 101.007 32.6502C100.622 32.0315 101.291 31.7441 102.346 32.0753Z" fill="white"/>
<path d="M101.086 41.6206C101.755 41.3331 101.37 40.7144 101.411 38.7408C100.539 35.9828 100.539 35.9829 98.1513 36.2238C96.9544 36.3456 97.0549 37.8705 97.5417 40.0097C98.1645 41.6986 99.7464 42.1954 101.086 41.6206ZM99.3015 38.0783C99.3015 38.0783 99.8287 38.2439 99.5441 39.15C99.4018 39.6031 99.2595 40.0562 99.2595 40.0562C99.2595 40.0562 98.7323 39.8906 98.8746 39.4375C99.1592 38.5314 99.3015 38.0783 99.3015 38.0783Z" fill="white"/>
<path d="M94.1306 19.5492C94.9425 18.8087 95.0848 18.3556 94.8407 17.2881C94.598 16.2164 94.3553 15.1446 94.4962 14.6958C94.3958 13.171 92.6716 13.1272 91.7224 14.3223C90.2408 15.3503 90.6259 15.9689 90.5853 17.9425C91.4521 20.6989 92.3644 21.4832 94.1306 19.5492ZM92.8737 16.1725C93.401 16.3381 93.9283 16.5038 93.6437 17.4099C93.5014 17.863 92.6896 18.6035 92.6896 18.6035C92.6896 18.6035 92.4468 17.5317 92.5891 17.0786C92.3463 16.0069 92.3464 16.0069 92.8737 16.1725Z" fill="white"/>
<path d="M49.289 46.2344C48.7617 46.0687 48.6195 46.5218 48.4772 46.9749C47.6653 47.7154 48.0502 48.334 48.5775 48.4996C49.1048 48.6653 49.7746 48.3779 49.5318 47.3062C49.6741 46.8531 49.8163 46.4 49.289 46.2344Z" fill="white"/>
<path d="M4.26515 56.9528C1.10622 55.9606 0.82169 56.8668 0.211931 60.6526C-0.0128203 65.0572 0.569474 68.7197 2.25181 70.7413C3.16413 71.5256 4.31412 73.3801 5.61278 74.7789C9.35886 79.4351 11.1785 81.0021 21.3896 87.1912C24.649 89.7081 30.3023 91.9815 38.5884 95.0772C44.764 97.5146 52.5263 100.45 52.9064 101.068C53.8187 101.852 70.4301 106.074 80.8598 107.861C81.9144 108.192 85.2157 108.731 88.902 109.889C95.8894 111.586 99.865 111.839 107.035 111.109C113.683 110.216 117.412 109.396 123.472 104.838C129.391 100.733 131.015 99.2518 131.198 96.8252L131.767 95.0129L124.394 92.6973L125.348 91.5038C125.491 91.0507 126.303 90.3102 126.303 90.3102C128.169 89.9009 128.452 88.9991 128.352 87.4743C128.535 85.0476 129.489 83.854 131.883 83.6103C133.08 83.4885 133.749 83.2011 133.892 82.748C133.892 82.748 132.594 81.3451 131.301 79.9479C127.656 76.8122 127.27 76.1978 128.366 74.5511L129.077 72.2901C128.834 71.2183 128.976 70.7653 130.984 69.9072C134.995 68.1853 137.43 65.968 138.567 62.3478C139.419 59.6336 138.974 55.5166 138.209 54.2808C137.824 53.6621 137.439 53.0433 137.581 52.5903C137.096 50.4468 135.559 47.9778 132.24 41.9624C130.705 39.4893 129.691 37.1844 129.833 36.7313C129.833 36.7313 128.151 34.7097 126.472 32.6939C124.795 30.6738 122.584 28.4906 121.814 27.2533C121.429 26.6346 120.517 25.8503 120.517 25.8503C120.517 25.8503 119.219 24.4474 117.785 23.499C115.965 21.932 114.139 20.3676 113.084 20.0364C112.557 19.8707 111.122 18.9223 110.737 18.3036C109.683 17.9724 108.775 17.1897 108.248 17.0241C107.193 16.6928 105.231 15.5788 103.265 14.4633C86.7355 6.28988 74.6222 2.48525 63.2334 1.89006C59.7899 1.804 57.5382 1.59452 56.4885 1.26482C55.5762 0.480523 55.4341 0.933665 55.2918 1.38673C55.1495 1.83978 54.4798 2.12716 53.9525 1.96154C53.2829 2.24898 52.7555 2.08336 52.7555 2.08336C52.0859 2.3708 50.889 2.4926 50.2243 2.78159C46.1112 2.98297 41.7149 4.08631 39.0364 5.23607C37.6972 5.81095 36.3641 6.38305 35.8368 6.21743C34.7822 5.88618 29.4317 8.18307 27.8128 9.66562C26.8586 10.8592 26.3313 10.6936 25.9463 10.0749C25.4189 9.90927 25.419 9.90929 25.419 9.90929C25.2767 10.3624 25.1344 10.8153 25.6617 10.981C26.189 11.1466 26.0466 11.5997 23.8968 12.9108C23.0849 13.6513 20.7979 15.4171 19.0331 17.3469C17.4093 18.8279 15.6493 20.7592 14.9797 21.0467C14.8374 21.4997 13.6001 23.5952 12.5035 25.2418C10.8797 26.7228 9.78432 28.3652 9.78432 28.3652C9.11472 28.6526 10.7516 32.6463 11.5217 33.8837C12.9613 34.8336 13.3414 35.4508 12.9158 36.8057C12.4889 38.1649 11.8193 38.4523 10.7647 38.1211C9.04048 38.0773 4.3595 40.0867 4.0749 40.9928C3.9326 41.4459 3.64807 42.352 4.70269 42.6833C5.61501 43.4676 5.47254 43.9205 5.33024 44.3736C4.51833 45.1141 3.44108 52.2328 4.2111 53.4701C4.59611 54.0888 5.50856 54.8732 6.03587 55.0388C8.66295 55.8453 7.03906 57.3263 4.26515 56.9528ZM136.573 55.7486C136.715 55.2955 136.715 55.2955 136.715 55.2955C136.715 55.2955 137.243 55.4612 137.101 55.9143C136.958 56.3673 136.816 56.8203 136.288 56.6547C136.288 56.6547 136.431 56.2016 136.573 55.7486ZM106.224 17.8817C107.279 18.2129 109.058 21.7536 109.118 25.252C109.603 27.3955 108.793 28.1318 108.833 26.1582C108.448 25.5395 107.439 23.2361 106.811 21.5457C105.799 19.2366 105.175 17.552 105.175 17.552C105.175 17.552 105.697 17.7161 106.224 17.8817ZM79.3064 5.94751C80.361 6.27875 81.6127 9.65375 83.5927 16.244C83.7948 19.2894 84.133 21.8844 84.133 21.8844C84.133 21.8844 83.363 20.647 83.4036 18.6734C82.7759 16.983 81.909 14.2266 81.2813 12.5362C78.7384 7.75545 78.2518 5.61627 79.3064 5.94751ZM61.5315 12.7899C62.0183 14.9291 61.7337 15.8353 60.7197 13.5304C59.7056 11.2255 56.6292 6.28191 55.3368 4.88048C55.0941 3.80874 54.709 3.19 54.709 3.19C55.9059 3.06818 60.5175 10.485 61.5315 12.7899ZM12.2666 29.6332C13.1191 26.9191 22.51 15.4478 23.8479 14.8771C24.5175 14.5897 25.9989 13.5618 27.4742 12.5365C31.3851 9.28975 34.0624 8.14424 39.9403 6.01303C45.6759 4.33488 51.2692 3.1098 52.1815 3.8941C54.5285 5.62678 57.22 9.95176 59.6318 15.1844C60.6459 17.4893 62.8684 25.1513 62.5838 26.0574C62.5838 26.0574 62.4414 26.5104 62.8264 27.1291C64.1238 28.5321 65.3159 28.4087 65.2204 26.8855C65.4857 20.5073 65.243 19.4356 63.3635 14.3701C62.4917 11.6122 60.7138 8.06724 59.5574 6.21544L57.6361 3.12781L62.2764 3.09203C70.2181 3.59538 76.2968 4.51377 76.5409 5.58128C76.5409 5.58128 77.4127 8.33922 78.4205 10.6468C79.4332 12.9559 80.685 16.3309 80.929 17.3984C81.8008 20.1564 82.6858 28.3891 82.5016 30.82C82.0747 32.1792 82.4608 32.7936 83.1291 32.5104C84.1837 32.8416 84.3261 32.3886 85.3209 29.2214C86.7425 24.695 86.1554 21.031 84.4587 13.5388L83.0046 7.11839L86.6909 8.27618C89.3225 9.10273 92.3442 10.5496 94.3062 11.6636C96.2682 12.7776 98.7622 14.0586 100.344 14.5555C101.399 14.8867 102.306 15.6695 102.164 16.1225C102.164 16.1225 102.792 17.813 103.558 19.0446C107.405 25.2256 108.817 33.6239 107.639 39.2178C107.314 42.0975 107.942 43.7879 109.033 42.1398L110.028 38.9726C109.928 37.4478 110.11 35.0211 110.821 32.76C111.673 30.0459 111.228 25.9288 110.546 20.7415C110.303 19.6697 114.09 22.3524 117.735 25.4838C121.381 28.6152 124.741 32.657 128.973 39.4524C133.586 46.865 135.613 51.479 135.044 53.2912C134.759 54.1973 135.002 55.2691 135.388 55.8835C135.489 57.4083 133.499 63.7427 132.018 64.7707C130.536 65.7986 130.536 65.7986 132.385 59.913C133.949 54.9336 133.989 52.96 133.177 53.7005C133.177 53.7005 132.75 55.0596 132.325 56.4146C132.242 60.3661 128.914 67.2753 127.047 67.6846L125.708 68.2594L127.372 64.8049C129.321 60.4441 130.784 53.9441 129.587 54.0659C129.587 54.0659 128.917 54.3534 128.775 54.8065C128.733 56.7843 125.038 68.5469 124.511 68.3813C123.842 68.6687 123.172 68.9562 122.645 68.7906C121.448 68.9124 121.59 68.4593 122.544 67.2657C123.639 65.6234 125.103 59.1191 125.286 56.6924C125.328 54.7146 124.131 54.8364 124.089 56.8143C123.621 60.1471 123.012 63.933 121.774 66.0284C120.394 68.5769 120.252 69.03 118.533 68.9877C116.809 68.9439 116.809 68.9439 118.188 66.3954C119.71 63.3938 121.985 56.1533 121.6 55.5346C121.214 54.916 120.545 55.2034 120.403 55.6565C120.26 56.1095 120.118 56.5626 120.503 57.1813C120.076 58.5405 116.849 66.9703 116.037 67.7108C115.083 68.9043 113.886 69.0261 114.313 67.667C115.937 66.186 117.724 56.8062 117.197 56.6406C116.142 56.3094 115.715 57.6685 116.1 58.2872C116.485 58.9059 114.496 65.2403 113.116 67.7888C112.689 69.148 112.547 69.601 110.965 69.1042L109.91 68.7729L110.905 65.6057C112.569 62.1511 112.937 57.2936 112.267 57.581C111.74 57.4154 111.17 59.2275 110.035 62.8436L108.857 68.4375L105.698 67.4453L107.262 62.4659C108.926 59.0113 108.826 57.4864 108.826 57.4864C108.299 57.3208 107.487 58.0613 106.919 59.8693L105.355 64.8487C104.117 66.9442 103.975 67.3972 102.398 66.9019C101.343 66.5707 100.958 65.9519 101.628 65.6645C101.913 64.7584 103.435 61.7569 104.145 59.4958C104.287 59.0428 103.902 58.424 103.902 58.424C103.375 58.2584 102.806 60.0707 102.096 62.3317C100.959 65.952 100.289 66.2394 99.7615 66.0738C98.7069 65.7425 98.8494 65.2896 99.8441 62.1224C100.554 59.8613 100.454 58.3365 99.7842 58.6239C99.7842 58.6239 98.8301 59.8175 98.2622 61.6255L97.6524 65.4113L94.6357 63.9661L92.0042 63.1396L92.5734 61.3273C93.5681 58.1601 93.0409 57.9946 92.7563 58.9007C92.0867 59.1881 91.6596 60.5473 91.3764 61.4491C90.1389 63.5446 89.0843 63.2133 89.4144 60.3351C89.5972 57.9084 89.0701 57.7429 88.3599 60.0039C87.933 61.3631 87.2632 61.6505 86.2086 61.3192C84.6266 60.8224 84.769 60.3693 85.3368 58.5613C85.6214 57.6552 85.2365 57.0365 85.2365 57.0365C84.7092 56.8709 84.4247 57.7771 84.1414 58.679C83.5722 60.4912 81.8493 60.4432 81.8948 58.4711C82.1794 57.565 81.7943 56.9463 81.267 56.7806C81.267 56.7806 80.5974 57.0681 80.8401 58.1398C80.5555 59.046 80.4131 59.499 79.3585 59.1677C78.8312 59.0021 78.4464 58.3835 78.731 57.4774C79.0156 56.5713 78.6305 55.9525 78.1032 55.7869C78.1032 55.7869 77.4336 56.0744 77.6763 57.1461C77.3917 58.0523 77.2492 58.5052 76.7219 58.3396C76.1946 58.174 76.337 57.7209 76.337 57.7209C76.4793 57.2679 76.6215 56.8148 75.7092 56.0305C74.9392 54.7932 74.7971 55.2463 74.3702 56.6055C74.6129 57.6772 73.5582 57.346 73.4578 55.8212C73.2151 54.7494 72.5454 55.0368 72.2608 55.9429C72.1238 56.3791 70.1621 55.7815 65.8008 54.4116C66.3281 54.5773 66.755 53.2181 66.3686 52.6037C65.4563 51.8194 64.6443 52.5599 64.887 53.6316C64.887 53.6316 65.2721 54.2503 65.7994 54.4159C65.6269 54.3617 65.4543 54.3075 65.272 54.2502L57.7572 52.3877L58.7116 51.1942C58.9962 50.2881 59.1383 49.835 58.4687 50.1224C58.4687 50.1224 57.7992 50.4099 57.6569 50.8629C56.5604 52.5095 54.071 51.2299 54.4979 49.8707C54.3975 48.3459 53.3429 48.0147 52.916 49.3739C52.7737 49.8269 52.1041 50.1144 51.0495 49.7831L46.836 48.4597C44.7317 47.7988 44.2044 47.6332 44.874 47.3458C45.5436 47.0583 45.3008 45.9866 44.2462 45.6553C44.2462 45.6553 44.1039 46.1084 43.9616 46.5614C43.677 47.4675 43.0074 47.755 41.9528 47.4238C40.8982 47.0925 41.0405 46.6395 40.7978 45.5677C41.0824 44.6616 40.6973 44.0429 40.17 43.8773C40.17 43.8773 39.5004 44.1647 39.7431 45.2364C39.4585 46.1426 39.3164 46.5957 38.2618 46.2645C37.2072 45.9332 36.8221 45.3145 37.4917 45.0271C37.634 44.574 37.0063 42.8836 35.9566 42.5539C35.4293 42.3883 35.1446 43.2944 35.9146 44.5317C36.8269 45.316 36.6846 45.7691 35.63 45.4379C35.1027 45.2722 34.86 44.2005 34.475 43.5818C33.8473 41.8914 32.7977 41.5617 31.9858 42.3022C31.7431 41.2305 31.2157 41.0648 30.7888 42.424C30.5042 43.3301 29.9768 43.1645 25.9056 41.388C22.7466 40.3959 21.3071 39.446 18.5751 37.0946C16.7554 35.5276 14.7883 34.412 14.7883 34.412C13.2337 33.9144 11.982 30.5394 12.2666 29.6332ZM121.547 70.4229C120.35 70.5447 119.823 70.3791 121.162 69.8042C121.832 69.5168 122.359 69.6824 122.359 69.6824C122.886 69.848 122.217 70.1355 121.547 70.4229ZM119.97 69.9276C119.828 70.3806 118.631 70.5025 118.104 70.3368C116.379 70.293 115.33 69.9633 115.999 69.6759C116.669 69.3885 119.97 69.9276 119.97 69.9276ZM6.17683 41.6437C5.79182 41.025 9.66106 39.7562 11.243 40.253C11.7703 40.4186 12.4399 40.1312 13.1095 39.8438C13.1095 39.8438 14.6913 40.3406 17.0383 42.0733C19.0003 43.1873 21.8796 45.0872 22.9342 45.4184C24.5162 45.9153 27.6752 46.9074 29.4949 48.4745C33.9511 50.8696 53.6795 58.0616 58.0353 58.9319C59.2323 58.8101 65.0228 60.6288 70.8182 62.4491C95.4299 70.677 102.418 72.374 106.631 73.6974C112.184 74.4459 121.423 76.3523 123.668 76.5644C125.392 76.6082 125.915 76.7723 127.07 78.6283C128.509 79.5782 129.274 80.814 129.802 80.9797C130.329 81.1453 130.856 81.3108 130.856 81.3108C130.714 81.7639 128.61 81.103 125.446 80.1093C121.232 78.7859 119.128 78.1249 117.931 78.2467C116.734 78.3686 115.015 78.3263 112.521 77.0452C110.416 76.3842 108.834 75.8874 108.834 75.8874C108.022 76.6279 105.391 75.8014 104.621 74.564C103.709 73.7797 103.181 73.614 101.989 73.7374C100.792 73.8592 99.6003 73.9826 98.1606 73.0326C96.5787 72.5358 95.5292 72.2061 94.8596 72.4936C93.805 72.1623 93.2776 71.9967 91.8429 71.0483C90.0232 69.4813 87.9139 68.8188 87.102 69.5593C87.102 69.5593 86.0474 69.228 84.4704 68.7327C83.4158 68.4015 81.8388 67.9062 80.6419 68.028C79.445 68.1498 78.9175 67.9841 78.0101 67.2014C76.7128 65.7984 75.1359 65.3031 72.0725 65.8342C70.3482 65.7904 69.826 65.6263 68.0013 64.0577C66.0344 62.9422 65.5118 62.7781 64.3149 62.8999C60.729 63.2669 60.0596 63.5544 59.2896 62.317C58.1346 60.461 57.612 60.2969 55.2182 60.5405C53.879 61.1154 53.3518 60.9498 51.9172 60.0014C49.0428 58.1031 46.9335 57.4407 44.9296 58.3045C42.3984 59.0028 41.3437 58.6715 39.2763 56.0311C36.5443 53.6798 35.4899 53.3486 32.4313 53.8812C31.2344 54.003 29.5151 53.9608 28.9877 53.7951C28.9877 53.7951 26.2557 51.4437 23.5174 49.0951L18.047 44.3951L14.6037 44.3091C11.1619 44.2003 6.42086 42.7112 6.17683 41.6437ZM126.99 82.5713C126.99 82.5713 126.848 83.0244 126.28 84.8324C124.758 87.834 124.758 87.8339 125.752 84.6667C126.178 83.3118 126.463 82.4057 126.99 82.5713ZM10.0977 56.7937C10.24 56.3406 11.2945 56.6719 15.5081 57.9953C24.3202 61.2608 25.3748 61.592 49.2164 68.5826C61.857 72.5528 72.5306 75.4075 73.0579 75.5732C73.2002 75.1201 84.7864 78.7591 98.4816 83.0606C120.604 90.0089 123.236 90.8355 122.566 91.123C122.281 92.0291 120.177 91.3681 106.34 87.5197C97.9125 84.8729 85.1296 81.3557 77.6148 79.4932C64.8319 75.976 62.7275 75.315 62.2001 75.1494C62.2001 75.1494 50.2292 70.8917 36.0066 66.4246C21.784 61.9575 9.81307 57.6998 9.81307 57.6998C9.28576 57.5342 9.95535 57.2468 10.0977 56.7937ZM10.2804 54.3669C9.22575 54.0357 11.6422 46.3422 12.8391 46.2203C13.5087 45.9329 13.082 47.2921 11.5193 52.2673C11.2347 53.1734 10.2804 54.3669 10.2804 54.3669ZM13.5688 49.4314C14.279 47.1703 15.233 45.9767 15.7603 46.1423C15.7603 46.1423 15.7186 48.1202 15.0084 50.3813C14.1559 53.0954 12.917 55.1951 12.917 55.1951C11.72 55.3169 12.1471 53.9578 13.5688 49.4314ZM14.4941 55.6904L16.058 50.711C17.8647 46.8033 17.8648 46.8033 17.8229 48.7812L16.4012 53.3076C15.691 55.5686 14.7368 56.7621 14.4941 55.6904ZM18.6946 51.5391C19.6894 48.3719 19.9739 47.4658 20.3589 48.0845C20.6016 49.1562 19.8495 53.3951 18.7543 55.0375C17.6578 56.6841 17.5575 55.1593 18.6946 51.5391ZM20.2297 54.0123C20.9399 51.7512 22.0363 50.1046 22.0363 50.1046C22.7059 49.8171 22.3808 52.6969 21.527 55.4153C20.2896 57.5107 20.0049 58.4168 19.4776 58.2512C18.9503 58.0856 19.235 57.1795 20.2297 54.0123ZM22.7238 55.2934C23.8203 53.6468 24.246 52.2918 24.246 52.2918C25.0579 51.5513 25.1584 53.0762 24.3059 55.7903C23.3112 58.9575 23.1687 59.4105 22.6414 59.2449C21.5868 58.9136 21.729 58.4606 22.7238 55.2934ZM25.7418 56.7344C26.311 54.9222 26.5942 54.0202 26.8382 55.0877C26.8382 55.0877 26.4113 56.4469 25.9858 57.8019C25.7012 58.708 25.2756 60.0629 25.2756 60.0629C24.7456 59.9058 25.1726 58.5466 25.7418 56.7344ZM27.2769 59.2076C27.1765 57.6828 27.8866 55.4217 28.9412 55.7529C28.9412 55.7529 29.3264 56.3717 29.1841 56.8247L28.4739 59.0858C28.432 61.0636 27.2364 61.1812 27.2769 59.2076ZM30.0138 61.5605C29.4865 61.3949 29.6289 60.9418 29.7712 60.4888C29.9135 60.0357 29.6709 58.964 30.0965 57.6091C30.1384 55.6312 30.6655 55.7968 32.0034 55.2261C35.0619 54.6935 35.4471 55.3122 33.925 58.3138C31.976 62.6745 31.3063 62.9619 32.5857 58.8886C33.2959 56.6276 33.0531 55.5558 32.3835 55.8432C31.8562 55.6776 31.5717 56.5838 31.0038 58.3918C30.9632 60.3654 30.0138 61.5605 30.0138 61.5605ZM36.5565 59.1403C36.7394 56.7136 36.8816 56.2605 37.7939 57.0448C38.1789 57.6635 37.8945 58.5697 37.4689 59.9247C36.7587 62.1857 35.9469 62.9262 34.8922 62.595C33.9799 61.8107 33.9799 61.8106 34.4068 60.4515L34.976 58.6392L35.0763 60.164C35.4194 62.7606 36.0891 62.4731 36.5565 59.1403ZM39.8626 59.681C40.3899 59.8466 40.2476 60.2996 39.822 61.6546C39.1118 63.9156 38.3001 64.6562 38.3406 62.6826C38.3812 60.7089 38.808 59.3497 39.8626 59.681ZM42.4942 60.5075C43.0215 60.6731 43.5489 60.8388 42.981 62.6468C42.4118 64.459 41.7435 64.7422 40.8299 63.9621C40.4449 63.3434 41.2973 60.6293 42.4942 60.5075ZM46.2224 59.6875C46.892 59.4 47.9466 59.7312 48.469 59.8953C48.9914 60.0594 49.5237 60.2266 48.8135 62.4877C48.2456 64.2957 47.4337 65.0361 46.9064 64.8705C46.3791 64.7049 46.6637 63.7988 47.0893 62.4439C47.3739 61.5377 47.1311 60.4659 47.1311 60.4659C46.6037 60.3003 46.4615 60.7534 46.0346 62.1126C45.4654 63.9248 44.6549 64.6611 43.7426 63.8768C43.3661 63.2654 45.5528 59.9749 46.2224 59.6875ZM50.9633 61.1765C52.0179 61.5078 52.6407 63.1966 51.6927 64.3875C51.2658 65.7467 50.5962 66.0341 49.6839 65.2498C49.2989 64.6311 50.436 61.0109 50.9633 61.1765ZM55.1767 62.4999C57.7079 61.8017 58.6203 62.586 57.6256 65.7531C57.341 66.6593 56.3882 67.8486 56.3882 67.8486C55.8609 67.683 56.003 67.2299 56.5709 65.4219C56.9978 64.0627 56.7538 62.9952 56.7538 62.9952C56.2265 62.8296 55.9418 63.7357 55.5162 65.0906C54.947 66.9029 54.2789 67.1861 53.7516 67.0205C51.6509 66.3653 53.1679 63.3622 55.1767 62.4999ZM58.0092 66.3761C59.2466 64.2806 59.7739 64.4462 59.7334 66.4198C59.1642 68.2321 59.0234 68.6809 57.9688 68.3497C57.4415 68.1841 57.5836 67.731 58.0092 66.3761ZM61.1682 67.3683C61.4528 66.4621 61.7373 65.556 62.2646 65.7216C62.2646 65.7216 62.2646 65.7216 62.1223 66.1746L61.4121 68.4357C60.4579 69.6293 60.6003 69.1763 61.1682 67.3683ZM62.7501 67.8651C64.2721 64.8636 64.9417 64.5761 65.469 64.7417C65.9964 64.9073 65.1845 65.6479 63.6625 68.6494C62.5673 70.2918 61.6549 69.5075 62.7501 67.8651ZM66.0931 66.4263C67.1883 64.7839 68.1019 65.564 67.2481 68.2824C66.6802 70.0904 65.8685 70.8309 65.3412 70.6653C64.2915 70.3356 65.0015 68.0745 66.0931 66.4263ZM67.2077 70.2561C67.35 69.803 68.1618 69.0624 68.4451 68.1606C68.5874 67.7075 68.7296 67.2544 69.2569 67.42C69.2569 67.42 69.4998 68.4918 69.2152 69.3979C68.7883 70.7571 67.9776 71.4933 67.4503 71.3277C66.923 71.1621 66.5381 70.5435 67.2077 70.2561ZM70.2648 69.7276C71.5023 67.6322 71.6447 67.1791 72.0297 67.7978C72.0297 67.7978 71.7451 68.7039 71.3195 70.0589C69.9397 72.6074 68.885 72.2761 70.2648 69.7276ZM73.0437 70.1027C73.6129 68.2905 73.8961 67.3885 74.4234 67.5541C74.4234 67.5541 74.6663 68.626 74.0984 70.434C73.6715 71.7931 72.7186 72.9824 72.1912 72.8168C72.1912 72.8168 72.0908 71.292 73.0437 70.1027ZM75.148 70.7636C75.7172 68.9514 76.0005 68.0495 76.0005 68.0495C77.5824 68.5464 77.2978 69.4525 76.5876 71.7135C75.4911 73.3601 75.2078 74.262 74.6805 74.0964C74.1532 73.9308 74.4379 73.0247 75.148 70.7636ZM79.4035 70.1092C79.4035 70.1092 79.2612 70.5622 78.9766 71.4683C78.4074 73.2806 77.4544 74.4699 77.0694 73.8512C76.8316 72.781 78.8761 69.9436 79.4035 70.1092ZM81.1277 70.1529C82.0819 68.9594 82.3246 70.0312 81.7554 71.8434C80.8012 73.037 80.3756 74.3919 79.8483 74.2263C79.321 74.0607 80.1735 71.3465 81.1277 70.1529ZM82.5205 73.0792C83.0897 71.267 84.0426 70.0777 84.4276 70.6963C84.4276 70.6963 84.6703 71.768 84.2447 73.123C84.2028 75.1008 84.0619 75.5497 83.0073 75.2185C81.9527 74.8873 82.0949 74.4342 82.5205 73.0792ZM85.1571 73.9073L85.8672 71.6462C85.8672 71.6462 86.5367 71.3588 87.064 71.5244C87.7336 71.2369 87.5914 71.69 87.1645 73.0492C85.9271 75.1447 85.1165 75.881 85.1571 73.9073ZM87.6463 75.1869C88.2155 73.3747 89.3107 71.7323 89.838 71.898C89.838 71.898 90.223 72.5166 89.7974 73.8715C89.3718 75.2265 88.5599 75.9669 87.8903 76.2544C87.2206 76.5418 87.363 76.0888 87.6463 75.1869ZM90.7098 74.6559C90.9944 73.7497 91.2789 72.8436 91.8062 73.0092C92.3335 73.1748 92.0491 74.081 91.7645 74.9871C91.7226 76.965 91.0542 77.2481 90.5268 77.0825C89.9995 76.9169 89.6133 76.3025 90.7098 74.6559ZM93.7265 76.1011C94.1534 74.7419 94.2956 74.2888 94.8229 74.4544C94.8229 74.4544 95.2078 75.0731 94.7809 76.4323C94.4963 77.3384 93.6845 78.0789 93.6845 78.0789C93.1585 77.9091 93.4419 77.0072 93.7265 76.1011ZM96.3998 74.9497C96.9271 75.1153 96.7848 75.5684 97.0276 76.6402C96.4584 78.4524 95.6477 79.1887 95.2627 78.57C94.8764 77.9555 95.8725 74.7841 96.3998 74.9497ZM98.0822 76.9715C98.3668 76.0653 98.5091 75.6122 99.0364 75.7778C99.0364 75.7778 99.4215 76.3966 99.1369 77.3027C98.8523 78.2088 98.0403 78.9493 98.0403 78.9493C97.5129 78.7837 97.7976 77.8776 98.0822 76.9715ZM100.754 75.8244C101.282 75.99 101.951 75.7026 102.479 75.8682C103.676 75.7464 103.533 76.1994 102.438 77.8417C102.011 79.2009 101.201 79.9372 101.058 80.3903C100.389 80.6777 100.004 80.059 100.288 79.1529L100.857 77.3406C100.613 76.2731 100.754 75.8244 100.754 75.8244ZM103.493 78.173C104.73 76.0776 105.643 76.8619 104.405 78.9574C103.978 80.3165 103.167 81.0527 103.167 81.0527C101.971 81.1746 102.396 79.8196 103.493 78.173ZM107.604 77.9759C108.274 77.6884 108.132 78.1415 107.705 79.5006C107.42 80.4068 106.467 81.5961 106.467 81.5961C106.325 82.0492 105.655 82.3366 105.128 82.1709C104.075 81.8355 106.55 77.6446 107.604 77.9759ZM107.376 82.3746C107.518 81.9216 108.473 80.7281 108.898 79.3731C110.42 76.3715 110.805 76.9902 109.668 80.6104C108.431 82.7059 108.146 83.612 107.619 83.4464C107.092 83.2808 107.234 82.8277 107.376 82.3746ZM109.87 83.6558C109.87 83.6558 110.297 82.2966 110.723 80.9417C111.433 78.6806 111.433 78.6807 112.488 79.0119C112.873 79.6306 113.258 80.2493 112.832 81.6042C112.405 82.9634 111.736 83.2508 111.067 83.534C110.54 83.3684 109.87 83.6558 109.87 83.6558ZM113.882 81.9339C114.592 79.6728 115.931 79.098 115.221 81.359C114.937 82.2651 114.652 83.1712 113.983 83.4544C113.172 84.1949 113.172 84.1949 113.882 81.9339ZM117.893 80.2119C118.42 80.3775 118.278 80.8306 117.853 82.1855C117 84.8997 116.046 86.0932 116.229 83.6665C116.412 81.2398 116.843 79.8822 117.893 80.2119ZM117.77 86.1371C117.77 86.1371 117.913 85.684 118.055 85.2309C118.197 84.7779 119.151 83.5843 119.577 82.2293C119.861 81.3232 120.146 80.4171 120.146 80.4171C120.673 80.5827 120.246 81.9419 119.821 83.2968C118.723 84.9476 118.298 86.3027 117.77 86.1371ZM121.964 81.9884L121.68 82.8945C121.395 83.8006 120.97 85.1556 120.97 85.1556C119.778 85.279 120.347 83.4667 121.964 81.9884ZM124.886 81.9104C124.886 81.9104 124.459 83.2695 124.033 84.6245C123.464 86.4367 123.323 86.8855 123.079 85.818C122.309 84.5807 124.116 80.673 124.886 81.9104ZM7.87352 49.1358C8.48328 45.35 7.99796 43.2065 6.47455 46.2123C7.18472 43.9513 8.38153 43.8294 8.86828 45.9687L7.87352 49.1358ZM7.64883 53.5404C7.64883 53.5404 7.93343 52.6343 8.07573 52.1812C8.36033 51.2751 8.92835 49.4672 9.88256 48.2736L10.4504 46.4656C10.6931 47.5373 10.1252 49.3453 9.55598 51.1576C8.6031 52.3469 8.17614 53.706 7.64883 53.5404ZM39.6522 69.556C57.0337 75.0153 74.9426 80.6402 78.7711 81.3449C88.3951 83.87 128.706 95.5355 128.036 95.8229C128.036 95.8229 127.752 96.7291 126.799 97.9184L125.702 99.565L126.272 97.7528C126.454 95.3261 126.454 95.3261 124.594 95.7327C124.067 95.567 123.782 96.4731 122.93 99.1873C122.219 101.448 121.408 102.189 120.596 102.929L119.114 103.957L120.251 100.337C121.104 97.6229 120.719 97.0042 120.191 96.8386C119.664 96.673 119.137 96.5074 119.38 97.5791C119.197 100.006 117.248 104.367 116.193 104.035C115.666 103.87 115.281 103.251 116.661 100.703C117.371 98.4414 117.797 97.0822 117.27 96.9166C116.743 96.751 116.316 98.1102 114.794 101.112C113.657 104.732 112.703 105.926 112.034 106.209C111.223 106.949 111.365 106.496 112.461 104.85C113.841 102.301 115.02 96.703 114.493 96.5374C114.493 96.5374 113.255 98.6328 112.544 100.898C110.839 106.326 109.885 107.52 108.688 107.642C107.491 107.764 107.491 107.763 109.055 102.784C110.861 98.8764 111.288 97.5172 110.091 97.6391C110.091 97.6391 109.137 98.8326 108 102.453C106.579 106.979 106.295 107.881 105.098 108.003C103.759 108.578 103.901 108.125 105.038 104.505C105.79 100.266 106.216 98.9107 105.831 98.292C105.304 98.1264 104.593 100.387 103.74 103.106C102.886 105.824 102.035 108.534 102.035 108.534C101.507 108.368 100.838 108.656 100.311 108.49C98.5863 108.446 98.7286 107.993 99.5405 107.253C100.778 105.157 102.627 99.2718 102.384 98.2001C101.999 97.5814 101.187 98.322 100.05 101.942C98.3451 107.37 97.9182 108.73 96.3362 108.233C95.8089 108.067 95.9511 107.614 97.2305 103.541C99.22 97.2064 98.0231 97.3282 95.6486 103.044C94.3692 107.117 94.0845 108.023 93.0299 107.692C92.3603 107.979 92.645 107.073 93.6397 103.906C95.1618 100.905 95.4465 99.9986 94.2496 100.12C93.7223 99.9548 93.4375 100.861 92.5851 103.575C91.3057 107.648 90.4938 108.389 89.4392 108.058C88.3846 107.726 88.6692 106.82 88.7097 104.847L89.9891 100.773C90.2737 99.8671 89.8888 99.2485 89.8888 99.2485C89.3615 99.0828 88.7921 100.895 87.9397 103.609L87.1878 107.848L85.7481 106.898L84.1662 106.401L85.3033 102.781C86.8673 97.8017 85.8126 97.4705 84.2486 102.45C82.5842 105.904 82.442 106.358 81.3873 106.026C79.6631 105.983 79.9477 105.076 80.9425 101.909C81.5117 100.097 81.2675 99.0294 81.2675 99.0294C80.7402 98.8638 80.3134 100.223 79.6032 102.484C78.6085 105.651 77.9388 105.939 77.5538 105.32C76.4992 104.989 76.6416 104.536 77.4941 101.822C78.2462 97.5827 77.5765 97.8701 76.1548 102.396C75.3023 105.111 74.6328 105.398 73.5781 105.067C72.5235 104.736 72.6658 104.283 72.8487 101.856C73.9858 98.2356 72.7888 98.3574 71.794 101.525C70.5565 103.62 70.2719 104.526 69.7445 104.361C68.6899 104.029 68.8323 103.576 70.2121 101.028C70.78 99.2197 71.0647 98.3136 70.3951 98.601C70.3951 98.601 69.5831 99.3416 68.6302 100.531C67.6354 103.698 66.2962 104.273 66.4791 101.846C66.7637 100.94 66.6619 99.4196 66.2769 98.8009C66.3174 96.8273 65.3646 98.0166 65.3228 99.9944C64.9976 102.874 64.8552 103.327 63.2733 102.83C62.2187 102.499 61.8336 101.88 62.7865 100.691C63.7813 97.5239 62.7267 97.1927 61.2046 100.194C60.6367 102.002 59.5821 101.671 59.6227 99.6974C59.6646 97.7195 58.4677 97.8414 57.8985 99.6536C57.7562 100.107 57.4716 101.013 56.9443 100.847C56.417 100.682 56.5592 100.228 56.7015 99.7754C57.2707 97.9631 56.8845 97.3487 56.2162 97.6319C55.5466 97.9194 55.4042 98.3724 55.1196 99.2785C55.5046 99.8972 54.8351 100.185 54.3077 100.019C54.3077 100.019 53.9228 99.4004 54.2074 98.4943C54.6343 97.1351 53.5795 96.8038 52.6253 97.9974L52.7676 97.5443C52.6672 96.0195 51.7549 95.2352 51.1857 97.0474L50.7588 98.4066L49.4615 97.0037C48.3064 95.1476 48.3065 95.1476 48.0219 96.0537C47.7373 96.9598 46.6827 96.6286 46.44 95.5569C46.3396 94.0321 45.8122 93.8664 45.5276 94.7726C45.243 95.6787 44.7157 95.5131 42.6114 94.8522C41.5568 94.5209 38.0128 92.91 34.3266 91.7522C27.0964 88.9836 27.0966 88.9836 19.7647 84.6944C12.575 79.9521 9.70054 78.0538 7.24686 74.799C6.47684 73.5617 4.79821 71.5458 4.02819 70.3084C2.34586 68.2867 1.37856 64.0055 1.84602 60.6727L2.02897 58.2461L4.8028 58.6196L39.6495 69.5645L39.6522 69.556Z" fill="white"/>
<path d="M36.9282 22.9629C37.6982 24.2002 37.6985 24.2003 40.6147 24.1207C42.3389 24.1645 42.8613 24.3286 42.7645 22.8096C43.049 21.9034 42.664 21.2848 41.7517 20.5005C39.2624 19.2209 35.1036 21.3943 36.9282 22.9629ZM41.7111 22.4741C41.4265 23.3802 39.3173 22.7177 38.795 22.5537C38.4099 21.935 38.4099 21.935 39.0795 21.6476C40.2715 21.5242 41.8534 22.0211 41.7111 22.4741Z" fill="white"/>
<path d="M47.9368 10.0132C48.1796 11.085 50.4261 11.2929 52.4349 10.4305L54.3014 10.0213L53.0041 8.61829C52.2341 7.38093 49.0751 6.38873 48.2632 7.12923C47.309 8.32279 47.0245 9.22893 47.9368 10.0132ZM50.6138 8.86771C51.1411 9.03333 51.6685 9.19895 51.5262 9.65201C51.5262 9.65201 50.8566 9.93941 50.3292 9.77379C49.2746 9.44255 49.4171 8.98956 49.4171 8.98956C49.4171 8.98956 49.5592 8.53647 50.6138 8.86771Z" fill="white"/>
<path d="M39.872 15.435C43.1732 15.9741 45.4654 14.2099 44.3104 12.3539C43.6827 10.6634 41.9632 10.6211 39.8121 11.9365C38.3306 12.9644 38.1884 13.4175 38.4324 14.485C38.2901 14.9381 38.6751 15.5568 39.872 15.435ZM42.9711 12.9287C43.4984 13.0943 42.8287 13.3817 42.159 13.6691C40.8198 14.244 40.2925 14.0784 40.5771 13.1723C40.7244 12.7208 43.1134 12.4756 42.9711 12.9287Z" fill="white"/>
<path d="M47.4871 18.8223C48.1148 20.5127 49.1645 20.8424 51.1733 19.9801C53.8504 18.8346 54.0348 16.4037 51.3983 15.5756C48.7617 14.7475 46.4744 16.5132 47.4871 18.8223ZM51.2153 18.0022C50.4034 18.7427 49.2065 18.8646 48.8264 18.2474C48.5837 17.1757 49.9215 16.605 50.9762 16.9363C52.5532 17.4316 52.5532 17.4316 51.2153 18.0022Z" fill="white"/>
<path d="M71.8464 7.5818C70.6914 5.72576 69.6416 5.39602 67.6327 6.25834C66.2935 6.83321 66.1513 7.28634 66.3953 8.35384C66.638 9.42558 66.6381 9.42561 69.5543 9.34604C72.4755 9.26803 73.1451 8.98054 71.8464 7.5818Z" fill="white"/>
<path d="M76.5875 40.3922C79.9293 38.9577 80.7411 38.2172 80.6407 36.6924C80.5403 35.1676 78.9633 34.6722 76.9545 35.5346C74.9456 36.3969 73.0436 38.7814 73.1404 40.3004C73.388 41.3737 73.9104 41.5377 76.5875 40.3922ZM77.7246 36.772C79.4488 36.8158 79.3065 37.2688 77.2977 38.1311C76.4858 38.8716 75.8162 39.1591 75.2888 38.9935C74.6206 39.2767 77.1972 36.6063 77.7246 36.772Z" fill="white"/>
<path d="M71.966 14.5786C73.5898 13.0976 73.3458 12.0301 71.3789 10.9146C70.8515 10.749 70.1819 11.0364 68.5644 12.5147C67.0829 13.5426 66.6574 14.8976 67.0424 15.5163C66.9001 15.9693 67.2852 16.588 67.8125 16.7537C68.8622 17.0834 71.0131 15.7679 71.966 14.5786ZM70.1415 13.01C70.9534 12.2695 72.008 12.6007 71.8657 13.0538C71.7234 13.5069 71.0537 13.7943 70.2418 14.5348C68.3766 14.9398 68.5177 14.491 70.1415 13.01Z" fill="white"/>
<path d="M78.3438 20.0614C79.5813 17.966 78.5687 15.6569 76.3221 15.449C74.7402 14.9522 74.7402 14.9522 74.03 17.2133C73.7454 18.1194 73.7047 20.093 74.0897 20.7116C74.9552 23.4723 76.964 22.6099 78.3438 20.0614ZM76.4224 16.9738C76.9497 17.1395 77.3348 17.7581 77.0502 18.6643C77.0083 20.6421 75.6704 21.2128 75.7109 19.2391C75.2268 17.0914 75.5101 16.1895 76.4224 16.9738Z" fill="white"/>
<path d="M67.5196 30.5802C68.1473 32.2706 69.2018 32.6018 70.6784 31.5723C73.4928 29.9722 74.489 26.8007 72.3846 26.1398C71.33 25.8086 70.6605 26.096 69.1839 27.1255C67.7024 28.1535 67.4179 29.0596 67.5196 30.5802ZM69.6643 29.2675C69.9489 28.3613 70.2337 27.4552 70.902 27.172C71.7139 26.4315 72.241 26.5971 71.9564 27.5032C72.4837 27.6688 72.3416 28.1219 72.1993 28.575C72.1993 28.575 71.5296 28.8625 70.7177 29.603L69.2361 30.6309L69.6643 29.2675Z" fill="white"/>
<path d="M41.5818 28.4019C37.7533 27.6971 34.5071 30.6549 36.7168 32.8422C37.4868 34.0796 38.6787 33.9562 41.3571 32.8064C43.8932 32.1097 44.1766 31.2078 43.5489 29.5174C43.1639 28.8987 42.7787 28.28 41.5818 28.4019ZM40.587 31.569C39.1055 32.597 38.0559 32.2673 37.8132 31.1955C37.4282 30.5769 39.4369 29.7146 41.0139 30.2099C42.5909 30.7052 42.4536 31.1598 40.587 31.569Z" fill="white"/>
<path d="M51.751 36.5687C54.0431 34.8045 54.6123 32.9923 53.3149 31.5893C52.0176 30.1863 51.4953 30.0223 50.8257 30.3097C49.4865 30.8846 48.0661 35.4067 48.8361 36.6441C49.0739 37.7143 49.6012 37.8798 51.751 36.5687ZM50.3533 33.641C51.4498 31.9943 51.4499 31.9944 51.8349 32.6131C52.2199 33.2318 52.0775 33.6848 51.9352 34.1378C51.7929 34.5909 50.981 35.3313 50.4536 35.1657C49.9263 35.0001 49.3991 34.8345 50.3533 33.641Z" fill="white"/>
<path d="M57.7113 30.486C58.7659 30.8173 60.911 29.5047 61.3379 28.1455C61.7648 26.7863 59.8433 23.6987 58.6464 23.8205C57.5918 23.4893 57.4494 23.9423 56.8816 25.7503C56.4547 27.1095 56.5565 28.6301 56.9415 29.2487C56.7992 29.7018 57.184 30.3204 57.7113 30.486ZM58.2208 25.1754C59.2755 25.5067 60.0454 26.744 59.7608 27.6501C59.3339 29.0093 58.2794 28.6781 57.6516 26.9877C57.5512 25.4629 57.6935 25.0098 58.2208 25.1754Z" fill="white"/>
<path d="M62.5575 51.8951C62.3148 50.8233 61.7876 50.6578 61.3607 52.017C61.2184 52.47 61.076 52.923 62.1306 53.2542C63.1865 53.5812 63.4711 52.6751 62.5575 51.8951Z" fill="white"/>
</svg>
