<svg width="9" height="12" viewBox="0 0 9 12" fill="none" xmlns="http://www.w3.org/2000/svg">
<path d="M7.88961 8.12604C7.75823 8.19762 7.63458 8.28259 7.52064 8.37956C7.49391 8.4008 7.46718 8.42195 7.44037 8.4427C7.04784 8.74706 6.65567 9.05169 6.26385 9.3566C5.80698 9.7119 5.34992 10.0668 4.89267 10.4213C4.85201 10.4505 4.80898 10.4762 4.76402 10.4983L4.73204 10.5153C4.74167 10.3194 4.75143 10.1267 4.76132 9.93703C4.78526 9.46786 4.80789 9.02477 4.82511 8.57545C4.8616 7.61973 4.89702 6.22355 4.9317 4.87328C4.96106 3.71406 4.9891 2.61911 5.01665 1.81492C5.02071 1.65709 5.00956 1.49923 4.98336 1.34354C4.94548 1.10576 4.82331 0.985306 4.61988 0.985306C4.39268 0.985306 4.25501 1.12019 4.23238 1.36437C4.22615 1.43165 4.21964 1.49908 4.21286 1.56665C4.18572 1.8437 4.15777 2.13011 4.15408 2.41307C4.1394 3.54203 4.12792 5.14 4.11693 6.68533C4.10873 7.88244 4.10053 9.01296 4.0911 9.87939C4.08877 9.94242 4.08245 10.0053 4.07216 10.0675C4.0702 10.0813 4.06823 10.0954 4.06618 10.1099L4.00615 10.0545C3.9399 9.99352 3.88489 9.94285 3.83209 9.89005C3.06962 9.14137 2.19555 8.5156 1.2411 8.0351L1.2119 8.01978C1.12921 7.97224 1.04112 7.93477 0.949525 7.90818C0.895148 7.89931 0.83946 7.90307 0.786769 7.91917C0.765615 7.92376 0.744455 7.92852 0.723793 7.93139L0.680664 7.93721L0.688861 7.97992C0.69322 8.00487 0.696291 8.03002 0.69805 8.05528C0.696603 8.11973 0.715259 8.18304 0.751427 8.2364C0.807189 8.29556 0.869025 8.34869 0.935913 8.3949C0.986327 8.43072 1.03435 8.4698 1.07965 8.5119C1.43162 8.85627 1.78288 9.20119 2.13343 9.54666C2.58614 9.9921 3.0396 10.4367 3.49379 10.8805C3.68389 11.0782 3.89321 11.2564 4.11866 11.4125C4.24212 11.5005 4.38859 11.5506 4.5401 11.5566C4.71909 11.5566 4.89267 11.4715 5.08036 11.2993C5.39562 11.0092 5.73721 10.7054 6.12454 10.3705C6.40644 10.1268 6.6894 9.8842 6.97342 9.64275C7.28106 9.38038 7.58807 9.11699 7.89445 8.85259C8.01756 8.75158 8.12528 8.63317 8.21423 8.50108C8.26383 8.42188 8.27014 8.251 8.20873 8.18475C8.16511 8.14829 8.11281 8.12373 8.05689 8.11344C8.00098 8.10316 7.94336 8.10749 7.88961 8.12604Z" fill="black"/>
</svg>
