<svg width="80" height="54" viewBox="0 0 80 54" fill="none" xmlns="http://www.w3.org/2000/svg">
<path d="M17.7407 30.4084C16.7562 30.0654 14.7916 29.379 14.3117 29.4085C11.4121 29.1833 9.443 28.4972 6.51887 27.8737C4.52509 26.7856 4.02504 26.4128 2.43721 24.0928C0.324507 20.9979 -0.353037 17.8147 0.958762 15.7199C2.29977 14.0269 4.62058 12.6734 7.49549 12.4966L9.89064 12.3493L10.2716 10.7115C10.628 8.67549 11.9936 7.3808 15.7296 5.54048C19.4656 3.70017 19.9454 3.67065 32.3598 2.09996C37.1543 1.80508 41.9243 1.10816 41.9243 1.10816C42.4042 1.07864 45.279 0.901798 48.6091 0.29341C55.7986 -0.148771 61.627 0.703514 67.5002 2.3564C73.3981 4.41135 74.457 5.96051 73.8182 11.2388C73.4617 13.2748 72.6995 16.5465 72.323 18.184C71.942 19.8217 71.0809 21.4852 71.1056 21.8873C71.1304 22.2893 71.1797 23.0934 70.749 23.9233C70.3186 24.7569 69.4327 26.0184 69.0067 26.8517C68.601 28.0874 64.0783 32.7974 63.5984 32.8269C63.5984 32.8269 62.6633 33.288 61.7327 33.7488C60.7976 34.2099 59.4117 35.1023 57.9721 35.1908C55.6265 36.1423 54.2116 36.6328 55.6513 36.5443C59.0061 36.338 67.2296 37.0429 68.2141 37.386C68.7188 37.7585 70.154 37.6702 71.6184 37.9837C73.0581 37.8952 74.9978 38.1794 75.4777 38.1499C77.4176 38.4342 79.3867 39.1203 79.9158 39.8911C79.9158 39.8911 79.9652 40.6952 79.99 41.0973C80.0147 41.4993 79.1289 42.7608 77.7679 44.0552C74.6107 47.4742 72.2402 48.0236 63.1559 48.9859C59.8011 49.1922 56.9509 49.7711 56.471 49.8006C55.9911 49.8301 55.5608 50.6637 55.5855 51.0658C55.1551 51.8994 54.6998 52.331 50.4097 52.9947C48.97 53.0832 37.466 53.7908 36.486 53.4475C36.0061 53.477 35.4768 52.7023 34.9721 52.3298C34.418 51.1532 33.938 51.1827 26.6992 50.8245C21.88 50.7173 17.9219 48.9467 16.8385 46.9954C16.8138 46.5934 15.8293 46.2503 15.3494 46.2798C14.3896 46.3389 14.3649 45.9368 13.8108 44.7602C13.7613 43.956 13.7119 43.152 13.7119 43.152C14.1423 42.3183 16.9432 40.9391 19.3135 40.3897C21.2331 40.2717 28.3486 38.6233 29.3039 38.5646C29.3039 38.5646 30.7187 38.074 32.1539 37.9857L34.5491 37.8384L32.1045 37.1816C28.1708 35.8092 25.6771 34.352 24.1632 33.2344L23.1294 32.0873L23.2283 33.6955C23.2778 34.4996 22.847 35.3295 22.3919 35.7611C19.6404 37.9444 16.2364 37.3504 18.5078 35.1928C19.4181 34.3296 19.3688 33.5293 19.3193 32.7252C19.2546 31.526 19.2299 31.1239 17.7407 30.4084ZM71.1513 6.96721C71.1513 6.96721 70.6467 6.59465 70.622 6.1926C70.5478 4.98643 68.0788 3.93132 61.2411 2.33398C57.3322 1.36366 56.3724 1.42271 50.1427 1.80586C41.0336 2.3661 22.8941 4.69248 20.5236 5.23808C20.0437 5.2676 18.178 6.18951 16.3079 7.11168C13.0273 8.52418 12.5719 8.95198 12.6461 10.1582C11.8097 12.2237 12.3143 12.5962 14.3081 13.6843C18.2662 15.455 18.7461 15.4255 20.0826 13.7328C20.4883 12.4971 21.4234 12.036 22.8342 11.5494C23.3141 11.5199 25.6843 10.9705 27.5792 10.4504C31.3644 9.41047 32.8041 9.32194 36.6141 8.68403C38.0538 8.59549 39.9441 8.07563 40.424 8.04611C40.9039 8.01659 44.7138 7.37871 48.5485 7.14286C56.2179 6.67117 57.6825 6.98468 61.6406 8.75535C62.6252 9.09838 63.6051 9.44169 64.085 9.41217C64.5649 9.38266 65.0448 9.35315 65.5742 10.1277C66.1035 10.9023 66.1036 10.9023 68.4491 9.95092C71.2746 8.96999 71.7297 8.53841 71.6558 7.336C71.6313 6.9377 71.6312 6.93769 71.1513 6.96721ZM21.5967 14.8542C21.6214 15.2562 22.1014 15.2267 22.5318 14.3931C23.4421 13.5299 22.9131 12.7591 22.0273 14.0205C21.5721 14.4521 21.1168 14.8837 21.5967 14.8542ZM26.01 16.1932C26.4899 16.1637 26.4651 15.7617 26.3909 14.5555C26.3167 13.3494 26.2676 12.549 25.7877 12.5785C25.7877 12.5785 25.3326 13.0101 25.3573 13.4121L25.4807 15.4187C25.0258 15.854 25.5301 16.2227 26.01 16.1932ZM28.2815 14.0394C28.4049 16.0459 28.9096 16.4185 29.3895 16.389C30.3493 16.33 30.3247 15.9279 30.2013 13.9214C30.1026 12.3169 30.0531 11.5128 30.0531 11.5128C28.6134 11.6013 28.1581 12.0329 28.2815 14.0394ZM31.6116 13.4311C31.7597 15.8396 31.8093 16.6437 32.2398 15.8101C32.2153 15.4118 32.1657 14.6077 31.6116 13.4311ZM33.0513 13.3425C33.1502 14.9507 33.7042 16.1236 33.7042 16.1236C34.1841 16.0941 33.8878 11.2769 33.3832 10.9044C33.3585 10.5023 32.9526 11.738 33.0513 13.3425ZM34.9463 12.8224C35.1191 15.633 35.6485 16.4076 36.5835 15.9465L36.3859 12.7338C36.2625 10.7273 36.2379 10.3253 35.758 10.3548C35.2736 10.3846 34.8229 10.8158 34.9463 12.8224ZM37.3659 13.0771C37.5635 16.2898 38.0435 16.2603 38.4987 15.8287C38.9538 15.3972 38.6329 10.178 37.6731 10.237C37.6731 10.237 37.2673 11.4727 37.3659 13.0771ZM39.7364 12.5278C39.835 14.1322 39.9339 15.7405 40.4138 15.711C40.4138 15.711 40.3149 14.1027 40.2162 12.4982C40.1173 10.89 40.0433 9.68762 40.0433 9.68762C39.5634 9.71713 39.6377 10.9233 39.7364 12.5278ZM41.8782 16.0244C42.3581 15.9949 42.3087 15.1908 42.6404 12.7527C42.4429 9.54005 41.8887 8.36337 41.5572 10.8052C41.6314 12.0114 41.6806 12.8118 41.6806 12.8118L41.7795 14.42C41.3736 15.6519 41.3983 16.054 41.8782 16.0244ZM45.4165 10.9715C45.466 11.7756 45.0848 13.4095 45.1096 13.8116C45.1838 15.0178 45.2085 15.4198 46.1683 15.3608C46.673 15.7333 46.6482 15.3313 46.4753 12.5207L46.2777 9.30795L44.8133 8.99446C43.8535 9.0535 43.3736 9.08297 43.4723 10.6874L43.6699 13.9001C43.7441 15.1063 43.7933 15.9067 43.7933 15.9067C44.2732 15.8771 44.6542 14.2394 44.5556 12.635C44.4322 10.6284 44.3826 9.82434 44.8625 9.79482C45.3177 9.36325 45.8222 9.73578 45.4165 10.9715ZM47.5045 13.6643C47.5787 14.8705 47.6281 15.6708 48.108 15.6413C48.5879 15.6118 48.5383 14.8077 48.3655 11.997C48.1431 8.38229 48.1432 8.3823 47.7622 10.02C47.3318 10.8537 47.4303 12.4581 47.5045 13.6643ZM49.8546 12.7126C50.0027 15.1212 50.0275 15.5232 50.9873 15.4642C52.427 15.3757 52.4023 14.9736 52.8282 14.1403C53.234 12.9046 52.9624 8.48949 52.4825 8.519C52.0026 8.54852 51.6214 10.1825 51.2899 12.6243C51.4133 14.6309 51.4132 14.6309 50.8593 13.458L50.6617 10.2453C50.6123 9.44115 50.563 8.64084 50.563 8.64084C49.6075 8.69583 49.6817 9.90197 49.8546 12.7126ZM53.6647 12.0747C53.8128 14.4833 53.8375 14.8853 54.3174 14.8558C54.7973 14.8263 54.7477 14.0222 54.5749 11.2116C54.3483 7.60086 53.8975 8.0284 53.6647 12.0747ZM55.5798 11.9569C55.6787 13.5651 55.7279 14.3655 56.2078 14.336C57.1676 14.2769 57.1676 14.2769 56.9948 11.4663C56.8958 9.85807 56.8218 8.65568 56.3419 8.6852C55.8372 8.31266 55.8868 9.11678 55.5798 11.9569ZM58.5287 12.9863L58.257 8.56741L57.8513 9.80307C57.4746 11.4368 58.1273 14.2179 58.5287 12.9863ZM59.9932 13.2998C60.4731 13.2703 60.4237 12.4661 60.3498 11.2637C60.3003 10.4596 60.2507 9.6555 59.7708 9.68502C59.7708 9.68502 59.3157 10.1166 59.3405 10.5186L59.4392 12.1231C59.0087 12.9567 59.5133 13.3293 59.9932 13.2998ZM61.3092 11.2009C61.3339 11.603 61.8634 12.3776 61.8634 12.3776C62.3433 12.3481 62.2938 11.544 62.269 11.1419C62.2443 10.7399 62.2197 10.3378 61.7398 10.3673C61.7398 10.3673 61.2845 10.7989 61.3092 11.2009ZM62.7445 11.1127C62.7692 11.5147 63.2739 11.8873 63.7538 11.8578C64.2337 11.8282 64.2089 11.4262 64.2089 11.4262C64.1842 11.0241 64.1595 10.6221 63.6796 10.6516C63.1997 10.6811 62.7198 10.7106 62.7445 11.1127ZM37.8175 51.7475C40.262 52.4043 53.661 51.1766 53.6115 50.3725C53.6115 50.3725 52.1718 50.4611 50.2567 50.5789L42.1075 51.0801C36.3329 51.0316 35.853 51.0611 37.8175 51.7475ZM21.2518 48.3345C21.7565 48.7071 23.2163 49.0209 25.1359 48.9028C26.6003 49.2163 29.0202 49.471 30.4846 49.7845C31.4444 49.7255 33.3842 50.0098 34.3192 49.5487C34.7991 49.5192 38.6586 49.6854 42.0134 49.4791C45.8481 49.2432 49.2028 49.0369 49.2028 49.0369C49.6827 49.0074 54.9279 48.2812 60.1776 47.5548C67.3671 47.1126 71.1771 46.4747 72.5921 45.9841C74.4577 45.0622 74.433 44.6601 72.5426 45.18C70.6725 46.1021 54.9079 47.8789 47.2385 48.3506C44.3636 48.5274 38.5844 48.4792 34.245 48.3426C30.3856 48.1763 25.5664 48.0692 24.1312 48.1574C22.6915 48.246 21.2316 47.9322 20.7517 47.9617C20.7517 47.9617 20.7472 47.962 21.2518 48.3345ZM32.2618 39.5934C29.8668 39.7407 27.0122 40.3198 25.1219 40.8397C23.7069 41.3303 21.3365 41.8796 19.8968 41.9682C17.5265 42.5175 15.6563 43.4397 15.7056 44.2401C15.755 45.0442 17.7442 46.1288 19.6638 46.0107C20.6236 45.9517 21.1034 45.9222 21.608 46.2947C21.608 46.2947 24.5077 46.52 27.8873 46.7157C30.7869 46.9409 35.1262 47.0776 37.0706 47.3616C40.4501 47.5573 49.0792 47.0266 56.6992 45.7508C59.5741 45.574 63.8639 44.9066 66.7388 44.7298C69.1338 44.5824 72.4684 43.9738 73.399 43.513C75.7692 42.9636 78.5501 41.182 78.5253 40.78C78.4759 39.9759 76.0314 39.3191 72.1474 38.7546C70.2031 38.4706 67.3036 38.2453 65.8437 37.9315C64.3793 37.618 62.464 37.7358 61.0243 37.8244C60.0645 37.8834 58.1247 37.5992 57.1649 37.6582C55.2251 37.3739 54.7699 37.8054 53.8596 38.6686C53.4044 39.1002 52.974 39.9338 52.5186 40.3616C52.0632 40.7894 51.1036 40.8522 44.8986 41.6374C38.189 42.0501 37.2292 42.1091 36.6999 41.3345C36.1952 40.962 35.6658 40.1874 35.6413 39.7891C35.6166 39.387 35.6166 39.387 32.2618 39.5934ZM51.4106 38.0121C51.3859 37.61 49.9463 37.6986 46.1363 38.3365C43.2614 38.5133 40.382 38.6904 39.402 38.3471C38.4422 38.4061 37.4869 38.4649 37.4869 38.4649C37.4869 38.4649 37.5116 38.8669 37.5611 39.671C38.1151 40.8477 38.5949 40.8182 46.2396 39.9444C50.525 39.2773 51.94 38.7867 51.4106 38.0121ZM27.552 33.4334C31.0302 35.2336 35.4437 36.5764 38.8233 36.7721C40.2877 37.0856 41.723 36.9974 41.723 36.9974C41.723 36.9974 44.1179 36.8501 46.9725 36.2709C58.4519 35.1613 66.8095 30.2117 69.2647 23.2112C71.2645 16.6385 72.8136 10.4972 71.8538 10.5562C71.8538 10.5562 66.1782 12.116 61.0025 14.0448C54.8962 16.4345 52.0414 17.0137 42.4322 17.2011C28.5083 17.6539 18.3653 17.067 14.9118 15.6689C13.4227 14.9533 13.4226 14.9533 13.9767 16.13C16.7669 22.4081 23.0645 30.8881 27.552 33.4334ZM18.4783 26.7346C17.9489 25.96 17.395 24.7871 16.3903 24.0418C15.8362 22.8651 14.3022 21.3489 13.293 20.6038C11.7544 19.0842 10.7991 19.1429 9.35945 19.2314C6.48454 19.4083 6.10349 21.046 8.64664 23.3073C10.6607 24.7977 12.6542 25.882 15.5785 26.5093C17.0182 26.4208 18.4783 26.7346 18.503 27.1366C19.4875 27.4797 19.4628 27.0776 18.4783 26.7346ZM18.6266 29.1469C18.6019 28.7449 15.6529 27.7193 14.6931 27.7783C11.3383 27.9847 4.80789 23.5509 4.63479 20.7365C4.51138 18.73 9.20709 16.8269 11.6516 17.4837C12.6608 18.2288 13.1158 17.7972 12.6112 17.4247C12.0324 15.846 10.0188 14.3593 8.09916 14.4773C6.15484 14.1933 4.26434 14.7132 2.92333 16.4062C1.55782 17.7009 1.7555 20.9136 2.78924 22.057C3.29387 22.4295 3.34324 23.2336 3.36797 23.6357C3.49138 25.6422 8.93862 28.1285 13.7534 28.2359C15.1931 28.1474 16.653 28.4612 17.1576 28.8337C18.1711 29.5747 18.6511 29.5452 18.6266 29.1469Z" fill="white"/>
</svg>
