<svg width="72" height="72" viewBox="0 0 72 72" fill="none" xmlns="http://www.w3.org/2000/svg">
<circle cx="36" cy="36" r="36" fill="#FFDEDE"/>
<g clip-path="url(#clip0_730_3043)">
<path d="M35.9977 35C37.514 35 38.9963 34.5504 40.257 33.7079C41.5178 32.8655 42.5005 31.6681 43.0807 30.2672C43.661 28.8663 43.8128 27.3248 43.517 25.8376C43.2212 24.3505 42.491 22.9844 41.4188 21.9122C40.3466 20.84 38.9805 20.1098 37.4934 19.814C36.0062 19.5182 34.4647 19.67 33.0638 20.2503C31.6629 20.8305 30.4655 21.8132 29.6231 23.074C28.7806 24.3347 28.331 25.817 28.331 27.3333C28.331 29.3667 29.1387 31.3167 30.5765 32.7545C32.0143 34.1923 33.9643 35 35.9977 35ZM35.9977 23.5C36.7558 23.5 37.497 23.7248 38.1274 24.146C38.7577 24.5672 39.2491 25.1659 39.5392 25.8664C39.8293 26.5668 39.9053 27.3376 39.7573 28.0812C39.6094 28.8248 39.2443 29.5078 38.7082 30.0439C38.1721 30.58 37.4891 30.9451 36.7455 31.093C36.0019 31.2409 35.2312 31.165 34.5307 30.8749C33.8303 30.5847 33.2316 30.0934 32.8104 29.463C32.3892 28.8326 32.1643 28.0915 32.1643 27.3333C32.1643 26.3167 32.5682 25.3416 33.2871 24.6228C34.006 23.9039 34.981 23.5 35.9977 23.5ZM52.596 29.5509L51.2179 29.0928C51.4659 26.946 51.2573 24.771 50.6057 22.7105C49.9542 20.65 48.8744 18.7504 47.4373 17.1365C46.0001 15.5225 44.238 14.2305 42.2666 13.3453C40.2951 12.4601 38.1588 12.0017 35.9977 12C33.8084 12.0008 31.6447 12.4709 29.6524 13.3785C27.6601 14.2862 25.8855 15.6102 24.4481 17.2616C23.0107 18.9129 21.9439 20.8532 21.3197 22.9516C20.6954 25.05 20.5281 27.2578 20.8292 29.4263C18.995 29.7683 17.2989 30.6337 15.9455 31.918C15.0086 32.8088 14.2638 33.8817 13.7568 35.071C13.2499 36.2602 12.9915 37.5406 12.9977 38.8333V46.6438C13.0017 48.7163 13.6758 50.732 14.9193 52.39C16.1628 54.0481 17.9091 55.2596 19.8977 55.8438L25.3985 57.5688C26.3225 57.8563 27.2848 58.0017 28.2524 58C29.1302 57.9989 30.0039 57.879 30.8495 57.6435L41.9278 54.366C42.9148 54.0966 43.9558 54.0966 44.9428 54.366L49.5178 55.8993C50.6454 56.1738 51.8206 56.1887 52.9547 55.9429C54.0889 55.6971 55.1525 55.1971 56.0653 54.4805C56.9781 53.7638 57.7163 52.8494 58.2242 51.8059C58.7322 50.7625 58.9966 49.6174 58.9977 48.4569V38.588C58.9933 36.605 58.3758 34.6719 57.2297 33.0537C56.0836 31.4355 54.4651 30.2113 52.596 29.549V29.5509ZM27.8672 19.2105C28.9333 18.14 30.2004 17.2906 31.5956 16.711C32.9909 16.1315 34.4868 15.8331 35.9977 15.8331C37.5085 15.8331 39.0045 16.1315 40.3997 16.711C41.795 17.2906 43.062 18.14 44.1282 19.2105C46.279 21.3747 47.4879 24.3008 47.4919 27.352C47.4958 30.4032 46.2945 33.3324 44.1493 35.5022L37.3393 42.1243C36.9839 42.4727 36.506 42.6679 36.0082 42.6679C35.5104 42.6679 35.0325 42.4727 34.6771 42.1243L27.8672 35.5309C25.7118 33.362 24.5021 30.4284 24.5021 27.3707C24.5021 24.313 25.7118 21.3794 27.8672 19.2105ZM55.1643 48.4569C55.1655 49.0374 55.0342 49.6106 54.7805 50.1327C54.5267 50.6548 54.1572 51.1122 53.7 51.4699C53.268 51.8172 52.7648 52.0651 52.2262 52.196C51.6875 52.3268 51.1267 52.3374 50.5835 52.227L46.0889 50.7167C44.3888 50.2282 42.5871 50.2176 40.8813 50.686L29.7953 53.9597C28.7302 54.2535 27.603 54.2342 26.5485 53.9041L21.0017 52.1791C19.8012 51.8319 18.7457 51.1047 17.9936 50.1066C17.2416 49.1085 16.8337 47.8934 16.831 46.6438V38.8333C16.8267 38.0586 16.9809 37.2911 17.2841 36.5782C17.5874 35.8652 18.0333 35.2219 18.5943 34.6876C19.4727 33.8505 20.5915 33.3102 21.7933 33.1428C22.5659 35.0578 23.7164 36.7977 25.1762 38.2583L32.0129 44.8766C33.0815 45.9229 34.5175 46.5089 36.013 46.5089C37.5085 46.5089 38.9445 45.9229 40.0131 44.8766L46.8422 38.2392C48.3712 36.704 49.5558 34.8608 50.3171 32.8323L51.3463 33.1734C52.4625 33.5734 53.4282 34.308 54.1115 35.277C54.7948 36.2461 55.1624 37.4023 55.1643 38.588V48.4569Z" fill="#FF5C5C"/>
</g>
<defs>
<clipPath id="clip0_730_3043">
<rect width="46" height="46" fill="white" transform="translate(13 12)"/>
</clipPath>
</defs>
</svg>
