<svg width="63" height="63" viewBox="0 0 63 63" fill="none" xmlns="http://www.w3.org/2000/svg">
<path d="M31.1398 60.7336V59.3795H30.9705C27.0642 59.3795 23.3505 58.5882 19.9697 57.1587C14.9 55.0154 10.5838 51.432 7.53468 46.9219C4.48836 42.4118 2.71051 36.9828 2.7091 31.1278V30.9578C2.7091 27.0549 3.49996 23.3425 4.9307 19.9629C7.07399 14.895 10.6593 10.5781 15.171 7.53211C19.6826 4.48471 25.1135 2.70818 30.9705 2.70818H31.1398C35.0447 2.70818 38.7599 3.49876 42.1392 4.9269C47.2089 7.07017 51.5272 10.6536 54.5735 15.1637C57.6227 19.6738 59.3998 25.1028 59.3998 30.9578V31.1278C59.3998 35.0328 58.6082 38.7452 57.1803 42.1248C55.0363 47.1927 51.451 51.5096 46.9394 54.5549C42.4277 57.6009 36.9975 59.3795 31.1398 59.3795V62.0877C35.4116 62.0877 39.4893 61.2209 43.1953 59.6539C48.7546 57.3033 53.4814 53.3778 56.8191 48.4382C60.1582 43.4986 62.1103 37.535 62.1089 31.1278V30.9578C62.1089 26.6882 61.244 22.6111 59.6743 18.9086C57.3228 13.3497 53.3982 8.62455 48.4569 5.28799C43.5156 1.95003 37.5478 -0.00211391 31.1398 1.71783e-06H30.9705C26.6973 1.71783e-06 22.621 0.864643 18.915 2.43383C13.3557 4.78444 8.62961 8.70777 5.2898 13.6474C1.95069 18.587 0 24.552 0 30.9578V31.1278C0 35.3995 0.867053 39.4745 2.43466 43.1791C4.78607 48.7365 8.71215 53.461 13.6541 56.7997C18.5954 60.1377 24.5604 62.0877 30.9705 62.0877H31.1398V60.7336Z" fill="#2F3031"/>
<path d="M15.9067 22.6396C15.9067 19.3552 18.5799 16.6816 21.8646 16.6816H40.2449C43.5325 16.6816 46.2049 19.3552 46.2049 22.6396V39.4479C46.2049 42.7344 43.5325 45.4058 40.2449 45.4058H21.8646C18.5799 45.4058 15.9067 42.7344 15.9067 39.4479V22.6396ZM40.2449 13.4353H21.8646C16.7879 13.4353 12.6572 17.5646 12.6572 22.6396V39.4479C12.6572 44.525 16.7879 48.6542 21.8646 48.6542H40.2449C45.3223 48.6542 49.4523 44.525 49.4523 39.4479V22.6396C49.4523 17.5646 45.3223 13.4353 40.2449 13.4353Z" fill="#2F3031"/>
<path d="M31.0552 25.7309C33.9865 25.7309 36.3725 28.1161 36.3725 31.0464C36.3725 33.976 33.9865 36.3612 31.0552 36.3612C28.1239 36.3612 25.7379 33.976 25.7379 31.0464C25.7379 28.1161 28.1239 25.7309 31.0552 25.7309ZM31.0552 39.6096C35.7785 39.6096 39.6199 35.7674 39.6199 31.0464C39.6199 26.3247 35.7785 22.4846 31.0552 22.4846C26.3326 22.4846 22.4912 26.3247 22.4912 31.0464C22.4912 35.7674 26.3326 39.6096 31.0552 39.6096Z" fill="#2F3031"/>
<path d="M40.4148 23.8573C41.6882 23.8573 42.7232 22.8234 42.7232 21.5504C42.7232 20.2795 41.6882 19.2428 40.4148 19.2428C39.1435 19.2428 38.1064 20.2795 38.1064 21.5504C38.1064 22.8234 39.1435 23.8573 40.4148 23.8573Z" fill="#2F3031"/>
</svg>
