<svg width="62" height="62" viewBox="0 0 62 62" fill="none" xmlns="http://www.w3.org/2000/svg">
<path d="M60.6478 30.9141H59.2957V31.0838C59.2957 34.9833 58.5062 38.6905 57.0801 42.0653C54.9398 47.1261 51.3594 51.4368 46.8578 54.4778C42.3519 57.5195 36.9327 59.2957 31.0838 59.2957H30.9162C27.0167 59.2957 23.3102 58.5055 19.9347 57.0779C14.8739 54.9377 10.5632 51.3594 7.52217 46.8556C4.48049 42.3519 2.70435 36.9306 2.70435 31.0838V30.9141C2.70435 27.0167 3.49452 23.3095 4.92065 19.9347C7.06018 14.8739 10.6406 10.5632 15.1429 7.52147C19.6481 4.47837 25.068 2.70435 30.9162 2.70435H31.0838C34.984 2.70435 38.6905 3.49382 42.0653 4.91994C47.1261 7.06018 51.4368 10.6385 54.4785 15.1422C57.5202 19.646 59.2957 25.0673 59.2957 30.9141H62C62 26.6505 61.1345 22.5792 59.5696 18.8818C57.2223 13.3309 53.3045 8.61236 48.3705 5.28052C43.4372 1.94727 37.4827 -0.00211092 31.0838 1.7154e-06H30.9162C26.6505 1.7154e-06 22.5813 0.863421 18.8818 2.43039C13.3309 4.77768 8.61448 8.69547 5.28123 13.6281C1.94727 18.5607 0 24.5173 0 30.9141V31.0838C0 35.3495 0.865532 39.4187 2.43039 43.1182C4.77768 48.6677 8.69547 53.3855 13.6302 56.7195C18.5628 60.0527 24.518 62 30.9162 62H31.0838C35.3495 62 39.4187 61.1345 43.1182 59.5696C48.6677 57.2223 53.3855 53.3024 56.7195 48.3698C60.0527 43.4372 62 37.482 62 31.0838V30.9141H60.6478Z" fill="#2F3031"/>
<path d="M33.6666 28.5427V31.0117H42.2465L39.9357 37.1974H33.929V60H25.4699V37.1974H20V31.0117H25.4699V28.4756C25.4699 24.6876 26.5996 21.5465 28.7413 19.395C30.9489 17.1742 34.2434 16 38.267 16C40.9153 16 43.3692 16.5208 45 17.4154L42.925 23.2287C41.8261 22.6823 40.5595 22.3905 39.2572 22.3905C35.6532 22.3905 33.6666 24.5763 33.6666 28.5427Z" fill="#2F3031"/>
</svg>
