<svg width="62" height="62" viewBox="0 0 62 62" fill="none" xmlns="http://www.w3.org/2000/svg">
<path d="M22.2914 25.0262V48H14.7101V25.0262H22.2914ZM15.2652 20.7272C14.422 19.9782 14 19.0501 14 17.9474C14 16.8162 14.422 15.8751 15.2652 15.1239C16.1061 14.3749 17.1919 14 18.5232 14C19.8234 14 20.8939 14.3749 21.7371 15.1239C22.5795 15.8751 23 16.8162 23 17.9474C23 19.0501 22.5795 19.9782 21.7371 20.7272C20.8939 21.4784 19.8234 21.8525 18.5232 21.8525C17.1919 21.8525 16.1061 21.4784 15.2652 20.7272Z" fill="#2F3031"/>
<path d="M31.0849 60.6478V59.2957H30.9151C27.0172 59.2957 23.3087 58.5062 19.9361 57.0801C14.8734 54.9398 10.5649 51.3608 7.52121 46.8578C4.48033 42.3519 2.70637 36.9327 2.70426 31.0859V30.9162C2.70637 27.0167 3.4937 23.3095 4.92189 19.9347C7.06205 14.8739 10.6403 10.5632 15.1438 7.52147C19.6474 4.48049 25.0686 2.70435 30.9151 2.70435H31.0849C34.9821 2.70435 38.6906 3.49382 42.0639 4.91994C47.1266 7.06229 51.4351 10.6406 54.4781 15.1444C57.5197 19.6481 59.2936 25.0694 59.2957 30.9162V31.0859C59.2936 34.9833 58.5056 38.6905 57.0781 42.0653C54.938 47.1261 51.359 51.4368 46.8562 54.4785C42.3526 57.5216 36.9314 59.2957 31.0849 59.2957V62C39.6174 62.0021 47.3534 58.5386 52.9443 52.9461C58.5366 47.355 62 39.6173 62 31.0859V30.9162C62 26.6505 61.1345 22.5813 59.5697 18.8818C57.2225 13.3323 53.3027 8.61448 48.3703 5.28052C43.4378 1.94727 37.4828 0 31.0849 0H30.9151C26.6517 0 22.5805 0.865532 18.8812 2.43039C13.3318 4.77768 8.61418 8.69547 5.28034 13.6302C1.94861 18.5628 0 24.518 0 30.9162V31.0859C0 35.3495 0.865503 39.4187 2.43031 43.1182C4.77752 48.6691 8.69728 53.3855 13.6297 56.7195C18.5622 60.0527 24.5172 62.0021 30.9151 62H31.0849V60.6478Z" fill="#2F3031"/>
<path d="M45.6794 27.4782C47.226 29.1289 48 31.3978 48 34.2849V47H41.2616V35.1809C41.2616 33.7255 40.8775 32.5949 40.1106 31.7885C39.3437 30.982 38.3129 30.5788 37.0203 30.5788C35.7234 30.5788 34.6947 30.982 33.9278 31.7885C33.1609 32.5949 32.7782 33.7255 32.7782 35.1809V47H26V25.2345H32.7782V28.1216C33.4654 27.159 34.3881 26.3994 35.5519 25.8387C36.7158 25.2793 38.0233 25 39.4767 25C42.0662 25 44.1357 25.8261 45.6794 27.4782Z" fill="#2F3031"/>
</svg>
