<svg width="72" height="72" viewBox="0 0 72 72" fill="none" xmlns="http://www.w3.org/2000/svg">
<circle cx="36" cy="36" r="36" fill="#ECE3FF"/>
<path d="M48.8333 17.7148H23.1667C20.7364 17.7175 18.4065 18.6218 16.6881 20.2294C14.9696 21.837 14.0029 24.0166 14 26.2901L14 46.8707C14.0029 49.1442 14.9696 51.3237 16.6881 52.9313C18.4065 54.5389 20.7364 55.4432 23.1667 55.446H48.8333C51.2636 55.4432 53.5935 54.5389 55.3119 52.9313C57.0304 51.3237 57.9971 49.1442 58 46.8707V26.2901C57.9971 24.0166 57.0304 21.837 55.3119 20.2294C53.5935 18.6218 51.2636 17.7175 48.8333 17.7148ZM23.1667 21.1449H48.8333C49.9311 21.1469 51.0031 21.4562 51.9114 22.033C52.8197 22.6097 53.5227 23.4275 53.93 24.3812L39.8903 37.5168C38.8571 38.4795 37.4583 39.02 36 39.02C34.5417 39.02 33.1429 38.4795 32.1097 37.5168L18.07 24.3812C18.4773 23.4275 19.1803 22.6097 20.0886 22.033C20.9969 21.4562 22.0689 21.1469 23.1667 21.1449ZM48.8333 52.0159H23.1667C21.708 52.0159 20.309 51.4738 19.2776 50.5089C18.2461 49.544 17.6667 48.2353 17.6667 46.8707V28.8626L29.5173 39.9419C31.2382 41.5476 33.5695 42.4494 36 42.4494C38.4305 42.4494 40.7619 41.5476 42.4827 39.9419L54.3333 28.8626V46.8707C54.3333 48.2353 53.7539 49.544 52.7224 50.5089C51.691 51.4738 50.292 52.0159 48.8333 52.0159Z" fill="#9E75FF"/>
</svg>
