<svg width="72" height="91" viewBox="0 0 72 91" fill="none" xmlns="http://www.w3.org/2000/svg">
<circle cx="36" cy="36" r="36" fill="#374957"/>
<path d="M36.5662 59.9313V58.8627H36.4338C33.3519 58.8627 30.4226 58.2388 27.7549 57.1117C23.7552 55.4202 20.3483 52.5916 17.9449 49.0327C15.541 45.4717 14.1373 41.1887 14.1373 36.5679V36.4338C14.1373 33.3519 14.7618 30.422 15.8889 27.7549C17.5798 23.7552 20.4095 20.3483 23.9678 17.9444C27.5283 15.541 31.8118 14.1373 36.4338 14.1373H36.5662C39.6486 14.1373 42.578 14.7612 45.2452 15.8883C49.2448 17.5815 52.6517 20.4095 55.0556 23.9689C57.4595 27.5283 58.8627 31.813 58.8627 36.4338V36.5679C58.8627 39.6481 58.2388 42.578 57.1117 45.2452C55.4202 49.2448 52.5905 52.6517 49.0327 55.0556C45.4717 57.4606 41.1887 58.8627 36.5662 58.8627V61C39.9375 61 43.1535 60.316 46.0773 59.0792C50.4632 57.2241 54.1918 54.1278 56.8267 50.2294C59.461 46.3311 61 41.6234 61 36.5679V36.4338C61 33.0625 60.316 29.8465 59.0792 26.9227C57.2241 22.5368 54.1278 18.8082 50.2283 16.1733C46.3294 13.539 41.6234 12 36.5662 12H36.4338C33.0625 12 29.8465 12.684 26.9227 13.9208C22.5357 15.7759 18.8082 18.8722 16.1739 22.7723C13.539 26.6706 12 31.3771 12 36.4338V36.5679C12 39.9375 12.684 43.1535 13.9208 46.0773C15.7759 50.4643 18.8722 54.1918 22.7723 56.8267C26.6706 59.461 31.3771 61.0017 36.4338 61H36.5662V59.9313Z" fill="#2AC4AE"/>
<path d="M41.0656 43.3539C35.0683 43.3523 30.1881 38.4721 30.187 32.4748C30.1898 30.9548 31.4265 29.718 32.9438 29.718C33.1008 29.718 33.2544 29.7308 33.4013 29.7575C33.7275 29.8104 34.0353 29.9217 34.3203 30.087C34.3614 30.111 34.3887 30.151 34.3959 30.1967L35.0299 34.1919C35.0371 34.2392 35.0227 34.286 34.9915 34.3205C34.6425 34.709 34.195 34.9873 33.6991 35.1264L33.4598 35.1938L33.551 35.4259C34.3687 37.5075 36.0329 39.1717 38.1162 39.991L38.3472 40.0823L38.414 39.843C38.5537 39.3459 38.8331 38.8984 39.2205 38.5494C39.2489 38.5238 39.2862 38.5094 39.3246 38.5094L39.3485 38.5121L43.3443 39.145C43.391 39.1517 43.4311 39.1789 43.455 39.2218C43.6192 39.5051 43.73 39.8146 43.7845 40.1396C43.8101 40.2849 43.8229 40.4374 43.8229 40.5966C43.8229 42.1155 42.5862 43.3523 41.0656 43.3539Z" fill="#2AC4AE"/>
<path d="M31.8144 47.0754L26.1789 47.6754L27.8615 43.9479L27.5253 43.4943C27.4997 43.462 27.4752 43.4292 27.4485 43.3908C25.988 41.3731 25.2155 38.9892 25.2155 36.4968C25.2155 29.9981 30.502 24.7121 37.0007 24.7121C43.0893 24.7121 48.2472 29.461 48.7448 35.5239C48.7715 35.849 48.786 36.1751 48.786 36.4968C48.786 36.5881 48.7843 36.6794 48.7815 36.7751C48.6574 42.2108 44.8587 46.8288 39.5471 48.0043C39.1408 48.094 38.7261 48.1624 38.3115 48.2081C37.8812 48.2565 37.4399 48.2821 37.0007 48.2821C35.4389 48.2821 33.9228 47.9799 32.4884 47.3815C32.3287 47.3175 32.1734 47.249 32.0265 47.1778L31.8144 47.0754ZM51.7042 35.1805C51.3808 31.5254 49.7049 28.1357 46.9893 25.635C44.2548 23.1186 40.7082 21.7338 37.0007 21.7338C28.8606 21.7338 22.2377 28.3567 22.2377 36.4968C22.2377 39.2286 22.9913 41.8902 24.4179 44.2084L21.2358 51.2515L31.4237 50.1673C33.1947 50.8908 35.0716 51.2598 37.0007 51.2598C37.5078 51.2598 38.0282 51.2331 38.5497 51.1791C39.0083 51.1307 39.4742 51.0595 39.93 50.9665C46.7483 49.589 51.7242 43.5371 51.7637 36.5753V36.4968C51.7637 36.0527 51.7426 35.6091 51.7042 35.1805Z" fill="#2AC4AE"/>
<g filter="url(#filter0_d_1054_348)">
<path d="M35.3159 81.8485C34.9174 82.4109 34.0826 82.4109 33.6841 81.8485L23.9269 68.0781C23.4576 67.4159 23.9312 66.5 24.7428 66.5L44.2572 66.5C45.0688 66.5 45.5424 67.4159 45.0731 68.0781L35.3159 81.8485Z" fill="#374957"/>
</g>
<circle cx="36" cy="36" r="36" fill="#374957"/>
<g filter="url(#filter1_d_1054_348)">
<path d="M35.3159 81.8485C34.9174 82.4109 34.0826 82.4109 33.6841 81.8485L23.9269 68.0781C23.4576 67.4159 23.9312 66.5 24.7428 66.5L44.2572 66.5C45.0688 66.5 45.5424 67.4159 45.0731 68.0781L35.3159 81.8485Z" fill="#374957"/>
</g>
<path d="M34.6769 55.9962C29.7854 55.9962 24.8931 56.0084 20.0007 55.9897C18.3009 55.9831 17.0708 55.1383 16.3347 53.5384C16.0558 52.9349 16 52.2847 16 51.6241C16 43.1032 16 34.5822 16 26.0613C16 24.4951 16 22.9279 16 21.3608C16 20.2998 16.2897 19.3502 16.9682 18.5493C17.8078 17.5519 18.8795 17.1253 20.1392 17.1253C25.6228 17.129 31.1067 17.1315 36.5909 17.1328C36.71 17.144 36.8296 17.1182 36.9346 17.0585C37.0395 16.9989 37.1251 16.9081 37.1803 16.7978C38.4697 14.688 40.273 13.2528 42.5586 12.4884C43.7761 12.0814 45.0385 11.9008 46.3055 12.0542C50.2593 12.5342 53.0677 14.674 54.6235 18.5016C55.2453 20.0303 55.4262 21.649 55.2615 23.3115C55.087 25.0714 54.4832 26.6582 53.5518 28.1225C53.4058 28.355 53.3328 28.629 53.3431 28.9065C53.3485 36.5236 53.3509 44.1405 53.3503 51.757C53.3503 52.8919 53.0173 53.8846 52.2705 54.7116C51.7057 55.3563 50.9459 55.7809 50.1172 55.9148C49.8073 55.9653 49.4941 55.9916 49.1805 55.9934C44.3435 55.9984 39.509 55.9994 34.6769 55.9962ZM36.0879 19.2042C35.9835 19.1986 35.9079 19.1911 35.8242 19.1911C35.2402 19.1911 34.6544 19.1911 34.0714 19.1911H20.0492C19.6198 19.175 19.1963 19.299 18.8381 19.5457C18.2082 19.9985 17.9706 20.6413 17.9706 21.4169C17.9766 28.7253 17.9772 36.034 17.9724 43.343C17.9724 46.1417 17.9724 48.9405 17.9724 51.7392C17.9724 51.9413 18.0039 52.1434 18.0246 52.3988C18.1317 52.2978 18.1884 52.2482 18.2406 52.1939C25.0715 45.0833 31.9034 37.9763 38.7361 30.8732C38.8891 30.715 38.9017 30.6046 38.7892 30.4194C38.2349 29.5044 37.6914 28.5828 37.1461 27.6621C36.2134 26.1179 35.7015 24.3394 35.665 22.5163C35.6368 21.6669 35.7176 20.8173 35.9052 19.9901C35.9682 19.7375 36.024 19.4849 36.0879 19.2042ZM45.4893 38.8745C45.5262 38.7978 45.5631 38.7332 45.5892 38.6649C46.1804 37.1577 46.8184 35.671 47.6192 34.2732C48.9879 31.8883 50.3871 29.5221 51.7945 27.1625C52.4387 26.0828 52.9804 24.9732 53.1982 23.7008C53.4365 22.4082 53.3576 21.0741 52.9687 19.8217C52.1337 17.1805 50.4492 15.3729 47.9063 14.4887C46.0508 13.8385 44.1828 13.904 42.4047 14.7432C39.4856 16.1214 37.8731 18.5137 37.65 21.8623C37.5402 23.3899 37.8859 24.9155 38.6398 26.2316C39.4326 27.635 40.2703 29.0076 41.0882 30.3932C42.1411 32.1765 43.2478 33.9261 44.1297 35.8132C44.5931 36.8134 45.0259 37.8294 45.4893 38.8745ZM45.9914 53.9033C45.9204 53.8256 45.8808 53.7807 45.8394 53.7377C44.1525 51.9806 42.4653 50.2241 40.7778 48.4683C38.1485 45.7319 35.5204 42.9943 32.8935 40.2555C32.7396 40.0955 32.6559 40.0983 32.5038 40.2555C28.2254 44.7177 23.9446 49.1775 19.6614 53.6348C19.5984 53.7002 19.5471 53.7788 19.4473 53.907L45.9914 53.9033ZM34.1433 38.6444C34.1793 38.6846 34.2378 38.7529 34.2999 38.8175L41.1134 45.9085C43.6288 48.5282 46.1441 51.1448 48.6594 53.7583C48.7251 53.8266 48.8124 53.9211 48.8907 53.922C49.2114 53.941 49.5331 53.9256 49.8508 53.8761C50.7075 53.7021 51.3742 52.8601 51.3724 51.7879C51.3586 45.2554 51.3562 38.7233 51.3652 32.1914C51.3652 32.1091 51.3562 32.0277 51.3517 31.9454C51.2396 32.0514 51.1442 32.1752 51.0692 32.3121C49.9669 34.1282 48.9195 35.9751 48.0539 37.9258C47.1063 40.0656 46.4342 42.3045 45.7467 44.5425C45.6702 44.7941 45.5847 45.0421 45.5037 45.291H45.4137C44.2134 40.7514 42.5685 36.4167 40.0067 32.5367L34.1433 38.6444Z" fill="#2AC4AE" stroke="#2AC4AE"/>
<path d="M31.453 30.4241H27.1158C26.8108 30.4241 26.8099 30.4241 26.8099 30.0966C26.8099 29.6129 26.8152 29.1301 26.8099 28.6474C26.8099 28.4509 26.8611 28.3667 27.0645 28.3667C29.2142 28.3723 31.3639 28.3667 33.5136 28.3667C33.6414 28.3667 33.789 28.3498 33.7593 28.5631C33.6639 29.2639 33.6351 29.9834 33.4578 30.6608C32.8945 32.808 31.5844 34.3097 29.5885 35.1012C27.0492 36.1051 24.3218 35.3884 22.5275 33.2889C21.3344 31.9024 20.7945 30.2444 20.9348 28.3891C21.0351 26.9943 21.5563 25.668 22.4241 24.5993C23.2918 23.5305 24.4619 22.7738 25.7675 22.437C27.0731 22.1002 28.4477 22.2005 29.6952 22.7236C30.9428 23.2467 31.9998 24.1659 32.7155 25.3503C32.8297 25.5374 32.8054 25.6253 32.6255 25.7245C32.1918 25.9696 31.7661 26.2288 31.3423 26.4926C31.1983 26.5815 31.1174 26.5759 31.0157 26.4187C30.0735 24.9667 28.7508 24.2668 27.0726 24.3173C25.2207 24.3772 23.521 25.8443 23.0485 27.6912C22.7466 28.827 22.8765 30.0401 23.4113 31.0792C23.946 32.1182 24.8447 32.9035 25.9212 33.2724C26.9976 33.6412 28.1693 33.5654 29.1934 33.0606C30.2175 32.5558 31.0157 31.6606 31.4224 30.5607C31.435 30.5158 31.4452 30.4702 31.453 30.4241Z" fill="#2AC4AE" stroke="#2AC4AE"/>
<path d="M49.4075 22.2421C49.4109 23.326 49.0005 24.3669 48.2664 25.1364C47.5324 25.906 46.5347 26.3412 45.4923 26.3467C43.3498 26.3654 41.5556 24.5129 41.543 22.2674C41.543 21.1798 41.9569 20.1363 42.6943 19.365C43.4318 18.5937 44.4328 18.1571 45.4788 18.1507C47.6339 18.1385 49.4003 19.977 49.4075 22.2421ZM43.5208 22.2506C43.5219 22.6539 43.638 23.0478 43.8544 23.3825C44.0709 23.7172 44.378 23.9777 44.7368 24.1308C45.0957 24.284 45.4901 24.3231 45.8703 24.2431C46.2506 24.1632 46.5994 23.9677 46.8728 23.6815C47.1461 23.3953 47.3317 23.0313 47.406 22.6354C47.4803 22.2396 47.44 21.8297 47.2902 21.4576C47.1404 21.0856 46.8878 20.7681 46.5644 20.5453C46.241 20.3226 45.8613 20.2046 45.4734 20.2062C44.9554 20.2136 44.4608 20.4317 44.0958 20.8139C43.7307 21.1961 43.5243 21.7119 43.5208 22.2506Z" fill="#2AC4AE" stroke="#2AC4AE"/>
<defs>
<filter id="filter0_d_1054_348" x="19.7412" y="66.5" width="29.5176" height="23.7703" filterUnits="userSpaceOnUse" color-interpolation-filters="sRGB">
<feFlood flood-opacity="0" result="BackgroundImageFix"/>
<feColorMatrix in="SourceAlpha" type="matrix" values="0 0 0 0 0 0 0 0 0 0 0 0 0 0 0 0 0 0 127 0" result="hardAlpha"/>
<feOffset dy="4"/>
<feGaussianBlur stdDeviation="2"/>
<feComposite in2="hardAlpha" operator="out"/>
<feColorMatrix type="matrix" values="0 0 0 0 0 0 0 0 0 0 0 0 0 0 0 0 0 0 0.16 0"/>
<feBlend mode="normal" in2="BackgroundImageFix" result="effect1_dropShadow_1054_348"/>
<feBlend mode="normal" in="SourceGraphic" in2="effect1_dropShadow_1054_348" result="shape"/>
</filter>
<filter id="filter1_d_1054_348" x="19.7412" y="66.5" width="29.5176" height="23.7703" filterUnits="userSpaceOnUse" color-interpolation-filters="sRGB">
<feFlood flood-opacity="0" result="BackgroundImageFix"/>
<feColorMatrix in="SourceAlpha" type="matrix" values="0 0 0 0 0 0 0 0 0 0 0 0 0 0 0 0 0 0 127 0" result="hardAlpha"/>
<feOffset dy="4"/>
<feGaussianBlur stdDeviation="2"/>
<feComposite in2="hardAlpha" operator="out"/>
<feColorMatrix type="matrix" values="0 0 0 0 0 0 0 0 0 0 0 0 0 0 0 0 0 0 0.16 0"/>
<feBlend mode="normal" in2="BackgroundImageFix" result="effect1_dropShadow_1054_348"/>
<feBlend mode="normal" in="SourceGraphic" in2="effect1_dropShadow_1054_348" result="shape"/>
</filter>
</defs>
</svg>
