<svg width="72" height="72" viewBox="0 0 72 72" fill="none" xmlns="http://www.w3.org/2000/svg">
<circle cx="36" cy="36" r="36" fill="#D5F3EF"/>
<path d="M34.6769 57.9962C29.7854 57.9962 24.8931 58.0084 20.0007 57.9897C18.3009 57.9831 17.0708 57.1383 16.3347 55.5384C16.0558 54.9349 16 54.2847 16 53.6241C16 45.1032 16 36.5822 16 28.0613C16 26.4951 16 24.9279 16 23.3608C16 22.2998 16.2897 21.3502 16.9682 20.5493C17.8078 19.5519 18.8795 19.1253 20.1392 19.1253C25.6228 19.129 31.1067 19.1315 36.5909 19.1328C36.71 19.144 36.8296 19.1182 36.9346 19.0585C37.0395 18.9989 37.1251 18.9081 37.1803 18.7978C38.4697 16.688 40.273 15.2528 42.5586 14.4884C43.7761 14.0814 45.0385 13.9008 46.3055 14.0542C50.2593 14.5342 53.0677 16.674 54.6235 20.5016C55.2453 22.0303 55.4262 23.649 55.2615 25.3115C55.087 27.0714 54.4832 28.6582 53.5518 30.1225C53.4058 30.355 53.3328 30.629 53.3431 30.9065C53.3485 38.5236 53.3509 46.1405 53.3503 53.757C53.3503 54.8919 53.0173 55.8846 52.2705 56.7116C51.7057 57.3563 50.9459 57.7809 50.1172 57.9148C49.8073 57.9653 49.4941 57.9916 49.1805 57.9934C44.3435 57.9984 39.509 57.9994 34.6769 57.9962ZM36.0879 21.2042C35.9835 21.1986 35.9079 21.1911 35.8242 21.1911C35.2402 21.1911 34.6544 21.1911 34.0714 21.1911H20.0492C19.6198 21.175 19.1963 21.299 18.8381 21.5457C18.2082 21.9985 17.9706 22.6413 17.9706 23.4169C17.9766 30.7253 17.9772 38.034 17.9724 45.343C17.9724 48.1417 17.9724 50.9405 17.9724 53.7392C17.9724 53.9413 18.0039 54.1434 18.0246 54.3988C18.1317 54.2978 18.1884 54.2482 18.2406 54.1939C25.0715 47.0833 31.9034 39.9763 38.7361 32.8732C38.8891 32.715 38.9017 32.6046 38.7892 32.4194C38.2349 31.5044 37.6914 30.5828 37.1461 29.6621C36.2134 28.1179 35.7015 26.3394 35.665 24.5163C35.6368 23.6669 35.7176 22.8173 35.9052 21.9901C35.9682 21.7375 36.024 21.4849 36.0879 21.2042ZM45.4893 40.8745C45.5262 40.7978 45.5631 40.7332 45.5892 40.6649C46.1804 39.1577 46.8184 37.671 47.6192 36.2732C48.9879 33.8883 50.3871 31.5221 51.7945 29.1625C52.4387 28.0828 52.9804 26.9732 53.1982 25.7008C53.4365 24.4082 53.3576 23.0741 52.9687 21.8217C52.1337 19.1805 50.4492 17.3729 47.9063 16.4887C46.0508 15.8385 44.1828 15.904 42.4047 16.7432C39.4856 18.1214 37.8731 20.5137 37.65 23.8623C37.5402 25.3899 37.8859 26.9155 38.6398 28.2316C39.4326 29.635 40.2703 31.0076 41.0882 32.3932C42.1411 34.1765 43.2478 35.9261 44.1297 37.8132C44.5931 38.8134 45.0259 39.8294 45.4893 40.8745ZM45.9914 55.9033C45.9204 55.8256 45.8808 55.7807 45.8394 55.7377C44.1525 53.9806 42.4653 52.2241 40.7778 50.4683C38.1485 47.7319 35.5204 44.9943 32.8935 42.2555C32.7396 42.0955 32.6559 42.0983 32.5038 42.2555C28.2254 46.7177 23.9446 51.1775 19.6614 55.6348C19.5984 55.7002 19.5471 55.7788 19.4473 55.907L45.9914 55.9033ZM34.1433 40.6444C34.1793 40.6846 34.2378 40.7529 34.2999 40.8175L41.1134 47.9085C43.6288 50.5282 46.1441 53.1448 48.6594 55.7583C48.7251 55.8266 48.8124 55.9211 48.8907 55.922C49.2114 55.941 49.5331 55.9256 49.8508 55.8761C50.7075 55.7021 51.3742 54.8601 51.3724 53.7879C51.3586 47.2554 51.3562 40.7233 51.3652 34.1914C51.3652 34.1091 51.3562 34.0277 51.3517 33.9454C51.2396 34.0514 51.1442 34.1752 51.0692 34.3121C49.9669 36.1282 48.9195 37.9751 48.0539 39.9258C47.1063 42.0656 46.4342 44.3045 45.7467 46.5425C45.6702 46.7941 45.5847 47.0421 45.5037 47.291H45.4137C44.2134 42.7514 42.5685 38.4167 40.0067 34.5367L34.1433 40.6444Z" fill="#2AC4AE" stroke="#2AC4AE"/>
<path d="M31.453 32.4241H27.1158C26.8108 32.4241 26.8099 32.4241 26.8099 32.0966C26.8099 31.6129 26.8152 31.1301 26.8099 30.6474C26.8099 30.4509 26.8611 30.3667 27.0645 30.3667C29.2142 30.3723 31.3639 30.3667 33.5136 30.3667C33.6414 30.3667 33.789 30.3498 33.7593 30.5631C33.6639 31.2639 33.6351 31.9834 33.4578 32.6608C32.8945 34.808 31.5844 36.3097 29.5885 37.1012C27.0492 38.1051 24.3218 37.3884 22.5275 35.2889C21.3344 33.9024 20.7945 32.2444 20.9348 30.3891C21.0351 28.9943 21.5563 27.668 22.4241 26.5993C23.2918 25.5305 24.4619 24.7738 25.7675 24.437C27.0731 24.1002 28.4477 24.2005 29.6952 24.7236C30.9428 25.2467 31.9998 26.1659 32.7155 27.3503C32.8297 27.5374 32.8054 27.6253 32.6255 27.7245C32.1918 27.9696 31.7661 28.2288 31.3423 28.4926C31.1983 28.5815 31.1174 28.5759 31.0157 28.4187C30.0735 26.9667 28.7508 26.2668 27.0726 26.3173C25.2207 26.3772 23.521 27.8443 23.0485 29.6912C22.7466 30.827 22.8765 32.0401 23.4113 33.0792C23.946 34.1182 24.8447 34.9035 25.9212 35.2724C26.9976 35.6412 28.1693 35.5654 29.1934 35.0606C30.2175 34.5558 31.0157 33.6606 31.4224 32.5607C31.435 32.5158 31.4452 32.4702 31.453 32.4241Z" fill="#2AC4AE" stroke="#2AC4AE"/>
<path d="M49.4075 24.2421C49.4109 25.326 49.0005 26.3669 48.2664 27.1364C47.5324 27.906 46.5347 28.3412 45.4923 28.3467C43.3498 28.3654 41.5556 26.5129 41.543 24.2674C41.543 23.1798 41.9569 22.1363 42.6943 21.365C43.4318 20.5937 44.4328 20.1571 45.4788 20.1507C47.6339 20.1385 49.4003 21.977 49.4075 24.2421ZM43.5208 24.2506C43.5219 24.6539 43.638 25.0478 43.8544 25.3825C44.0709 25.7172 44.378 25.9777 44.7368 26.1308C45.0957 26.284 45.4901 26.3231 45.8703 26.2431C46.2506 26.1632 46.5994 25.9677 46.8728 25.6815C47.1461 25.3953 47.3317 25.0313 47.406 24.6354C47.4803 24.2396 47.44 23.8297 47.2902 23.4576C47.1404 23.0856 46.8878 22.7681 46.5644 22.5453C46.241 22.3226 45.8613 22.2046 45.4734 22.2062C44.9554 22.2136 44.4608 22.4317 44.0958 22.8139C43.7307 23.1961 43.5243 23.7119 43.5208 24.2506Z" fill="#2AC4AE" stroke="#2AC4AE"/>
</svg>
