<svg width="72" height="72" viewBox="0 0 72 72" fill="none" xmlns="http://www.w3.org/2000/svg">
<circle cx="36" cy="36" r="36" fill="#FFDEDE"/>
<path d="M36.5673 59.915V58.8467H36.4338C33.3519 58.8467 30.422 58.2224 27.7549 57.0946C23.7552 55.4037 20.35 52.5766 17.9444 49.0184C15.541 45.4602 14.1384 41.1771 14.1373 36.5578V36.4238C14.1373 33.3446 14.7612 30.4157 15.89 27.7495C17.5809 23.7512 20.4095 20.3454 23.9689 17.9424C27.5283 15.5382 31.813 14.1366 36.4338 14.1366H36.5673C39.6481 14.1366 42.5791 14.7603 45.2452 15.887C49.2448 17.5779 52.6517 20.405 55.0551 23.9632C57.4606 27.5213 58.8627 31.8045 58.8627 36.4238V36.5578C58.8627 39.6386 58.2382 42.5675 57.1117 45.2338C55.4202 49.2321 52.5916 52.6378 49.0322 55.0403C45.4728 57.4434 41.1887 58.8467 36.5673 58.8467V60.9833C39.9375 60.9833 43.1546 60.2994 46.0784 59.0631C50.4643 57.2086 54.1935 54.1117 56.8267 50.2147C59.461 46.3177 61.0011 41.6127 61 36.5578V36.4238C61 33.0553 60.3176 29.8388 59.0792 26.9177C57.2241 22.5321 54.1278 18.8042 50.2294 16.1719C46.3311 13.5384 41.6229 11.9983 36.5673 12H36.4338C33.0625 12 29.8465 12.6821 26.9227 13.9201C22.5368 15.7746 18.8082 18.8699 16.1733 22.7669C13.539 26.6639 12 31.37 12 36.4238V36.5578C12 39.928 12.684 43.1428 13.9208 46.0656C15.7759 50.45 18.8733 54.1774 22.7723 56.8114C26.6706 59.4448 31.3766 60.9833 36.4338 60.9833H36.5673V59.915Z" fill="#FF5C5C"/>
<path d="M24.55 29.8796C24.55 27.2884 26.6589 25.1791 29.2504 25.1791H43.7512C46.345 25.1791 48.4533 27.2884 48.4533 29.8796V43.1403C48.4533 45.7331 46.345 47.8407 43.7512 47.8407H29.2504C26.6589 47.8407 24.55 45.7331 24.55 43.1403V29.8796ZM43.7512 22.618H29.2504C25.2452 22.618 21.9863 25.8757 21.9863 29.8796V43.1403C21.9863 47.1458 25.2452 50.4035 29.2504 50.4035H43.7512C47.757 50.4035 51.0153 47.1458 51.0153 43.1403V29.8796C51.0153 25.8757 47.757 22.618 43.7512 22.618Z" fill="#FF5C5C"/>
<path d="M36.5011 32.3228C38.8137 32.3228 40.6961 34.2046 40.6961 36.5164C40.6961 38.8277 38.8137 40.7095 36.5011 40.7095C34.1884 40.7095 32.3061 38.8277 32.3061 36.5164C32.3061 34.2046 34.1884 32.3228 36.5011 32.3228ZM36.5011 43.2722C40.2275 43.2722 43.2581 40.241 43.2581 36.5164C43.2581 32.7913 40.2275 29.7617 36.5011 29.7617C32.7753 29.7617 29.7446 32.7913 29.7446 36.5164C29.7446 40.241 32.7753 43.2722 36.5011 43.2722Z" fill="#FF5C5C"/>
<path d="M43.8851 30.8306C44.8898 30.8306 45.7063 30.0149 45.7063 29.0106C45.7063 28.008 44.8898 27.1901 43.8851 27.1901C42.8822 27.1901 42.064 28.008 42.064 29.0106C42.064 30.0149 42.8822 30.8306 43.8851 30.8306Z" fill="#FF5C5C"/>
</svg>
