<svg width="72" height="72" viewBox="0 0 72 72" fill="none" xmlns="http://www.w3.org/2000/svg">
<circle cx="36" cy="36" r="36" fill="#FFDEDE"/>
<path d="M47.2811 22.1686C46.7935 21.6068 46.1788 21.2273 45.5127 21.0766C44.8465 20.926 44.1579 21.0108 43.5317 21.3207C42.973 21.6159 42.4999 22.1013 42.1717 22.7159C41.8435 23.3305 41.6747 24.047 41.6867 24.7755V55.6875C41.6867 56.3008 41.891 56.889 42.2547 57.3227C42.6184 57.7564 43.1117 58 43.6261 58C44.1404 58 44.6337 57.7564 44.9974 57.3227C45.3611 56.889 45.5654 56.3008 45.5654 55.6875V51.8595C53.4703 44.717 54.1504 30.0265 47.2811 22.1686ZM45.5654 45.272V26.772C48.7861 31.2305 49.0718 40.6131 45.5654 45.272ZM37.8079 23.3125V32.5625C37.8046 34.8159 37.1651 37.0024 35.9923 38.7694C34.8195 40.5365 33.1819 41.7811 31.3433 42.3027V55.6875C31.3433 56.3008 31.139 56.889 30.7753 57.3227C30.4116 57.7564 29.9183 58 29.404 58C28.8896 58 28.3963 57.7564 28.0326 57.3227C27.6689 56.889 27.4646 56.3008 27.4646 55.6875V42.3027C25.6261 41.7811 23.9884 40.5365 22.8156 38.7694C21.6429 37.0024 21.0033 34.8159 21 32.5625V23.3125C21 22.6992 21.2043 22.111 21.568 21.6773C21.9317 21.2436 22.425 21 22.9394 21C23.4537 21 23.947 21.2436 24.3107 21.6773C24.6744 22.111 24.8788 22.6992 24.8788 23.3125V32.5625C24.882 33.5801 25.1265 34.5759 25.584 35.4349C26.0416 36.2939 26.6935 36.9811 27.4646 37.4172V23.3125C27.4646 22.6992 27.6689 22.111 28.0326 21.6773C28.3963 21.2436 28.8896 21 29.404 21C29.9183 21 30.4116 21.2436 30.7753 21.6773C31.139 22.111 31.3433 22.6992 31.3433 23.3125V37.4172C32.1144 36.9811 32.7663 36.2939 33.2239 35.4349C33.6814 34.5759 33.9259 33.5801 33.9292 32.5625V23.3125C33.9292 22.6992 34.1335 22.111 34.4972 21.6773C34.8609 21.2436 35.3542 21 35.8686 21C36.3829 21 36.8762 21.2436 37.2399 21.6773C37.6036 22.111 37.8079 22.6992 37.8079 23.3125Z" fill="#FF5C5C"/>
</svg>
