<svg width="72" height="91" viewBox="0 0 72 91" fill="none" xmlns="http://www.w3.org/2000/svg">
<circle cx="36" cy="36" r="36" fill="#6E0033"/>
<g filter="url(#filter0_d_1041_3291)">
<path d="M36.3159 81.8485C35.9174 82.4109 35.0826 82.4109 34.6841 81.8485L24.9269 68.0781C24.4576 67.4159 24.9312 66.5 25.7428 66.5L45.2572 66.5C46.0688 66.5 46.5424 67.4159 46.0731 68.0781L36.3159 81.8485Z" fill="#6E0033"/>
</g>
<path d="M47.2811 20.1686C46.7935 19.6068 46.1788 19.2273 45.5127 19.0766C44.8465 18.926 44.1579 19.0108 43.5317 19.3207C42.973 19.6159 42.4999 20.1013 42.1717 20.7159C41.8435 21.3305 41.6747 22.047 41.6867 22.7755V53.6875C41.6867 54.3008 41.891 54.889 42.2547 55.3227C42.6184 55.7564 43.1117 56 43.6261 56C44.1404 56 44.6337 55.7564 44.9974 55.3227C45.3611 54.889 45.5654 54.3008 45.5654 53.6875V49.8595C53.4703 42.717 54.1504 28.0265 47.2811 20.1686ZM45.5654 43.272V24.772C48.7861 29.2305 49.0718 38.6131 45.5654 43.272ZM37.8079 21.3125V30.5625C37.8046 32.8159 37.1651 35.0024 35.9923 36.7694C34.8195 38.5365 33.1819 39.7811 31.3433 40.3027V53.6875C31.3433 54.3008 31.139 54.889 30.7753 55.3227C30.4116 55.7564 29.9183 56 29.404 56C28.8896 56 28.3963 55.7564 28.0326 55.3227C27.6689 54.889 27.4646 54.3008 27.4646 53.6875V40.3027C25.6261 39.7811 23.9884 38.5365 22.8156 36.7694C21.6429 35.0024 21.0033 32.8159 21 30.5625V21.3125C21 20.6992 21.2043 20.111 21.568 19.6773C21.9317 19.2436 22.425 19 22.9394 19C23.4537 19 23.947 19.2436 24.3107 19.6773C24.6744 20.111 24.8788 20.6992 24.8788 21.3125V30.5625C24.882 31.5801 25.1265 32.5759 25.584 33.4349C26.0416 34.2939 26.6935 34.9811 27.4646 35.4172V21.3125C27.4646 20.6992 27.6689 20.111 28.0326 19.6773C28.3963 19.2436 28.8896 19 29.404 19C29.9183 19 30.4116 19.2436 30.7753 19.6773C31.139 20.111 31.3433 20.6992 31.3433 21.3125V35.4172C32.1144 34.9811 32.7663 34.2939 33.2239 33.4349C33.6814 32.5759 33.9259 31.5801 33.9292 30.5625V21.3125C33.9292 20.6992 34.1335 20.111 34.4972 19.6773C34.8609 19.2436 35.3542 19 35.8686 19C36.3829 19 36.8762 19.2436 37.2399 19.6773C37.6036 20.111 37.8079 20.6992 37.8079 21.3125Z" fill="#FF5C5C"/>
<defs>
<filter id="filter0_d_1041_3291" x="20.7412" y="66.5" width="29.5176" height="23.7703" filterUnits="userSpaceOnUse" color-interpolation-filters="sRGB">
<feFlood flood-opacity="0" result="BackgroundImageFix"/>
<feColorMatrix in="SourceAlpha" type="matrix" values="0 0 0 0 0 0 0 0 0 0 0 0 0 0 0 0 0 0 127 0" result="hardAlpha"/>
<feOffset dy="4"/>
<feGaussianBlur stdDeviation="2"/>
<feComposite in2="hardAlpha" operator="out"/>
<feColorMatrix type="matrix" values="0 0 0 0 0 0 0 0 0 0 0 0 0 0 0 0 0 0 0.16 0"/>
<feBlend mode="normal" in2="BackgroundImageFix" result="effect1_dropShadow_1041_3291"/>
<feBlend mode="normal" in="SourceGraphic" in2="effect1_dropShadow_1041_3291" result="shape"/>
</filter>
</defs>
</svg>
