<svg width="72" height="72" viewBox="0 0 72 72" fill="none" xmlns="http://www.w3.org/2000/svg">
<circle cx="36" cy="36" r="36" fill="#ECE3FF"/>
<path d="M26.6842 58.1078C23.7642 56.8463 21.2177 55.1288 19.0446 52.9554C16.8712 50.7823 15.1537 48.2358 13.8922 45.3158C12.6307 42.3958 12 39.284 12 35.9804C12 32.6768 12.6307 29.5716 13.8922 26.6646C15.1537 23.7577 16.8712 21.2177 19.0446 19.0446C21.2177 16.8712 23.7642 15.1537 26.6842 13.8922C29.6042 12.6307 32.716 12 36.0196 12C39.3232 12 42.4284 12.6307 45.3354 13.8922C48.2423 15.1537 50.7823 16.8712 52.9554 19.0446C55.1288 21.2177 56.8463 23.7577 58.1078 26.6646C59.3693 29.5716 60 32.6768 60 35.9804C60 39.284 59.3693 42.3958 58.1078 45.3158C56.8463 48.2358 55.1288 50.7823 52.9554 52.9554C50.7823 55.1288 48.2423 56.8463 45.3354 58.1078C42.4284 59.3693 39.3232 60 36.0196 60C32.716 60 29.6042 59.3693 26.6842 58.1078ZM36 56.1568C37.2893 54.4469 38.3743 52.7223 39.2552 50.9829C40.136 49.2436 40.8535 47.3423 41.4076 45.2792H30.5924C31.1789 47.4072 31.9046 49.3408 32.7695 51.0802C33.6339 52.8196 34.7107 54.5118 36 56.1568ZM31.1078 55.4621C30.1394 54.0726 29.2697 52.493 28.4987 50.7234C27.7278 48.9533 27.1286 47.1385 26.7013 45.2792H18.1314C19.4657 47.9027 21.2552 50.1069 23.4998 51.8918C25.7444 53.6762 28.2804 54.8663 31.1078 55.4621ZM40.8922 55.4621C43.7196 54.8663 46.2556 53.6762 48.5002 51.8918C50.7448 50.1069 52.5343 47.9027 53.8686 45.2792H45.2987C44.7901 47.1545 44.1503 48.9773 43.3794 50.7474C42.6088 52.5175 41.7798 54.0891 40.8922 55.4621ZM16.5423 41.4897H25.9339C25.7752 40.5507 25.66 39.6301 25.5884 38.7278C25.5173 37.8259 25.4817 36.9166 25.4817 36C25.4817 35.0834 25.5173 34.1741 25.5884 33.2722C25.66 32.3699 25.7752 31.4493 25.9339 30.5103H16.5423C16.2994 31.3684 16.1133 32.2606 15.984 33.1869C15.8543 34.1133 15.7895 35.0509 15.7895 36C15.7895 36.9491 15.8543 37.8867 15.984 38.8131C16.1133 39.7394 16.2994 40.6316 16.5423 41.4897ZM29.7227 41.4897H42.2773C42.4356 40.5507 42.5505 39.6383 42.6221 38.7524C42.6933 37.8665 42.7288 36.9491 42.7288 36C42.7288 35.0509 42.6933 34.1335 42.6221 33.2476C42.5505 32.3617 42.4356 31.4493 42.2773 30.5103H29.7227C29.5644 31.4493 29.4495 32.3617 29.3779 33.2476C29.3067 34.1335 29.2712 35.0509 29.2712 36C29.2712 36.9491 29.3067 37.8665 29.3779 38.7524C29.4495 39.6383 29.5644 40.5507 29.7227 41.4897ZM46.0661 41.4897H55.4577C55.7006 40.6316 55.8867 39.7394 56.016 38.8131C56.1457 37.8867 56.2105 36.9491 56.2105 36C56.2105 35.0509 56.1457 34.1133 56.016 33.1869C55.8867 32.2606 55.7006 31.3684 55.4577 30.5103H46.0661C46.2248 31.4493 46.34 32.3699 46.4116 33.2722C46.4827 34.1741 46.5183 35.0834 46.5183 36C46.5183 36.9166 46.4827 37.8259 46.4116 38.7278C46.34 39.6301 46.2248 40.5507 46.0661 41.4897ZM45.2987 26.7208H53.8686C52.5183 24.0648 50.7411 21.8606 48.5368 20.1082C46.3326 18.3562 43.7844 17.1579 40.8922 16.5133C41.8606 17.9836 42.7221 19.5918 43.4766 21.3379C44.2316 23.0836 44.8389 24.8779 45.2987 26.7208ZM30.5924 26.7208H41.4076C40.8211 24.6088 40.0834 22.6629 39.1945 20.8832C38.3053 19.1034 37.2404 17.4234 36 15.8432C34.7596 17.4234 33.6947 19.1034 32.8055 20.8832C31.9166 22.6629 31.1789 24.6088 30.5924 26.7208ZM18.1314 26.7208H26.7013C27.1611 24.8779 27.7684 23.0836 28.5234 21.3379C29.2779 19.5918 30.1394 17.9836 31.1078 16.5133C28.1992 17.1579 25.6469 18.3604 23.4512 20.1208C21.2549 21.8808 19.4817 24.0808 18.1314 26.7208Z" fill="#9E75FF"/>
</svg>
