<svg width="72" height="91" viewBox="0 0 72 91" fill="none" xmlns="http://www.w3.org/2000/svg">
<circle cx="36" cy="36" r="36" fill="#374957"/>
<path d="M36.5662 59.9313V58.8627H36.4338C33.3519 58.8627 30.4226 58.2388 27.7549 57.1117C23.7552 55.4202 20.3483 52.5916 17.9449 49.0327C15.541 45.4717 14.1373 41.1887 14.1373 36.5679V36.4338C14.1373 33.3519 14.7618 30.422 15.8889 27.7549C17.5798 23.7552 20.4095 20.3483 23.9678 17.9444C27.5283 15.541 31.8118 14.1373 36.4338 14.1373H36.5662C39.6486 14.1373 42.578 14.7612 45.2452 15.8883C49.2448 17.5815 52.6517 20.4095 55.0556 23.9689C57.4595 27.5283 58.8627 31.813 58.8627 36.4338V36.5679C58.8627 39.6481 58.2388 42.578 57.1117 45.2452C55.4202 49.2448 52.5905 52.6517 49.0327 55.0556C45.4717 57.4606 41.1887 58.8627 36.5662 58.8627V61C39.9375 61 43.1535 60.316 46.0773 59.0792C50.4632 57.2241 54.1918 54.1278 56.8267 50.2294C59.461 46.3311 61 41.6234 61 36.5679V36.4338C61 33.0625 60.316 29.8465 59.0792 26.9227C57.2241 22.5368 54.1278 18.8082 50.2283 16.1733C46.3294 13.539 41.6234 12 36.5662 12H36.4338C33.0625 12 29.8465 12.684 26.9227 13.9208C22.5357 15.7759 18.8082 18.8722 16.1739 22.7723C13.539 26.6706 12 31.3771 12 36.4338V36.5679C12 39.9375 12.684 43.1535 13.9208 46.0773C15.7759 50.4643 18.8722 54.1918 22.7723 56.8267C26.6706 59.461 31.3771 61.0017 36.4338 61H36.5662V59.9313Z" fill="#2AC4AE"/>
<path d="M41.0656 43.3539C35.0683 43.3523 30.1881 38.4721 30.187 32.4748C30.1898 30.9548 31.4265 29.718 32.9438 29.718C33.1008 29.718 33.2544 29.7308 33.4013 29.7575C33.7275 29.8104 34.0353 29.9217 34.3203 30.087C34.3614 30.111 34.3887 30.151 34.3959 30.1967L35.0299 34.1919C35.0371 34.2392 35.0227 34.286 34.9915 34.3205C34.6425 34.709 34.195 34.9873 33.6991 35.1264L33.4598 35.1938L33.551 35.4259C34.3687 37.5075 36.0329 39.1717 38.1162 39.991L38.3472 40.0823L38.414 39.843C38.5537 39.3459 38.8331 38.8984 39.2205 38.5494C39.2489 38.5238 39.2862 38.5094 39.3246 38.5094L39.3485 38.5121L43.3443 39.145C43.391 39.1517 43.4311 39.1789 43.455 39.2218C43.6192 39.5051 43.73 39.8146 43.7845 40.1396C43.8101 40.2849 43.8229 40.4374 43.8229 40.5966C43.8229 42.1155 42.5862 43.3523 41.0656 43.3539Z" fill="#2AC4AE"/>
<path d="M31.8144 47.0754L26.1789 47.6754L27.8615 43.9479L27.5253 43.4943C27.4997 43.462 27.4752 43.4292 27.4485 43.3908C25.988 41.3731 25.2155 38.9892 25.2155 36.4968C25.2155 29.9981 30.502 24.7121 37.0007 24.7121C43.0893 24.7121 48.2472 29.461 48.7448 35.5239C48.7715 35.849 48.786 36.1751 48.786 36.4968C48.786 36.5881 48.7843 36.6794 48.7815 36.7751C48.6574 42.2108 44.8587 46.8288 39.5471 48.0043C39.1408 48.094 38.7261 48.1624 38.3115 48.2081C37.8812 48.2565 37.4399 48.2821 37.0007 48.2821C35.4389 48.2821 33.9228 47.9799 32.4884 47.3815C32.3287 47.3175 32.1734 47.249 32.0265 47.1778L31.8144 47.0754ZM51.7042 35.1805C51.3808 31.5254 49.7049 28.1357 46.9893 25.635C44.2548 23.1186 40.7082 21.7338 37.0007 21.7338C28.8606 21.7338 22.2377 28.3567 22.2377 36.4968C22.2377 39.2286 22.9913 41.8902 24.4179 44.2084L21.2358 51.2515L31.4237 50.1673C33.1947 50.8908 35.0716 51.2598 37.0007 51.2598C37.5078 51.2598 38.0282 51.2331 38.5497 51.1791C39.0083 51.1307 39.4742 51.0595 39.93 50.9665C46.7483 49.589 51.7242 43.5371 51.7637 36.5753V36.4968C51.7637 36.0527 51.7426 35.6091 51.7042 35.1805Z" fill="#2AC4AE"/>
<g filter="url(#filter0_d_730_3065)">
<path d="M35.3159 81.8485C34.9174 82.4109 34.0826 82.4109 33.6841 81.8485L23.9269 68.0781C23.4576 67.4159 23.9312 66.5 24.7428 66.5L44.2572 66.5C45.0688 66.5 45.5424 67.4159 45.0731 68.0781L35.3159 81.8485Z" fill="#374957"/>
</g>
<defs>
<filter id="filter0_d_730_3065" x="19.7412" y="66.5" width="29.5176" height="23.7703" filterUnits="userSpaceOnUse" color-interpolation-filters="sRGB">
<feFlood flood-opacity="0" result="BackgroundImageFix"/>
<feColorMatrix in="SourceAlpha" type="matrix" values="0 0 0 0 0 0 0 0 0 0 0 0 0 0 0 0 0 0 127 0" result="hardAlpha"/>
<feOffset dy="4"/>
<feGaussianBlur stdDeviation="2"/>
<feComposite in2="hardAlpha" operator="out"/>
<feColorMatrix type="matrix" values="0 0 0 0 0 0 0 0 0 0 0 0 0 0 0 0 0 0 0.16 0"/>
<feBlend mode="normal" in2="BackgroundImageFix" result="effect1_dropShadow_730_3065"/>
<feBlend mode="normal" in="SourceGraphic" in2="effect1_dropShadow_730_3065" result="shape"/>
</filter>
</defs>
</svg>
