<svg width="58" height="58" viewBox="0 0 58 58" fill="none" xmlns="http://www.w3.org/2000/svg">
<circle cx="28.7065" cy="28.7065" r="28.7065" transform="matrix(1 0 0 -1 0 57.4131)" fill="#2AC4AE"/>
<path d="M31.7822 19.4794L31.7822 25.6308L37.9336 25.6308C38.7493 25.6308 39.5316 25.9549 40.1084 26.5317C40.6852 27.1085 41.0093 27.8908 41.0093 28.7065C41.0093 29.5223 40.6852 30.3046 40.1084 30.8814C39.5316 31.4582 38.7493 31.7822 37.9336 31.7822L31.7822 31.7822L31.7822 37.9336C31.7822 38.7494 31.4581 39.5317 30.8813 40.1085C30.3045 40.6853 29.5222 41.0093 28.7065 41.0093C27.8907 41.0093 27.1084 40.6853 26.5316 40.1085C25.9548 39.5317 25.6308 38.7494 25.6308 37.9336L25.6308 31.7822L19.4794 31.7822C18.6637 31.7822 17.8813 31.4582 17.3045 30.8814C16.7277 30.3046 16.4037 29.5223 16.4037 28.7065C16.4037 27.8908 16.7277 27.1085 17.3045 26.5317C17.8813 25.9549 18.6636 25.6308 19.4794 25.6308L25.6308 25.6308L25.6308 19.4794C25.6308 18.6637 25.9548 17.8814 26.5316 17.3046C27.1084 16.7278 27.8907 16.4037 28.7065 16.4037C29.5222 16.4037 30.3045 16.7278 30.8813 17.3046C31.4581 17.8814 31.7822 18.6637 31.7822 19.4794Z" fill="#F5ECF1"/>
</svg>
