<svg width="63" height="54" viewBox="0 0 63 54" fill="none" xmlns="http://www.w3.org/2000/svg">
<path d="M18.2149 21.4312L27.6281 13.3627C28.3668 12.7299 29.3685 12.3745 30.4129 12.3747C31.4572 12.3749 32.4587 12.7307 33.1971 13.3639C33.9354 13.997 34.35 14.8556 34.3498 15.7508C34.3495 16.646 33.9344 17.5044 33.1957 18.1372L26.7934 23.625H49.875C50.9193 23.625 51.9208 23.9806 52.6592 24.6135C53.3977 25.2464 53.8125 26.1049 53.8125 27C53.8125 27.8951 53.3977 28.7535 52.6592 29.3865C51.9208 30.0194 50.9193 30.375 49.875 30.375H26.7934L33.1957 35.8627C33.9344 36.4956 34.3495 37.354 34.3498 38.2492C34.35 39.1444 33.9354 40.003 33.1971 40.6361C32.4587 41.2692 31.4572 41.6251 30.4129 41.6253C29.3685 41.6255 28.3668 41.2701 27.6281 40.6372L18.2149 32.5687C16.4949 31.0904 15.529 29.0878 15.529 27C15.529 24.9122 16.4949 22.9096 18.2149 21.4312Z" fill="#6E0033"/>
</svg>
