<svg width="63" height="54" viewBox="0 0 63 54" fill="none" xmlns="http://www.w3.org/2000/svg">
<path d="M44.7851 21.4312L35.3719 13.3627C34.6332 12.7299 33.6315 12.3745 32.5871 12.3747C31.5428 12.3749 30.5413 12.7307 29.8029 13.3639C29.0646 13.997 28.65 14.8556 28.6502 15.7508C28.6505 16.646 29.0656 17.5044 29.8043 18.1372L36.2066 23.625H13.125C12.0807 23.625 11.0792 23.9806 10.3408 24.6135C9.60234 25.2464 9.1875 26.1049 9.1875 27C9.1875 27.8951 9.60234 28.7535 10.3408 29.3865C11.0792 30.0194 12.0807 30.375 13.125 30.375H36.2066L29.8043 35.8627C29.0656 36.4956 28.6505 37.354 28.6502 38.2492C28.65 39.1444 29.0646 40.003 29.8029 40.6361C30.5413 41.2692 31.5428 41.6251 32.5871 41.6253C33.6315 41.6255 34.6332 41.2701 35.3719 40.6372L44.7851 32.5687C46.5051 31.0904 47.471 29.0878 47.471 27C47.471 24.9122 46.5051 22.9096 44.7851 21.4312Z" fill="#6E0033"/>
</svg>
