<svg width="60" height="66" viewBox="0 0 60 66" fill="none" xmlns="http://www.w3.org/2000/svg">
<g clip-path="url(#clip0_725_3337)">
<path d="M46.25 13.75H39.9375C39.6224 9.99473 38.0447 6.50394 35.5132 3.96081C32.9816 1.41768 29.6784 0.00527436 26.25 0L13.75 0C10.1045 0.00436747 6.60943 1.59929 4.03167 4.43483C1.4539 7.27038 0.00397042 11.1149 0 15.125L0 50.875C0.00397042 54.8851 1.4539 58.7296 4.03167 61.5652C6.60943 64.4007 10.1045 65.9956 13.75 66H46.25C49.8955 65.9956 53.3906 64.4007 55.9683 61.5652C58.5461 58.7296 59.996 54.8851 60 50.875V28.875C59.996 24.8649 58.5461 21.0204 55.9683 18.1848C53.3906 15.3493 49.8955 13.7544 46.25 13.75ZM7.5 50.875V15.125C7.5 13.3016 8.15848 11.553 9.33058 10.2636C10.5027 8.97433 12.0924 8.25 13.75 8.25H26.25C27.9076 8.25 29.4973 8.97433 30.6694 10.2636C31.8415 11.553 32.5 13.3016 32.5 15.125V57.75H13.75C12.0924 57.75 10.5027 57.0257 9.33058 55.7364C8.15848 54.447 7.5 52.6984 7.5 50.875ZM52.5 50.875C52.5 52.6984 51.8415 54.447 50.6694 55.7364C49.4973 57.0257 47.9076 57.75 46.25 57.75H40V22H46.25C47.9076 22 49.4973 22.7243 50.6694 24.0136C51.8415 25.303 52.5 27.0516 52.5 28.875V50.875ZM50 31.625C50 32.4408 49.7801 33.2384 49.368 33.9167C48.956 34.5951 48.3703 35.1238 47.6851 35.436C46.9998 35.7482 46.2458 35.8299 45.5184 35.6707C44.791 35.5116 44.1228 35.1187 43.5984 34.5418C43.0739 33.9649 42.7168 33.2299 42.5721 32.4297C42.4274 31.6296 42.5016 30.8002 42.7855 30.0464C43.0693 29.2927 43.5499 28.6484 44.1666 28.1952C44.7833 27.7419 45.5083 27.5 46.25 27.5C47.2446 27.5 48.1984 27.9346 48.9016 28.7082C49.6049 29.4818 50 30.531 50 31.625ZM50 45.375C50 46.1908 49.7801 46.9884 49.368 47.6667C48.956 48.3451 48.3703 48.8738 47.6851 49.186C46.9998 49.4982 46.2458 49.5799 45.5184 49.4207C44.791 49.2616 44.1228 48.8687 43.5984 48.2918C43.0739 47.7149 42.7168 46.9799 42.5721 46.1797C42.4274 45.3796 42.5016 44.5502 42.7855 43.7964C43.0693 43.0427 43.5499 42.3984 44.1666 41.9452C44.7833 41.4919 45.5083 41.25 46.25 41.25C47.2446 41.25 48.1984 41.6846 48.9016 42.4582C49.6049 43.2318 50 44.281 50 45.375ZM17.5 17.875C17.5 18.6908 17.2801 19.4884 16.868 20.1667C16.456 20.8451 15.8703 21.3738 15.1851 21.686C14.4998 21.9982 13.7458 22.0799 13.0184 21.9207C12.291 21.7616 11.6228 21.3687 11.0983 20.7918C10.5739 20.2149 10.2167 19.4799 10.0721 18.6797C9.92736 17.8796 10.0016 17.0502 10.2855 16.2964C10.5693 15.5427 11.0499 14.8984 11.6666 14.4452C12.2833 13.9919 13.0083 13.75 13.75 13.75C14.7446 13.75 15.6984 14.1846 16.4017 14.9582C17.1049 15.7318 17.5 16.781 17.5 17.875ZM17.5 31.625C17.5 32.4408 17.2801 33.2384 16.868 33.9167C16.456 34.5951 15.8703 35.1238 15.1851 35.436C14.4998 35.7482 13.7458 35.8299 13.0184 35.6707C12.291 35.5116 11.6228 35.1187 11.0983 34.5418C10.5739 33.9649 10.2167 33.2299 10.0721 32.4297C9.92736 31.6296 10.0016 30.8002 10.2855 30.0464C10.5693 29.2927 11.0499 28.6484 11.6666 28.1952C12.2833 27.7419 13.0083 27.5 13.75 27.5C14.7446 27.5 15.6984 27.9346 16.4017 28.7082C17.1049 29.4818 17.5 30.531 17.5 31.625ZM30 17.875C30 18.6908 29.7801 19.4884 29.368 20.1667C28.956 20.8451 28.3703 21.3738 27.6851 21.686C26.9998 21.9982 26.2458 22.0799 25.5184 21.9207C24.791 21.7616 24.1228 21.3687 23.5983 20.7918C23.0739 20.2149 22.7167 19.4799 22.5721 18.6797C22.4274 17.8796 22.5016 17.0502 22.7855 16.2964C23.0693 15.5427 23.5499 14.8984 24.1666 14.4452C24.7833 13.9919 25.5083 13.75 26.25 13.75C27.2446 13.75 28.1984 14.1846 28.9017 14.9582C29.6049 15.7318 30 16.781 30 17.875ZM30 31.625C30 32.4408 29.7801 33.2384 29.368 33.9167C28.956 34.5951 28.3703 35.1238 27.6851 35.436C26.9998 35.7482 26.2458 35.8299 25.5184 35.6707C24.791 35.5116 24.1228 35.1187 23.5983 34.5418C23.0739 33.9649 22.7167 33.2299 22.5721 32.4297C22.4274 31.6296 22.5016 30.8002 22.7855 30.0464C23.0693 29.2927 23.5499 28.6484 24.1666 28.1952C24.7833 27.7419 25.5083 27.5 26.25 27.5C27.2446 27.5 28.1984 27.9346 28.9017 28.7082C29.6049 29.4818 30 30.531 30 31.625ZM17.5 45.375C17.5 46.1908 17.2801 46.9884 16.868 47.6667C16.456 48.3451 15.8703 48.8738 15.1851 49.186C14.4998 49.4982 13.7458 49.5799 13.0184 49.4207C12.291 49.2616 11.6228 48.8687 11.0983 48.2918C10.5739 47.7149 10.2167 46.9799 10.0721 46.1797C9.92736 45.3796 10.0016 44.5502 10.2855 43.7964C10.5693 43.0427 11.0499 42.3984 11.6666 41.9452C12.2833 41.4919 13.0083 41.25 13.75 41.25C14.7446 41.25 15.6984 41.6846 16.4017 42.4582C17.1049 43.2318 17.5 44.281 17.5 45.375ZM30 45.375C30 46.1908 29.7801 46.9884 29.368 47.6667C28.956 48.3451 28.3703 48.8738 27.6851 49.186C26.9998 49.4982 26.2458 49.5799 25.5184 49.4207C24.791 49.2616 24.1228 48.8687 23.5983 48.2918C23.0739 47.7149 22.7167 46.9799 22.5721 46.1797C22.4274 45.3796 22.5016 44.5502 22.7855 43.7964C23.0693 43.0427 23.5499 42.3984 24.1666 41.9452C24.7833 41.4919 25.5083 41.25 26.25 41.25C27.2446 41.25 28.1984 41.6846 28.9017 42.4582C29.6049 43.2318 30 44.281 30 45.375Z" fill="#6E0033"/>
</g>
<defs>
<clipPath id="clip0_725_3337">
<rect width="60" height="66" fill="white"/>
</clipPath>
</defs>
</svg>
