<svg width="58" height="60" viewBox="0 0 58 60" fill="none" xmlns="http://www.w3.org/2000/svg">
<g clip-path="url(#clip0_725_3339)">
<path d="M29 0C23.2644 0 17.6575 1.75947 12.8885 5.05591C8.11945 8.35236 4.40245 13.0377 2.20751 18.5195C0.0125653 24.0013 -0.561732 30.0333 0.55724 35.8527C1.67621 41.6721 4.43819 47.0176 8.49392 51.2132C12.5496 55.4088 17.7169 58.266 23.3424 59.4236C28.9678 60.5811 34.7988 59.987 40.0978 57.7164C45.3969 55.4458 49.9261 51.6006 53.1126 46.6671C56.2992 41.7336 58 35.9334 58 30C57.9917 22.0461 54.9337 14.4205 49.4969 8.7963C44.0602 3.17207 36.6887 0.0086027 29 0V0ZM30.2083 52.4375V49.225C30.2083 46.4469 29.1415 43.7825 27.2426 41.8181C25.3436 39.8536 22.7681 38.75 20.0825 38.75H20.0583C19.0606 38.75 18.0726 38.5467 17.1508 38.1517C16.229 37.7566 15.3915 37.1775 14.6861 36.4475L7.30801 28.81C7.5051 24.8384 8.71792 20.9921 10.8225 17.6641C12.9272 14.3362 15.8481 11.6459 19.287 9.86821C22.7258 8.09052 26.5592 7.28914 30.3955 7.54597C34.2318 7.8028 37.9334 9.10862 41.122 11.33C40.4821 11.8158 39.7094 12.0785 38.9156 12.08H35.4501C34.956 12.08 34.4667 12.1808 34.0103 12.3766C33.5539 12.5725 33.1393 12.8595 32.7903 13.2213C32.4412 13.5831 32.1646 14.0125 31.9762 14.485C31.7877 14.9575 31.6912 15.4639 31.6922 15.975V18.58C31.6922 19.611 31.2963 20.5998 30.5915 21.3289C29.8868 22.0579 28.9309 22.4675 27.9343 22.4675C27.44 22.4662 26.9503 22.5658 26.4932 22.7605C26.0362 22.9553 25.6207 23.2415 25.2708 23.6026C24.9208 23.9637 24.6431 24.3927 24.4537 24.865C24.2642 25.3373 24.1667 25.8436 24.1667 26.355V28.96C24.1667 29.991 24.5626 30.9798 25.2673 31.7089C25.9721 32.4379 26.9279 32.8475 27.9246 32.8475H37.9683C38.9649 32.8475 39.9208 33.2571 40.6255 33.9861C41.3303 34.7152 41.7262 35.704 41.7262 36.735V40.535C41.7262 41.0458 41.8236 41.5516 42.0126 42.0234C42.2017 42.4953 42.4789 42.924 42.8282 43.285L44.8413 45.3675C41.0269 49.5873 35.7846 52.1201 30.2083 52.4375Z" fill="#6E0033"/>
</g>
<defs>
<clipPath id="clip0_725_3339">
<rect width="58" height="60" fill="white"/>
</clipPath>
</defs>
</svg>
