<svg width="66" height="66" viewBox="0 0 66 66" fill="none" xmlns="http://www.w3.org/2000/svg">
<path d="M66 33C66 51.2254 51.2254 66 33 66C14.7746 66 0 51.2254 0 33C0 14.7746 14.7746 0 33 0C51.2254 0 66 14.7746 66 33Z" fill="#6E0033"/>
<g clip-path="url(#clip0_732_3109)">
<path d="M50.8598 15.1409C49.5987 13.9358 47.9215 13.2633 46.1771 13.2633C44.4328 13.2633 42.7556 13.9358 41.4944 15.1409L15.8584 40.7769C15.0134 41.6172 14.3434 42.6167 13.8872 43.7176C13.4309 44.8184 13.1974 45.9988 13.2002 47.1905V50.3255C13.2002 50.9819 13.461 51.6114 13.9251 52.0756C14.3893 52.5397 15.0188 52.8005 15.6752 52.8005H18.8102C20.0024 52.8037 21.1834 52.5704 22.2849 52.1141C23.3863 51.6579 24.3864 50.9877 25.2271 50.1423L50.8598 24.5063C52.0999 23.2634 52.7964 21.5793 52.7964 19.8236C52.7964 18.0678 52.0999 16.3837 50.8598 15.1409ZM21.7241 46.6427C20.9493 47.4125 19.9025 47.8464 18.8102 47.8505H18.1502V47.1905C18.1536 46.0971 18.5875 45.049 19.358 44.2733L38.4452 25.191L40.8097 27.5555L21.7241 46.6427ZM47.3552 21.0066L44.3093 24.0575L41.9432 21.6914L44.9957 18.6455C45.3141 18.3412 45.7375 18.1714 46.1779 18.1714C46.6183 18.1714 47.0418 18.3412 47.3602 18.6455C47.6714 18.9599 47.8455 19.3847 47.8446 19.8271C47.8436 20.2694 47.6677 20.6935 47.3552 21.0066Z" fill="#F5ECF1"/>
</g>
<defs>
<clipPath id="clip0_732_3109">
<rect width="39.6" height="39.6" fill="white" transform="translate(13.2002 13.2004)"/>
</clipPath>
</defs>
</svg>
