<svg width="60" height="67" viewBox="0 0 60 67" fill="none" xmlns="http://www.w3.org/2000/svg">
<g clip-path="url(#clip0_730_2947)">
<path d="M46.1766 5.57936H44.9286V4.18452C44.9286 3.07472 44.5341 2.01037 43.832 1.22562C43.1298 0.440868 42.1775 0 41.1845 0V0C40.1915 0 39.2392 0.440868 38.5371 1.22562C37.8349 2.01037 37.4405 3.07472 37.4405 4.18452V5.57936H22.4643V4.18452C22.4643 3.07472 22.0698 2.01037 21.3677 1.22562C20.6655 0.440868 19.7132 0 18.7202 0V0C17.7273 0 16.7749 0.440868 16.0728 1.22562C15.3707 2.01037 14.9762 3.07472 14.9762 4.18452V5.57936H13.7282C10.0872 5.57936 6.59542 7.19588 4.02089 10.0733C1.44636 12.9507 0 16.8533 0 20.9226L0 51.6091C0 55.6784 1.44636 59.581 4.02089 62.4584C6.59542 65.3359 10.0872 66.9524 13.7282 66.9524H46.1766C49.8175 66.9524 53.3093 65.3359 55.8839 62.4584C58.4584 59.581 59.9048 55.6784 59.9048 51.6091V20.9226C59.9048 16.8533 58.4584 12.9507 55.8839 10.0733C53.3093 7.19588 49.8175 5.57936 46.1766 5.57936ZM46.1766 58.5833H13.7282C12.0732 58.5833 10.486 57.8485 9.31577 56.5406C8.14553 55.2327 7.4881 53.4588 7.4881 51.6091V27.8968H52.4167V51.6091C52.4167 53.4588 51.7592 55.2327 50.589 56.5406C49.4187 57.8485 47.8316 58.5833 46.1766 58.5833Z" fill="#6E0033"/>
</g>
<defs>
<clipPath id="clip0_730_2947">
<rect width="59.9048" height="66.9524" fill="white"/>
</clipPath>
</defs>
</svg>
