<svg width="61" height="61" viewBox="0 0 61 61" fill="none" xmlns="http://www.w3.org/2000/svg">
<g clip-path="url(#clip0_733_3157)">
<path d="M57.3377 27.9593C56.8361 27.9313 56.3339 28.0035 55.8606 28.1718C55.3872 28.3402 54.9522 28.6011 54.5809 28.9396C54.2095 29.278 53.9094 29.687 53.6981 30.1428C53.4867 30.5985 53.3683 31.0919 53.3498 31.5939C53.1182 36.7758 51.1376 41.7264 47.7309 45.638C44.3242 49.5495 39.6926 52.1913 34.5916 53.1324C29.4906 54.0735 24.2213 53.2583 19.6431 50.8198C15.0649 48.3813 11.4481 44.4634 9.38274 39.7053C7.31734 34.9471 6.92521 29.6295 8.27031 24.6198C9.61542 19.6102 12.6184 15.2042 16.7893 12.1205C20.9603 9.03683 26.0531 7.4575 31.2369 7.64014C36.4208 7.82278 41.3898 9.75661 45.3334 13.1262L42.4639 15.9957C42.1085 16.3512 41.8665 16.804 41.7685 17.297C41.6705 17.7899 41.7208 18.3009 41.9132 18.7653C42.1055 19.2296 42.4312 19.6265 42.849 19.9058C43.2669 20.1851 43.7582 20.3342 44.2608 20.3343H55.9169C56.591 20.3343 57.2375 20.0666 57.7141 19.5899C58.1908 19.1132 58.4586 18.4668 58.4586 17.7927V6.13659C58.4585 5.63398 58.3094 5.14268 58.0301 4.7248C57.7508 4.30692 57.3539 3.98124 56.8895 3.78891C56.4251 3.59658 55.9142 3.54625 55.4212 3.64427C54.9282 3.7423 54.4754 3.98428 54.12 4.33963L50.7268 7.73276C45.555 3.15473 38.9808 0.470376 32.0827 0.120087C25.1846 -0.230202 18.3723 1.77437 12.7633 5.80495C7.15437 9.83552 3.0818 15.6528 1.21377 22.3023C-0.654257 28.9519 -0.206828 36.0389 2.48266 42.4007C5.17215 48.7625 9.94398 54.0214 16.0153 57.3145C22.0867 60.6077 29.097 61.7396 35.8963 60.5245C42.6955 59.3095 48.8799 55.8196 53.4349 50.6275C57.9899 45.4354 60.645 38.8493 60.9647 31.9498C60.9886 31.4496 60.9138 30.9496 60.7444 30.4783C60.5751 30.0071 60.3146 29.5738 59.9778 29.2032C59.641 28.8327 59.2345 28.5321 58.7815 28.3187C58.3285 28.1052 57.8379 27.9831 57.3377 27.9593Z" fill="#6E0033"/>
<path d="M29.2285 17.7901C28.2174 17.7901 27.2477 18.1918 26.5327 18.9068C25.8177 19.6217 25.416 20.5915 25.416 21.6026V32.514C25.4163 33.862 25.9521 35.1548 26.9054 36.1079L31.4626 40.6651C32.1817 41.3595 33.1447 41.7438 34.1443 41.7351C35.144 41.7264 36.1002 41.3255 36.8071 40.6186C37.5139 39.9118 37.9149 38.9555 37.9236 37.9559C37.9323 36.9563 37.548 35.9932 36.8535 35.2742L33.041 31.4617V21.6026C33.041 20.5915 32.6393 19.6217 31.9244 18.9068C31.2094 18.1918 30.2396 17.7901 29.2285 17.7901Z" fill="#6E0033"/>
</g>
<defs>
<clipPath id="clip0_733_3157">
<rect width="61" height="61" fill="white"/>
</clipPath>
</defs>
</svg>
