<svg width="58" height="58" viewBox="0 0 58 58" fill="none" xmlns="http://www.w3.org/2000/svg">
<g clip-path="url(#clip0_725_3350)">
<path d="M44.7083 0H13.2917C9.76768 0.00383808 6.38912 1.40544 3.89728 3.89728C1.40544 6.38912 0.00383808 9.76768 0 13.2917L0 44.7083C0.00383808 48.2323 1.40544 51.6109 3.89728 54.1027C6.38912 56.5946 9.76768 57.9962 13.2917 58H44.7083C48.2323 57.9962 51.6109 56.5946 54.1027 54.1027C56.5946 51.6109 57.9962 48.2323 58 44.7083V13.2917C57.9962 9.76768 56.5946 6.38912 54.1027 3.89728C51.6109 1.40544 48.2323 0.00383808 44.7083 0V0ZM50.75 44.7083C50.75 46.3107 50.1135 47.8474 48.9804 48.9804C47.8474 50.1135 46.3107 50.75 44.7083 50.75H43.5V48.3333C43.5 44.4877 41.9723 40.7996 39.2531 38.0803C36.5338 35.361 32.8456 33.8333 29 33.8333C25.1544 33.8333 21.4662 35.361 18.747 38.0803C16.0277 40.7996 14.5 44.4877 14.5 48.3333V50.75H13.2917C11.6893 50.75 10.1526 50.1135 9.01956 48.9804C7.88653 47.8474 7.25 46.3107 7.25 44.7083V13.2917C7.25 11.6893 7.88653 10.1526 9.01956 9.01956C10.1526 7.88653 11.6893 7.25 13.2917 7.25H44.7083C46.3107 7.25 47.8474 7.88653 48.9804 9.01956C50.1135 10.1526 50.75 11.6893 50.75 13.2917V44.7083Z" fill="#6E0033"/>
<path d="M28.9998 28.9992C33.6712 28.9992 37.4582 25.2123 37.4582 20.5409C37.4582 15.8695 33.6712 12.0826 28.9998 12.0826C24.3284 12.0826 20.5415 15.8695 20.5415 20.5409C20.5415 25.2123 24.3284 28.9992 28.9998 28.9992Z" fill="#6E0033"/>
</g>
<defs>
<clipPath id="clip0_725_3350">
<rect width="58" height="58" fill="white"/>
</clipPath>
</defs>
</svg>
