<svg width="67" height="67" viewBox="0 0 67 67" fill="none" xmlns="http://www.w3.org/2000/svg">
<g clip-path="url(#clip0_730_2945)">
<path d="M57.1885 17.296H50.2143V16.7381C50.2143 12.2989 48.4508 8.04148 45.3118 4.90247C42.1728 1.76347 37.9154 0 33.4762 0C29.037 0 24.7796 1.76347 21.6406 4.90247C18.5016 8.04148 16.7381 12.2989 16.7381 16.7381V17.296H9.76389C7.18401 17.3272 4.71857 18.3658 2.89419 20.1902C1.06981 22.0146 0.0311255 24.48 0 27.0599L0 51.6091C0.0356805 55.6674 1.66365 59.5493 4.53337 62.419C7.40309 65.2887 11.285 66.9167 15.3433 66.9524H51.6091C55.6674 66.9167 59.5493 65.2887 62.419 62.419C65.2887 59.5493 66.9167 55.6674 66.9524 51.6091V27.0599C66.9212 24.48 65.8826 22.0146 64.0582 20.1902C62.2338 18.3658 59.7684 17.3272 57.1885 17.296ZM25.1071 16.7381C25.1071 14.5185 25.9889 12.3898 27.5584 10.8203C29.1279 9.25078 31.2566 8.36905 33.4762 8.36905C35.6958 8.36905 37.8245 9.25078 39.394 10.8203C40.9635 12.3898 41.8452 14.5185 41.8452 16.7381V17.296H25.1071V16.7381ZM58.5833 51.6091C58.5923 52.5275 58.418 53.4384 58.0707 54.2886C57.7234 55.1388 57.21 55.9112 56.5606 56.5606C55.9112 57.21 55.1388 57.7234 54.2886 58.0707C53.4384 58.418 52.5275 58.5923 51.6091 58.5833H15.3433C14.4249 58.5923 13.514 58.418 12.6638 58.0707C11.8136 57.7234 11.0412 57.21 10.3918 56.5606C9.7424 55.9112 9.22902 55.1388 8.88171 54.2886C8.53439 53.4384 8.3601 52.5275 8.36905 51.6091V27.0599C8.35763 26.8738 8.38589 26.6873 8.45195 26.5129C8.51801 26.3385 8.62037 26.1801 8.75224 26.0483C8.88411 25.9164 9.04249 25.814 9.2169 25.748C9.3913 25.6819 9.57774 25.6537 9.76389 25.6651H16.7381V29.2917C16.7381 30.4015 17.179 31.4658 17.9637 32.2506C18.7485 33.0353 19.8128 33.4762 20.9226 33.4762C22.0324 33.4762 23.0968 33.0353 23.8815 32.2506C24.6663 31.4658 25.1071 30.4015 25.1071 29.2917V25.6651H41.8452V29.2917C41.8452 30.4015 42.2861 31.4658 43.0709 32.2506C43.8556 33.0353 44.92 33.4762 46.0298 33.4762C47.1396 33.4762 48.2039 33.0353 48.9887 32.2506C49.7734 31.4658 50.2143 30.4015 50.2143 29.2917V25.6651H57.1885C57.3746 25.6537 57.5611 25.6819 57.7355 25.748C57.9099 25.814 58.0683 25.9164 58.2001 26.0483C58.332 26.1801 58.4344 26.3385 58.5004 26.5129C58.5665 26.6873 58.5947 26.8738 58.5833 27.0599V51.6091Z" fill="#6E0033"/>
</g>
<defs>
<clipPath id="clip0_730_2945">
<rect width="66.9524" height="66.9524" fill="white"/>
</clipPath>
</defs>
</svg>
