<svg width="49" height="58" viewBox="0 0 49 58" fill="none" xmlns="http://www.w3.org/2000/svg">
<path d="M41.5411 1.83183C40.7704 0.951257 39.7988 0.356301 38.7458 0.120151C37.6928 -0.115998 36.6045 0.0169588 35.6146 0.502667C34.7315 0.965516 33.9837 1.72638 33.4649 2.68983C32.9461 3.65329 32.6794 4.77643 32.6983 5.91842V54.375C32.6983 55.3364 33.0213 56.2584 33.5962 56.9383C34.171 57.6181 34.9508 58 35.7638 58C36.5768 58 37.3565 57.6181 37.9314 56.9383C38.5063 56.2584 38.8292 55.3364 38.8292 54.375V48.3744C51.3241 37.178 52.399 14.1496 41.5411 1.83183ZM38.8292 38.048V9.048C43.92 16.037 44.3716 30.7448 38.8292 38.048ZM26.5674 3.625V18.125C26.5622 21.6574 25.5512 25.0849 23.6975 27.8548C21.8437 30.6248 19.2552 32.5758 16.3492 33.3935V54.375C16.3492 55.3364 16.0262 56.2584 15.4513 56.9383C14.8764 57.6181 14.0967 58 13.2837 58C12.4707 58 11.691 57.6181 11.1161 56.9383C10.5412 56.2584 10.2182 55.3364 10.2182 54.375V33.3935C7.31217 32.5758 4.72364 30.6248 2.86989 27.8548C1.01614 25.0849 0.00518798 21.6574 0 18.125L0 3.625C0 2.66359 0.322968 1.74156 0.897854 1.06174C1.47274 0.381919 2.25245 0 3.06547 0C3.87848 0 4.65819 0.381919 5.23308 1.06174C5.80796 1.74156 6.13093 2.66359 6.13093 3.625V18.125C6.13605 19.7202 6.52253 21.2811 7.24574 22.6276C7.96895 23.9742 8.99942 25.0514 10.2182 25.7351V3.625C10.2182 2.66359 10.5412 1.74156 11.1161 1.06174C11.691 0.381919 12.4707 0 13.2837 0C14.0967 0 14.8764 0.381919 15.4513 1.06174C16.0262 1.74156 16.3492 2.66359 16.3492 3.625V25.7351C17.5679 25.0514 18.5984 23.9742 19.3216 22.6276C20.0448 21.2811 20.4313 19.7202 20.4364 18.125V3.625C20.4364 2.66359 20.7594 1.74156 21.3343 1.06174C21.9092 0.381919 22.6889 0 23.5019 0C24.3149 0 25.0946 0.381919 25.6695 1.06174C26.2444 1.74156 26.5674 2.66359 26.5674 3.625Z" fill="#6E0033"/>
</svg>
