<svg width="63" height="34" viewBox="0 0 63 34" fill="none" xmlns="http://www.w3.org/2000/svg">
<g clip-path="url(#clip0_725_3367)">
<path d="M45.4663 33.3449C47.7126 33.3867 49.9438 32.9767 52.0213 32.1402C54.0988 31.3038 55.9783 30.0588 57.5433 28.4825C59.1554 26.9524 60.4287 25.1146 61.2841 23.0832C62.1396 21.0519 62.5589 18.8703 62.5161 16.6739C62.5589 14.4775 62.1396 12.2959 61.2841 10.2645C60.4287 8.23319 59.1554 6.39542 57.5433 4.86528C55.9783 3.28899 54.0988 2.04399 52.0213 1.20756C49.9438 0.371117 47.7126 -0.0389149 45.4663 0.00290548H17.0498C14.8035 -0.0389149 12.5723 0.371117 10.4948 1.20756C8.4173 2.04399 6.53775 3.28899 4.97284 4.86528C3.36073 6.39542 2.08744 8.23319 1.23199 10.2645C0.376541 12.2959 -0.0428085 14.4775 -3.8147e-05 16.6739C-0.0428085 18.8703 0.376541 21.0519 1.23199 23.0832C2.08744 25.1146 3.36073 26.9524 4.97284 28.4825C6.53775 30.0588 8.4173 31.3038 10.4948 32.1402C12.5723 32.9767 14.8035 33.3867 17.0498 33.3449H45.4663ZM45.4663 27.7879H17.0498C15.5539 27.8078 14.0696 27.5299 12.687 26.971C11.3045 26.4121 10.0527 25.584 9.00797 24.537C7.9372 23.5155 7.09024 22.2916 6.51867 20.9397C5.94709 19.5879 5.66285 18.1365 5.68325 16.6739C5.66005 15.215 5.94312 13.7669 6.51498 12.4192C7.08683 11.0715 7.93531 9.85287 9.00797 8.83853C10.0472 7.78256 11.2973 6.94666 12.6807 6.38267C14.0641 5.81868 15.5512 5.53863 17.0498 5.5599H45.4663C46.9611 5.53579 48.4449 5.81466 49.824 6.37893C51.2032 6.94321 52.4479 7.78066 53.4797 8.83853C54.5616 9.84741 55.4181 11.0644 55.9952 12.413C56.5723 13.7615 56.8575 15.2123 56.8329 16.6739C56.8546 18.1392 56.5682 19.5933 55.9914 20.9459C55.4146 22.2985 54.5597 23.5209 53.4797 24.537C52.4423 25.5859 51.1959 26.4155 49.8176 26.9746C48.4393 27.5338 46.9583 27.8106 45.4663 27.7879ZM17.0498 25.0094C14.7889 25.0094 12.6205 24.1312 11.0218 22.568C9.42305 21.0048 8.52489 18.8846 8.52489 16.6739C8.52489 14.4632 9.42305 12.343 11.0218 10.7798C12.6205 9.2166 14.7889 8.3384 17.0498 8.3384C18.1722 8.31702 19.287 8.52324 20.3238 8.94407C21.3607 9.36489 22.2971 9.99119 23.0741 10.7835C23.8844 11.5432 24.5249 12.4588 24.9553 13.4726C25.3857 14.4864 25.5966 15.5764 25.5748 16.6739C25.5937 17.7751 25.3816 18.8684 24.9515 19.8863C24.5214 20.9042 23.8825 21.8251 23.0741 22.5921C22.2916 23.3753 21.3535 23.9938 20.3175 24.4095C19.2815 24.8252 18.1695 25.0294 17.0498 25.0094Z" fill="#A5A5A5"/>
</g>
<defs>
<clipPath id="clip0_725_3367">
<rect width="62.5162" height="33.342" fill="white" transform="matrix(-1 0 0 1 62.5162 0)"/>
</clipPath>
</defs>
</svg>
