<svg width="63" height="34" viewBox="0 0 63 34" fill="none" xmlns="http://www.w3.org/2000/svg">
<g clip-path="url(#clip0_725_3364)">
<path d="M17.0499 33.3449C14.8036 33.3867 12.5724 32.9767 10.4949 32.1402C8.41738 31.3038 6.53784 30.0588 4.97292 28.4825C3.36081 26.9524 2.08752 25.1146 1.23207 23.0832C0.376622 21.0519 -0.042729 18.8703 4.18299e-05 16.6739C-0.042729 14.4775 0.376622 12.2959 1.23207 10.2645C2.08752 8.23319 3.36081 6.39542 4.97292 4.86528C6.53784 3.28899 8.41738 2.04399 10.4949 1.20756C12.5724 0.371117 14.8036 -0.0389149 17.0499 0.00290548H45.4664C47.7127 -0.0389149 49.9439 0.371117 52.0214 1.20756C54.0989 2.04399 55.9784 3.28899 57.5433 4.86528C59.1555 6.39542 60.4287 8.23319 61.2842 10.2645C62.1396 12.2959 62.559 14.4775 62.5162 16.6739C62.559 18.8703 62.1396 21.0519 61.2842 23.0832C60.4287 25.1146 59.1555 26.9524 57.5433 28.4825C55.9784 30.0588 54.0989 31.3038 52.0214 32.1402C49.9439 32.9767 47.7127 33.3867 45.4664 33.3449H17.0499ZM17.0499 27.7879H45.4664C46.9622 27.8078 48.4466 27.5299 49.8292 26.971C51.2117 26.4121 52.4634 25.584 53.5082 24.537C54.579 23.5155 55.4259 22.2916 55.9975 20.9397C56.5691 19.5879 56.8533 18.1365 56.8329 16.6739C56.8561 15.215 56.5731 13.7669 56.0012 12.4192C55.4294 11.0715 54.5809 9.85287 53.5082 8.83853C52.4689 7.78256 51.2189 6.94666 49.8355 6.38267C48.4521 5.81868 46.965 5.53863 45.4664 5.5599H17.0499C15.5551 5.53579 14.0713 5.81466 12.6922 6.37893C11.313 6.94321 10.0683 7.78066 9.03647 8.83853C7.95456 9.84741 7.09808 11.0644 6.52098 12.413C5.94388 13.7615 5.65867 15.2123 5.68333 16.6739C5.66158 18.1392 5.94799 19.5933 6.5248 20.9459C7.10161 22.2985 7.95651 23.5209 9.03647 24.537C10.0739 25.5859 11.3202 26.4155 12.6986 26.9746C14.0769 27.5338 15.5578 27.8106 17.0499 27.7879ZM45.4664 25.0094C47.7273 25.0094 49.8957 24.1312 51.4944 22.568C53.0931 21.0048 53.9913 18.8846 53.9913 16.6739C53.9913 14.4632 53.0931 12.343 51.4944 10.7798C49.8957 9.2166 47.7273 8.3384 45.4664 8.3384C44.3439 8.31702 43.2292 8.52324 42.1923 8.94407C41.1555 9.36489 40.2191 9.99119 39.4421 10.7835C38.6318 11.5432 37.9912 12.4588 37.5609 13.4726C37.1305 14.4864 36.9196 15.5764 36.9414 16.6739C36.9225 17.7751 37.1346 18.8684 37.5647 19.8863C37.9948 20.9042 38.6337 21.8251 39.4421 22.5921C40.2246 23.3753 41.1627 23.9938 42.1987 24.4095C43.2347 24.8252 44.3467 25.0294 45.4664 25.0094Z" fill="#6E0033"/>
</g>
<defs>
<clipPath id="clip0_725_3364">
<rect width="62.5162" height="33.342" fill="white"/>
</clipPath>
</defs>
</svg>
