<svg width="61" height="61" viewBox="0 0 61 61" fill="none" xmlns="http://www.w3.org/2000/svg">
<g clip-path="url(#clip0_725_3338)">
<path d="M13.9792 0H8.89583C6.53651 0 4.27382 0.937237 2.60553 2.60553C0.937237 4.27382 0 6.53651 0 8.89583L0 13.9792C0.00576508 16.1084 0.776324 18.1646 2.17126 19.7732C3.5662 21.3818 5.49265 22.4357 7.59958 22.7428V24.128C7.59485 25.1379 7.99095 26.1083 8.70095 26.8264C9.41095 27.5445 10.3769 27.9516 11.3867 27.9583C11.8875 27.961 12.384 27.865 12.8478 27.6757C13.3115 27.4864 13.7334 27.2076 14.0894 26.8552C14.4453 26.5028 14.7283 26.0837 14.9223 25.6218C15.1162 25.16 15.2172 24.6645 15.2195 24.1636V22.7479C17.1118 22.4807 18.8669 21.6085 20.2228 20.2618C21.5788 18.915 22.4627 17.1659 22.7428 15.2754H24.1255C25.1358 15.2808 26.1069 14.885 26.8255 14.175C27.5442 13.4649 27.9516 12.4986 27.9583 11.4883C27.961 10.9877 27.865 10.4914 27.6759 10.0278C27.4868 9.56422 27.2082 9.14243 26.8561 8.78652C26.5039 8.4306 26.0851 8.14754 25.6236 7.95348C25.1621 7.75942 24.6668 7.65816 24.1662 7.6555H22.7479C22.4529 5.53752 21.4036 3.59711 19.7927 2.19074C18.1818 0.784367 16.1176 0.00648528 13.9792 0V0ZM15.25 13.9792C15.25 14.3162 15.1161 14.6395 14.8778 14.8778C14.6395 15.1161 14.3162 15.25 13.9792 15.25H8.89583C8.55879 15.25 8.23555 15.1161 7.99722 14.8778C7.75889 14.6395 7.625 14.3162 7.625 13.9792V8.89583C7.625 8.55879 7.75889 8.23555 7.99722 7.99722C8.23555 7.75889 8.55879 7.625 8.89583 7.625H13.9792C14.3162 7.625 14.6395 7.75889 14.8778 7.99722C15.1161 8.23555 15.25 8.55879 15.25 8.89583V13.9792Z" fill="#6E0033"/>
<path d="M52.1041 -3.05176e-05H47.0207C44.8915 0.00573456 42.8353 0.776293 41.2267 2.17123C39.6181 3.56617 38.5642 5.49262 38.2571 7.59955H36.8744C35.8641 7.59414 34.893 7.98994 34.1744 8.70002C33.4557 9.41009 33.0483 10.3764 33.0416 11.3866C33.0389 11.8873 33.1348 12.3836 33.324 12.8472C33.5131 13.3108 33.7917 13.7325 34.1438 14.0885C34.496 14.4444 34.9147 14.7274 35.3763 14.9215C35.8378 15.1156 36.3331 15.2168 36.8337 15.2195H38.252C38.5202 17.1109 39.3928 18.8648 40.7395 20.2197C42.0861 21.5747 43.8348 22.4579 45.7245 22.7377V24.1229C45.7184 25.1336 46.1139 26.1054 46.824 26.8246C47.5342 27.5438 48.5009 27.9516 49.5116 27.9583C50.0124 27.961 50.5089 27.8649 50.9727 27.6756C51.4364 27.4864 51.8583 27.2075 52.2143 26.8551C52.5702 26.5027 52.8532 26.0836 53.0471 25.6218C53.2411 25.16 53.3421 24.6645 53.3444 24.1636V22.7479C55.4624 22.4529 57.4028 21.4036 58.8092 19.7927C60.2155 18.1818 60.9934 16.1175 60.9999 13.9791V8.8958C60.9999 6.53648 60.0627 4.27379 58.3944 2.6055C56.7261 0.937206 54.4634 -3.05176e-05 52.1041 -3.05176e-05ZM53.3749 13.9791C53.3749 14.3162 53.241 14.6394 53.0027 14.8778C52.7643 15.1161 52.4411 15.25 52.1041 15.25H47.0207C46.6837 15.25 46.3604 15.1161 46.1221 14.8778C45.8838 14.6394 45.7499 14.3162 45.7499 13.9791V8.8958C45.7499 8.55876 45.8838 8.23552 46.1221 7.99719C46.3604 7.75886 46.6837 7.62497 47.0207 7.62497H52.1041C52.4411 7.62497 52.7643 7.75886 53.0027 7.99719C53.241 8.23552 53.3749 8.55876 53.3749 8.8958V13.9791Z" fill="#6E0033"/>
<path d="M53.4003 38.2593V36.874C53.405 35.8642 53.0089 34.8938 52.2989 34.1757C51.5889 33.4576 50.623 33.0505 49.6132 33.0438C49.1123 33.0411 48.6158 33.1371 48.1521 33.3264C47.6884 33.5157 47.2665 33.7945 46.9105 34.1469C46.5546 34.4993 46.2716 34.9184 46.0776 35.3802C45.8837 35.8421 45.7827 36.3376 45.7804 36.8385V38.2542C43.8895 38.523 42.1361 39.3957 40.7816 40.7424C39.4272 42.089 38.5444 43.8373 38.2647 45.7267H36.882C36.3811 45.723 35.8844 45.818 35.4203 46.0064C34.9562 46.1948 34.5337 46.4727 34.1771 46.8244C33.8204 47.1761 33.5365 47.5947 33.3417 48.0561C33.1469 48.5176 33.0449 49.0129 33.0416 49.5138C33.0389 50.0144 33.1348 50.5107 33.324 50.9743C33.5131 51.4379 33.7917 51.8597 34.1438 52.2156C34.496 52.5715 34.9147 52.8546 35.3763 53.0486C35.8378 53.2427 36.3331 53.3439 36.8337 53.3466H38.252C38.547 55.4646 39.5963 57.405 41.2072 58.8113C42.8181 60.2177 44.8823 60.9956 47.0207 61.0021H52.1041C54.4634 61.0021 56.7261 60.0649 58.3944 58.3966C60.0627 56.7283 60.9999 54.4656 60.9999 52.1063V47.0229C60.9941 44.8937 60.2236 42.8375 58.8286 41.2289C57.4337 39.6203 55.5072 38.5664 53.4003 38.2593ZM53.3749 52.1063C53.3749 52.4433 53.241 52.7665 53.0027 53.0049C52.7643 53.2432 52.4411 53.3771 52.1041 53.3771H47.0207C46.6837 53.3771 46.3604 53.2432 46.1221 53.0049C45.8838 52.7665 45.7499 52.4433 45.7499 52.1063V47.0229C45.7499 46.6859 45.8838 46.3626 46.1221 46.1243C46.3604 45.886 46.6837 45.7521 47.0207 45.7521H52.1041C52.4411 45.7521 52.7643 45.886 53.0027 46.1243C53.241 46.3626 53.3749 46.6859 53.3749 47.0229V52.1063Z" fill="#6E0033"/>
<path d="M15.2754 38.2593V36.874C15.2802 35.8642 14.8841 34.8938 14.1741 34.1757C13.464 33.4576 12.4981 33.0505 11.4883 33.0438C10.9875 33.0411 10.491 33.1371 10.0272 33.3264C9.56347 33.5157 9.14157 33.7945 8.78562 34.1469C8.42968 34.4993 8.14666 34.9184 7.95275 35.3802C7.75884 35.8421 7.65783 36.3376 7.6555 36.8385V38.2542C5.53752 38.5492 3.59711 39.5985 2.19074 41.2094C0.784367 42.8203 0.00648528 44.8845 0 47.0229L0 52.1063C0 54.4656 0.937237 56.7283 2.60553 58.3966C4.27382 60.0649 6.53651 61.0021 8.89583 61.0021H13.9792C16.1084 60.9963 18.1646 60.2258 19.7732 58.8308C21.3818 57.4359 22.4357 55.5094 22.7428 53.4025H24.1255C25.1358 53.4079 26.1069 53.0121 26.8255 52.302C27.5442 51.592 27.9516 50.6257 27.9583 49.6154C27.961 49.1148 27.865 48.6185 27.6759 48.1549C27.4868 47.6913 27.2082 47.2695 26.8561 46.9136C26.5039 46.5577 26.0851 46.2746 25.6236 46.0806C25.1621 45.8865 24.6668 45.7853 24.1662 45.7826H22.7479C22.4807 43.8903 21.6085 42.1352 20.2618 40.7792C18.915 39.4233 17.1659 38.5393 15.2754 38.2593ZM15.25 52.1063C15.25 52.4433 15.1161 52.7665 14.8778 53.0049C14.6395 53.2432 14.3162 53.3771 13.9792 53.3771H8.89583C8.55879 53.3771 8.23555 53.2432 7.99722 53.0049C7.75889 52.7665 7.625 52.4433 7.625 52.1063V47.0229C7.625 46.6859 7.75889 46.3626 7.99722 46.1243C8.23555 45.886 8.55879 45.7521 8.89583 45.7521H13.9792C14.3162 45.7521 14.6395 45.886 14.8778 46.1243C15.1161 46.3626 15.25 46.6859 15.25 47.0229V52.1063Z" fill="#6E0033"/>
</g>
<defs>
<clipPath id="clip0_725_3338">
<rect width="61" height="61" fill="white"/>
</clipPath>
</defs>
</svg>
