<svg width="40" height="36" viewBox="0 0 40 36" fill="none" xmlns="http://www.w3.org/2000/svg">
<g opacity="0.41" clip-path="url(#clip0_730_2939)">
<path d="M27.1666 22.5115C27.6354 22.9333 28.2712 23.1703 28.9341 23.1703C29.597 23.1703 30.2328 22.9333 30.7016 22.5115L38.57 15.424C39.4856 14.5993 40 13.4812 40 12.3153C40 11.1494 39.4856 10.0312 38.57 9.20655L30.695 2.11906C30.2193 1.72996 29.5953 1.52071 28.9527 1.53479C28.3101 1.54886 27.6982 1.78517 27.2441 2.19463C26.79 2.6041 26.5286 3.15525 26.5141 3.73363C26.4997 4.31201 26.7334 4.87317 27.1666 5.30056L32.555 10.0511H8.86662C6.516 10.053 4.26226 10.8942 2.59996 12.39C0.937668 13.8858 0.00260162 15.914 -4.57764e-05 18.0295V28.051C0.00215912 30.166 0.936684 32.1939 2.5984 33.6894C4.26012 35.185 6.51326 36.026 8.86329 36.028H31.1366C31.7997 36.028 32.4355 35.791 32.9044 35.369C33.3732 34.9471 33.6366 34.3748 33.6366 33.778C33.6366 33.1813 33.3732 32.609 32.9044 32.187C32.4355 31.7651 31.7997 31.528 31.1366 31.528H8.86495C7.84045 31.5272 6.85814 31.1607 6.13355 30.5088C5.40896 29.857 5.00128 28.9731 4.99995 28.051V18.0295C5.00084 17.107 5.40855 16.2224 6.13355 15.5702C6.85855 14.918 7.84154 14.5514 8.86662 14.551H32.4633L27.1666 19.33C26.6979 19.752 26.4347 20.3242 26.4347 20.9208C26.4347 21.5174 26.6979 22.0896 27.1666 22.5115Z" fill="#6E0033"/>
</g>
<defs>
<clipPath id="clip0_730_2939">
<rect width="40" height="36" fill="white" transform="matrix(-1 0 0 1 40 0)"/>
</clipPath>
</defs>
</svg>
