<svg width="74" height="67" viewBox="0 0 74 67" fill="none" xmlns="http://www.w3.org/2000/svg">
<g clip-path="url(#clip0_731_3099)">
<path d="M22.9785 39.1318C9.83859 40.2072 -0.172199 50.2599 0.00224524 62.2042V62.81C0.00224524 65.1226 2.07288 66.9973 4.6271 66.9973C7.18132 66.9973 9.25196 65.1226 9.25196 62.81V62.0367C9.11292 54.703 15.0905 48.449 23.1265 47.5206C31.6092 46.759 39.1678 52.3677 40.009 60.048C40.0587 60.5021 40.0838 60.958 40.0843 61.4143V62.8101C40.0843 65.1227 42.1549 66.9975 44.7091 66.9975C47.2634 66.9975 49.334 65.1227 49.334 62.8101V61.4143C49.319 49.0664 38.251 39.0676 24.6131 39.0812C24.0677 39.0817 23.5225 39.0986 22.9785 39.1318Z" fill="#6E0033"/>
<path d="M24.6679 33.5005C34.8848 33.5005 43.1673 26.0014 43.1673 16.751C43.1673 7.50058 34.8848 0.00152588 24.6679 0.00152588C14.451 0.00152588 6.16846 7.50058 6.16846 16.751C6.17872 25.9976 14.4552 33.4912 24.6679 33.5005ZM24.6679 8.37626C29.7763 8.37626 33.9176 12.1258 33.9176 16.751C33.9176 21.3762 29.7763 25.1257 24.6679 25.1257C19.5594 25.1257 15.4182 21.3762 15.4182 16.751C15.4182 12.1258 19.5594 8.37626 24.6679 8.37626Z" fill="#6E0033"/>
<path d="M69.3757 27.9178H64.7509V23.7305C64.7509 21.4179 62.6802 19.5431 60.126 19.5431C57.5718 19.5431 55.5012 21.4179 55.5012 23.7305V27.9178H50.8763C48.3221 27.9178 46.2515 29.7926 46.2515 32.1052C46.2515 34.4178 48.3221 36.2925 50.8763 36.2925H55.5012V40.4799C55.5012 42.7925 57.5718 44.6673 60.126 44.6673C62.6802 44.6673 64.7509 42.7925 64.7509 40.4799V36.2925H69.3757C71.9299 36.2925 74.0006 34.4178 74.0006 32.1052C74.0006 29.7926 71.9299 27.9178 69.3757 27.9178Z" fill="#6E0033"/>
</g>
<defs>
<clipPath id="clip0_731_3099">
<rect width="74" height="67" fill="white"/>
</clipPath>
</defs>
</svg>
