<svg width="58" height="58" viewBox="0 0 58 58" fill="none" xmlns="http://www.w3.org/2000/svg">
<g clip-path="url(#clip0_725_3351)">
<path d="M39.8752 -3.05176e-05H20.5418C16.3773 0.00508563 12.3848 1.66171 9.44001 4.60648C6.49524 7.55126 4.83861 11.5438 4.8335 15.7083V47.125C4.83669 50.0082 5.98348 52.7725 8.02224 54.8112C10.061 56.85 12.8252 57.9968 15.7085 58H39.8752C43.399 57.9955 46.7771 56.5937 49.2688 54.102C51.7605 51.6103 53.1623 48.2321 53.1668 44.7083V13.2916C53.1623 9.76784 51.7605 6.38965 49.2688 3.89795C46.7771 1.40625 43.399 0.00444577 39.8752 -3.05176e-05V-3.05176e-05ZM19.3335 7.37322V36.25H15.7085C14.4708 36.2618 13.2444 36.4874 12.0835 36.917V15.7083C12.0892 13.6798 12.825 11.7212 14.1563 10.1907C15.4876 8.66013 17.3254 7.66001 19.3335 7.37322ZM45.9168 44.7083C45.9168 46.3107 45.2803 47.8474 44.1473 48.9804C43.0142 50.1134 41.4775 50.75 39.8752 50.75H15.7085C14.7471 50.75 13.8251 50.368 13.1452 49.6882C12.4654 49.0084 12.0835 48.0864 12.0835 47.125C12.0835 46.1636 12.4654 45.2415 13.1452 44.5617C13.8251 43.8819 14.7471 43.5 15.7085 43.5H45.9168V44.7083ZM26.5835 36.25V7.24997H39.8752C41.4775 7.24997 43.0142 7.8865 44.1473 9.01953C45.2803 10.1526 45.9168 11.6893 45.9168 13.2916V36.25H26.5835Z" fill="#6E0033"/>
</g>
<defs>
<clipPath id="clip0_725_3351">
<rect width="58" height="58" fill="white"/>
</clipPath>
</defs>
</svg>
