<svg width="67" height="67" viewBox="0 0 67 67" fill="none" xmlns="http://www.w3.org/2000/svg">
<g clip-path="url(#clip0_730_2946)">
<path d="M44.6349 7.67163C44.6349 13.7057 36.768 21.2044 32.8485 24.3483C32.2352 24.84 31.4726 25.108 30.6865 25.108C29.9004 25.108 29.1378 24.84 28.5245 24.3483C24.605 21.2016 16.7381 13.7057 16.7381 7.67163C16.6501 5.73062 17.3345 3.83378 18.6415 2.39607C19.9485 0.95837 21.7717 0.0968535 23.7123 0C25.6529 0.0968535 27.4761 0.95837 28.7831 2.39607C30.0901 3.83378 30.7745 5.73062 30.6865 7.67163C30.5985 5.73062 31.2829 3.83378 32.5899 2.39607C33.8969 0.95837 35.7201 0.0968535 37.6607 0C39.6013 0.0968535 41.4245 0.95837 42.7315 2.39607C44.0385 3.83378 44.7229 5.73062 44.6349 7.67163ZM49.7066 56.9402L64.2129 40.3611C66.1366 38.2266 67.1335 35.4153 66.9844 32.5458C66.8353 29.6762 65.5524 26.9834 63.4179 25.0597C61.2833 23.1361 58.4721 22.1391 55.6025 22.2882C52.7329 22.4373 50.0401 23.7203 48.1164 25.8548L41.3152 33.3283C39.4446 31.6233 37.0032 30.6807 34.4721 30.6865H12.5536C9.22529 30.6902 6.03439 32.014 3.68093 34.3674C1.32748 36.7209 0.00369194 39.9118 0 43.2401L0 54.3988C0.00369194 57.7271 1.32748 60.918 3.68093 63.2714C6.03439 65.6249 9.22529 66.9487 12.5536 66.9524H27.6569C31.8336 66.952 35.9619 66.0584 39.7648 64.3316C43.5678 62.6048 46.9575 60.0846 49.7066 56.9402ZM34.4721 39.0556C34.927 39.0523 35.3661 39.2223 35.7002 39.5311C36.0344 39.8398 36.2385 40.2641 36.2712 40.7179C36.3038 41.1716 36.1626 41.6208 35.8761 41.9742C35.5897 42.3276 35.1794 42.5588 34.7288 42.6208L20.3312 44.6768C19.2325 44.8336 18.2411 45.4205 17.5751 46.3083C16.9091 47.1961 16.6231 48.3121 16.7799 49.4109C16.9368 50.5096 17.5237 51.501 18.4115 52.167C19.2993 52.8329 20.4153 53.119 21.514 52.9621L35.9144 50.9061C38.0983 50.583 40.119 49.5617 41.6743 47.9948C43.2296 46.4279 44.2359 44.3997 44.5429 42.2135L54.3067 31.4927C54.5244 31.2532 54.7872 31.0589 55.0801 30.9209C55.3729 30.783 55.6901 30.7041 56.0134 30.6889C56.3367 30.6736 56.6599 30.7222 56.9645 30.8319C57.269 30.9415 57.5489 31.1102 57.7883 31.3281C58.2692 31.7724 58.5552 32.3888 58.5839 33.0429C58.6127 33.697 58.3819 34.336 57.9417 34.8208L43.4186 51.4334C41.453 53.6799 39.0296 55.4801 36.3112 56.7133C33.5927 57.9465 30.642 58.5841 27.6569 58.5833H12.5536C11.4438 58.5833 10.3794 58.1425 9.59467 57.3577C8.80992 56.573 8.36905 55.5086 8.36905 54.3988V43.2401C8.36905 42.1303 8.80992 41.0659 9.59467 40.2812C10.3794 39.4964 11.4438 39.0556 12.5536 39.0556H34.4721Z" fill="#6E0033"/>
</g>
<defs>
<clipPath id="clip0_730_2946">
<rect width="66.9524" height="66.9524" fill="white"/>
</clipPath>
</defs>
</svg>
