<svg width="58" height="58" viewBox="0 0 58 58" fill="none" xmlns="http://www.w3.org/2000/svg">
<g clip-path="url(#clip0_725_3352)">
<path d="M50.75 36.25H43.5C41.5772 36.25 39.7331 37.0138 38.3735 38.3735C37.0138 39.7331 36.25 41.5772 36.25 43.5V50.75H10.875C9.91359 50.75 8.99156 50.3681 8.31174 49.6883C7.63192 49.0084 7.25 48.0864 7.25 47.125V10.875C7.25 9.91359 7.63192 8.99156 8.31174 8.31174C8.99156 7.63192 9.91359 7.25 10.875 7.25H35.0417C36.0031 7.25 36.9251 6.86808 37.6049 6.18826C38.2847 5.50844 38.6667 4.58641 38.6667 3.625C38.6667 2.66359 38.2847 1.74156 37.6049 1.06174C36.9251 0.381919 36.0031 0 35.0417 0L10.875 0C7.99077 0 5.22467 1.14576 3.18521 3.18521C1.14576 5.22467 0 7.99077 0 10.875L0 47.125C0 50.0092 1.14576 52.7753 3.18521 54.8148C5.22467 56.8542 7.99077 58 10.875 58H39.8388C42.7222 57.9994 45.4873 56.8537 47.5262 54.8148L54.8148 47.5262C56.8537 45.4873 57.9994 42.7222 58 39.8388V27.8062C58 26.8448 57.6181 25.9227 56.9383 25.2429C56.2584 24.5631 55.3364 24.1812 54.375 24.1812C53.4136 24.1812 52.4916 24.5631 51.8117 25.2429C51.1319 25.9227 50.75 26.8448 50.75 27.8062V36.25Z" fill="#6E0033"/>
<path d="M50.6605 2.41625C49.6933 2.44461 48.742 2.66915 47.8642 3.07627C46.9864 3.48338 46.2005 4.06457 45.5541 4.78458L25.8921 26.7593C28.0994 27.0812 30.174 28.01 31.8843 29.4421C33.5946 30.8741 34.8734 32.7532 35.5781 34.8697L55.8781 14.5697C57.2102 13.2345 57.9584 11.4255 57.9584 9.53938C57.9584 7.6533 57.2102 5.84424 55.8781 4.50908C55.1928 3.82878 54.3778 3.293 53.4816 2.9335C52.5853 2.574 51.626 2.39811 50.6605 2.41625Z" fill="#6E0033"/>
<path d="M22.4461 31.5782C16.8467 32.6561 14.0724 38.891 12.8689 42.777C12.7554 43.1393 12.7288 43.5231 12.7913 43.8975C12.8538 44.2719 13.0036 44.6263 13.2286 44.9321C13.4536 45.2378 13.7474 45.4862 14.0863 45.6572C14.4252 45.8282 14.7996 45.9169 15.1792 45.9163H24.1668C25.1748 45.9165 26.1718 45.7064 27.0941 45.2996C28.0163 44.8928 28.8436 44.2981 29.5232 43.5536C30.2027 42.809 30.7195 41.931 31.0405 40.9754C31.3616 40.0199 31.4798 39.0079 31.3878 38.0041C31.2593 36.9785 30.9205 35.9904 30.3925 35.1018C29.8645 34.2131 29.1587 33.4431 28.3193 32.8399C27.4799 32.2366 26.525 31.8132 25.5144 31.5961C24.5037 31.379 23.4592 31.3729 22.4461 31.5782Z" fill="#6E0033"/>
</g>
<defs>
<clipPath id="clip0_725_3352">
<rect width="58" height="58" fill="white"/>
</clipPath>
</defs>
</svg>
