<svg width="39" height="36" viewBox="0 0 39 36" fill="none" xmlns="http://www.w3.org/2000/svg">
<g clip-path="url(#clip0_730_2938)">
<path d="M12.5125 22.5115C12.0554 22.9333 11.4356 23.1703 10.7892 23.1703C10.1429 23.1703 9.52302 22.9333 9.06592 22.5115L1.39429 15.424C0.501508 14.5993 0 13.4812 0 12.3153C0 11.1494 0.501508 10.0312 1.39429 9.20655L9.07242 2.11906C9.53622 1.72996 10.1446 1.52071 10.7711 1.53479C11.3977 1.54886 11.9943 1.78517 12.437 2.19463C12.8798 2.6041 13.1347 3.15525 13.1487 3.73363C13.1628 4.31201 12.9349 4.87317 12.5125 5.30056L7.25892 10.0511H30.355C32.6469 10.053 34.8443 10.8942 36.465 12.39C38.0858 13.8858 38.9975 15.914 39 18.0295V28.051C38.9979 30.166 38.0867 32.1939 36.4666 33.6894C34.8464 35.185 32.6496 36.026 30.3583 36.028H8.64179C7.99533 36.028 7.37534 35.791 6.91822 35.369C6.4611 34.9471 6.20429 34.3748 6.20429 33.778C6.20429 33.1813 6.4611 32.609 6.91822 32.187C7.37534 31.7651 7.99533 31.528 8.64179 31.528H30.3567C31.3556 31.5272 32.3133 31.1607 33.0198 30.5088C33.7263 29.857 34.1238 28.9731 34.125 28.051V18.0295C34.1242 17.107 33.7267 16.2224 33.0198 15.5702C32.3129 14.918 31.3545 14.5514 30.355 14.551H7.34829L12.5125 19.33C12.9695 19.752 13.2262 20.3242 13.2262 20.9208C13.2262 21.5174 12.9695 22.0896 12.5125 22.5115Z" fill="#6E0033"/>
</g>
<defs>
<clipPath id="clip0_730_2938">
<rect width="39" height="36" fill="white"/>
</clipPath>
</defs>
</svg>
